<?xml version="1.0" encoding="utf-8" standalone="no"?>
<!DOCTYPE svg PUBLIC "-//W3C//DTD SVG 1.1//EN"
  "http://www.w3.org/Graphics/SVG/1.1/DTD/svg11.dtd">
<svg xmlns:xlink="http://www.w3.org/1999/xlink" width="859.68pt" height="714.24pt" viewBox="0 0 859.68 714.24" xmlns="http://www.w3.org/2000/svg" version="1.1">
 <metadata>
  <rdf:RDF xmlns:dc="http://purl.org/dc/elements/1.1/" xmlns:cc="http://creativecommons.org/ns#" xmlns:rdf="http://www.w3.org/1999/02/22-rdf-syntax-ns#">
   <cc:Work>
    <dc:type rdf:resource="http://purl.org/dc/dcmitype/StillImage"/>
    <dc:date>2026-02-12T17:32:24.801264</dc:date>
    <dc:format>image/svg+xml</dc:format>
    <dc:creator>
     <cc:Agent>
      <dc:title>Matplotlib v3.10.8, https://matplotlib.org/</dc:title>
     </cc:Agent>
    </dc:creator>
   </cc:Work>
  </rdf:RDF>
 </metadata>
 <defs>
  <style type="text/css">*{stroke-linejoin: round; stroke-linecap: butt}</style>
 </defs>
 <g id="figure_1">
  <g id="patch_1">
   <path d="M 0 714.24 
L 859.68 714.24 
L 859.68 0 
L 0 0 
z
" style="fill: #ffffff"/>
  </g>
  <g id="axes_1">
   <g id="patch_2">
    <path d="M 23.1768 398.64 
L 410.9832 398.64 
Q 423.36 398.64 423.36 389.8848 
L 423.36 115.5552 
Q 423.36 106.8 410.9832 106.8 
L 23.1768 106.8 
Q 10.8 106.8 10.8 115.5552 
L 10.8 389.8848 
Q 10.8 398.64 23.1768 398.64 
z
" clip-path="url(#pe1fcdc3fa0)" style="fill: #16a34a; fill-opacity: 0.031373; stroke: #16a34a; stroke-width: 3; stroke-linejoin: miter"/>
   </g>
   <g id="text_1">
    <!-- Initialization -->
    <g style="fill: #16a34a" transform="translate(134.568 154.991) scale(0.16 -0.16)">
     <defs>
      <path id="DejaVuSerif-Bold-49" d="M 300 0 
L 300 378 
L 897 378 
L 897 4288 
L 300 4288 
L 300 4666 
L 2700 4666 
L 2700 4288 
L 2100 4288 
L 2100 378 
L 2700 378 
L 2700 0 
L 300 0 
z
" transform="scale(0.015625)"/>
      <path id="DejaVuSerif-Bold-6e" d="M 219 0 
L 219 378 
L 691 378 
L 691 2944 
L 219 2944 
L 219 3322 
L 1797 3322 
L 1797 2853 
Q 1997 3150 2253 3281 
Q 2509 3413 2900 3413 
Q 3459 3413 3745 3083 
Q 4031 2753 4031 2113 
L 4031 378 
L 4506 378 
L 4506 0 
L 2522 0 
L 2522 378 
L 2925 378 
L 2925 2144 
Q 2925 2566 2817 2730 
Q 2709 2894 2444 2894 
Q 2109 2894 1953 2648 
Q 1797 2403 1797 1869 
L 1797 378 
L 2203 378 
L 2203 0 
L 219 0 
z
" transform="scale(0.015625)"/>
      <path id="DejaVuSerif-Bold-69" d="M 588 4263 
Q 588 4516 763 4689 
Q 938 4863 1191 4863 
Q 1438 4863 1611 4689 
Q 1784 4516 1784 4263 
Q 1784 4016 1611 3842 
Q 1438 3669 1191 3669 
Q 938 3669 763 3841 
Q 588 4013 588 4263 
z
M 1797 378 
L 2272 378 
L 2272 0 
L 219 0 
L 219 378 
L 691 378 
L 691 2944 
L 219 2944 
L 219 3322 
L 1797 3322 
L 1797 378 
z
" transform="scale(0.015625)"/>
      <path id="DejaVuSerif-Bold-74" d="M 634 2944 
L 153 2944 
L 153 3322 
L 634 3322 
L 634 4353 
L 1741 4353 
L 1741 3322 
L 2663 3322 
L 2663 2944 
L 1741 2944 
L 1741 909 
Q 1741 475 1809 369 
Q 1878 263 2059 263 
Q 2259 263 2356 397 
Q 2453 531 2459 813 
L 2925 813 
Q 2897 313 2651 111 
Q 2406 -91 1806 -91 
Q 1122 -91 878 123 
Q 634 338 634 909 
L 634 2944 
z
" transform="scale(0.015625)"/>
      <path id="DejaVuSerif-Bold-61" d="M 3525 2041 
L 3525 378 
L 4000 378 
L 4000 0 
L 2419 0 
L 2419 422 
Q 2200 159 1931 34 
Q 1663 -91 1319 -91 
Q 809 -91 536 182 
Q 263 456 263 966 
Q 263 1525 655 1803 
Q 1047 2081 1838 2081 
L 2419 2081 
L 2419 2278 
Q 2419 2681 2228 2873 
Q 2038 3066 1638 3066 
Q 1306 3066 1126 2930 
Q 947 2794 872 2484 
L 519 2484 
L 519 3200 
Q 816 3306 1134 3359 
Q 1453 3413 1806 3413 
Q 2697 3413 3111 3081 
Q 3525 2750 3525 2041 
z
M 2419 1044 
L 2419 1709 
L 2003 1709 
Q 1694 1709 1528 1540 
Q 1363 1372 1363 1056 
Q 1363 741 1483 584 
Q 1603 428 1850 428 
Q 2106 428 2262 597 
Q 2419 766 2419 1044 
z
" transform="scale(0.015625)"/>
      <path id="DejaVuSerif-Bold-6c" d="M 1797 378 
L 2272 378 
L 2272 0 
L 219 0 
L 219 378 
L 691 378 
L 691 4488 
L 219 4488 
L 219 4863 
L 1797 4863 
L 1797 378 
z
" transform="scale(0.015625)"/>
      <path id="DejaVuSerif-Bold-7a" d="M 225 0 
L 225 378 
L 2131 2956 
L 697 2956 
L 697 2388 
L 325 2388 
L 325 3322 
L 3419 3322 
L 3419 2950 
L 1509 372 
L 3047 372 
L 3047 972 
L 3419 972 
L 3419 0 
L 225 0 
z
" transform="scale(0.015625)"/>
      <path id="DejaVuSerif-Bold-6f" d="M 2138 263 
Q 2488 263 2630 563 
Q 2772 863 2772 1663 
Q 2772 2463 2631 2761 
Q 2491 3059 2138 3059 
Q 1784 3059 1640 2757 
Q 1497 2456 1497 1663 
Q 1497 869 1640 566 
Q 1784 263 2138 263 
z
M 2138 -91 
Q 1259 -91 761 376 
Q 263 844 263 1663 
Q 263 2484 761 2948 
Q 1259 3413 2138 3413 
Q 3019 3413 3516 2948 
Q 4013 2484 4013 1663 
Q 4013 844 3514 376 
Q 3016 -91 2138 -91 
z
" transform="scale(0.015625)"/>
     </defs>
     <use xlink:href="#DejaVuSerif-Bold-49"/>
     <use xlink:href="#DejaVuSerif-Bold-6e" transform="translate(46.777344 0)"/>
     <use xlink:href="#DejaVuSerif-Bold-69" transform="translate(119.482422 0)"/>
     <use xlink:href="#DejaVuSerif-Bold-74" transform="translate(157.470703 0)"/>
     <use xlink:href="#DejaVuSerif-Bold-69" transform="translate(203.662109 0)"/>
     <use xlink:href="#DejaVuSerif-Bold-61" transform="translate(241.650391 0)"/>
     <use xlink:href="#DejaVuSerif-Bold-6c" transform="translate(306.445312 0)"/>
     <use xlink:href="#DejaVuSerif-Bold-69" transform="translate(344.433594 0)"/>
     <use xlink:href="#DejaVuSerif-Bold-7a" transform="translate(382.421875 0)"/>
     <use xlink:href="#DejaVuSerif-Bold-61" transform="translate(439.208984 0)"/>
     <use xlink:href="#DejaVuSerif-Bold-74" transform="translate(504.003906 0)"/>
     <use xlink:href="#DejaVuSerif-Bold-69" transform="translate(550.195312 0)"/>
     <use xlink:href="#DejaVuSerif-Bold-6f" transform="translate(588.183594 0)"/>
     <use xlink:href="#DejaVuSerif-Bold-6e" transform="translate(654.882812 0)"/>
    </g>
   </g>
   <g id="text_2">
    <!-- Green laser pulse (532 nm) -->
    <g transform="translate(72.684 226.84725) scale(0.12 -0.12)">
     <defs>
      <path id="DejaVuSerif-47" d="M 4097 3272 
Q 3988 3856 3641 4136 
Q 3294 4416 2675 4416 
Q 1869 4416 1472 3897 
Q 1075 3378 1075 2328 
Q 1075 1300 1484 772 
Q 1894 244 2688 244 
Q 3041 244 3362 331 
Q 3684 419 3975 594 
L 3975 1797 
L 3097 1797 
L 3097 2131 
L 4609 2131 
L 4609 391 
Q 4194 150 3714 29 
Q 3234 -91 2688 -91 
Q 1631 -91 995 570 
Q 359 1231 359 2328 
Q 359 3434 996 4092 
Q 1634 4750 2713 4750 
Q 3113 4750 3539 4658 
Q 3966 4566 4447 4378 
L 4447 3272 
L 4097 3272 
z
" transform="scale(0.015625)"/>
      <path id="DejaVuSerif-72" d="M 3059 3328 
L 3059 2497 
L 2728 2497 
Q 2713 2744 2591 2866 
Q 2469 2988 2234 2988 
Q 1809 2988 1582 2694 
Q 1356 2400 1356 1850 
L 1356 331 
L 2022 331 
L 2022 0 
L 263 0 
L 263 331 
L 781 331 
L 781 2994 
L 231 2994 
L 231 3322 
L 1356 3322 
L 1356 2731 
Q 1525 3078 1790 3245 
Q 2056 3413 2438 3413 
Q 2578 3413 2733 3391 
Q 2888 3369 3059 3328 
z
" transform="scale(0.015625)"/>
      <path id="DejaVuSerif-65" d="M 3469 1600 
L 991 1600 
L 991 1575 
Q 991 903 1244 561 
Q 1497 219 1991 219 
Q 2369 219 2611 417 
Q 2853 616 2950 1006 
L 3413 1006 
Q 3275 459 2904 184 
Q 2534 -91 1931 -91 
Q 1203 -91 761 389 
Q 319 869 319 1663 
Q 319 2450 753 2931 
Q 1188 3413 1894 3413 
Q 2647 3413 3050 2948 
Q 3453 2484 3469 1600 
z
M 2791 1931 
Q 2772 2513 2545 2808 
Q 2319 3103 1894 3103 
Q 1497 3103 1269 2806 
Q 1041 2509 991 1931 
L 2791 1931 
z
" transform="scale(0.015625)"/>
      <path id="DejaVuSerif-6e" d="M 263 0 
L 263 331 
L 781 331 
L 781 2988 
L 231 2988 
L 231 3322 
L 1356 3322 
L 1356 2731 
Q 1516 3069 1770 3241 
Q 2025 3413 2363 3413 
Q 2913 3413 3172 3097 
Q 3431 2781 3431 2113 
L 3431 331 
L 3944 331 
L 3944 0 
L 2356 0 
L 2356 331 
L 2853 331 
L 2853 1931 
Q 2853 2541 2703 2767 
Q 2553 2994 2175 2994 
Q 1775 2994 1565 2701 
Q 1356 2409 1356 1850 
L 1356 331 
L 1856 331 
L 1856 0 
L 263 0 
z
" transform="scale(0.015625)"/>
      <path id="DejaVuSerif-20" transform="scale(0.015625)"/>
      <path id="DejaVuSerif-6c" d="M 1313 331 
L 1856 331 
L 1856 0 
L 184 0 
L 184 331 
L 738 331 
L 738 4531 
L 184 4531 
L 184 4863 
L 1313 4863 
L 1313 331 
z
" transform="scale(0.015625)"/>
      <path id="DejaVuSerif-61" d="M 2547 1044 
L 2547 1747 
L 1806 1747 
Q 1378 1747 1168 1562 
Q 959 1378 959 997 
Q 959 650 1171 447 
Q 1384 244 1747 244 
Q 2106 244 2326 466 
Q 2547 688 2547 1044 
z
M 3122 2075 
L 3122 331 
L 3634 331 
L 3634 0 
L 2547 0 
L 2547 359 
Q 2356 128 2106 18 
Q 1856 -91 1522 -91 
Q 969 -91 644 203 
Q 319 497 319 997 
Q 319 1513 691 1797 
Q 1063 2081 1741 2081 
L 2547 2081 
L 2547 2309 
Q 2547 2688 2317 2895 
Q 2088 3103 1672 3103 
Q 1328 3103 1125 2947 
Q 922 2791 872 2484 
L 575 2484 
L 575 3156 
Q 875 3284 1158 3348 
Q 1441 3413 1709 3413 
Q 2400 3413 2761 3070 
Q 3122 2728 3122 2075 
z
" transform="scale(0.015625)"/>
      <path id="DejaVuSerif-73" d="M 359 184 
L 359 959 
L 691 959 
Q 703 588 923 403 
Q 1144 219 1575 219 
Q 1963 219 2166 364 
Q 2369 509 2369 788 
Q 2369 1006 2220 1140 
Q 2072 1275 1594 1428 
L 1178 1569 
Q 750 1706 558 1912 
Q 366 2119 366 2438 
Q 366 2894 700 3153 
Q 1034 3413 1625 3413 
Q 1888 3413 2178 3344 
Q 2469 3275 2778 3144 
L 2778 2419 
L 2447 2419 
Q 2434 2741 2221 2922 
Q 2009 3103 1644 3103 
Q 1281 3103 1095 2975 
Q 909 2847 909 2591 
Q 909 2381 1050 2254 
Q 1191 2128 1613 1997 
L 2069 1856 
Q 2541 1709 2748 1489 
Q 2956 1269 2956 922 
Q 2956 450 2595 179 
Q 2234 -91 1600 -91 
Q 1278 -91 972 -22 
Q 666 47 359 184 
z
" transform="scale(0.015625)"/>
      <path id="DejaVuSerif-70" d="M 1313 1825 
L 1313 1497 
Q 1313 897 1542 583 
Q 1772 269 2209 269 
Q 2650 269 2876 622 
Q 3103 975 3103 1663 
Q 3103 2353 2876 2703 
Q 2650 3053 2209 3053 
Q 1772 3053 1542 2737 
Q 1313 2422 1313 1825 
z
M 738 2988 
L 184 2988 
L 184 3322 
L 1313 3322 
L 1313 2803 
Q 1481 3116 1742 3264 
Q 2003 3413 2388 3413 
Q 3000 3413 3387 2928 
Q 3775 2444 3775 1663 
Q 3775 881 3387 395 
Q 3000 -91 2388 -91 
Q 2003 -91 1742 57 
Q 1481 206 1313 519 
L 1313 -997 
L 1856 -997 
L 1856 -1331 
L 184 -1331 
L 184 -997 
L 738 -997 
L 738 2988 
z
" transform="scale(0.015625)"/>
      <path id="DejaVuSerif-75" d="M 2266 3322 
L 3341 3322 
L 3341 331 
L 3884 331 
L 3884 0 
L 2766 0 
L 2766 588 
Q 2606 256 2353 82 
Q 2100 -91 1766 -91 
Q 1213 -91 952 223 
Q 691 538 691 1209 
L 691 2988 
L 172 2988 
L 172 3322 
L 1269 3322 
L 1269 1388 
Q 1269 781 1417 556 
Q 1566 331 1947 331 
Q 2347 331 2556 625 
Q 2766 919 2766 1478 
L 2766 2988 
L 2266 2988 
L 2266 3322 
z
" transform="scale(0.015625)"/>
      <path id="DejaVuSerif-28" d="M 2041 -997 
Q 1281 -656 893 83 
Q 506 822 506 1931 
Q 506 3044 893 3783 
Q 1281 4522 2041 4863 
L 2041 4556 
Q 1559 4225 1350 3623 
Q 1141 3022 1141 1931 
Q 1141 844 1350 242 
Q 1559 -359 2041 -691 
L 2041 -997 
z
" transform="scale(0.015625)"/>
      <path id="DejaVuSerif-35" d="M 3219 4666 
L 3219 4153 
L 1081 4153 
L 1081 2816 
Q 1244 2928 1461 2984 
Q 1678 3041 1947 3041 
Q 2703 3041 3140 2622 
Q 3578 2203 3578 1478 
Q 3578 738 3136 323 
Q 2694 -91 1894 -91 
Q 1572 -91 1234 -12 
Q 897 66 544 225 
L 544 1131 
L 897 1131 
Q 925 688 1179 453 
Q 1434 219 1894 219 
Q 2388 219 2653 544 
Q 2919 869 2919 1478 
Q 2919 2084 2655 2407 
Q 2391 2731 1894 2731 
Q 1613 2731 1398 2631 
Q 1184 2531 1019 2322 
L 750 2322 
L 750 4666 
L 3219 4666 
z
" transform="scale(0.015625)"/>
      <path id="DejaVuSerif-33" d="M 622 4469 
Q 988 4606 1323 4678 
Q 1659 4750 1953 4750 
Q 2638 4750 3022 4454 
Q 3406 4159 3406 3634 
Q 3406 3213 3140 2930 
Q 2875 2647 2388 2547 
Q 2963 2466 3280 2130 
Q 3597 1794 3597 1259 
Q 3597 606 3158 257 
Q 2719 -91 1894 -91 
Q 1528 -91 1179 -12 
Q 831 66 488 225 
L 488 1131 
L 838 1131 
Q 869 681 1141 450 
Q 1413 219 1906 219 
Q 2384 219 2661 495 
Q 2938 772 2938 1253 
Q 2938 1803 2653 2086 
Q 2369 2369 1819 2369 
L 1522 2369 
L 1522 2688 
L 1678 2688 
Q 2225 2688 2498 2914 
Q 2772 3141 2772 3597 
Q 2772 4006 2547 4223 
Q 2322 4441 1900 4441 
Q 1478 4441 1245 4241 
Q 1013 4041 972 3647 
L 622 3647 
L 622 4469 
z
" transform="scale(0.015625)"/>
      <path id="DejaVuSerif-32" d="M 819 3553 
L 469 3553 
L 469 4384 
Q 803 4563 1142 4656 
Q 1481 4750 1806 4750 
Q 2534 4750 2956 4397 
Q 3378 4044 3378 3438 
Q 3378 2753 2422 1800 
Q 2347 1728 2309 1691 
L 1131 513 
L 3078 513 
L 3078 1088 
L 3444 1088 
L 3444 0 
L 434 0 
L 434 341 
L 1850 1753 
Q 2319 2222 2519 2614 
Q 2719 3006 2719 3438 
Q 2719 3909 2473 4175 
Q 2228 4441 1797 4441 
Q 1350 4441 1106 4219 
Q 863 3997 819 3553 
z
" transform="scale(0.015625)"/>
      <path id="DejaVuSerif-6d" d="M 3316 2675 
Q 3481 3041 3739 3227 
Q 3997 3413 4341 3413 
Q 4863 3413 5119 3089 
Q 5375 2766 5375 2113 
L 5375 331 
L 5894 331 
L 5894 0 
L 4300 0 
L 4300 331 
L 4800 331 
L 4800 2047 
Q 4800 2556 4650 2772 
Q 4500 2988 4153 2988 
Q 3769 2988 3567 2697 
Q 3366 2406 3366 1850 
L 3366 331 
L 3866 331 
L 3866 0 
L 2291 0 
L 2291 331 
L 2791 331 
L 2791 2069 
Q 2791 2566 2641 2777 
Q 2491 2988 2144 2988 
Q 1759 2988 1557 2697 
Q 1356 2406 1356 1850 
L 1356 331 
L 1856 331 
L 1856 0 
L 263 0 
L 263 331 
L 781 331 
L 781 2994 
L 231 2994 
L 231 3322 
L 1356 3322 
L 1356 2731 
Q 1516 3063 1762 3238 
Q 2009 3413 2322 3413 
Q 2709 3413 2968 3220 
Q 3228 3028 3316 2675 
z
" transform="scale(0.015625)"/>
      <path id="DejaVuSerif-29" d="M 453 -997 
L 453 -691 
Q 934 -359 1145 242 
Q 1356 844 1356 1931 
Q 1356 3022 1145 3623 
Q 934 4225 453 4556 
L 453 4863 
Q 1216 4522 1603 3783 
Q 1991 3044 1991 1931 
Q 1991 822 1603 83 
Q 1216 -656 453 -997 
z
" transform="scale(0.015625)"/>
     </defs>
     <use xlink:href="#DejaVuSerif-47"/>
     <use xlink:href="#DejaVuSerif-72" transform="translate(79.882812 0)"/>
     <use xlink:href="#DejaVuSerif-65" transform="translate(127.685547 0)"/>
     <use xlink:href="#DejaVuSerif-65" transform="translate(186.865234 0)"/>
     <use xlink:href="#DejaVuSerif-6e" transform="translate(246.044922 0)"/>
     <use xlink:href="#DejaVuSerif-20" transform="translate(310.449219 0)"/>
     <use xlink:href="#DejaVuSerif-6c" transform="translate(342.236328 0)"/>
     <use xlink:href="#DejaVuSerif-61" transform="translate(374.21875 0)"/>
     <use xlink:href="#DejaVuSerif-73" transform="translate(433.837891 0)"/>
     <use xlink:href="#DejaVuSerif-65" transform="translate(485.15625 0)"/>
     <use xlink:href="#DejaVuSerif-72" transform="translate(544.335938 0)"/>
     <use xlink:href="#DejaVuSerif-20" transform="translate(592.138672 0)"/>
     <use xlink:href="#DejaVuSerif-70" transform="translate(623.925781 0)"/>
     <use xlink:href="#DejaVuSerif-75" transform="translate(687.939453 0)"/>
     <use xlink:href="#DejaVuSerif-6c" transform="translate(752.34375 0)"/>
     <use xlink:href="#DejaVuSerif-73" transform="translate(784.326172 0)"/>
     <use xlink:href="#DejaVuSerif-65" transform="translate(835.644531 0)"/>
     <use xlink:href="#DejaVuSerif-20" transform="translate(894.824219 0)"/>
     <use xlink:href="#DejaVuSerif-28" transform="translate(926.611328 0)"/>
     <use xlink:href="#DejaVuSerif-35" transform="translate(965.625 0)"/>
     <use xlink:href="#DejaVuSerif-33" transform="translate(1029.248047 0)"/>
     <use xlink:href="#DejaVuSerif-32" transform="translate(1092.871094 0)"/>
     <use xlink:href="#DejaVuSerif-20" transform="translate(1156.494141 0)"/>
     <use xlink:href="#DejaVuSerif-6e" transform="translate(1188.28125 0)"/>
     <use xlink:href="#DejaVuSerif-6d" transform="translate(1252.685547 0)"/>
     <use xlink:href="#DejaVuSerif-29" transform="translate(1347.509766 0)"/>
    </g>
   </g>
   <g id="text_3">
    <!-- Spin polarized to $|0\rangle$ -->
    <g transform="translate(72.684 264.6552) scale(0.12 -0.12)">
     <defs>
      <path id="DejaVuSerif-53" d="M 594 225 
L 594 1288 
L 953 1284 
Q 969 753 1261 498 
Q 1553 244 2150 244 
Q 2706 244 2998 464 
Q 3291 684 3291 1106 
Q 3291 1444 3114 1625 
Q 2938 1806 2369 1978 
L 1753 2163 
Q 1084 2366 811 2669 
Q 538 2972 538 3500 
Q 538 4094 959 4422 
Q 1381 4750 2144 4750 
Q 2469 4750 2856 4679 
Q 3244 4609 3681 4475 
L 3681 3481 
L 3328 3481 
Q 3275 3975 2998 4195 
Q 2722 4416 2156 4416 
Q 1663 4416 1405 4214 
Q 1147 4013 1147 3628 
Q 1147 3294 1340 3103 
Q 1534 2913 2163 2725 
L 2741 2553 
Q 3375 2363 3645 2067 
Q 3916 1772 3916 1275 
Q 3916 597 3481 253 
Q 3047 -91 2188 -91 
Q 1803 -91 1404 -12 
Q 1006 66 594 225 
z
" transform="scale(0.015625)"/>
      <path id="DejaVuSerif-69" d="M 622 4353 
Q 622 4497 726 4603 
Q 831 4709 978 4709 
Q 1122 4709 1226 4603 
Q 1331 4497 1331 4353 
Q 1331 4206 1228 4103 
Q 1125 4000 978 4000 
Q 831 4000 726 4103 
Q 622 4206 622 4353 
z
M 1356 331 
L 1900 331 
L 1900 0 
L 231 0 
L 231 331 
L 781 331 
L 781 2988 
L 231 2988 
L 231 3322 
L 1356 3322 
L 1356 331 
z
" transform="scale(0.015625)"/>
      <path id="DejaVuSerif-6f" d="M 1925 219 
Q 2388 219 2623 584 
Q 2859 950 2859 1663 
Q 2859 2375 2623 2739 
Q 2388 3103 1925 3103 
Q 1463 3103 1227 2739 
Q 991 2375 991 1663 
Q 991 950 1228 584 
Q 1466 219 1925 219 
z
M 1925 -91 
Q 1200 -91 759 389 
Q 319 869 319 1663 
Q 319 2456 758 2934 
Q 1197 3413 1925 3413 
Q 2653 3413 3092 2934 
Q 3531 2456 3531 1663 
Q 3531 869 3092 389 
Q 2653 -91 1925 -91 
z
" transform="scale(0.015625)"/>
      <path id="DejaVuSerif-7a" d="M 256 0 
L 256 269 
L 2338 2988 
L 691 2988 
L 691 2413 
L 359 2413 
L 359 3322 
L 3078 3322 
L 3078 3053 
L 997 331 
L 2803 331 
L 2803 934 
L 3138 934 
L 3138 0 
L 256 0 
z
" transform="scale(0.015625)"/>
      <path id="DejaVuSerif-64" d="M 3359 331 
L 3909 331 
L 3909 0 
L 2784 0 
L 2784 519 
Q 2616 206 2355 57 
Q 2094 -91 1709 -91 
Q 1097 -91 708 395 
Q 319 881 319 1663 
Q 319 2444 706 2928 
Q 1094 3413 1709 3413 
Q 2094 3413 2355 3264 
Q 2616 3116 2784 2803 
L 2784 4531 
L 2241 4531 
L 2241 4863 
L 3359 4863 
L 3359 331 
z
M 2784 1497 
L 2784 1825 
Q 2784 2422 2554 2737 
Q 2325 3053 1888 3053 
Q 1444 3053 1217 2703 
Q 991 2353 991 1663 
Q 991 975 1217 622 
Q 1444 269 1888 269 
Q 2325 269 2554 583 
Q 2784 897 2784 1497 
z
" transform="scale(0.015625)"/>
      <path id="DejaVuSerif-74" d="M 691 2988 
L 184 2988 
L 184 3322 
L 691 3322 
L 691 4353 
L 1269 4353 
L 1269 3322 
L 2350 3322 
L 2350 2988 
L 1269 2988 
L 1269 878 
Q 1269 456 1350 337 
Q 1431 219 1650 219 
Q 1875 219 1978 351 
Q 2081 484 2088 781 
L 2522 781 
Q 2497 328 2275 118 
Q 2053 -91 1600 -91 
Q 1103 -91 897 129 
Q 691 350 691 878 
L 691 2988 
z
" transform="scale(0.015625)"/>
      <path id="DejaVuSans-7c" d="M 1344 4891 
L 1344 -1509 
L 813 -1509 
L 813 4891 
L 1344 4891 
z
" transform="scale(0.015625)"/>
      <path id="DejaVuSans-30" d="M 2034 4250 
Q 1547 4250 1301 3770 
Q 1056 3291 1056 2328 
Q 1056 1369 1301 889 
Q 1547 409 2034 409 
Q 2525 409 2770 889 
Q 3016 1369 3016 2328 
Q 3016 3291 2770 3770 
Q 2525 4250 2034 4250 
z
M 2034 4750 
Q 2819 4750 3233 4129 
Q 3647 3509 3647 2328 
Q 3647 1150 3233 529 
Q 2819 -91 2034 -91 
Q 1250 -91 836 529 
Q 422 1150 422 2328 
Q 422 3509 836 4129 
Q 1250 4750 2034 4750 
z
" transform="scale(0.015625)"/>
      <path id="DejaVuSans-27e9" d="M 1925 2006 
L 1044 -844 
L 513 -844 
L 1394 2006 
L 513 4856 
L 1044 4856 
L 1925 2006 
z
" transform="scale(0.015625)"/>
     </defs>
     <use xlink:href="#DejaVuSerif-53" transform="translate(0 0.578125)"/>
     <use xlink:href="#DejaVuSerif-70" transform="translate(68.505859 0.578125)"/>
     <use xlink:href="#DejaVuSerif-69" transform="translate(132.519531 0.578125)"/>
     <use xlink:href="#DejaVuSerif-6e" transform="translate(164.501953 0.578125)"/>
     <use xlink:href="#DejaVuSerif-20" transform="translate(228.90625 0.578125)"/>
     <use xlink:href="#DejaVuSerif-70" transform="translate(260.693359 0.578125)"/>
     <use xlink:href="#DejaVuSerif-6f" transform="translate(324.707031 0.578125)"/>
     <use xlink:href="#DejaVuSerif-6c" transform="translate(384.912109 0.578125)"/>
     <use xlink:href="#DejaVuSerif-61" transform="translate(416.894531 0.578125)"/>
     <use xlink:href="#DejaVuSerif-72" transform="translate(476.513672 0.578125)"/>
     <use xlink:href="#DejaVuSerif-69" transform="translate(524.316406 0.578125)"/>
     <use xlink:href="#DejaVuSerif-7a" transform="translate(556.298828 0.578125)"/>
     <use xlink:href="#DejaVuSerif-65" transform="translate(608.984375 0.578125)"/>
     <use xlink:href="#DejaVuSerif-64" transform="translate(668.164062 0.578125)"/>
     <use xlink:href="#DejaVuSerif-20" transform="translate(732.177734 0.578125)"/>
     <use xlink:href="#DejaVuSerif-74" transform="translate(763.964844 0.578125)"/>
     <use xlink:href="#DejaVuSerif-6f" transform="translate(804.150391 0.578125)"/>
     <use xlink:href="#DejaVuSerif-20" transform="translate(864.355469 0.578125)"/>
     <use xlink:href="#DejaVuSans-7c" transform="translate(896.142578 0.578125)"/>
     <use xlink:href="#DejaVuSans-30" transform="translate(929.833984 0.578125)"/>
     <use xlink:href="#DejaVuSans-27e9" transform="translate(993.457031 0.578125)"/>
    </g>
   </g>
   <g id="text_4">
    <!-- via intersystem crossing -->
    <g transform="translate(72.684 302.555025) scale(0.12 -0.12)">
     <defs>
      <path id="DejaVuSerif-76" d="M 1581 0 
L 359 2988 
L -19 2988 
L -19 3322 
L 1509 3322 
L 1509 2988 
L 978 2988 
L 1913 703 
L 2847 2988 
L 2350 2988 
L 2350 3322 
L 3597 3322 
L 3597 2988 
L 3225 2988 
L 2003 0 
L 1581 0 
z
" transform="scale(0.015625)"/>
      <path id="DejaVuSerif-79" d="M 1381 -609 
L 1600 -56 
L 359 2988 
L -19 2988 
L -19 3322 
L 1509 3322 
L 1509 2988 
L 978 2988 
L 1913 703 
L 2847 2988 
L 2350 2988 
L 2350 3322 
L 3597 3322 
L 3597 2988 
L 3225 2988 
L 1703 -750 
Q 1547 -1138 1356 -1280 
Q 1166 -1422 819 -1422 
Q 672 -1422 517 -1397 
Q 363 -1372 206 -1325 
L 206 -691 
L 500 -691 
Q 519 -903 608 -995 
Q 697 -1088 884 -1088 
Q 1056 -1088 1161 -992 
Q 1266 -897 1381 -609 
z
" transform="scale(0.015625)"/>
      <path id="DejaVuSerif-63" d="M 3291 997 
Q 3169 466 2822 187 
Q 2475 -91 1925 -91 
Q 1200 -91 759 389 
Q 319 869 319 1663 
Q 319 2459 759 2936 
Q 1200 3413 1925 3413 
Q 2241 3413 2553 3339 
Q 2866 3266 3181 3116 
L 3181 2266 
L 2847 2266 
Q 2781 2703 2561 2903 
Q 2341 3103 1931 3103 
Q 1466 3103 1228 2742 
Q 991 2381 991 1663 
Q 991 944 1227 581 
Q 1463 219 1931 219 
Q 2303 219 2525 412 
Q 2747 606 2828 997 
L 3291 997 
z
" transform="scale(0.015625)"/>
      <path id="DejaVuSerif-67" d="M 3359 2988 
L 3359 72 
Q 3359 -644 2965 -1033 
Q 2572 -1422 1844 -1422 
Q 1516 -1422 1216 -1362 
Q 916 -1303 641 -1184 
L 641 -488 
L 941 -488 
Q 997 -813 1206 -963 
Q 1416 -1113 1806 -1113 
Q 2313 -1113 2548 -827 
Q 2784 -541 2784 72 
L 2784 519 
Q 2616 206 2355 57 
Q 2094 -91 1709 -91 
Q 1097 -91 708 395 
Q 319 881 319 1663 
Q 319 2444 706 2928 
Q 1094 3413 1709 3413 
Q 2094 3413 2355 3264 
Q 2616 3116 2784 2803 
L 2784 3322 
L 3909 3322 
L 3909 2988 
L 3359 2988 
z
M 2784 1825 
Q 2784 2422 2554 2737 
Q 2325 3053 1888 3053 
Q 1444 3053 1217 2703 
Q 991 2353 991 1663 
Q 991 975 1217 622 
Q 1444 269 1888 269 
Q 2325 269 2554 583 
Q 2784 897 2784 1497 
L 2784 1825 
z
" transform="scale(0.015625)"/>
     </defs>
     <use xlink:href="#DejaVuSerif-76"/>
     <use xlink:href="#DejaVuSerif-69" transform="translate(56.494141 0)"/>
     <use xlink:href="#DejaVuSerif-61" transform="translate(88.476562 0)"/>
     <use xlink:href="#DejaVuSerif-20" transform="translate(148.095703 0)"/>
     <use xlink:href="#DejaVuSerif-69" transform="translate(179.882812 0)"/>
     <use xlink:href="#DejaVuSerif-6e" transform="translate(211.865234 0)"/>
     <use xlink:href="#DejaVuSerif-74" transform="translate(276.269531 0)"/>
     <use xlink:href="#DejaVuSerif-65" transform="translate(316.455078 0)"/>
     <use xlink:href="#DejaVuSerif-72" transform="translate(375.634766 0)"/>
     <use xlink:href="#DejaVuSerif-73" transform="translate(423.4375 0)"/>
     <use xlink:href="#DejaVuSerif-79" transform="translate(474.755859 0)"/>
     <use xlink:href="#DejaVuSerif-73" transform="translate(531.25 0)"/>
     <use xlink:href="#DejaVuSerif-74" transform="translate(582.568359 0)"/>
     <use xlink:href="#DejaVuSerif-65" transform="translate(622.753906 0)"/>
     <use xlink:href="#DejaVuSerif-6d" transform="translate(681.933594 0)"/>
     <use xlink:href="#DejaVuSerif-20" transform="translate(776.757812 0)"/>
     <use xlink:href="#DejaVuSerif-63" transform="translate(808.544922 0)"/>
     <use xlink:href="#DejaVuSerif-72" transform="translate(864.550781 0)"/>
     <use xlink:href="#DejaVuSerif-6f" transform="translate(912.353516 0)"/>
     <use xlink:href="#DejaVuSerif-73" transform="translate(972.558594 0)"/>
     <use xlink:href="#DejaVuSerif-73" transform="translate(1023.876953 0)"/>
     <use xlink:href="#DejaVuSerif-69" transform="translate(1075.195312 0)"/>
     <use xlink:href="#DejaVuSerif-6e" transform="translate(1107.177734 0)"/>
     <use xlink:href="#DejaVuSerif-67" transform="translate(1171.582031 0)"/>
    </g>
   </g>
   <g id="text_5">
    <!-- Bright fluorescence -->
    <g transform="translate(72.684 340.579538) scale(0.12 -0.12)">
     <defs>
      <path id="DejaVuSerif-Bold-42" d="M 300 0 
L 300 378 
L 897 378 
L 897 4288 
L 300 4288 
L 300 4666 
L 3066 4666 
Q 3919 4666 4347 4378 
Q 4775 4091 4775 3513 
Q 4775 3097 4479 2853 
Q 4184 2609 3603 2547 
Q 4306 2481 4681 2172 
Q 5056 1863 5056 1350 
Q 5056 656 4532 328 
Q 4009 0 2894 0 
L 300 0 
z
M 2100 2719 
L 2509 2719 
Q 3047 2719 3306 2914 
Q 3566 3109 3566 3513 
Q 3566 3919 3314 4103 
Q 3063 4288 2509 4288 
L 2100 4288 
L 2100 2719 
z
M 2100 378 
L 2547 378 
Q 3144 378 3431 615 
Q 3719 853 3719 1350 
Q 3719 1850 3428 2097 
Q 3138 2344 2547 2344 
L 2100 2344 
L 2100 378 
z
" transform="scale(0.015625)"/>
      <path id="DejaVuSerif-Bold-72" d="M 3438 3359 
L 3438 2369 
L 3084 2369 
Q 3066 2634 2941 2764 
Q 2816 2894 2578 2894 
Q 2216 2894 2006 2575 
Q 1797 2256 1797 1691 
L 1797 378 
L 2400 378 
L 2400 0 
L 219 0 
L 219 378 
L 691 378 
L 691 2944 
L 184 2944 
L 184 3322 
L 1797 3322 
L 1797 2731 
Q 1959 3078 2226 3245 
Q 2494 3413 2881 3413 
Q 2978 3413 3117 3398 
Q 3256 3384 3438 3359 
z
" transform="scale(0.015625)"/>
      <path id="DejaVuSerif-Bold-67" d="M 3853 2944 
L 3853 44 
Q 3853 -656 3354 -1039 
Q 2856 -1422 1947 -1422 
Q 1616 -1422 1275 -1370 
Q 934 -1319 575 -1216 
L 575 -422 
L 928 -422 
Q 975 -750 1192 -909 
Q 1409 -1069 1813 -1069 
Q 2325 -1069 2536 -823 
Q 2747 -578 2747 44 
L 2747 422 
Q 2606 163 2367 36 
Q 2128 -91 1778 -91 
Q 1072 -91 667 378 
Q 263 847 263 1663 
Q 263 2481 667 2947 
Q 1072 3413 1778 3413 
Q 2128 3413 2367 3286 
Q 2606 3159 2747 2900 
L 2747 3322 
L 4325 3322 
L 4325 2944 
L 3853 2944 
z
M 2747 1825 
Q 2747 2406 2597 2665 
Q 2447 2925 2119 2925 
Q 1775 2925 1636 2651 
Q 1497 2378 1497 1663 
Q 1497 947 1637 672 
Q 1778 397 2119 397 
Q 2447 397 2597 656 
Q 2747 916 2747 1497 
L 2747 1825 
z
" transform="scale(0.015625)"/>
      <path id="DejaVuSerif-Bold-68" d="M 219 0 
L 219 378 
L 691 378 
L 691 4488 
L 197 4488 
L 197 4863 
L 1797 4863 
L 1797 2853 
Q 1997 3150 2253 3281 
Q 2509 3413 2900 3413 
Q 3459 3413 3745 3083 
Q 4031 2753 4031 2113 
L 4031 378 
L 4506 378 
L 4506 0 
L 2522 0 
L 2522 378 
L 2925 378 
L 2925 2144 
Q 2925 2566 2817 2730 
Q 2709 2894 2444 2894 
Q 2109 2894 1953 2648 
Q 1797 2403 1797 1869 
L 1797 378 
L 2203 378 
L 2203 0 
L 219 0 
z
" transform="scale(0.015625)"/>
      <path id="DejaVuSerif-Bold-20" transform="scale(0.015625)"/>
      <path id="DejaVuSerif-Bold-66" d="M 3097 4031 
L 2747 4031 
Q 2722 4275 2605 4394 
Q 2488 4513 2272 4513 
Q 2022 4513 1909 4333 
Q 1797 4153 1797 3750 
L 1797 3322 
L 2631 3322 
L 2631 2944 
L 1797 2944 
L 1797 378 
L 2438 378 
L 2438 0 
L 219 0 
L 219 378 
L 691 378 
L 691 2944 
L 197 2944 
L 197 3322 
L 691 3322 
L 691 3738 
Q 691 4291 1044 4577 
Q 1397 4863 2081 4863 
Q 2347 4863 2600 4833 
Q 2853 4803 3097 4744 
L 3097 4031 
z
" transform="scale(0.015625)"/>
      <path id="DejaVuSerif-Bold-75" d="M 3963 3322 
L 3963 378 
L 4434 378 
L 4434 0 
L 2853 0 
L 2853 469 
Q 2656 172 2400 40 
Q 2144 -91 1753 -91 
Q 1194 -91 908 239 
Q 622 569 622 1209 
L 622 2944 
L 147 2944 
L 147 3322 
L 1728 3322 
L 1728 1381 
Q 1728 763 1831 595 
Q 1934 428 2209 428 
Q 2544 428 2698 675 
Q 2853 922 2853 1459 
L 2853 2944 
L 2450 2944 
L 2450 3322 
L 3963 3322 
z
" transform="scale(0.015625)"/>
      <path id="DejaVuSerif-Bold-65" d="M 2566 1875 
Q 2566 2531 2444 2795 
Q 2322 3059 2028 3059 
Q 1744 3059 1620 2800 
Q 1497 2541 1497 1931 
L 1497 1875 
L 2566 1875 
z
M 3781 1503 
L 1497 1503 
L 1497 1478 
Q 1497 834 1690 548 
Q 1884 263 2316 263 
Q 2675 263 2897 453 
Q 3119 644 3181 1006 
L 3700 1006 
Q 3566 441 3166 175 
Q 2766 -91 2047 -91 
Q 1184 -91 723 364 
Q 263 819 263 1663 
Q 263 2488 734 2950 
Q 1206 3413 2047 3413 
Q 2872 3413 3312 2927 
Q 3753 2441 3781 1503 
z
" transform="scale(0.015625)"/>
      <path id="DejaVuSerif-Bold-73" d="M 300 97 
L 300 1025 
L 653 1025 
Q 697 653 931 458 
Q 1166 263 1569 263 
Q 1906 263 2086 380 
Q 2266 497 2266 716 
Q 2266 916 2152 1025 
Q 2038 1134 1709 1216 
L 1253 1331 
Q 738 1459 506 1698 
Q 275 1938 275 2344 
Q 275 2884 650 3148 
Q 1025 3413 1806 3413 
Q 2100 3413 2433 3364 
Q 2766 3316 3169 3213 
L 3169 2375 
L 2816 2375 
Q 2788 2716 2573 2887 
Q 2359 3059 1959 3059 
Q 1622 3059 1448 2951 
Q 1275 2844 1275 2638 
Q 1275 2469 1375 2372 
Q 1475 2275 1734 2209 
L 2188 2094 
Q 2841 1928 3091 1684 
Q 3341 1441 3341 1006 
Q 3341 444 2939 176 
Q 2538 -91 1691 -91 
Q 1381 -91 1034 -44 
Q 688 3 300 97 
z
" transform="scale(0.015625)"/>
      <path id="DejaVuSerif-Bold-63" d="M 3609 1038 
Q 3491 469 3123 189 
Q 2756 -91 2125 -91 
Q 1238 -91 750 368 
Q 263 828 263 1663 
Q 263 2488 744 2950 
Q 1225 3413 2081 3413 
Q 2428 3413 2781 3347 
Q 3134 3281 3500 3150 
L 3500 2228 
L 3150 2228 
Q 3100 2650 2903 2854 
Q 2706 3059 2350 3059 
Q 1888 3059 1692 2746 
Q 1497 2434 1497 1663 
Q 1497 909 1687 586 
Q 1878 263 2309 263 
Q 2644 263 2845 463 
Q 3047 663 3091 1038 
L 3609 1038 
z
" transform="scale(0.015625)"/>
     </defs>
     <use xlink:href="#DejaVuSerif-Bold-42"/>
     <use xlink:href="#DejaVuSerif-Bold-72" transform="translate(84.521484 0)"/>
     <use xlink:href="#DejaVuSerif-Bold-69" transform="translate(137.207031 0)"/>
     <use xlink:href="#DejaVuSerif-Bold-67" transform="translate(175.195312 0)"/>
     <use xlink:href="#DejaVuSerif-Bold-68" transform="translate(245.117188 0)"/>
     <use xlink:href="#DejaVuSerif-Bold-74" transform="translate(317.822266 0)"/>
     <use xlink:href="#DejaVuSerif-Bold-20" transform="translate(364.013672 0)"/>
     <use xlink:href="#DejaVuSerif-Bold-66" transform="translate(398.828125 0)"/>
     <use xlink:href="#DejaVuSerif-Bold-6c" transform="translate(441.845703 0)"/>
     <use xlink:href="#DejaVuSerif-Bold-75" transform="translate(479.833984 0)"/>
     <use xlink:href="#DejaVuSerif-Bold-6f" transform="translate(552.539062 0)"/>
     <use xlink:href="#DejaVuSerif-Bold-72" transform="translate(619.238281 0)"/>
     <use xlink:href="#DejaVuSerif-Bold-65" transform="translate(671.923828 0)"/>
     <use xlink:href="#DejaVuSerif-Bold-73" transform="translate(735.546875 0)"/>
     <use xlink:href="#DejaVuSerif-Bold-63" transform="translate(791.845703 0)"/>
     <use xlink:href="#DejaVuSerif-Bold-65" transform="translate(852.734375 0)"/>
     <use xlink:href="#DejaVuSerif-Bold-6e" transform="translate(916.357422 0)"/>
     <use xlink:href="#DejaVuSerif-Bold-63" transform="translate(989.0625 0)"/>
     <use xlink:href="#DejaVuSerif-Bold-65" transform="translate(1049.951172 0)"/>
    </g>
   </g>
   <g id="patch_3">
    <path d="M 72.684 171.0048 
C 80.342853 171.0048 87.689051 168.852293 93.104678 165.021343 
C 98.520305 161.190393 101.5632 155.993781 101.5632 150.576 
C 101.5632 145.158219 98.520305 139.961607 93.104678 136.130657 
C 87.689051 132.299707 80.342853 130.1472 72.684 130.1472 
C 65.025147 130.1472 57.678949 132.299707 52.263322 136.130657 
C 46.847695 139.961607 43.8048 145.158219 43.8048 150.576 
C 43.8048 155.993781 46.847695 161.190393 52.263322 165.021343 
C 57.678949 168.852293 65.025147 171.0048 72.684 171.0048 
z
" clip-path="url(#pe1fcdc3fa0)" style="fill: #16a34a; stroke: #16a34a; stroke-linejoin: miter"/>
   </g>
   <g id="text_6">
    <!-- 1 -->
    <g style="fill: #ffffff" transform="translate(66.421969 155.542875) scale(0.18 -0.18)">
     <defs>
      <path id="DejaVuSerif-Bold-31" d="M 878 0 
L 878 378 
L 1753 378 
L 1753 4153 
L 781 3578 
L 781 4044 
L 1953 4750 
L 2938 4750 
L 2938 378 
L 3816 378 
L 3816 0 
L 878 0 
z
" transform="scale(0.015625)"/>
     </defs>
     <use xlink:href="#DejaVuSerif-Bold-31"/>
    </g>
   </g>
  </g>
  <g id="axes_2">
   <g id="patch_4">
    <path d="M 448.6968 398.64 
L 836.5032 398.64 
Q 848.88 398.64 848.88 389.8848 
L 848.88 115.5552 
Q 848.88 106.8 836.5032 106.8 
L 448.6968 106.8 
Q 436.32 106.8 436.32 115.5552 
L 436.32 389.8848 
Q 436.32 398.64 448.6968 398.64 
z
" clip-path="url(#p73f2e1cc92)" style="fill: #ea580c; fill-opacity: 0.031373; stroke: #ea580c; stroke-width: 3; stroke-linejoin: miter"/>
   </g>
   <g id="text_7">
    <!-- MW Control -->
    <g style="fill: #ea580c" transform="translate(560.088 154.991) scale(0.16 -0.16)">
     <defs>
      <path id="DejaVuSerif-Bold-4d" d="M 269 0 
L 269 378 
L 863 378 
L 863 4288 
L 269 4288 
L 269 4666 
L 2194 4666 
L 3525 1672 
L 4863 4666 
L 6784 4666 
L 6784 4288 
L 6188 4288 
L 6188 378 
L 6784 378 
L 6784 0 
L 4384 0 
L 4384 378 
L 4978 378 
L 4978 3938 
L 3531 684 
L 2741 684 
L 1300 3938 
L 1300 378 
L 1894 378 
L 1894 0 
L 269 0 
z
" transform="scale(0.015625)"/>
      <path id="DejaVuSerif-Bold-57" d="M 5453 0 
L 4647 0 
L 3591 3397 
L 2534 0 
L 1728 0 
L 397 4288 
L -56 4288 
L -56 4666 
L 2156 4666 
L 2156 4288 
L 1656 4288 
L 2547 1422 
L 3553 4666 
L 4441 4666 
L 5466 1369 
L 6375 4288 
L 5819 4288 
L 5819 4666 
L 7263 4666 
L 7263 4288 
L 6784 4288 
L 5453 0 
z
" transform="scale(0.015625)"/>
      <path id="DejaVuSerif-Bold-43" d="M 4769 1331 
Q 4584 609 4106 259 
Q 3628 -91 2822 -91 
Q 1641 -91 955 561 
Q 269 1213 269 2328 
Q 269 3447 955 4098 
Q 1641 4750 2822 4750 
Q 3238 4750 3688 4650 
Q 4138 4550 4641 4347 
L 4641 3200 
L 4244 3200 
Q 4122 3788 3800 4080 
Q 3478 4372 2950 4372 
Q 2269 4372 1937 3870 
Q 1606 3369 1606 2328 
Q 1606 1288 1937 788 
Q 2269 288 2956 288 
Q 3422 288 3717 547 
Q 4013 806 4147 1331 
L 4769 1331 
z
" transform="scale(0.015625)"/>
     </defs>
     <use xlink:href="#DejaVuSerif-Bold-4d"/>
     <use xlink:href="#DejaVuSerif-Bold-57" transform="translate(110.693359 0)"/>
     <use xlink:href="#DejaVuSerif-Bold-20" transform="translate(222.998047 0)"/>
     <use xlink:href="#DejaVuSerif-Bold-43" transform="translate(257.8125 0)"/>
     <use xlink:href="#DejaVuSerif-Bold-6f" transform="translate(337.402344 0)"/>
     <use xlink:href="#DejaVuSerif-Bold-6e" transform="translate(404.101562 0)"/>
     <use xlink:href="#DejaVuSerif-Bold-74" transform="translate(476.806641 0)"/>
     <use xlink:href="#DejaVuSerif-Bold-72" transform="translate(522.998047 0)"/>
     <use xlink:href="#DejaVuSerif-Bold-6f" transform="translate(575.683594 0)"/>
     <use xlink:href="#DejaVuSerif-Bold-6c" transform="translate(642.382812 0)"/>
    </g>
   </g>
   <g id="text_8">
    <!-- Microwave pulse applied -->
    <g transform="translate(498.204 226.84725) scale(0.12 -0.12)">
     <defs>
      <path id="DejaVuSerif-4d" d="M 353 0 
L 353 331 
L 947 331 
L 947 4331 
L 319 4331 
L 319 4666 
L 1678 4666 
L 3316 1344 
L 4953 4666 
L 6228 4666 
L 6228 4331 
L 5606 4331 
L 5606 331 
L 6203 331 
L 6203 0 
L 4378 0 
L 4378 331 
L 4972 331 
L 4972 3938 
L 3372 684 
L 2931 684 
L 1331 3938 
L 1331 331 
L 1925 331 
L 1925 0 
L 353 0 
z
" transform="scale(0.015625)"/>
      <path id="DejaVuSerif-77" d="M 3072 3322 
L 3922 728 
L 4672 2988 
L 4191 2988 
L 4191 3322 
L 5394 3322 
L 5394 2988 
L 5025 2988 
L 4038 0 
L 3559 0 
L 2741 2484 
L 1919 0 
L 1459 0 
L 475 2988 
L 103 2988 
L 103 3322 
L 1606 3322 
L 1606 2988 
L 1069 2988 
L 1813 728 
L 2669 3322 
L 3072 3322 
z
" transform="scale(0.015625)"/>
     </defs>
     <use xlink:href="#DejaVuSerif-4d"/>
     <use xlink:href="#DejaVuSerif-69" transform="translate(102.392578 0)"/>
     <use xlink:href="#DejaVuSerif-63" transform="translate(134.375 0)"/>
     <use xlink:href="#DejaVuSerif-72" transform="translate(190.380859 0)"/>
     <use xlink:href="#DejaVuSerif-6f" transform="translate(238.183594 0)"/>
     <use xlink:href="#DejaVuSerif-77" transform="translate(298.388672 0)"/>
     <use xlink:href="#DejaVuSerif-61" transform="translate(383.984375 0)"/>
     <use xlink:href="#DejaVuSerif-76" transform="translate(443.603516 0)"/>
     <use xlink:href="#DejaVuSerif-65" transform="translate(500.097656 0)"/>
     <use xlink:href="#DejaVuSerif-20" transform="translate(559.277344 0)"/>
     <use xlink:href="#DejaVuSerif-70" transform="translate(591.064453 0)"/>
     <use xlink:href="#DejaVuSerif-75" transform="translate(655.078125 0)"/>
     <use xlink:href="#DejaVuSerif-6c" transform="translate(719.482422 0)"/>
     <use xlink:href="#DejaVuSerif-73" transform="translate(751.464844 0)"/>
     <use xlink:href="#DejaVuSerif-65" transform="translate(802.783203 0)"/>
     <use xlink:href="#DejaVuSerif-20" transform="translate(861.962891 0)"/>
     <use xlink:href="#DejaVuSerif-61" transform="translate(893.75 0)"/>
     <use xlink:href="#DejaVuSerif-70" transform="translate(953.369141 0)"/>
     <use xlink:href="#DejaVuSerif-70" transform="translate(1017.382812 0)"/>
     <use xlink:href="#DejaVuSerif-6c" transform="translate(1081.396484 0)"/>
     <use xlink:href="#DejaVuSerif-69" transform="translate(1113.378906 0)"/>
     <use xlink:href="#DejaVuSerif-65" transform="translate(1145.361328 0)"/>
     <use xlink:href="#DejaVuSerif-64" transform="translate(1204.541016 0)"/>
    </g>
   </g>
   <g id="text_9">
    <!-- Frequency $\approx$ 2.87 GHz -->
    <g transform="translate(498.204 264.5952) scale(0.12 -0.12)">
     <defs>
      <path id="DejaVuSerif-46" d="M 353 0 
L 353 331 
L 947 331 
L 947 4331 
L 353 4331 
L 353 4666 
L 4172 4666 
L 4172 3628 
L 3788 3628 
L 3788 4281 
L 1581 4281 
L 1581 2719 
L 3175 2719 
L 3175 3303 
L 3559 3303 
L 3559 1753 
L 3175 1753 
L 3175 2338 
L 1581 2338 
L 1581 331 
L 2328 331 
L 2328 0 
L 353 0 
z
" transform="scale(0.015625)"/>
      <path id="DejaVuSerif-71" d="M 3359 2988 
L 3359 -997 
L 3909 -997 
L 3909 -1331 
L 2241 -1331 
L 2241 -997 
L 2784 -997 
L 2784 519 
Q 2616 206 2355 57 
Q 2094 -91 1709 -91 
Q 1097 -91 708 395 
Q 319 881 319 1663 
Q 319 2444 706 2928 
Q 1094 3413 1709 3413 
Q 2094 3413 2355 3264 
Q 2616 3116 2784 2803 
L 2784 3322 
L 3909 3322 
L 3909 2988 
L 3359 2988 
z
M 2784 1825 
Q 2784 2422 2554 2737 
Q 2325 3053 1888 3053 
Q 1444 3053 1217 2703 
Q 991 2353 991 1663 
Q 991 975 1217 622 
Q 1444 269 1888 269 
Q 2325 269 2554 583 
Q 2784 897 2784 1497 
L 2784 1825 
z
" transform="scale(0.015625)"/>
      <path id="DejaVuSans-2248" d="M 4684 1947 
L 4684 1388 
Q 4356 1144 4076 1036 
Q 3797 928 3494 928 
Q 3150 928 2694 1113 
Q 2663 1125 2641 1134 
Q 2622 1141 2575 1159 
Q 2091 1350 1797 1350 
Q 1522 1350 1253 1231 
Q 984 1113 678 850 
L 678 1409 
Q 1006 1653 1286 1761 
Q 1566 1869 1869 1869 
Q 2213 1869 2672 1684 
Q 2706 1669 2722 1663 
Q 2741 1656 2788 1638 
Q 3272 1447 3566 1447 
Q 3834 1447 4098 1564 
Q 4363 1681 4684 1947 
z
M 4684 3163 
L 4684 2606 
Q 4356 2359 4076 2251 
Q 3797 2144 3494 2144 
Q 3150 2144 2694 2328 
Q 2663 2341 2641 2350 
Q 2622 2356 2575 2375 
Q 2091 2566 1797 2566 
Q 1522 2566 1253 2447 
Q 984 2328 678 2069 
L 678 2625 
Q 1006 2869 1286 2976 
Q 1566 3084 1869 3084 
Q 2213 3084 2672 2900 
Q 2703 2888 2719 2881 
Q 2741 2872 2788 2853 
Q 3272 2663 3566 2663 
Q 3834 2663 4098 2780 
Q 4363 2897 4684 3163 
z
" transform="scale(0.015625)"/>
      <path id="DejaVuSerif-2e" d="M 603 325 
Q 603 500 722 622 
Q 841 744 1019 744 
Q 1191 744 1312 622 
Q 1434 500 1434 325 
Q 1434 153 1312 31 
Q 1191 -91 1019 -91 
Q 841 -91 722 29 
Q 603 150 603 325 
z
" transform="scale(0.015625)"/>
      <path id="DejaVuSerif-38" d="M 2981 1275 
Q 2981 1775 2732 2051 
Q 2484 2328 2034 2328 
Q 1584 2328 1336 2051 
Q 1088 1775 1088 1275 
Q 1088 772 1336 495 
Q 1584 219 2034 219 
Q 2484 219 2732 495 
Q 2981 772 2981 1275 
z
M 2853 3541 
Q 2853 3966 2637 4203 
Q 2422 4441 2034 4441 
Q 1650 4441 1433 4203 
Q 1216 3966 1216 3541 
Q 1216 3113 1433 2875 
Q 1650 2638 2034 2638 
Q 2422 2638 2637 2875 
Q 2853 3113 2853 3541 
z
M 2516 2484 
Q 3047 2413 3344 2092 
Q 3641 1772 3641 1275 
Q 3641 619 3225 264 
Q 2809 -91 2034 -91 
Q 1263 -91 845 264 
Q 428 619 428 1275 
Q 428 1772 725 2092 
Q 1022 2413 1556 2484 
Q 1084 2569 832 2842 
Q 581 3116 581 3541 
Q 581 4103 968 4426 
Q 1356 4750 2034 4750 
Q 2713 4750 3100 4426 
Q 3488 4103 3488 3541 
Q 3488 3116 3236 2842 
Q 2984 2569 2516 2484 
z
" transform="scale(0.015625)"/>
      <path id="DejaVuSerif-37" d="M 3609 4347 
L 1784 0 
L 1319 0 
L 3059 4153 
L 903 4153 
L 903 3578 
L 538 3578 
L 538 4666 
L 3609 4666 
L 3609 4347 
z
" transform="scale(0.015625)"/>
      <path id="DejaVuSerif-48" d="M 353 0 
L 353 331 
L 947 331 
L 947 4331 
L 353 4331 
L 353 4666 
L 2175 4666 
L 2175 4331 
L 1581 4331 
L 1581 2719 
L 4000 2719 
L 4000 4331 
L 3406 4331 
L 3406 4666 
L 5228 4666 
L 5228 4331 
L 4634 4331 
L 4634 331 
L 5228 331 
L 5228 0 
L 3406 0 
L 3406 331 
L 4000 331 
L 4000 2338 
L 1581 2338 
L 1581 331 
L 2175 331 
L 2175 0 
L 353 0 
z
" transform="scale(0.015625)"/>
     </defs>
     <use xlink:href="#DejaVuSerif-46" transform="translate(0 0.78125)"/>
     <use xlink:href="#DejaVuSerif-72" transform="translate(69.384766 0.78125)"/>
     <use xlink:href="#DejaVuSerif-65" transform="translate(117.1875 0.78125)"/>
     <use xlink:href="#DejaVuSerif-71" transform="translate(176.367188 0.78125)"/>
     <use xlink:href="#DejaVuSerif-75" transform="translate(240.380859 0.78125)"/>
     <use xlink:href="#DejaVuSerif-65" transform="translate(304.785156 0.78125)"/>
     <use xlink:href="#DejaVuSerif-6e" transform="translate(363.964844 0.78125)"/>
     <use xlink:href="#DejaVuSerif-63" transform="translate(428.369141 0.78125)"/>
     <use xlink:href="#DejaVuSerif-79" transform="translate(484.375 0.78125)"/>
     <use xlink:href="#DejaVuSerif-20" transform="translate(540.869141 0.78125)"/>
     <use xlink:href="#DejaVuSans-2248" transform="translate(592.138672 0.78125)"/>
     <use xlink:href="#DejaVuSerif-20" transform="translate(695.410156 0.78125)"/>
     <use xlink:href="#DejaVuSerif-32" transform="translate(727.197266 0.78125)"/>
     <use xlink:href="#DejaVuSerif-2e" transform="translate(790.820312 0.78125)"/>
     <use xlink:href="#DejaVuSerif-38" transform="translate(818.982422 0.78125)"/>
     <use xlink:href="#DejaVuSerif-37" transform="translate(882.605469 0.78125)"/>
     <use xlink:href="#DejaVuSerif-20" transform="translate(946.228516 0.78125)"/>
     <use xlink:href="#DejaVuSerif-47" transform="translate(978.015625 0.78125)"/>
     <use xlink:href="#DejaVuSerif-48" transform="translate(1057.898438 0.78125)"/>
     <use xlink:href="#DejaVuSerif-7a" transform="translate(1145.105469 0.78125)"/>
    </g>
   </g>
   <g id="text_10">
    <!-- If resonant: $|0\rangle \to |\pm1\rangle$ -->
    <g transform="translate(498.204 302.5944) scale(0.12 -0.12)">
     <defs>
      <path id="DejaVuSerif-49" d="M 1581 331 
L 2175 331 
L 2175 0 
L 353 0 
L 353 331 
L 947 331 
L 947 4331 
L 353 4331 
L 353 4666 
L 2175 4666 
L 2175 4331 
L 1581 4331 
L 1581 331 
z
" transform="scale(0.015625)"/>
      <path id="DejaVuSerif-66" d="M 2753 4078 
L 2450 4078 
Q 2447 4313 2317 4434 
Q 2188 4556 1941 4556 
Q 1619 4556 1487 4379 
Q 1356 4203 1356 3750 
L 1356 3322 
L 2284 3322 
L 2284 2988 
L 1356 2988 
L 1356 331 
L 2094 331 
L 2094 0 
L 231 0 
L 231 331 
L 781 331 
L 781 2988 
L 231 2988 
L 231 3322 
L 781 3322 
L 781 3738 
Q 781 4294 1070 4578 
Q 1359 4863 1919 4863 
Q 2128 4863 2337 4825 
Q 2547 4788 2753 4709 
L 2753 4078 
z
" transform="scale(0.015625)"/>
      <path id="DejaVuSerif-3a" d="M 666 325 
Q 666 500 786 622 
Q 906 744 1081 744 
Q 1256 744 1376 622 
Q 1497 500 1497 325 
Q 1497 150 1378 29 
Q 1259 -91 1081 -91 
Q 903 -91 784 29 
Q 666 150 666 325 
z
M 666 2363 
Q 666 2538 786 2658 
Q 906 2778 1081 2778 
Q 1259 2778 1378 2659 
Q 1497 2541 1497 2363 
Q 1497 2184 1378 2065 
Q 1259 1947 1081 1947 
Q 906 1947 786 2067 
Q 666 2188 666 2363 
z
" transform="scale(0.015625)"/>
      <path id="DejaVuSans-2192" d="M 5050 2147 
L 5050 1866 
L 3822 638 
L 3447 1013 
L 4175 1741 
L 366 1741 
L 366 2272 
L 4175 2272 
L 3447 3000 
L 3822 3375 
L 5050 2147 
z
" transform="scale(0.015625)"/>
      <path id="DejaVuSans-b1" d="M 2944 4013 
L 2944 2803 
L 4684 2803 
L 4684 2272 
L 2944 2272 
L 2944 1063 
L 2419 1063 
L 2419 2272 
L 678 2272 
L 678 2803 
L 2419 2803 
L 2419 4013 
L 2944 4013 
z
M 678 531 
L 4684 531 
L 4684 0 
L 678 0 
L 678 531 
z
" transform="scale(0.015625)"/>
      <path id="DejaVuSans-31" d="M 794 531 
L 1825 531 
L 1825 4091 
L 703 3866 
L 703 4441 
L 1819 4666 
L 2450 4666 
L 2450 531 
L 3481 531 
L 3481 0 
L 794 0 
L 794 531 
z
" transform="scale(0.015625)"/>
     </defs>
     <use xlink:href="#DejaVuSerif-49" transform="translate(0 0.578125)"/>
     <use xlink:href="#DejaVuSerif-66" transform="translate(39.501953 0.578125)"/>
     <use xlink:href="#DejaVuSerif-20" transform="translate(76.513672 0.578125)"/>
     <use xlink:href="#DejaVuSerif-72" transform="translate(108.300781 0.578125)"/>
     <use xlink:href="#DejaVuSerif-65" transform="translate(156.103516 0.578125)"/>
     <use xlink:href="#DejaVuSerif-73" transform="translate(215.283203 0.578125)"/>
     <use xlink:href="#DejaVuSerif-6f" transform="translate(266.601562 0.578125)"/>
     <use xlink:href="#DejaVuSerif-6e" transform="translate(326.806641 0.578125)"/>
     <use xlink:href="#DejaVuSerif-61" transform="translate(391.210938 0.578125)"/>
     <use xlink:href="#DejaVuSerif-6e" transform="translate(450.830078 0.578125)"/>
     <use xlink:href="#DejaVuSerif-74" transform="translate(515.234375 0.578125)"/>
     <use xlink:href="#DejaVuSerif-3a" transform="translate(555.419922 0.578125)"/>
     <use xlink:href="#DejaVuSerif-20" transform="translate(589.111328 0.578125)"/>
     <use xlink:href="#DejaVuSans-7c" transform="translate(620.898438 0.578125)"/>
     <use xlink:href="#DejaVuSans-30" transform="translate(654.589844 0.578125)"/>
     <use xlink:href="#DejaVuSans-27e9" transform="translate(718.212891 0.578125)"/>
     <use xlink:href="#DejaVuSans-2192" transform="translate(776.708984 0.578125)"/>
     <use xlink:href="#DejaVuSans-7c" transform="translate(879.980469 0.578125)"/>
     <use xlink:href="#DejaVuSans-b1" transform="translate(933.154297 0.578125)"/>
     <use xlink:href="#DejaVuSans-31" transform="translate(1036.425781 0.578125)"/>
     <use xlink:href="#DejaVuSans-27e9" transform="translate(1100.048828 0.578125)"/>
    </g>
   </g>
   <g id="text_11">
    <!-- Coherent spin rotation -->
    <g transform="translate(498.204 340.66485) scale(0.12 -0.12)">
     <defs>
      <path id="DejaVuSerif-Bold-70" d="M 1728 1825 
L 1728 1497 
Q 1728 916 1876 656 
Q 2025 397 2356 397 
Q 2697 397 2836 672 
Q 2975 947 2975 1663 
Q 2975 2378 2836 2651 
Q 2697 2925 2356 2925 
Q 2025 2925 1876 2665 
Q 1728 2406 1728 1825 
z
M 622 2944 
L 147 2944 
L 147 3322 
L 1728 3322 
L 1728 2900 
Q 1869 3159 2106 3286 
Q 2344 3413 2694 3413 
Q 3403 3413 3811 2945 
Q 4219 2478 4219 1663 
Q 4219 847 3811 378 
Q 3403 -91 2694 -91 
Q 2344 -91 2106 36 
Q 1869 163 1728 422 
L 1728 -953 
L 2241 -953 
L 2241 -1331 
L 147 -1331 
L 147 -953 
L 622 -953 
L 622 2944 
z
" transform="scale(0.015625)"/>
     </defs>
     <use xlink:href="#DejaVuSerif-Bold-43"/>
     <use xlink:href="#DejaVuSerif-Bold-6f" transform="translate(79.589844 0)"/>
     <use xlink:href="#DejaVuSerif-Bold-68" transform="translate(146.289062 0)"/>
     <use xlink:href="#DejaVuSerif-Bold-65" transform="translate(218.994141 0)"/>
     <use xlink:href="#DejaVuSerif-Bold-72" transform="translate(282.617188 0)"/>
     <use xlink:href="#DejaVuSerif-Bold-65" transform="translate(335.302734 0)"/>
     <use xlink:href="#DejaVuSerif-Bold-6e" transform="translate(398.925781 0)"/>
     <use xlink:href="#DejaVuSerif-Bold-74" transform="translate(471.630859 0)"/>
     <use xlink:href="#DejaVuSerif-Bold-20" transform="translate(517.822266 0)"/>
     <use xlink:href="#DejaVuSerif-Bold-73" transform="translate(552.636719 0)"/>
     <use xlink:href="#DejaVuSerif-Bold-70" transform="translate(608.935547 0)"/>
     <use xlink:href="#DejaVuSerif-Bold-69" transform="translate(678.857422 0)"/>
     <use xlink:href="#DejaVuSerif-Bold-6e" transform="translate(716.845703 0)"/>
     <use xlink:href="#DejaVuSerif-Bold-20" transform="translate(789.550781 0)"/>
     <use xlink:href="#DejaVuSerif-Bold-72" transform="translate(824.365234 0)"/>
     <use xlink:href="#DejaVuSerif-Bold-6f" transform="translate(877.050781 0)"/>
     <use xlink:href="#DejaVuSerif-Bold-74" transform="translate(943.75 0)"/>
     <use xlink:href="#DejaVuSerif-Bold-61" transform="translate(989.941406 0)"/>
     <use xlink:href="#DejaVuSerif-Bold-74" transform="translate(1054.736328 0)"/>
     <use xlink:href="#DejaVuSerif-Bold-69" transform="translate(1100.927734 0)"/>
     <use xlink:href="#DejaVuSerif-Bold-6f" transform="translate(1138.916016 0)"/>
     <use xlink:href="#DejaVuSerif-Bold-6e" transform="translate(1205.615234 0)"/>
    </g>
   </g>
   <g id="patch_5">
    <path d="M 498.204 171.0048 
C 505.862853 171.0048 513.209051 168.852293 518.624678 165.021343 
C 524.040305 161.190393 527.0832 155.993781 527.0832 150.576 
C 527.0832 145.158219 524.040305 139.961607 518.624678 136.130657 
C 513.209051 132.299707 505.862853 130.1472 498.204 130.1472 
C 490.545147 130.1472 483.198949 132.299707 477.783322 136.130657 
C 472.367695 139.961607 469.3248 145.158219 469.3248 150.576 
C 469.3248 155.993781 472.367695 161.190393 477.783322 165.021343 
C 483.198949 168.852293 490.545147 171.0048 498.204 171.0048 
z
" clip-path="url(#p73f2e1cc92)" style="fill: #ea580c; stroke: #ea580c; stroke-linejoin: miter"/>
   </g>
   <g id="text_12">
    <!-- 2 -->
    <g style="fill: #ffffff" transform="translate(491.941969 155.542875) scale(0.18 -0.18)">
     <defs>
      <path id="DejaVuSerif-Bold-32" d="M 844 3513 
L 469 3513 
L 469 4519 
Q 850 4634 1223 4692 
Q 1597 4750 1978 4750 
Q 2869 4750 3367 4386 
Q 3866 4022 3866 3372 
Q 3866 2909 3591 2542 
Q 3316 2175 2541 1672 
L 1241 819 
L 3450 819 
L 3450 1369 
L 3878 1369 
L 3878 0 
L 428 0 
L 428 763 
L 1119 1241 
Q 2003 1850 2297 2278 
Q 2591 2706 2591 3278 
Q 2591 3819 2367 4101 
Q 2144 4384 1716 4384 
Q 1347 4384 1125 4161 
Q 903 3938 844 3513 
z
" transform="scale(0.015625)"/>
     </defs>
     <use xlink:href="#DejaVuSerif-Bold-32"/>
    </g>
   </g>
  </g>
  <g id="axes_3">
   <g id="patch_6">
    <path d="M 23.1768 703.44 
L 410.9832 703.44 
Q 423.36 703.44 423.36 694.6848 
L 423.36 420.3552 
Q 423.36 411.6 410.9832 411.6 
L 23.1768 411.6 
Q 10.8 411.6 10.8 420.3552 
L 10.8 694.6848 
Q 10.8 703.44 23.1768 703.44 
z
" clip-path="url(#p2e0c943e8b)" style="fill: #2563eb; fill-opacity: 0.031373; stroke: #2563eb; stroke-width: 3; stroke-linejoin: miter"/>
   </g>
   <g id="text_13">
    <!-- Sensing -->
    <g style="fill: #2563eb" transform="translate(134.568 459.67725) scale(0.16 -0.16)">
     <defs>
      <path id="DejaVuSerif-Bold-53" d="M 494 225 
L 494 1331 
L 891 1331 
Q 981 806 1318 547 
Q 1656 288 2253 288 
Q 2738 288 2991 472 
Q 3244 656 3244 1013 
Q 3244 1294 3072 1450 
Q 2900 1606 2363 1741 
L 1663 1913 
Q 978 2088 700 2398 
Q 422 2709 422 3284 
Q 422 3978 883 4364 
Q 1344 4750 2175 4750 
Q 2584 4750 3026 4681 
Q 3469 4613 3944 4475 
L 3944 3444 
L 3547 3444 
Q 3456 3925 3150 4148 
Q 2844 4372 2278 4372 
Q 1816 4372 1580 4211 
Q 1344 4050 1344 3731 
Q 1344 3441 1506 3289 
Q 1669 3138 2303 2975 
L 3003 2803 
Q 3653 2641 3945 2297 
Q 4238 1953 4238 1350 
Q 4238 644 3750 276 
Q 3263 -91 2316 -91 
Q 1859 -91 1409 -12 
Q 959 66 494 225 
z
" transform="scale(0.015625)"/>
     </defs>
     <use xlink:href="#DejaVuSerif-Bold-53"/>
     <use xlink:href="#DejaVuSerif-Bold-65" transform="translate(72.216797 0)"/>
     <use xlink:href="#DejaVuSerif-Bold-6e" transform="translate(135.839844 0)"/>
     <use xlink:href="#DejaVuSerif-Bold-73" transform="translate(208.544922 0)"/>
     <use xlink:href="#DejaVuSerif-Bold-69" transform="translate(264.84375 0)"/>
     <use xlink:href="#DejaVuSerif-Bold-6e" transform="translate(302.832031 0)"/>
     <use xlink:href="#DejaVuSerif-Bold-67" transform="translate(375.537109 0)"/>
    </g>
   </g>
   <g id="text_14">
    <!-- Spin evolves freely -->
    <g transform="translate(72.684 531.561937) scale(0.12 -0.12)">
     <use xlink:href="#DejaVuSerif-53"/>
     <use xlink:href="#DejaVuSerif-70" transform="translate(68.505859 0)"/>
     <use xlink:href="#DejaVuSerif-69" transform="translate(132.519531 0)"/>
     <use xlink:href="#DejaVuSerif-6e" transform="translate(164.501953 0)"/>
     <use xlink:href="#DejaVuSerif-20" transform="translate(228.90625 0)"/>
     <use xlink:href="#DejaVuSerif-65" transform="translate(260.693359 0)"/>
     <use xlink:href="#DejaVuSerif-76" transform="translate(319.873047 0)"/>
     <use xlink:href="#DejaVuSerif-6f" transform="translate(376.367188 0)"/>
     <use xlink:href="#DejaVuSerif-6c" transform="translate(436.572266 0)"/>
     <use xlink:href="#DejaVuSerif-76" transform="translate(468.554688 0)"/>
     <use xlink:href="#DejaVuSerif-65" transform="translate(525.048828 0)"/>
     <use xlink:href="#DejaVuSerif-73" transform="translate(584.228516 0)"/>
     <use xlink:href="#DejaVuSerif-20" transform="translate(635.546875 0)"/>
     <use xlink:href="#DejaVuSerif-66" transform="translate(667.333984 0)"/>
     <use xlink:href="#DejaVuSerif-72" transform="translate(704.345703 0)"/>
     <use xlink:href="#DejaVuSerif-65" transform="translate(752.148438 0)"/>
     <use xlink:href="#DejaVuSerif-65" transform="translate(811.328125 0)"/>
     <use xlink:href="#DejaVuSerif-6c" transform="translate(870.507812 0)"/>
     <use xlink:href="#DejaVuSerif-79" transform="translate(902.490234 0)"/>
    </g>
   </g>
   <g id="text_15">
    <!-- Accumulates phase from: -->
    <g transform="translate(72.684 569.58645) scale(0.12 -0.12)">
     <defs>
      <path id="DejaVuSerif-41" d="M 1281 1691 
L 2994 1691 
L 2138 3909 
L 1281 1691 
z
M -38 0 
L -38 331 
L 372 331 
L 2034 4666 
L 2559 4666 
L 4225 331 
L 4684 331 
L 4684 0 
L 2988 0 
L 2988 331 
L 3506 331 
L 3116 1356 
L 1153 1356 
L 763 331 
L 1275 331 
L 1275 0 
L -38 0 
z
" transform="scale(0.015625)"/>
      <path id="DejaVuSerif-68" d="M 263 0 
L 263 331 
L 781 331 
L 781 4531 
L 231 4531 
L 231 4863 
L 1356 4863 
L 1356 2731 
Q 1516 3069 1770 3241 
Q 2025 3413 2363 3413 
Q 2913 3413 3172 3097 
Q 3431 2781 3431 2113 
L 3431 331 
L 3944 331 
L 3944 0 
L 2356 0 
L 2356 331 
L 2853 331 
L 2853 1931 
Q 2853 2541 2704 2764 
Q 2556 2988 2175 2988 
Q 1775 2988 1565 2697 
Q 1356 2406 1356 1850 
L 1356 331 
L 1856 331 
L 1856 0 
L 263 0 
z
" transform="scale(0.015625)"/>
     </defs>
     <use xlink:href="#DejaVuSerif-41"/>
     <use xlink:href="#DejaVuSerif-63" transform="translate(72.216797 0)"/>
     <use xlink:href="#DejaVuSerif-63" transform="translate(128.222656 0)"/>
     <use xlink:href="#DejaVuSerif-75" transform="translate(184.228516 0)"/>
     <use xlink:href="#DejaVuSerif-6d" transform="translate(248.632812 0)"/>
     <use xlink:href="#DejaVuSerif-75" transform="translate(343.457031 0)"/>
     <use xlink:href="#DejaVuSerif-6c" transform="translate(407.861328 0)"/>
     <use xlink:href="#DejaVuSerif-61" transform="translate(439.84375 0)"/>
     <use xlink:href="#DejaVuSerif-74" transform="translate(499.462891 0)"/>
     <use xlink:href="#DejaVuSerif-65" transform="translate(539.648438 0)"/>
     <use xlink:href="#DejaVuSerif-73" transform="translate(598.828125 0)"/>
     <use xlink:href="#DejaVuSerif-20" transform="translate(650.146484 0)"/>
     <use xlink:href="#DejaVuSerif-70" transform="translate(681.933594 0)"/>
     <use xlink:href="#DejaVuSerif-68" transform="translate(745.947266 0)"/>
     <use xlink:href="#DejaVuSerif-61" transform="translate(810.351562 0)"/>
     <use xlink:href="#DejaVuSerif-73" transform="translate(869.970703 0)"/>
     <use xlink:href="#DejaVuSerif-65" transform="translate(921.289062 0)"/>
     <use xlink:href="#DejaVuSerif-20" transform="translate(980.46875 0)"/>
     <use xlink:href="#DejaVuSerif-66" transform="translate(1012.255859 0)"/>
     <use xlink:href="#DejaVuSerif-72" transform="translate(1049.267578 0)"/>
     <use xlink:href="#DejaVuSerif-6f" transform="translate(1097.070312 0)"/>
     <use xlink:href="#DejaVuSerif-6d" transform="translate(1157.275391 0)"/>
     <use xlink:href="#DejaVuSerif-3a" transform="translate(1252.099609 0)"/>
    </g>
   </g>
   <g id="text_16">
    <!-- B-field, temperature, -->
    <g transform="translate(72.684 607.52565) scale(0.12 -0.12)">
     <defs>
      <path id="DejaVuSerif-42" d="M 1581 331 
L 2516 331 
Q 3078 331 3337 575 
Q 3597 819 3597 1350 
Q 3597 1878 3339 2120 
Q 3081 2363 2516 2363 
L 1581 2363 
L 1581 331 
z
M 1581 2694 
L 2375 2694 
Q 2888 2694 3123 2891 
Q 3359 3088 3359 3513 
Q 3359 3941 3123 4136 
Q 2888 4331 2375 4331 
L 1581 4331 
L 1581 2694 
z
M 353 0 
L 353 331 
L 947 331 
L 947 4331 
L 353 4331 
L 353 4666 
L 2656 4666 
Q 3363 4666 3720 4377 
Q 4078 4088 4078 3513 
Q 4078 3097 3829 2850 
Q 3581 2603 3103 2547 
Q 3697 2472 4005 2167 
Q 4313 1863 4313 1350 
Q 4313 656 3875 328 
Q 3438 0 2509 0 
L 353 0 
z
" transform="scale(0.015625)"/>
      <path id="DejaVuSerif-2d" d="M 281 1959 
L 1881 1959 
L 1881 1472 
L 281 1472 
L 281 1959 
z
" transform="scale(0.015625)"/>
      <path id="DejaVuSerif-2c" d="M 231 -622 
Q 525 -406 662 -114 
Q 800 178 800 594 
L 800 709 
L 1416 709 
Q 1391 175 1164 -208 
Q 938 -591 481 -872 
L 231 -622 
z
" transform="scale(0.015625)"/>
     </defs>
     <use xlink:href="#DejaVuSerif-42"/>
     <use xlink:href="#DejaVuSerif-2d" transform="translate(75.361328 0)"/>
     <use xlink:href="#DejaVuSerif-66" transform="translate(109.150391 0)"/>
     <use xlink:href="#DejaVuSerif-69" transform="translate(146.162109 0)"/>
     <use xlink:href="#DejaVuSerif-65" transform="translate(178.144531 0)"/>
     <use xlink:href="#DejaVuSerif-6c" transform="translate(237.324219 0)"/>
     <use xlink:href="#DejaVuSerif-64" transform="translate(269.306641 0)"/>
     <use xlink:href="#DejaVuSerif-2c" transform="translate(333.320312 0)"/>
     <use xlink:href="#DejaVuSerif-20" transform="translate(365.107422 0)"/>
     <use xlink:href="#DejaVuSerif-74" transform="translate(396.894531 0)"/>
     <use xlink:href="#DejaVuSerif-65" transform="translate(437.080078 0)"/>
     <use xlink:href="#DejaVuSerif-6d" transform="translate(496.259766 0)"/>
     <use xlink:href="#DejaVuSerif-70" transform="translate(591.083984 0)"/>
     <use xlink:href="#DejaVuSerif-65" transform="translate(655.097656 0)"/>
     <use xlink:href="#DejaVuSerif-72" transform="translate(714.277344 0)"/>
     <use xlink:href="#DejaVuSerif-61" transform="translate(762.080078 0)"/>
     <use xlink:href="#DejaVuSerif-74" transform="translate(821.699219 0)"/>
     <use xlink:href="#DejaVuSerif-75" transform="translate(861.884766 0)"/>
     <use xlink:href="#DejaVuSerif-72" transform="translate(926.289062 0)"/>
     <use xlink:href="#DejaVuSerif-65" transform="translate(974.091797 0)"/>
     <use xlink:href="#DejaVuSerif-2c" transform="translate(1033.271484 0)"/>
    </g>
   </g>
   <g id="text_17">
    <!-- strain, electric field -->
    <g transform="translate(72.684 645.46485) scale(0.12 -0.12)">
     <defs>
      <path id="DejaVuSerif-Bold-2c" d="M 84 -616 
Q 409 -353 562 -28 
Q 716 297 716 728 
L 716 997 
L 1606 997 
L 1606 972 
Q 1606 281 1317 -217 
Q 1028 -716 428 -1056 
L 84 -616 
z
" transform="scale(0.015625)"/>
      <path id="DejaVuSerif-Bold-64" d="M 2747 1497 
L 2747 1825 
Q 2747 2406 2597 2665 
Q 2447 2925 2119 2925 
Q 1775 2925 1636 2651 
Q 1497 2378 1497 1663 
Q 1497 947 1637 672 
Q 1778 397 2119 397 
Q 2447 397 2597 656 
Q 2747 916 2747 1497 
z
M 3853 378 
L 4325 378 
L 4325 0 
L 2747 0 
L 2747 422 
Q 2606 163 2367 36 
Q 2128 -91 1778 -91 
Q 1072 -91 667 378 
Q 263 847 263 1663 
Q 263 2481 667 2947 
Q 1072 3413 1778 3413 
Q 2128 3413 2367 3286 
Q 2606 3159 2747 2900 
L 2747 4488 
L 2272 4488 
L 2272 4863 
L 3853 4863 
L 3853 378 
z
" transform="scale(0.015625)"/>
     </defs>
     <use xlink:href="#DejaVuSerif-Bold-73"/>
     <use xlink:href="#DejaVuSerif-Bold-74" transform="translate(56.298828 0)"/>
     <use xlink:href="#DejaVuSerif-Bold-72" transform="translate(102.490234 0)"/>
     <use xlink:href="#DejaVuSerif-Bold-61" transform="translate(155.175781 0)"/>
     <use xlink:href="#DejaVuSerif-Bold-69" transform="translate(219.970703 0)"/>
     <use xlink:href="#DejaVuSerif-Bold-6e" transform="translate(257.958984 0)"/>
     <use xlink:href="#DejaVuSerif-Bold-2c" transform="translate(330.664062 0)"/>
     <use xlink:href="#DejaVuSerif-Bold-20" transform="translate(365.478516 0)"/>
     <use xlink:href="#DejaVuSerif-Bold-65" transform="translate(400.292969 0)"/>
     <use xlink:href="#DejaVuSerif-Bold-6c" transform="translate(463.916016 0)"/>
     <use xlink:href="#DejaVuSerif-Bold-65" transform="translate(501.904297 0)"/>
     <use xlink:href="#DejaVuSerif-Bold-63" transform="translate(565.527344 0)"/>
     <use xlink:href="#DejaVuSerif-Bold-74" transform="translate(626.416016 0)"/>
     <use xlink:href="#DejaVuSerif-Bold-72" transform="translate(672.607422 0)"/>
     <use xlink:href="#DejaVuSerif-Bold-69" transform="translate(725.292969 0)"/>
     <use xlink:href="#DejaVuSerif-Bold-63" transform="translate(763.28125 0)"/>
     <use xlink:href="#DejaVuSerif-Bold-20" transform="translate(824.169922 0)"/>
     <use xlink:href="#DejaVuSerif-Bold-66" transform="translate(858.984375 0)"/>
     <use xlink:href="#DejaVuSerif-Bold-69" transform="translate(902.001953 0)"/>
     <use xlink:href="#DejaVuSerif-Bold-65" transform="translate(939.990234 0)"/>
     <use xlink:href="#DejaVuSerif-Bold-6c" transform="translate(1003.613281 0)"/>
     <use xlink:href="#DejaVuSerif-Bold-64" transform="translate(1041.601562 0)"/>
    </g>
   </g>
   <g id="patch_7">
    <path d="M 72.684 475.8048 
C 80.342853 475.8048 87.689051 473.652293 93.104678 469.821343 
C 98.520305 465.990393 101.5632 460.793781 101.5632 455.376 
C 101.5632 449.958219 98.520305 444.761607 93.104678 440.930657 
C 87.689051 437.099707 80.342853 434.9472 72.684 434.9472 
C 65.025147 434.9472 57.678949 437.099707 52.263322 440.930657 
C 46.847695 444.761607 43.8048 449.958219 43.8048 455.376 
C 43.8048 460.793781 46.847695 465.990393 52.263322 469.821343 
C 57.678949 473.652293 65.025147 475.8048 72.684 475.8048 
z
" clip-path="url(#p2e0c943e8b)" style="fill: #2563eb; stroke: #2563eb; stroke-linejoin: miter"/>
   </g>
   <g id="text_18">
    <!-- 3 -->
    <g style="fill: #ffffff" transform="translate(66.421969 460.342875) scale(0.18 -0.18)">
     <defs>
      <path id="DejaVuSerif-Bold-33" d="M 550 4531 
Q 963 4641 1350 4695 
Q 1738 4750 2106 4750 
Q 2950 4750 3401 4448 
Q 3853 4147 3853 3584 
Q 3853 3163 3593 2900 
Q 3334 2638 2834 2547 
Q 3444 2450 3744 2131 
Q 4044 1813 4044 1259 
Q 4044 606 3526 257 
Q 3009 -91 2028 -91 
Q 1659 -91 1267 -28 
Q 875 34 447 159 
L 447 1184 
L 825 1184 
Q 859 741 1103 508 
Q 1347 275 1778 275 
Q 2253 275 2512 539 
Q 2772 803 2772 1288 
Q 2772 1794 2501 2069 
Q 2231 2344 1734 2344 
L 1528 2344 
L 1528 2719 
L 1691 2719 
Q 2150 2719 2381 2931 
Q 2613 3144 2613 3566 
Q 2613 3963 2395 4173 
Q 2178 4384 1772 4384 
Q 1403 4384 1187 4182 
Q 972 3981 928 3597 
L 550 3597 
L 550 4531 
z
" transform="scale(0.015625)"/>
     </defs>
     <use xlink:href="#DejaVuSerif-Bold-33"/>
    </g>
   </g>
  </g>
  <g id="axes_4">
   <g id="patch_8">
    <path d="M 448.6968 703.44 
L 836.5032 703.44 
Q 848.88 703.44 848.88 694.6848 
L 848.88 420.3552 
Q 848.88 411.6 836.5032 411.6 
L 448.6968 411.6 
Q 436.32 411.6 436.32 420.3552 
L 436.32 694.6848 
Q 436.32 703.44 448.6968 703.44 
z
" clip-path="url(#pcb915194bb)" style="fill: #dc2626; fill-opacity: 0.031373; stroke: #dc2626; stroke-width: 3; stroke-linejoin: miter"/>
   </g>
   <g id="text_19">
    <!-- Readout -->
    <g style="fill: #dc2626" transform="translate(560.088 459.791) scale(0.16 -0.16)">
     <defs>
      <path id="DejaVuSerif-Bold-52" d="M 3397 2278 
Q 3675 2238 3865 2094 
Q 4056 1950 4197 1678 
L 4878 378 
L 5356 378 
L 5356 0 
L 3822 0 
L 3078 1409 
Q 2863 1847 2711 1967 
Q 2559 2088 2291 2088 
L 2100 2088 
L 2100 378 
L 2700 378 
L 2700 0 
L 300 0 
L 300 378 
L 897 378 
L 897 4288 
L 300 4288 
L 300 4666 
L 2963 4666 
Q 3775 4666 4217 4339 
Q 4659 4013 4659 3413 
Q 4659 2925 4345 2642 
Q 4031 2359 3397 2278 
z
M 2100 2463 
L 2509 2463 
Q 2947 2463 3183 2700 
Q 3419 2938 3419 3378 
Q 3419 3819 3183 4053 
Q 2947 4288 2509 4288 
L 2100 4288 
L 2100 2463 
z
" transform="scale(0.015625)"/>
     </defs>
     <use xlink:href="#DejaVuSerif-Bold-52"/>
     <use xlink:href="#DejaVuSerif-Bold-65" transform="translate(83.105469 0)"/>
     <use xlink:href="#DejaVuSerif-Bold-61" transform="translate(146.728516 0)"/>
     <use xlink:href="#DejaVuSerif-Bold-64" transform="translate(211.523438 0)"/>
     <use xlink:href="#DejaVuSerif-Bold-6f" transform="translate(281.445312 0)"/>
     <use xlink:href="#DejaVuSerif-Bold-75" transform="translate(348.144531 0)"/>
     <use xlink:href="#DejaVuSerif-Bold-74" transform="translate(420.849609 0)"/>
    </g>
   </g>
   <g id="text_20">
    <!-- Second green laser pulse -->
    <g transform="translate(498.204 531.561937) scale(0.12 -0.12)">
     <use xlink:href="#DejaVuSerif-53"/>
     <use xlink:href="#DejaVuSerif-65" transform="translate(68.505859 0)"/>
     <use xlink:href="#DejaVuSerif-63" transform="translate(127.685547 0)"/>
     <use xlink:href="#DejaVuSerif-6f" transform="translate(183.691406 0)"/>
     <use xlink:href="#DejaVuSerif-6e" transform="translate(243.896484 0)"/>
     <use xlink:href="#DejaVuSerif-64" transform="translate(308.300781 0)"/>
     <use xlink:href="#DejaVuSerif-20" transform="translate(372.314453 0)"/>
     <use xlink:href="#DejaVuSerif-67" transform="translate(404.101562 0)"/>
     <use xlink:href="#DejaVuSerif-72" transform="translate(468.115234 0)"/>
     <use xlink:href="#DejaVuSerif-65" transform="translate(515.917969 0)"/>
     <use xlink:href="#DejaVuSerif-65" transform="translate(575.097656 0)"/>
     <use xlink:href="#DejaVuSerif-6e" transform="translate(634.277344 0)"/>
     <use xlink:href="#DejaVuSerif-20" transform="translate(698.681641 0)"/>
     <use xlink:href="#DejaVuSerif-6c" transform="translate(730.46875 0)"/>
     <use xlink:href="#DejaVuSerif-61" transform="translate(762.451172 0)"/>
     <use xlink:href="#DejaVuSerif-73" transform="translate(822.070312 0)"/>
     <use xlink:href="#DejaVuSerif-65" transform="translate(873.388672 0)"/>
     <use xlink:href="#DejaVuSerif-72" transform="translate(932.568359 0)"/>
     <use xlink:href="#DejaVuSerif-20" transform="translate(980.371094 0)"/>
     <use xlink:href="#DejaVuSerif-70" transform="translate(1012.158203 0)"/>
     <use xlink:href="#DejaVuSerif-75" transform="translate(1076.171875 0)"/>
     <use xlink:href="#DejaVuSerif-6c" transform="translate(1140.576172 0)"/>
     <use xlink:href="#DejaVuSerif-73" transform="translate(1172.558594 0)"/>
     <use xlink:href="#DejaVuSerif-65" transform="translate(1223.876953 0)"/>
    </g>
   </g>
   <g id="text_21">
    <!-- $|0\rangle \to$ Bright (more photons) -->
    <g transform="translate(498.204 569.4552) scale(0.12 -0.12)">
     <use xlink:href="#DejaVuSans-7c" transform="translate(0 0.578125)"/>
     <use xlink:href="#DejaVuSans-30" transform="translate(33.691406 0.578125)"/>
     <use xlink:href="#DejaVuSans-27e9" transform="translate(97.314453 0.578125)"/>
     <use xlink:href="#DejaVuSans-2192" transform="translate(155.810547 0.578125)"/>
     <use xlink:href="#DejaVuSerif-20" transform="translate(259.082031 0.578125)"/>
     <use xlink:href="#DejaVuSerif-42" transform="translate(290.869141 0.578125)"/>
     <use xlink:href="#DejaVuSerif-72" transform="translate(364.355469 0.578125)"/>
     <use xlink:href="#DejaVuSerif-69" transform="translate(412.158203 0.578125)"/>
     <use xlink:href="#DejaVuSerif-67" transform="translate(444.140625 0.578125)"/>
     <use xlink:href="#DejaVuSerif-68" transform="translate(508.154297 0.578125)"/>
     <use xlink:href="#DejaVuSerif-74" transform="translate(572.558594 0.578125)"/>
     <use xlink:href="#DejaVuSerif-20" transform="translate(612.744141 0.578125)"/>
     <use xlink:href="#DejaVuSerif-28" transform="translate(644.53125 0.578125)"/>
     <use xlink:href="#DejaVuSerif-6d" transform="translate(683.544922 0.578125)"/>
     <use xlink:href="#DejaVuSerif-6f" transform="translate(778.369141 0.578125)"/>
     <use xlink:href="#DejaVuSerif-72" transform="translate(838.574219 0.578125)"/>
     <use xlink:href="#DejaVuSerif-65" transform="translate(886.376953 0.578125)"/>
     <use xlink:href="#DejaVuSerif-20" transform="translate(945.556641 0.578125)"/>
     <use xlink:href="#DejaVuSerif-70" transform="translate(977.34375 0.578125)"/>
     <use xlink:href="#DejaVuSerif-68" transform="translate(1041.357422 0.578125)"/>
     <use xlink:href="#DejaVuSerif-6f" transform="translate(1105.761719 0.578125)"/>
     <use xlink:href="#DejaVuSerif-74" transform="translate(1165.966797 0.578125)"/>
     <use xlink:href="#DejaVuSerif-6f" transform="translate(1206.152344 0.578125)"/>
     <use xlink:href="#DejaVuSerif-6e" transform="translate(1266.357422 0.578125)"/>
     <use xlink:href="#DejaVuSerif-73" transform="translate(1330.761719 0.578125)"/>
     <use xlink:href="#DejaVuSerif-29" transform="translate(1382.080078 0.578125)"/>
    </g>
   </g>
   <g id="text_22">
    <!-- $|\pm1\rangle \to$ Dim (fewer photons) -->
    <g transform="translate(498.204 607.3944) scale(0.12 -0.12)">
     <defs>
      <path id="DejaVuSerif-44" d="M 1581 331 
L 2163 331 
Q 3072 331 3558 850 
Q 4044 1369 4044 2338 
Q 4044 3306 3559 3818 
Q 3075 4331 2163 4331 
L 1581 4331 
L 1581 331 
z
M 353 0 
L 353 331 
L 947 331 
L 947 4331 
L 353 4331 
L 353 4666 
L 2209 4666 
Q 3416 4666 4089 4050 
Q 4763 3434 4763 2338 
Q 4763 1238 4088 619 
Q 3413 0 2209 0 
L 353 0 
z
" transform="scale(0.015625)"/>
     </defs>
     <use xlink:href="#DejaVuSans-7c" transform="translate(0 0.578125)"/>
     <use xlink:href="#DejaVuSans-b1" transform="translate(53.173828 0.578125)"/>
     <use xlink:href="#DejaVuSans-31" transform="translate(156.445312 0.578125)"/>
     <use xlink:href="#DejaVuSans-27e9" transform="translate(220.068359 0.578125)"/>
     <use xlink:href="#DejaVuSans-2192" transform="translate(278.564453 0.578125)"/>
     <use xlink:href="#DejaVuSerif-20" transform="translate(381.835938 0.578125)"/>
     <use xlink:href="#DejaVuSerif-44" transform="translate(413.623047 0.578125)"/>
     <use xlink:href="#DejaVuSerif-69" transform="translate(493.798828 0.578125)"/>
     <use xlink:href="#DejaVuSerif-6d" transform="translate(525.78125 0.578125)"/>
     <use xlink:href="#DejaVuSerif-20" transform="translate(620.605469 0.578125)"/>
     <use xlink:href="#DejaVuSerif-28" transform="translate(652.392578 0.578125)"/>
     <use xlink:href="#DejaVuSerif-66" transform="translate(691.40625 0.578125)"/>
     <use xlink:href="#DejaVuSerif-65" transform="translate(728.417969 0.578125)"/>
     <use xlink:href="#DejaVuSerif-77" transform="translate(787.597656 0.578125)"/>
     <use xlink:href="#DejaVuSerif-65" transform="translate(873.193359 0.578125)"/>
     <use xlink:href="#DejaVuSerif-72" transform="translate(932.373047 0.578125)"/>
     <use xlink:href="#DejaVuSerif-20" transform="translate(980.175781 0.578125)"/>
     <use xlink:href="#DejaVuSerif-70" transform="translate(1011.962891 0.578125)"/>
     <use xlink:href="#DejaVuSerif-68" transform="translate(1075.976562 0.578125)"/>
     <use xlink:href="#DejaVuSerif-6f" transform="translate(1140.380859 0.578125)"/>
     <use xlink:href="#DejaVuSerif-74" transform="translate(1200.585938 0.578125)"/>
     <use xlink:href="#DejaVuSerif-6f" transform="translate(1240.771484 0.578125)"/>
     <use xlink:href="#DejaVuSerif-6e" transform="translate(1300.976562 0.578125)"/>
     <use xlink:href="#DejaVuSerif-73" transform="translate(1365.380859 0.578125)"/>
     <use xlink:href="#DejaVuSerif-29" transform="translate(1416.699219 0.578125)"/>
    </g>
   </g>
   <g id="text_23">
    <!-- Fluorescence = spin state -->
    <g transform="translate(498.204 645.46485) scale(0.12 -0.12)">
     <defs>
      <path id="DejaVuSerif-Bold-46" d="M 300 0 
L 300 378 
L 897 378 
L 897 4288 
L 300 4288 
L 300 4666 
L 4459 4666 
L 4459 3566 
L 4031 3566 
L 4031 4238 
L 2106 4238 
L 2106 2741 
L 3291 2741 
L 3291 3334 
L 3719 3334 
L 3719 1722 
L 3291 1722 
L 3291 2316 
L 2106 2316 
L 2106 378 
L 2841 378 
L 2841 0 
L 300 0 
z
" transform="scale(0.015625)"/>
      <path id="DejaVuSerif-Bold-3d" d="M 678 1650 
L 4684 1650 
L 4684 941 
L 678 941 
L 678 1650 
z
M 678 3072 
L 4684 3072 
L 4684 2363 
L 678 2363 
L 678 3072 
z
" transform="scale(0.015625)"/>
     </defs>
     <use xlink:href="#DejaVuSerif-Bold-46"/>
     <use xlink:href="#DejaVuSerif-Bold-6c" transform="translate(70.996094 0)"/>
     <use xlink:href="#DejaVuSerif-Bold-75" transform="translate(108.984375 0)"/>
     <use xlink:href="#DejaVuSerif-Bold-6f" transform="translate(181.689453 0)"/>
     <use xlink:href="#DejaVuSerif-Bold-72" transform="translate(248.388672 0)"/>
     <use xlink:href="#DejaVuSerif-Bold-65" transform="translate(301.074219 0)"/>
     <use xlink:href="#DejaVuSerif-Bold-73" transform="translate(364.697266 0)"/>
     <use xlink:href="#DejaVuSerif-Bold-63" transform="translate(420.996094 0)"/>
     <use xlink:href="#DejaVuSerif-Bold-65" transform="translate(481.884766 0)"/>
     <use xlink:href="#DejaVuSerif-Bold-6e" transform="translate(545.507812 0)"/>
     <use xlink:href="#DejaVuSerif-Bold-63" transform="translate(618.212891 0)"/>
     <use xlink:href="#DejaVuSerif-Bold-65" transform="translate(679.101562 0)"/>
     <use xlink:href="#DejaVuSerif-Bold-20" transform="translate(742.724609 0)"/>
     <use xlink:href="#DejaVuSerif-Bold-3d" transform="translate(777.539062 0)"/>
     <use xlink:href="#DejaVuSerif-Bold-20" transform="translate(861.328125 0)"/>
     <use xlink:href="#DejaVuSerif-Bold-73" transform="translate(896.142578 0)"/>
     <use xlink:href="#DejaVuSerif-Bold-70" transform="translate(952.441406 0)"/>
     <use xlink:href="#DejaVuSerif-Bold-69" transform="translate(1022.363281 0)"/>
     <use xlink:href="#DejaVuSerif-Bold-6e" transform="translate(1060.351562 0)"/>
     <use xlink:href="#DejaVuSerif-Bold-20" transform="translate(1133.056641 0)"/>
     <use xlink:href="#DejaVuSerif-Bold-73" transform="translate(1167.871094 0)"/>
     <use xlink:href="#DejaVuSerif-Bold-74" transform="translate(1224.169922 0)"/>
     <use xlink:href="#DejaVuSerif-Bold-61" transform="translate(1270.361328 0)"/>
     <use xlink:href="#DejaVuSerif-Bold-74" transform="translate(1335.15625 0)"/>
     <use xlink:href="#DejaVuSerif-Bold-65" transform="translate(1381.347656 0)"/>
    </g>
   </g>
   <g id="patch_9">
    <path d="M 498.204 475.8048 
C 505.862853 475.8048 513.209051 473.652293 518.624678 469.821343 
C 524.040305 465.990393 527.0832 460.793781 527.0832 455.376 
C 527.0832 449.958219 524.040305 444.761607 518.624678 440.930657 
C 513.209051 437.099707 505.862853 434.9472 498.204 434.9472 
C 490.545147 434.9472 483.198949 437.099707 477.783322 440.930657 
C 472.367695 444.761607 469.3248 449.958219 469.3248 455.376 
C 469.3248 460.793781 472.367695 465.990393 477.783322 469.821343 
C 483.198949 473.652293 490.545147 475.8048 498.204 475.8048 
z
" clip-path="url(#pcb915194bb)" style="fill: #dc2626; stroke: #dc2626; stroke-linejoin: miter"/>
   </g>
   <g id="text_24">
    <!-- 4 -->
    <g style="fill: #ffffff" transform="translate(491.941969 460.342875) scale(0.18 -0.18)">
     <defs>
      <path id="DejaVuSerif-Bold-34" d="M 4084 0 
L 1516 0 
L 1516 378 
L 2209 378 
L 2209 1228 
L 263 1228 
L 263 1588 
L 2216 4750 
L 3391 4750 
L 3391 1631 
L 4191 1631 
L 4191 1228 
L 3391 1228 
L 3391 378 
L 4084 378 
L 4084 0 
z
M 2209 1631 
L 2209 3897 
L 819 1631 
L 2209 1631 
z
" transform="scale(0.015625)"/>
     </defs>
     <use xlink:href="#DejaVuSerif-Bold-34"/>
    </g>
   </g>
  </g>
  <g id="patch_10">
   <path d="M 449.123906 342 
Q 451.442327 342 451.957972 342 
" style="fill: none; stroke: #16a34a; stroke-width: 3; stroke-linecap: round"/>
   <path d="M 447.957972 336 
L 451.957972 342 
L 447.957972 348 
" style="fill: none; stroke: #16a34a; stroke-width: 3; stroke-linecap: round"/>
  </g>
  <g id="text_25">
   <!-- The ODMR Measurement Cycle -->
   <g transform="translate(254.263437 25.996875) scale(0.2 -0.2)">
    <defs>
     <path id="DejaVuSerif-Bold-54" d="M 1159 0 
L 1159 378 
L 1778 378 
L 1778 4238 
L 500 4238 
L 500 3500 
L 72 3500 
L 72 4666 
L 4697 4666 
L 4697 3500 
L 4275 3500 
L 4275 4238 
L 2988 4238 
L 2988 378 
L 3609 378 
L 3609 0 
L 1159 0 
z
" transform="scale(0.015625)"/>
     <path id="DejaVuSerif-Bold-4f" d="M 2784 288 
Q 3381 288 3672 791 
Q 3963 1294 3963 2328 
Q 3963 3366 3672 3869 
Q 3381 4372 2784 4372 
Q 2191 4372 1898 3864 
Q 1606 3356 1606 2328 
Q 1606 1303 1898 795 
Q 2191 288 2784 288 
z
M 2784 -91 
Q 1606 -91 937 553 
Q 269 1197 269 2328 
Q 269 3459 939 4104 
Q 1609 4750 2784 4750 
Q 3963 4750 4631 4106 
Q 5300 3463 5300 2328 
Q 5300 1197 4629 553 
Q 3959 -91 2784 -91 
z
" transform="scale(0.015625)"/>
     <path id="DejaVuSerif-Bold-44" d="M 2100 378 
L 2534 378 
Q 3266 378 3605 847 
Q 3944 1316 3944 2338 
Q 3944 3353 3606 3820 
Q 3269 4288 2534 4288 
L 2100 4288 
L 2100 378 
z
M 300 0 
L 300 378 
L 897 378 
L 897 4288 
L 300 4288 
L 300 4666 
L 2694 4666 
Q 3950 4666 4615 4066 
Q 5281 3466 5281 2338 
Q 5281 1203 4614 601 
Q 3947 0 2694 0 
L 300 0 
z
" transform="scale(0.015625)"/>
     <path id="DejaVuSerif-Bold-6d" d="M 3884 2778 
Q 4116 3109 4384 3261 
Q 4653 3413 5013 3413 
Q 5584 3413 5867 3089 
Q 6150 2766 6150 2113 
L 6150 378 
L 6625 378 
L 6625 0 
L 4647 0 
L 4647 378 
L 5044 378 
L 5044 1947 
Q 5044 2569 4948 2731 
Q 4853 2894 4594 2894 
Q 4300 2894 4137 2667 
Q 3975 2441 3975 2022 
L 3975 378 
L 4372 378 
L 4372 0 
L 2472 0 
L 2472 378 
L 2869 378 
L 2869 1947 
Q 2869 2569 2772 2731 
Q 2675 2894 2419 2894 
Q 2122 2894 1959 2667 
Q 1797 2441 1797 2022 
L 1797 378 
L 2194 378 
L 2194 0 
L 219 0 
L 219 378 
L 691 378 
L 691 2944 
L 219 2944 
L 219 3322 
L 1797 3322 
L 1797 2853 
Q 1991 3144 2241 3278 
Q 2491 3413 2834 3413 
Q 3241 3413 3494 3258 
Q 3747 3103 3884 2778 
z
" transform="scale(0.015625)"/>
     <path id="DejaVuSerif-Bold-79" d="M 1997 -750 
Q 1847 -1116 1634 -1269 
Q 1422 -1422 1063 -1422 
Q 909 -1422 721 -1387 
Q 534 -1353 313 -1288 
L 313 -594 
L 666 -597 
Q 675 -838 779 -953 
Q 884 -1069 1094 -1069 
Q 1297 -1069 1422 -958 
Q 1547 -847 1672 -538 
L 1722 -422 
L 275 2944 
L -84 2944 
L -84 3322 
L 1831 3322 
L 1831 2944 
L 1434 2944 
L 2278 978 
L 3066 2944 
L 2625 2944 
L 2625 3322 
L 3872 3322 
L 3872 2944 
L 3469 2944 
L 1997 -750 
z
" transform="scale(0.015625)"/>
    </defs>
    <use xlink:href="#DejaVuSerif-Bold-54"/>
    <use xlink:href="#DejaVuSerif-Bold-68" transform="translate(74.414062 0)"/>
    <use xlink:href="#DejaVuSerif-Bold-65" transform="translate(147.119141 0)"/>
    <use xlink:href="#DejaVuSerif-Bold-20" transform="translate(210.742188 0)"/>
    <use xlink:href="#DejaVuSerif-Bold-4f" transform="translate(245.556641 0)"/>
    <use xlink:href="#DejaVuSerif-Bold-44" transform="translate(332.666016 0)"/>
    <use xlink:href="#DejaVuSerif-Bold-4d" transform="translate(419.384766 0)"/>
    <use xlink:href="#DejaVuSerif-Bold-52" transform="translate(530.078125 0)"/>
    <use xlink:href="#DejaVuSerif-Bold-20" transform="translate(613.183594 0)"/>
    <use xlink:href="#DejaVuSerif-Bold-4d" transform="translate(647.998047 0)"/>
    <use xlink:href="#DejaVuSerif-Bold-65" transform="translate(758.691406 0)"/>
    <use xlink:href="#DejaVuSerif-Bold-61" transform="translate(822.314453 0)"/>
    <use xlink:href="#DejaVuSerif-Bold-73" transform="translate(887.109375 0)"/>
    <use xlink:href="#DejaVuSerif-Bold-75" transform="translate(943.408203 0)"/>
    <use xlink:href="#DejaVuSerif-Bold-72" transform="translate(1016.113281 0)"/>
    <use xlink:href="#DejaVuSerif-Bold-65" transform="translate(1068.798828 0)"/>
    <use xlink:href="#DejaVuSerif-Bold-6d" transform="translate(1132.421875 0)"/>
    <use xlink:href="#DejaVuSerif-Bold-65" transform="translate(1238.232422 0)"/>
    <use xlink:href="#DejaVuSerif-Bold-6e" transform="translate(1301.855469 0)"/>
    <use xlink:href="#DejaVuSerif-Bold-74" transform="translate(1374.560547 0)"/>
    <use xlink:href="#DejaVuSerif-Bold-20" transform="translate(1420.751953 0)"/>
    <use xlink:href="#DejaVuSerif-Bold-43" transform="translate(1455.566406 0)"/>
    <use xlink:href="#DejaVuSerif-Bold-79" transform="translate(1535.15625 0)"/>
    <use xlink:href="#DejaVuSerif-Bold-63" transform="translate(1593.261719 0)"/>
    <use xlink:href="#DejaVuSerif-Bold-6c" transform="translate(1654.150391 0)"/>
    <use xlink:href="#DejaVuSerif-Bold-65" transform="translate(1692.138672 0)"/>
   </g>
  </g>
  <g id="text_26">
   <!-- Optically Detected Magnetic Resonance in NV$^-$ Centers -->
   <g style="fill: #808080" transform="translate(242.965 46.8) scale(0.13 -0.13)">
    <defs>
     <path id="DejaVuSerif-4f" d="M 2625 244 
Q 3391 244 3781 770 
Q 4172 1297 4172 2328 
Q 4172 3363 3781 3889 
Q 3391 4416 2625 4416 
Q 1856 4416 1465 3889 
Q 1075 3363 1075 2328 
Q 1075 1297 1465 770 
Q 1856 244 2625 244 
z
M 2625 -91 
Q 2150 -91 1751 65 
Q 1353 222 1050 525 
Q 700 875 529 1319 
Q 359 1763 359 2328 
Q 359 2894 529 3339 
Q 700 3784 1050 4134 
Q 1356 4441 1750 4595 
Q 2144 4750 2625 4750 
Q 3641 4750 4266 4084 
Q 4891 3419 4891 2328 
Q 4891 1769 4719 1320 
Q 4547 872 4197 525 
Q 3891 219 3497 64 
Q 3103 -91 2625 -91 
z
" transform="scale(0.015625)"/>
     <path id="DejaVuSerif-52" d="M 3066 2316 
Q 3284 2256 3442 2114 
Q 3600 1972 3725 1716 
L 4403 331 
L 4972 331 
L 4972 0 
L 3872 0 
L 3144 1484 
Q 2934 1916 2759 2042 
Q 2584 2169 2278 2169 
L 1581 2169 
L 1581 331 
L 2241 331 
L 2241 0 
L 353 0 
L 353 331 
L 947 331 
L 947 4331 
L 353 4331 
L 353 4666 
L 2719 4666 
Q 3400 4666 3770 4341 
Q 4141 4016 4141 3419 
Q 4141 2938 3870 2661 
Q 3600 2384 3066 2316 
z
M 1581 2503 
L 2503 2503 
Q 2975 2503 3200 2726 
Q 3425 2950 3425 3419 
Q 3425 3888 3200 4109 
Q 2975 4331 2503 4331 
L 1581 4331 
L 1581 2503 
z
" transform="scale(0.015625)"/>
     <path id="DejaVuSerif-4e" d="M 313 0 
L 313 331 
L 941 331 
L 941 4331 
L 313 4331 
L 313 4666 
L 1509 4666 
L 4306 984 
L 4306 4331 
L 3681 4331 
L 3681 4666 
L 5319 4666 
L 5319 4331 
L 4691 4331 
L 4691 -91 
L 4313 -91 
L 1325 3841 
L 1325 331 
L 1953 331 
L 1953 0 
L 313 0 
z
" transform="scale(0.015625)"/>
     <path id="DejaVuSerif-56" d="M 1119 4331 
L 2497 750 
L 3872 4331 
L 3347 4331 
L 3347 4666 
L 4716 4666 
L 4716 4331 
L 4263 4331 
L 2597 0 
L 2059 0 
L 403 4331 
L -63 4331 
L -63 4666 
L 1638 4666 
L 1638 4331 
L 1119 4331 
z
" transform="scale(0.015625)"/>
     <path id="DejaVuSans-2212" d="M 678 2272 
L 4684 2272 
L 4684 1741 
L 678 1741 
L 678 2272 
z
" transform="scale(0.015625)"/>
     <path id="DejaVuSerif-43" d="M 4513 1234 
Q 4306 581 3820 245 
Q 3334 -91 2591 -91 
Q 2134 -91 1743 65 
Q 1353 222 1050 525 
Q 700 875 529 1320 
Q 359 1766 359 2328 
Q 359 3416 987 4083 
Q 1616 4750 2644 4750 
Q 3025 4750 3456 4650 
Q 3888 4550 4384 4347 
L 4384 3272 
L 4031 3272 
Q 3916 3859 3567 4137 
Q 3219 4416 2591 4416 
Q 1844 4416 1459 3886 
Q 1075 3356 1075 2328 
Q 1075 1303 1459 773 
Q 1844 244 2591 244 
Q 3113 244 3450 492 
Q 3788 741 3938 1234 
L 4513 1234 
z
" transform="scale(0.015625)"/>
    </defs>
    <use xlink:href="#DejaVuSerif-4f" transform="translate(0 0.015625)"/>
    <use xlink:href="#DejaVuSerif-70" transform="translate(81.982422 0.015625)"/>
    <use xlink:href="#DejaVuSerif-74" transform="translate(145.996094 0.015625)"/>
    <use xlink:href="#DejaVuSerif-69" transform="translate(186.181641 0.015625)"/>
    <use xlink:href="#DejaVuSerif-63" transform="translate(218.164062 0.015625)"/>
    <use xlink:href="#DejaVuSerif-61" transform="translate(274.169922 0.015625)"/>
    <use xlink:href="#DejaVuSerif-6c" transform="translate(333.789062 0.015625)"/>
    <use xlink:href="#DejaVuSerif-6c" transform="translate(365.771484 0.015625)"/>
    <use xlink:href="#DejaVuSerif-79" transform="translate(397.753906 0.015625)"/>
    <use xlink:href="#DejaVuSerif-20" transform="translate(454.248047 0.015625)"/>
    <use xlink:href="#DejaVuSerif-44" transform="translate(486.035156 0.015625)"/>
    <use xlink:href="#DejaVuSerif-65" transform="translate(566.210938 0.015625)"/>
    <use xlink:href="#DejaVuSerif-74" transform="translate(625.390625 0.015625)"/>
    <use xlink:href="#DejaVuSerif-65" transform="translate(665.576172 0.015625)"/>
    <use xlink:href="#DejaVuSerif-63" transform="translate(724.755859 0.015625)"/>
    <use xlink:href="#DejaVuSerif-74" transform="translate(780.761719 0.015625)"/>
    <use xlink:href="#DejaVuSerif-65" transform="translate(820.947266 0.015625)"/>
    <use xlink:href="#DejaVuSerif-64" transform="translate(880.126953 0.015625)"/>
    <use xlink:href="#DejaVuSerif-20" transform="translate(944.140625 0.015625)"/>
    <use xlink:href="#DejaVuSerif-4d" transform="translate(975.927734 0.015625)"/>
    <use xlink:href="#DejaVuSerif-61" transform="translate(1078.320312 0.015625)"/>
    <use xlink:href="#DejaVuSerif-67" transform="translate(1137.939453 0.015625)"/>
    <use xlink:href="#DejaVuSerif-6e" transform="translate(1201.953125 0.015625)"/>
    <use xlink:href="#DejaVuSerif-65" transform="translate(1266.357422 0.015625)"/>
    <use xlink:href="#DejaVuSerif-74" transform="translate(1325.537109 0.015625)"/>
    <use xlink:href="#DejaVuSerif-69" transform="translate(1365.722656 0.015625)"/>
    <use xlink:href="#DejaVuSerif-63" transform="translate(1397.705078 0.015625)"/>
    <use xlink:href="#DejaVuSerif-20" transform="translate(1453.710938 0.015625)"/>
    <use xlink:href="#DejaVuSerif-52" transform="translate(1485.498047 0.015625)"/>
    <use xlink:href="#DejaVuSerif-65" transform="translate(1560.791016 0.015625)"/>
    <use xlink:href="#DejaVuSerif-73" transform="translate(1619.970703 0.015625)"/>
    <use xlink:href="#DejaVuSerif-6f" transform="translate(1671.289062 0.015625)"/>
    <use xlink:href="#DejaVuSerif-6e" transform="translate(1731.494141 0.015625)"/>
    <use xlink:href="#DejaVuSerif-61" transform="translate(1795.898438 0.015625)"/>
    <use xlink:href="#DejaVuSerif-6e" transform="translate(1855.517578 0.015625)"/>
    <use xlink:href="#DejaVuSerif-63" transform="translate(1919.921875 0.015625)"/>
    <use xlink:href="#DejaVuSerif-65" transform="translate(1975.927734 0.015625)"/>
    <use xlink:href="#DejaVuSerif-20" transform="translate(2035.107422 0.015625)"/>
    <use xlink:href="#DejaVuSerif-69" transform="translate(2066.894531 0.015625)"/>
    <use xlink:href="#DejaVuSerif-6e" transform="translate(2098.876953 0.015625)"/>
    <use xlink:href="#DejaVuSerif-20" transform="translate(2163.28125 0.015625)"/>
    <use xlink:href="#DejaVuSerif-4e" transform="translate(2195.068359 0.015625)"/>
    <use xlink:href="#DejaVuSerif-56" transform="translate(2282.568359 0.015625)"/>
    <use xlink:href="#DejaVuSans-2212" transform="translate(2369.379883 38.296875) scale(0.7)"/>
    <use xlink:href="#DejaVuSerif-20" transform="translate(2444.404297 0.015625)"/>
    <use xlink:href="#DejaVuSerif-43" transform="translate(2476.191406 0.015625)"/>
    <use xlink:href="#DejaVuSerif-65" transform="translate(2552.705078 0.015625)"/>
    <use xlink:href="#DejaVuSerif-6e" transform="translate(2611.884766 0.015625)"/>
    <use xlink:href="#DejaVuSerif-74" transform="translate(2676.289062 0.015625)"/>
    <use xlink:href="#DejaVuSerif-65" transform="translate(2716.474609 0.015625)"/>
    <use xlink:href="#DejaVuSerif-72" transform="translate(2775.654297 0.015625)"/>
    <use xlink:href="#DejaVuSerif-73" transform="translate(2823.457031 0.015625)"/>
   </g>
  </g>
 </g>
 <defs>
  <clipPath id="pe1fcdc3fa0">
   <rect x="10.8" y="106.8" width="412.56" height="291.84"/>
  </clipPath>
  <clipPath id="p73f2e1cc92">
   <rect x="436.32" y="106.8" width="412.56" height="291.84"/>
  </clipPath>
  <clipPath id="p2e0c943e8b">
   <rect x="10.8" y="411.6" width="412.56" height="291.84"/>
  </clipPath>
  <clipPath id="pcb915194bb">
   <rect x="436.32" y="411.6" width="412.56" height="291.84"/>
  </clipPath>
 </defs>
</svg>
