<?xml version="1.0" encoding="utf-8" standalone="no"?>
<!DOCTYPE svg PUBLIC "-//W3C//DTD SVG 1.1//EN"
  "http://www.w3.org/Graphics/SVG/1.1/DTD/svg11.dtd">
<svg xmlns:xlink="http://www.w3.org/1999/xlink" width="569.703504pt" height="353.673812pt" viewBox="0 0 569.703504 353.673812" xmlns="http://www.w3.org/2000/svg" version="1.1">
 <metadata>
  <rdf:RDF xmlns:dc="http://purl.org/dc/elements/1.1/" xmlns:cc="http://creativecommons.org/ns#" xmlns:rdf="http://www.w3.org/1999/02/22-rdf-syntax-ns#">
   <cc:Work>
    <dc:type rdf:resource="http://purl.org/dc/dcmitype/StillImage"/>
    <dc:date>2026-02-13T10:00:19.088962</dc:date>
    <dc:format>image/svg+xml</dc:format>
    <dc:creator>
     <cc:Agent>
      <dc:title>Matplotlib v3.10.8, https://matplotlib.org/</dc:title>
     </cc:Agent>
    </dc:creator>
   </cc:Work>
  </rdf:RDF>
 </metadata>
 <defs>
  <style type="text/css">*{stroke-linejoin: round; stroke-linecap: butt}</style>
 </defs>
 <g id="figure_1">
  <g id="patch_1">
   <path d="M 0 353.673812 
L 569.703504 353.673812 
L 569.703504 0 
L 0 0 
z
" style="fill: #ffffff"/>
  </g>
  <g id="axes_1">
   <g id="patch_2">
    <path d="M 58.896875 315.621938 
L 561.096875 315.621938 
L 561.096875 21.789938 
L 58.896875 21.789938 
z
" style="fill: #ffffff"/>
   </g>
   <g id="matplotlib.axis_1">
    <g id="xtick_1">
     <g id="line2d_1">
      <path d="M 81.724148 315.621938 
L 81.724148 21.789938 
" clip-path="url(#p6b57c8c83a)" style="fill: none; stroke: #b0b0b0; stroke-opacity: 0.25; stroke-width: 0.8; stroke-linecap: square"/>
     </g>
     <g id="line2d_2">
      <defs>
       <path id="m764be6548e" d="M 0 0 
L 0 3.5 
" style="stroke: #000000"/>
      </defs>
      <g>
       <use xlink:href="#m764be6548e" x="81.724148" y="315.621938" style="stroke: #000000"/>
      </g>
     </g>
     <g id="text_1">
      <!-- 2.70 -->
      <g transform="translate(69.478054 330.980219) scale(0.11 -0.11)">
       <defs>
        <path id="DejaVuSans-32" d="M 1228 531 
L 3431 531 
L 3431 0 
L 469 0 
L 469 531 
Q 828 903 1448 1529 
Q 2069 2156 2228 2338 
Q 2531 2678 2651 2914 
Q 2772 3150 2772 3378 
Q 2772 3750 2511 3984 
Q 2250 4219 1831 4219 
Q 1534 4219 1204 4116 
Q 875 4013 500 3803 
L 500 4441 
Q 881 4594 1212 4672 
Q 1544 4750 1819 4750 
Q 2544 4750 2975 4387 
Q 3406 4025 3406 3419 
Q 3406 3131 3298 2873 
Q 3191 2616 2906 2266 
Q 2828 2175 2409 1742 
Q 1991 1309 1228 531 
z
" transform="scale(0.015625)"/>
        <path id="DejaVuSans-2e" d="M 684 794 
L 1344 794 
L 1344 0 
L 684 0 
L 684 794 
z
" transform="scale(0.015625)"/>
        <path id="DejaVuSans-37" d="M 525 4666 
L 3525 4666 
L 3525 4397 
L 1831 0 
L 1172 0 
L 2766 4134 
L 525 4134 
L 525 4666 
z
" transform="scale(0.015625)"/>
        <path id="DejaVuSans-30" d="M 2034 4250 
Q 1547 4250 1301 3770 
Q 1056 3291 1056 2328 
Q 1056 1369 1301 889 
Q 1547 409 2034 409 
Q 2525 409 2770 889 
Q 3016 1369 3016 2328 
Q 3016 3291 2770 3770 
Q 2525 4250 2034 4250 
z
M 2034 4750 
Q 2819 4750 3233 4129 
Q 3647 3509 3647 2328 
Q 3647 1150 3233 529 
Q 2819 -91 2034 -91 
Q 1250 -91 836 529 
Q 422 1150 422 2328 
Q 422 3509 836 4129 
Q 1250 4750 2034 4750 
z
" transform="scale(0.015625)"/>
       </defs>
       <use xlink:href="#DejaVuSans-32"/>
       <use xlink:href="#DejaVuSans-2e" transform="translate(63.623047 0)"/>
       <use xlink:href="#DejaVuSans-37" transform="translate(95.410156 0)"/>
       <use xlink:href="#DejaVuSans-30" transform="translate(159.033203 0)"/>
      </g>
     </g>
    </g>
    <g id="xtick_2">
     <g id="line2d_3">
      <path d="M 148.863185 315.621938 
L 148.863185 21.789938 
" clip-path="url(#p6b57c8c83a)" style="fill: none; stroke: #b0b0b0; stroke-opacity: 0.25; stroke-width: 0.8; stroke-linecap: square"/>
     </g>
     <g id="line2d_4">
      <g>
       <use xlink:href="#m764be6548e" x="148.863185" y="315.621938" style="stroke: #000000"/>
      </g>
     </g>
     <g id="text_2">
      <!-- 2.75 -->
      <g transform="translate(136.617091 330.980219) scale(0.11 -0.11)">
       <defs>
        <path id="DejaVuSans-35" d="M 691 4666 
L 3169 4666 
L 3169 4134 
L 1269 4134 
L 1269 2991 
Q 1406 3038 1543 3061 
Q 1681 3084 1819 3084 
Q 2600 3084 3056 2656 
Q 3513 2228 3513 1497 
Q 3513 744 3044 326 
Q 2575 -91 1722 -91 
Q 1428 -91 1123 -41 
Q 819 9 494 109 
L 494 744 
Q 775 591 1075 516 
Q 1375 441 1709 441 
Q 2250 441 2565 725 
Q 2881 1009 2881 1497 
Q 2881 1984 2565 2268 
Q 2250 2553 1709 2553 
Q 1456 2553 1204 2497 
Q 953 2441 691 2322 
L 691 4666 
z
" transform="scale(0.015625)"/>
       </defs>
       <use xlink:href="#DejaVuSans-32"/>
       <use xlink:href="#DejaVuSans-2e" transform="translate(63.623047 0)"/>
       <use xlink:href="#DejaVuSans-37" transform="translate(95.410156 0)"/>
       <use xlink:href="#DejaVuSans-35" transform="translate(159.033203 0)"/>
      </g>
     </g>
    </g>
    <g id="xtick_3">
     <g id="line2d_5">
      <path d="M 216.002223 315.621938 
L 216.002223 21.789938 
" clip-path="url(#p6b57c8c83a)" style="fill: none; stroke: #b0b0b0; stroke-opacity: 0.25; stroke-width: 0.8; stroke-linecap: square"/>
     </g>
     <g id="line2d_6">
      <g>
       <use xlink:href="#m764be6548e" x="216.002223" y="315.621938" style="stroke: #000000"/>
      </g>
     </g>
     <g id="text_3">
      <!-- 2.80 -->
      <g transform="translate(203.756129 330.980219) scale(0.11 -0.11)">
       <defs>
        <path id="DejaVuSans-38" d="M 2034 2216 
Q 1584 2216 1326 1975 
Q 1069 1734 1069 1313 
Q 1069 891 1326 650 
Q 1584 409 2034 409 
Q 2484 409 2743 651 
Q 3003 894 3003 1313 
Q 3003 1734 2745 1975 
Q 2488 2216 2034 2216 
z
M 1403 2484 
Q 997 2584 770 2862 
Q 544 3141 544 3541 
Q 544 4100 942 4425 
Q 1341 4750 2034 4750 
Q 2731 4750 3128 4425 
Q 3525 4100 3525 3541 
Q 3525 3141 3298 2862 
Q 3072 2584 2669 2484 
Q 3125 2378 3379 2068 
Q 3634 1759 3634 1313 
Q 3634 634 3220 271 
Q 2806 -91 2034 -91 
Q 1263 -91 848 271 
Q 434 634 434 1313 
Q 434 1759 690 2068 
Q 947 2378 1403 2484 
z
M 1172 3481 
Q 1172 3119 1398 2916 
Q 1625 2713 2034 2713 
Q 2441 2713 2670 2916 
Q 2900 3119 2900 3481 
Q 2900 3844 2670 4047 
Q 2441 4250 2034 4250 
Q 1625 4250 1398 4047 
Q 1172 3844 1172 3481 
z
" transform="scale(0.015625)"/>
       </defs>
       <use xlink:href="#DejaVuSans-32"/>
       <use xlink:href="#DejaVuSans-2e" transform="translate(63.623047 0)"/>
       <use xlink:href="#DejaVuSans-38" transform="translate(95.410156 0)"/>
       <use xlink:href="#DejaVuSans-30" transform="translate(159.033203 0)"/>
      </g>
     </g>
    </g>
    <g id="xtick_4">
     <g id="line2d_7">
      <path d="M 283.14126 315.621938 
L 283.14126 21.789938 
" clip-path="url(#p6b57c8c83a)" style="fill: none; stroke: #b0b0b0; stroke-opacity: 0.25; stroke-width: 0.8; stroke-linecap: square"/>
     </g>
     <g id="line2d_8">
      <g>
       <use xlink:href="#m764be6548e" x="283.14126" y="315.621938" style="stroke: #000000"/>
      </g>
     </g>
     <g id="text_4">
      <!-- 2.85 -->
      <g transform="translate(270.895166 330.980219) scale(0.11 -0.11)">
       <use xlink:href="#DejaVuSans-32"/>
       <use xlink:href="#DejaVuSans-2e" transform="translate(63.623047 0)"/>
       <use xlink:href="#DejaVuSans-38" transform="translate(95.410156 0)"/>
       <use xlink:href="#DejaVuSans-35" transform="translate(159.033203 0)"/>
      </g>
     </g>
    </g>
    <g id="xtick_5">
     <g id="line2d_9">
      <path d="M 350.280297 315.621938 
L 350.280297 21.789938 
" clip-path="url(#p6b57c8c83a)" style="fill: none; stroke: #b0b0b0; stroke-opacity: 0.25; stroke-width: 0.8; stroke-linecap: square"/>
     </g>
     <g id="line2d_10">
      <g>
       <use xlink:href="#m764be6548e" x="350.280297" y="315.621938" style="stroke: #000000"/>
      </g>
     </g>
     <g id="text_5">
      <!-- 2.90 -->
      <g transform="translate(338.034204 330.980219) scale(0.11 -0.11)">
       <defs>
        <path id="DejaVuSans-39" d="M 703 97 
L 703 672 
Q 941 559 1184 500 
Q 1428 441 1663 441 
Q 2288 441 2617 861 
Q 2947 1281 2994 2138 
Q 2813 1869 2534 1725 
Q 2256 1581 1919 1581 
Q 1219 1581 811 2004 
Q 403 2428 403 3163 
Q 403 3881 828 4315 
Q 1253 4750 1959 4750 
Q 2769 4750 3195 4129 
Q 3622 3509 3622 2328 
Q 3622 1225 3098 567 
Q 2575 -91 1691 -91 
Q 1453 -91 1209 -44 
Q 966 3 703 97 
z
M 1959 2075 
Q 2384 2075 2632 2365 
Q 2881 2656 2881 3163 
Q 2881 3666 2632 3958 
Q 2384 4250 1959 4250 
Q 1534 4250 1286 3958 
Q 1038 3666 1038 3163 
Q 1038 2656 1286 2365 
Q 1534 2075 1959 2075 
z
" transform="scale(0.015625)"/>
       </defs>
       <use xlink:href="#DejaVuSans-32"/>
       <use xlink:href="#DejaVuSans-2e" transform="translate(63.623047 0)"/>
       <use xlink:href="#DejaVuSans-39" transform="translate(95.410156 0)"/>
       <use xlink:href="#DejaVuSans-30" transform="translate(159.033203 0)"/>
      </g>
     </g>
    </g>
    <g id="xtick_6">
     <g id="line2d_11">
      <path d="M 417.419335 315.621938 
L 417.419335 21.789938 
" clip-path="url(#p6b57c8c83a)" style="fill: none; stroke: #b0b0b0; stroke-opacity: 0.25; stroke-width: 0.8; stroke-linecap: square"/>
     </g>
     <g id="line2d_12">
      <g>
       <use xlink:href="#m764be6548e" x="417.419335" y="315.621938" style="stroke: #000000"/>
      </g>
     </g>
     <g id="text_6">
      <!-- 2.95 -->
      <g transform="translate(405.173241 330.980219) scale(0.11 -0.11)">
       <use xlink:href="#DejaVuSans-32"/>
       <use xlink:href="#DejaVuSans-2e" transform="translate(63.623047 0)"/>
       <use xlink:href="#DejaVuSans-39" transform="translate(95.410156 0)"/>
       <use xlink:href="#DejaVuSans-35" transform="translate(159.033203 0)"/>
      </g>
     </g>
    </g>
    <g id="xtick_7">
     <g id="line2d_13">
      <path d="M 484.558372 315.621938 
L 484.558372 21.789938 
" clip-path="url(#p6b57c8c83a)" style="fill: none; stroke: #b0b0b0; stroke-opacity: 0.25; stroke-width: 0.8; stroke-linecap: square"/>
     </g>
     <g id="line2d_14">
      <g>
       <use xlink:href="#m764be6548e" x="484.558372" y="315.621938" style="stroke: #000000"/>
      </g>
     </g>
     <g id="text_7">
      <!-- 3.00 -->
      <g transform="translate(472.312279 330.980219) scale(0.11 -0.11)">
       <defs>
        <path id="DejaVuSans-33" d="M 2597 2516 
Q 3050 2419 3304 2112 
Q 3559 1806 3559 1356 
Q 3559 666 3084 287 
Q 2609 -91 1734 -91 
Q 1441 -91 1130 -33 
Q 819 25 488 141 
L 488 750 
Q 750 597 1062 519 
Q 1375 441 1716 441 
Q 2309 441 2620 675 
Q 2931 909 2931 1356 
Q 2931 1769 2642 2001 
Q 2353 2234 1838 2234 
L 1294 2234 
L 1294 2753 
L 1863 2753 
Q 2328 2753 2575 2939 
Q 2822 3125 2822 3475 
Q 2822 3834 2567 4026 
Q 2313 4219 1838 4219 
Q 1578 4219 1281 4162 
Q 984 4106 628 3988 
L 628 4550 
Q 988 4650 1302 4700 
Q 1616 4750 1894 4750 
Q 2613 4750 3031 4423 
Q 3450 4097 3450 3541 
Q 3450 3153 3228 2886 
Q 3006 2619 2597 2516 
z
" transform="scale(0.015625)"/>
       </defs>
       <use xlink:href="#DejaVuSans-33"/>
       <use xlink:href="#DejaVuSans-2e" transform="translate(63.623047 0)"/>
       <use xlink:href="#DejaVuSans-30" transform="translate(95.410156 0)"/>
       <use xlink:href="#DejaVuSans-30" transform="translate(159.033203 0)"/>
      </g>
     </g>
    </g>
    <g id="xtick_8">
     <g id="line2d_15">
      <path d="M 551.69741 315.621938 
L 551.69741 21.789938 
" clip-path="url(#p6b57c8c83a)" style="fill: none; stroke: #b0b0b0; stroke-opacity: 0.25; stroke-width: 0.8; stroke-linecap: square"/>
     </g>
     <g id="line2d_16">
      <g>
       <use xlink:href="#m764be6548e" x="551.69741" y="315.621938" style="stroke: #000000"/>
      </g>
     </g>
     <g id="text_8">
      <!-- 3.05 -->
      <g transform="translate(539.451316 330.980219) scale(0.11 -0.11)">
       <use xlink:href="#DejaVuSans-33"/>
       <use xlink:href="#DejaVuSans-2e" transform="translate(63.623047 0)"/>
       <use xlink:href="#DejaVuSans-30" transform="translate(95.410156 0)"/>
       <use xlink:href="#DejaVuSans-35" transform="translate(159.033203 0)"/>
      </g>
     </g>
    </g>
    <g id="text_9">
     <!-- Microwave Frequency (GHz) -->
     <g transform="translate(233.203984 345.626156) scale(0.11 -0.11)">
      <defs>
       <path id="DejaVuSans-4d" d="M 628 4666 
L 1569 4666 
L 2759 1491 
L 3956 4666 
L 4897 4666 
L 4897 0 
L 4281 0 
L 4281 4097 
L 3078 897 
L 2444 897 
L 1241 4097 
L 1241 0 
L 628 0 
L 628 4666 
z
" transform="scale(0.015625)"/>
       <path id="DejaVuSans-69" d="M 603 3500 
L 1178 3500 
L 1178 0 
L 603 0 
L 603 3500 
z
M 603 4863 
L 1178 4863 
L 1178 4134 
L 603 4134 
L 603 4863 
z
" transform="scale(0.015625)"/>
       <path id="DejaVuSans-63" d="M 3122 3366 
L 3122 2828 
Q 2878 2963 2633 3030 
Q 2388 3097 2138 3097 
Q 1578 3097 1268 2742 
Q 959 2388 959 1747 
Q 959 1106 1268 751 
Q 1578 397 2138 397 
Q 2388 397 2633 464 
Q 2878 531 3122 666 
L 3122 134 
Q 2881 22 2623 -34 
Q 2366 -91 2075 -91 
Q 1284 -91 818 406 
Q 353 903 353 1747 
Q 353 2603 823 3093 
Q 1294 3584 2113 3584 
Q 2378 3584 2631 3529 
Q 2884 3475 3122 3366 
z
" transform="scale(0.015625)"/>
       <path id="DejaVuSans-72" d="M 2631 2963 
Q 2534 3019 2420 3045 
Q 2306 3072 2169 3072 
Q 1681 3072 1420 2755 
Q 1159 2438 1159 1844 
L 1159 0 
L 581 0 
L 581 3500 
L 1159 3500 
L 1159 2956 
Q 1341 3275 1631 3429 
Q 1922 3584 2338 3584 
Q 2397 3584 2469 3576 
Q 2541 3569 2628 3553 
L 2631 2963 
z
" transform="scale(0.015625)"/>
       <path id="DejaVuSans-6f" d="M 1959 3097 
Q 1497 3097 1228 2736 
Q 959 2375 959 1747 
Q 959 1119 1226 758 
Q 1494 397 1959 397 
Q 2419 397 2687 759 
Q 2956 1122 2956 1747 
Q 2956 2369 2687 2733 
Q 2419 3097 1959 3097 
z
M 1959 3584 
Q 2709 3584 3137 3096 
Q 3566 2609 3566 1747 
Q 3566 888 3137 398 
Q 2709 -91 1959 -91 
Q 1206 -91 779 398 
Q 353 888 353 1747 
Q 353 2609 779 3096 
Q 1206 3584 1959 3584 
z
" transform="scale(0.015625)"/>
       <path id="DejaVuSans-77" d="M 269 3500 
L 844 3500 
L 1563 769 
L 2278 3500 
L 2956 3500 
L 3675 769 
L 4391 3500 
L 4966 3500 
L 4050 0 
L 3372 0 
L 2619 2869 
L 1863 0 
L 1184 0 
L 269 3500 
z
" transform="scale(0.015625)"/>
       <path id="DejaVuSans-61" d="M 2194 1759 
Q 1497 1759 1228 1600 
Q 959 1441 959 1056 
Q 959 750 1161 570 
Q 1363 391 1709 391 
Q 2188 391 2477 730 
Q 2766 1069 2766 1631 
L 2766 1759 
L 2194 1759 
z
M 3341 1997 
L 3341 0 
L 2766 0 
L 2766 531 
Q 2569 213 2275 61 
Q 1981 -91 1556 -91 
Q 1019 -91 701 211 
Q 384 513 384 1019 
Q 384 1609 779 1909 
Q 1175 2209 1959 2209 
L 2766 2209 
L 2766 2266 
Q 2766 2663 2505 2880 
Q 2244 3097 1772 3097 
Q 1472 3097 1187 3025 
Q 903 2953 641 2809 
L 641 3341 
Q 956 3463 1253 3523 
Q 1550 3584 1831 3584 
Q 2591 3584 2966 3190 
Q 3341 2797 3341 1997 
z
" transform="scale(0.015625)"/>
       <path id="DejaVuSans-76" d="M 191 3500 
L 800 3500 
L 1894 563 
L 2988 3500 
L 3597 3500 
L 2284 0 
L 1503 0 
L 191 3500 
z
" transform="scale(0.015625)"/>
       <path id="DejaVuSans-65" d="M 3597 1894 
L 3597 1613 
L 953 1613 
Q 991 1019 1311 708 
Q 1631 397 2203 397 
Q 2534 397 2845 478 
Q 3156 559 3463 722 
L 3463 178 
Q 3153 47 2828 -22 
Q 2503 -91 2169 -91 
Q 1331 -91 842 396 
Q 353 884 353 1716 
Q 353 2575 817 3079 
Q 1281 3584 2069 3584 
Q 2775 3584 3186 3129 
Q 3597 2675 3597 1894 
z
M 3022 2063 
Q 3016 2534 2758 2815 
Q 2500 3097 2075 3097 
Q 1594 3097 1305 2825 
Q 1016 2553 972 2059 
L 3022 2063 
z
" transform="scale(0.015625)"/>
       <path id="DejaVuSans-20" transform="scale(0.015625)"/>
       <path id="DejaVuSans-46" d="M 628 4666 
L 3309 4666 
L 3309 4134 
L 1259 4134 
L 1259 2759 
L 3109 2759 
L 3109 2228 
L 1259 2228 
L 1259 0 
L 628 0 
L 628 4666 
z
" transform="scale(0.015625)"/>
       <path id="DejaVuSans-71" d="M 947 1747 
Q 947 1113 1208 752 
Q 1469 391 1925 391 
Q 2381 391 2643 752 
Q 2906 1113 2906 1747 
Q 2906 2381 2643 2742 
Q 2381 3103 1925 3103 
Q 1469 3103 1208 2742 
Q 947 2381 947 1747 
z
M 2906 525 
Q 2725 213 2448 61 
Q 2172 -91 1784 -91 
Q 1150 -91 751 415 
Q 353 922 353 1747 
Q 353 2572 751 3078 
Q 1150 3584 1784 3584 
Q 2172 3584 2448 3432 
Q 2725 3281 2906 2969 
L 2906 3500 
L 3481 3500 
L 3481 -1331 
L 2906 -1331 
L 2906 525 
z
" transform="scale(0.015625)"/>
       <path id="DejaVuSans-75" d="M 544 1381 
L 544 3500 
L 1119 3500 
L 1119 1403 
Q 1119 906 1312 657 
Q 1506 409 1894 409 
Q 2359 409 2629 706 
Q 2900 1003 2900 1516 
L 2900 3500 
L 3475 3500 
L 3475 0 
L 2900 0 
L 2900 538 
Q 2691 219 2414 64 
Q 2138 -91 1772 -91 
Q 1169 -91 856 284 
Q 544 659 544 1381 
z
M 1991 3584 
L 1991 3584 
z
" transform="scale(0.015625)"/>
       <path id="DejaVuSans-6e" d="M 3513 2113 
L 3513 0 
L 2938 0 
L 2938 2094 
Q 2938 2591 2744 2837 
Q 2550 3084 2163 3084 
Q 1697 3084 1428 2787 
Q 1159 2491 1159 1978 
L 1159 0 
L 581 0 
L 581 3500 
L 1159 3500 
L 1159 2956 
Q 1366 3272 1645 3428 
Q 1925 3584 2291 3584 
Q 2894 3584 3203 3211 
Q 3513 2838 3513 2113 
z
" transform="scale(0.015625)"/>
       <path id="DejaVuSans-79" d="M 2059 -325 
Q 1816 -950 1584 -1140 
Q 1353 -1331 966 -1331 
L 506 -1331 
L 506 -850 
L 844 -850 
Q 1081 -850 1212 -737 
Q 1344 -625 1503 -206 
L 1606 56 
L 191 3500 
L 800 3500 
L 1894 763 
L 2988 3500 
L 3597 3500 
L 2059 -325 
z
" transform="scale(0.015625)"/>
       <path id="DejaVuSans-28" d="M 1984 4856 
Q 1566 4138 1362 3434 
Q 1159 2731 1159 2009 
Q 1159 1288 1364 580 
Q 1569 -128 1984 -844 
L 1484 -844 
Q 1016 -109 783 600 
Q 550 1309 550 2009 
Q 550 2706 781 3412 
Q 1013 4119 1484 4856 
L 1984 4856 
z
" transform="scale(0.015625)"/>
       <path id="DejaVuSans-47" d="M 3809 666 
L 3809 1919 
L 2778 1919 
L 2778 2438 
L 4434 2438 
L 4434 434 
Q 4069 175 3628 42 
Q 3188 -91 2688 -91 
Q 1594 -91 976 548 
Q 359 1188 359 2328 
Q 359 3472 976 4111 
Q 1594 4750 2688 4750 
Q 3144 4750 3555 4637 
Q 3966 4525 4313 4306 
L 4313 3634 
Q 3963 3931 3569 4081 
Q 3175 4231 2741 4231 
Q 1884 4231 1454 3753 
Q 1025 3275 1025 2328 
Q 1025 1384 1454 906 
Q 1884 428 2741 428 
Q 3075 428 3337 486 
Q 3600 544 3809 666 
z
" transform="scale(0.015625)"/>
       <path id="DejaVuSans-48" d="M 628 4666 
L 1259 4666 
L 1259 2753 
L 3553 2753 
L 3553 4666 
L 4184 4666 
L 4184 0 
L 3553 0 
L 3553 2222 
L 1259 2222 
L 1259 0 
L 628 0 
L 628 4666 
z
" transform="scale(0.015625)"/>
       <path id="DejaVuSans-7a" d="M 353 3500 
L 3084 3500 
L 3084 2975 
L 922 459 
L 3084 459 
L 3084 0 
L 275 0 
L 275 525 
L 2438 3041 
L 353 3041 
L 353 3500 
z
" transform="scale(0.015625)"/>
       <path id="DejaVuSans-29" d="M 513 4856 
L 1013 4856 
Q 1481 4119 1714 3412 
Q 1947 2706 1947 2009 
Q 1947 1309 1714 600 
Q 1481 -109 1013 -844 
L 513 -844 
Q 928 -128 1133 580 
Q 1338 1288 1338 2009 
Q 1338 2731 1133 3434 
Q 928 4138 513 4856 
z
" transform="scale(0.015625)"/>
      </defs>
      <use xlink:href="#DejaVuSans-4d"/>
      <use xlink:href="#DejaVuSans-69" transform="translate(86.279297 0)"/>
      <use xlink:href="#DejaVuSans-63" transform="translate(114.0625 0)"/>
      <use xlink:href="#DejaVuSans-72" transform="translate(169.042969 0)"/>
      <use xlink:href="#DejaVuSans-6f" transform="translate(207.90625 0)"/>
      <use xlink:href="#DejaVuSans-77" transform="translate(269.087891 0)"/>
      <use xlink:href="#DejaVuSans-61" transform="translate(350.875 0)"/>
      <use xlink:href="#DejaVuSans-76" transform="translate(412.154297 0)"/>
      <use xlink:href="#DejaVuSans-65" transform="translate(471.333984 0)"/>
      <use xlink:href="#DejaVuSans-20" transform="translate(532.857422 0)"/>
      <use xlink:href="#DejaVuSans-46" transform="translate(564.644531 0)"/>
      <use xlink:href="#DejaVuSans-72" transform="translate(614.914062 0)"/>
      <use xlink:href="#DejaVuSans-65" transform="translate(653.777344 0)"/>
      <use xlink:href="#DejaVuSans-71" transform="translate(715.300781 0)"/>
      <use xlink:href="#DejaVuSans-75" transform="translate(778.777344 0)"/>
      <use xlink:href="#DejaVuSans-65" transform="translate(842.15625 0)"/>
      <use xlink:href="#DejaVuSans-6e" transform="translate(903.679688 0)"/>
      <use xlink:href="#DejaVuSans-63" transform="translate(967.058594 0)"/>
      <use xlink:href="#DejaVuSans-79" transform="translate(1022.039062 0)"/>
      <use xlink:href="#DejaVuSans-20" transform="translate(1081.21875 0)"/>
      <use xlink:href="#DejaVuSans-28" transform="translate(1113.005859 0)"/>
      <use xlink:href="#DejaVuSans-47" transform="translate(1152.019531 0)"/>
      <use xlink:href="#DejaVuSans-48" transform="translate(1229.509766 0)"/>
      <use xlink:href="#DejaVuSans-7a" transform="translate(1304.705078 0)"/>
      <use xlink:href="#DejaVuSans-29" transform="translate(1357.195312 0)"/>
     </g>
    </g>
   </g>
   <g id="matplotlib.axis_2">
    <g id="ytick_1">
     <g id="line2d_17">
      <path d="M 58.896875 308.276137 
L 561.096875 308.276137 
" clip-path="url(#p6b57c8c83a)" style="fill: none; stroke: #b0b0b0; stroke-opacity: 0.25; stroke-width: 0.8; stroke-linecap: square"/>
     </g>
     <g id="line2d_18">
      <defs>
       <path id="m552574b1cf" d="M 0 0 
L -3.5 0 
" style="stroke: #000000"/>
      </defs>
      <g>
       <use xlink:href="#m552574b1cf" x="58.896875" y="308.276137" style="stroke: #000000"/>
      </g>
     </g>
     <g id="text_10">
      <!-- 0.825 -->
      <g transform="translate(20.405938 312.455278) scale(0.11 -0.11)">
       <use xlink:href="#DejaVuSans-30"/>
       <use xlink:href="#DejaVuSans-2e" transform="translate(63.623047 0)"/>
       <use xlink:href="#DejaVuSans-38" transform="translate(95.410156 0)"/>
       <use xlink:href="#DejaVuSans-32" transform="translate(159.033203 0)"/>
       <use xlink:href="#DejaVuSans-35" transform="translate(222.65625 0)"/>
      </g>
     </g>
    </g>
    <g id="ytick_2">
     <g id="line2d_19">
      <path d="M 58.896875 271.547137 
L 561.096875 271.547137 
" clip-path="url(#p6b57c8c83a)" style="fill: none; stroke: #b0b0b0; stroke-opacity: 0.25; stroke-width: 0.8; stroke-linecap: square"/>
     </g>
     <g id="line2d_20">
      <g>
       <use xlink:href="#m552574b1cf" x="58.896875" y="271.547137" style="stroke: #000000"/>
      </g>
     </g>
     <g id="text_11">
      <!-- 0.850 -->
      <g transform="translate(20.405938 275.726278) scale(0.11 -0.11)">
       <use xlink:href="#DejaVuSans-30"/>
       <use xlink:href="#DejaVuSans-2e" transform="translate(63.623047 0)"/>
       <use xlink:href="#DejaVuSans-38" transform="translate(95.410156 0)"/>
       <use xlink:href="#DejaVuSans-35" transform="translate(159.033203 0)"/>
       <use xlink:href="#DejaVuSans-30" transform="translate(222.65625 0)"/>
      </g>
     </g>
    </g>
    <g id="ytick_3">
     <g id="line2d_21">
      <path d="M 58.896875 234.818137 
L 561.096875 234.818137 
" clip-path="url(#p6b57c8c83a)" style="fill: none; stroke: #b0b0b0; stroke-opacity: 0.25; stroke-width: 0.8; stroke-linecap: square"/>
     </g>
     <g id="line2d_22">
      <g>
       <use xlink:href="#m552574b1cf" x="58.896875" y="234.818137" style="stroke: #000000"/>
      </g>
     </g>
     <g id="text_12">
      <!-- 0.875 -->
      <g transform="translate(20.405938 238.997278) scale(0.11 -0.11)">
       <use xlink:href="#DejaVuSans-30"/>
       <use xlink:href="#DejaVuSans-2e" transform="translate(63.623047 0)"/>
       <use xlink:href="#DejaVuSans-38" transform="translate(95.410156 0)"/>
       <use xlink:href="#DejaVuSans-37" transform="translate(159.033203 0)"/>
       <use xlink:href="#DejaVuSans-35" transform="translate(222.65625 0)"/>
      </g>
     </g>
    </g>
    <g id="ytick_4">
     <g id="line2d_23">
      <path d="M 58.896875 198.089137 
L 561.096875 198.089137 
" clip-path="url(#p6b57c8c83a)" style="fill: none; stroke: #b0b0b0; stroke-opacity: 0.25; stroke-width: 0.8; stroke-linecap: square"/>
     </g>
     <g id="line2d_24">
      <g>
       <use xlink:href="#m552574b1cf" x="58.896875" y="198.089137" style="stroke: #000000"/>
      </g>
     </g>
     <g id="text_13">
      <!-- 0.900 -->
      <g transform="translate(20.405938 202.268278) scale(0.11 -0.11)">
       <use xlink:href="#DejaVuSans-30"/>
       <use xlink:href="#DejaVuSans-2e" transform="translate(63.623047 0)"/>
       <use xlink:href="#DejaVuSans-39" transform="translate(95.410156 0)"/>
       <use xlink:href="#DejaVuSans-30" transform="translate(159.033203 0)"/>
       <use xlink:href="#DejaVuSans-30" transform="translate(222.65625 0)"/>
      </g>
     </g>
    </g>
    <g id="ytick_5">
     <g id="line2d_25">
      <path d="M 58.896875 161.360137 
L 561.096875 161.360137 
" clip-path="url(#p6b57c8c83a)" style="fill: none; stroke: #b0b0b0; stroke-opacity: 0.25; stroke-width: 0.8; stroke-linecap: square"/>
     </g>
     <g id="line2d_26">
      <g>
       <use xlink:href="#m552574b1cf" x="58.896875" y="161.360137" style="stroke: #000000"/>
      </g>
     </g>
     <g id="text_14">
      <!-- 0.925 -->
      <g transform="translate(20.405938 165.539278) scale(0.11 -0.11)">
       <use xlink:href="#DejaVuSans-30"/>
       <use xlink:href="#DejaVuSans-2e" transform="translate(63.623047 0)"/>
       <use xlink:href="#DejaVuSans-39" transform="translate(95.410156 0)"/>
       <use xlink:href="#DejaVuSans-32" transform="translate(159.033203 0)"/>
       <use xlink:href="#DejaVuSans-35" transform="translate(222.65625 0)"/>
      </g>
     </g>
    </g>
    <g id="ytick_6">
     <g id="line2d_27">
      <path d="M 58.896875 124.631137 
L 561.096875 124.631137 
" clip-path="url(#p6b57c8c83a)" style="fill: none; stroke: #b0b0b0; stroke-opacity: 0.25; stroke-width: 0.8; stroke-linecap: square"/>
     </g>
     <g id="line2d_28">
      <g>
       <use xlink:href="#m552574b1cf" x="58.896875" y="124.631137" style="stroke: #000000"/>
      </g>
     </g>
     <g id="text_15">
      <!-- 0.950 -->
      <g transform="translate(20.405938 128.810278) scale(0.11 -0.11)">
       <use xlink:href="#DejaVuSans-30"/>
       <use xlink:href="#DejaVuSans-2e" transform="translate(63.623047 0)"/>
       <use xlink:href="#DejaVuSans-39" transform="translate(95.410156 0)"/>
       <use xlink:href="#DejaVuSans-35" transform="translate(159.033203 0)"/>
       <use xlink:href="#DejaVuSans-30" transform="translate(222.65625 0)"/>
      </g>
     </g>
    </g>
    <g id="ytick_7">
     <g id="line2d_29">
      <path d="M 58.896875 87.902137 
L 561.096875 87.902137 
" clip-path="url(#p6b57c8c83a)" style="fill: none; stroke: #b0b0b0; stroke-opacity: 0.25; stroke-width: 0.8; stroke-linecap: square"/>
     </g>
     <g id="line2d_30">
      <g>
       <use xlink:href="#m552574b1cf" x="58.896875" y="87.902137" style="stroke: #000000"/>
      </g>
     </g>
     <g id="text_16">
      <!-- 0.975 -->
      <g transform="translate(20.405938 92.081278) scale(0.11 -0.11)">
       <use xlink:href="#DejaVuSans-30"/>
       <use xlink:href="#DejaVuSans-2e" transform="translate(63.623047 0)"/>
       <use xlink:href="#DejaVuSans-39" transform="translate(95.410156 0)"/>
       <use xlink:href="#DejaVuSans-37" transform="translate(159.033203 0)"/>
       <use xlink:href="#DejaVuSans-35" transform="translate(222.65625 0)"/>
      </g>
     </g>
    </g>
    <g id="ytick_8">
     <g id="line2d_31">
      <path d="M 58.896875 51.173137 
L 561.096875 51.173137 
" clip-path="url(#p6b57c8c83a)" style="fill: none; stroke: #b0b0b0; stroke-opacity: 0.25; stroke-width: 0.8; stroke-linecap: square"/>
     </g>
     <g id="line2d_32">
      <g>
       <use xlink:href="#m552574b1cf" x="58.896875" y="51.173137" style="stroke: #000000"/>
      </g>
     </g>
     <g id="text_17">
      <!-- 1.000 -->
      <g transform="translate(20.405938 55.352278) scale(0.11 -0.11)">
       <defs>
        <path id="DejaVuSans-31" d="M 794 531 
L 1825 531 
L 1825 4091 
L 703 3866 
L 703 4441 
L 1819 4666 
L 2450 4666 
L 2450 531 
L 3481 531 
L 3481 0 
L 794 0 
L 794 531 
z
" transform="scale(0.015625)"/>
       </defs>
       <use xlink:href="#DejaVuSans-31"/>
       <use xlink:href="#DejaVuSans-2e" transform="translate(63.623047 0)"/>
       <use xlink:href="#DejaVuSans-30" transform="translate(95.410156 0)"/>
       <use xlink:href="#DejaVuSans-30" transform="translate(159.033203 0)"/>
       <use xlink:href="#DejaVuSans-30" transform="translate(222.65625 0)"/>
      </g>
     </g>
    </g>
    <g id="text_18">
     <!-- Normalized Fluorescence -->
     <g transform="translate(14.118281 237.876172) rotate(-90) scale(0.11 -0.11)">
      <defs>
       <path id="DejaVuSans-4e" d="M 628 4666 
L 1478 4666 
L 3547 763 
L 3547 4666 
L 4159 4666 
L 4159 0 
L 3309 0 
L 1241 3903 
L 1241 0 
L 628 0 
L 628 4666 
z
" transform="scale(0.015625)"/>
       <path id="DejaVuSans-6d" d="M 3328 2828 
Q 3544 3216 3844 3400 
Q 4144 3584 4550 3584 
Q 5097 3584 5394 3201 
Q 5691 2819 5691 2113 
L 5691 0 
L 5113 0 
L 5113 2094 
Q 5113 2597 4934 2840 
Q 4756 3084 4391 3084 
Q 3944 3084 3684 2787 
Q 3425 2491 3425 1978 
L 3425 0 
L 2847 0 
L 2847 2094 
Q 2847 2600 2669 2842 
Q 2491 3084 2119 3084 
Q 1678 3084 1418 2786 
Q 1159 2488 1159 1978 
L 1159 0 
L 581 0 
L 581 3500 
L 1159 3500 
L 1159 2956 
Q 1356 3278 1631 3431 
Q 1906 3584 2284 3584 
Q 2666 3584 2933 3390 
Q 3200 3197 3328 2828 
z
" transform="scale(0.015625)"/>
       <path id="DejaVuSans-6c" d="M 603 4863 
L 1178 4863 
L 1178 0 
L 603 0 
L 603 4863 
z
" transform="scale(0.015625)"/>
       <path id="DejaVuSans-64" d="M 2906 2969 
L 2906 4863 
L 3481 4863 
L 3481 0 
L 2906 0 
L 2906 525 
Q 2725 213 2448 61 
Q 2172 -91 1784 -91 
Q 1150 -91 751 415 
Q 353 922 353 1747 
Q 353 2572 751 3078 
Q 1150 3584 1784 3584 
Q 2172 3584 2448 3432 
Q 2725 3281 2906 2969 
z
M 947 1747 
Q 947 1113 1208 752 
Q 1469 391 1925 391 
Q 2381 391 2643 752 
Q 2906 1113 2906 1747 
Q 2906 2381 2643 2742 
Q 2381 3103 1925 3103 
Q 1469 3103 1208 2742 
Q 947 2381 947 1747 
z
" transform="scale(0.015625)"/>
       <path id="DejaVuSans-73" d="M 2834 3397 
L 2834 2853 
Q 2591 2978 2328 3040 
Q 2066 3103 1784 3103 
Q 1356 3103 1142 2972 
Q 928 2841 928 2578 
Q 928 2378 1081 2264 
Q 1234 2150 1697 2047 
L 1894 2003 
Q 2506 1872 2764 1633 
Q 3022 1394 3022 966 
Q 3022 478 2636 193 
Q 2250 -91 1575 -91 
Q 1294 -91 989 -36 
Q 684 19 347 128 
L 347 722 
Q 666 556 975 473 
Q 1284 391 1588 391 
Q 1994 391 2212 530 
Q 2431 669 2431 922 
Q 2431 1156 2273 1281 
Q 2116 1406 1581 1522 
L 1381 1569 
Q 847 1681 609 1914 
Q 372 2147 372 2553 
Q 372 3047 722 3315 
Q 1072 3584 1716 3584 
Q 2034 3584 2315 3537 
Q 2597 3491 2834 3397 
z
" transform="scale(0.015625)"/>
      </defs>
      <use xlink:href="#DejaVuSans-4e"/>
      <use xlink:href="#DejaVuSans-6f" transform="translate(74.804688 0)"/>
      <use xlink:href="#DejaVuSans-72" transform="translate(135.986328 0)"/>
      <use xlink:href="#DejaVuSans-6d" transform="translate(175.349609 0)"/>
      <use xlink:href="#DejaVuSans-61" transform="translate(272.761719 0)"/>
      <use xlink:href="#DejaVuSans-6c" transform="translate(334.041016 0)"/>
      <use xlink:href="#DejaVuSans-69" transform="translate(361.824219 0)"/>
      <use xlink:href="#DejaVuSans-7a" transform="translate(389.607422 0)"/>
      <use xlink:href="#DejaVuSans-65" transform="translate(442.097656 0)"/>
      <use xlink:href="#DejaVuSans-64" transform="translate(503.621094 0)"/>
      <use xlink:href="#DejaVuSans-20" transform="translate(567.097656 0)"/>
      <use xlink:href="#DejaVuSans-46" transform="translate(598.884766 0)"/>
      <use xlink:href="#DejaVuSans-6c" transform="translate(656.404297 0)"/>
      <use xlink:href="#DejaVuSans-75" transform="translate(684.1875 0)"/>
      <use xlink:href="#DejaVuSans-6f" transform="translate(747.566406 0)"/>
      <use xlink:href="#DejaVuSans-72" transform="translate(808.748047 0)"/>
      <use xlink:href="#DejaVuSans-65" transform="translate(847.611328 0)"/>
      <use xlink:href="#DejaVuSans-73" transform="translate(909.134766 0)"/>
      <use xlink:href="#DejaVuSans-63" transform="translate(961.234375 0)"/>
      <use xlink:href="#DejaVuSans-65" transform="translate(1016.214844 0)"/>
      <use xlink:href="#DejaVuSans-6e" transform="translate(1077.738281 0)"/>
      <use xlink:href="#DejaVuSans-63" transform="translate(1141.117188 0)"/>
      <use xlink:href="#DejaVuSans-65" transform="translate(1196.097656 0)"/>
     </g>
    </g>
   </g>
   <g id="line2d_33">
    <path d="M 81.724148 51.376306 
L 156.134015 51.619868 
L 192.863183 51.94289 
L 215.129051 52.344609 
L 230.16327 52.823985 
L 241.010744 53.378711 
L 249.384233 54.022297 
L 255.854657 54.733054 
L 261.183241 55.537471 
L 265.560292 56.419464 
L 269.176116 57.364483 
L 272.411328 58.44183 
L 275.07562 59.552215 
L 277.549605 60.824215 
L 279.642978 62.137071 
L 281.546043 63.572914 
L 283.258802 65.115139 
L 284.971561 66.956333 
L 286.494014 68.908079 
L 288.016466 71.233034 
L 289.348612 73.649427 
L 290.680758 76.510817 
L 292.012904 79.927395 
L 293.34505 84.043044 
L 294.48689 88.269057 
L 295.628729 93.300723 
L 296.770569 99.333922 
L 297.912408 106.617062 
L 299.054247 115.461995 
L 300.196087 126.251354 
L 301.337926 139.432957 
L 302.479766 155.480844 
L 303.621605 174.783319 
L 304.953751 201.449622 
L 308.379269 273.342042 
L 308.950189 280.661196 
L 309.521109 285.064243 
L 309.901722 286.191531 
L 310.092028 286.191531 
L 310.282335 285.814563 
L 310.662948 283.947717 
L 311.043561 280.661196 
L 311.614481 273.342042 
L 312.375707 260.020347 
L 313.707853 231.229558 
L 315.801225 185.695682 
L 317.133371 161.540471 
L 318.275211 144.441186 
L 319.41705 130.355891 
L 320.558889 118.821454 
L 321.700729 109.374431 
L 322.842568 101.608756 
L 323.984408 95.18943 
L 325.316554 89.047002 
L 326.6487 84.043044 
L 327.980846 79.927395 
L 329.312992 76.510817 
L 330.645138 73.649427 
L 332.16759 70.91894 
L 333.690043 68.645415 
L 335.402802 66.51761 
L 337.115561 64.748974 
L 339.018626 63.114392 
L 341.111999 61.630746 
L 343.395678 60.303184 
L 345.869663 59.128442 
L 348.724261 58.03185 
L 351.959473 57.040419 
L 355.575298 56.165406 
L 359.952349 55.343738 
L 365.090626 54.612932 
L 371.370743 53.952889 
L 379.173312 53.366706 
L 389.069254 52.855695 
L 402.200407 52.412926 
L 420.279531 52.041135 
L 446.541837 51.74008 
L 488.218975 51.506257 
L 538.269602 51.376306 
L 538.269602 51.376306 
" clip-path="url(#p6b57c8c83a)" style="fill: none; stroke: #1f77b4; stroke-width: 2; stroke-linecap: square"/>
   </g>
   <g id="line2d_34">
    <path d="M 81.724148 51.598045 
L 111.031359 51.909268 
L 128.349257 52.301127 
L 139.767651 52.770222 
L 147.950833 53.320701 
L 154.040643 53.944123 
L 158.798307 54.645476 
L 162.604439 55.420376 
L 165.83965 56.304422 
L 168.503942 57.258062 
L 170.787621 58.303711 
L 172.880993 59.516831 
L 174.593752 60.752883 
L 176.116205 62.094052 
L 177.638658 63.732119 
L 178.970804 65.480071 
L 180.30295 67.608384 
L 181.444789 69.82041 
L 182.586628 72.490521 
L 183.728468 75.746128 
L 184.870307 79.757981 
L 186.012147 84.756284 
L 186.963679 89.896247 
L 187.915212 96.169637 
L 188.866745 103.870764 
L 189.818278 113.355843 
L 190.769811 125.023871 
L 191.721344 139.246282 
L 192.863183 159.888507 
L 195.908088 219.251191 
L 196.479008 225.215074 
L 196.859621 227.199909 
L 197.049927 227.543099 
L 197.240234 227.44448 
L 197.430541 226.905537 
L 197.811154 224.545109 
L 198.191767 220.598023 
L 198.762687 212.189186 
L 199.714219 193.853049 
L 201.997898 147.573334 
L 203.139738 129.164786 
L 204.281577 114.544535 
L 205.423416 103.130191 
L 206.565256 94.238292 
L 207.707095 87.273725 
L 208.848935 81.768979 
L 209.990774 77.371685 
L 211.132613 73.820231 
L 212.274453 70.92082 
L 213.606599 68.172035 
L 214.938745 65.947646 
L 216.270891 64.125862 
L 217.793343 62.423318 
L 219.315796 61.033208 
L 221.028555 59.755553 
L 222.931621 58.607283 
L 225.024993 57.59304 
L 227.498978 56.643832 
L 230.353577 55.792975 
L 233.779095 55.016474 
L 237.775533 54.342895 
L 242.723504 53.739742 
L 249.00362 53.209079 
L 257.186803 52.755662 
L 268.034277 52.389945 
L 283.068496 52.118329 
L 303.811912 51.976512 
L 327.790539 52.030882 
L 347.201809 52.281804 
L 360.523269 52.661131 
L 370.038597 53.144958 
L 376.889633 53.701222 
L 382.218217 54.342895 
L 386.404962 55.054079 
L 389.83048 55.843131 
L 392.685078 56.708975 
L 395.159064 57.676285 
L 397.252436 58.711342 
L 399.155502 59.884854 
L 400.868261 61.192507 
L 402.390713 62.617349 
L 403.913166 64.365138 
L 405.245312 66.238331 
L 406.577458 68.52927 
L 407.719297 70.92082 
L 408.861137 73.820231 
L 410.002976 77.371685 
L 411.144815 81.768979 
L 412.096348 86.265708 
L 413.047881 91.728318 
L 413.999414 98.409068 
L 414.950947 106.621882 
L 415.90248 116.739928 
L 416.854012 129.164786 
L 417.805545 144.230422 
L 418.947385 165.812888 
L 421.42137 215.279961 
L 421.99229 222.757983 
L 422.372903 225.93431 
L 422.753516 227.44448 
L 422.943823 227.543099 
L 423.134129 227.199909 
L 423.514742 225.215074 
L 423.895355 221.605418 
L 424.466275 213.598951 
L 425.417808 195.616259 
L 427.891793 145.701713 
L 429.033633 127.654079 
L 430.175472 113.355843 
L 431.317312 102.200056 
L 432.459151 93.506853 
L 433.60099 86.692512 
L 434.74283 81.301017 
L 435.884669 76.989421 
L 437.026509 73.503262 
L 438.168348 70.654003 
L 439.500494 67.949636 
L 440.83264 65.758554 
L 442.164786 63.961969 
L 443.687238 62.280975 
L 445.399998 60.752883 
L 447.112757 59.516831 
L 449.015822 58.402745 
L 451.299501 57.336135 
L 453.773486 56.426323 
L 456.818392 55.558842 
L 460.24391 54.817852 
L 464.430654 54.143199 
L 469.568932 53.54533 
L 476.229661 53.008086 
L 484.793457 52.551888 
L 496.592464 52.161174 
L 513.529749 51.840822 
L 538.269602 51.598045 
L 538.269602 51.598045 
" clip-path="url(#p6b57c8c83a)" style="fill: none; stroke: #ff7f0e; stroke-width: 2; stroke-linecap: square"/>
   </g>
   <g id="line2d_35">
    <path d="M 81.724148 54.30723 
L 85.910892 55.056838 
L 89.33641 55.889712 
L 92.191009 56.805897 
L 94.664994 57.832605 
L 96.758367 58.934991 
L 98.661432 60.189454 
L 100.374191 61.592838 
L 101.896644 63.128239 
L 103.22879 64.760438 
L 104.560936 66.740021 
L 105.893082 69.168526 
L 107.034921 71.711605 
L 108.176761 74.8044 
L 109.3186 78.605368 
L 110.460439 83.32789 
L 111.411972 88.172354 
L 112.363505 94.073135 
L 113.315038 101.305676 
L 114.266571 110.208056 
L 115.218104 121.170574 
L 116.169636 134.585447 
L 117.311476 154.258193 
L 118.833928 185.459314 
L 120.166074 211.901176 
L 120.927301 222.559017 
L 121.307914 225.79232 
L 121.688527 227.364324 
L 121.878833 227.494596 
L 122.06914 227.182927 
L 122.449753 225.258885 
L 122.830366 221.704258 
L 123.401286 213.764135 
L 124.352819 195.841372 
L 126.826804 145.884747 
L 127.968644 127.790861 
L 129.110483 113.451792 
L 130.252322 102.263489 
L 131.394162 93.545517 
L 132.536001 86.712648 
L 133.677841 81.307377 
L 134.81968 76.985541 
L 135.961519 73.491758 
L 137.103359 70.636816 
L 138.435505 67.927623 
L 139.767651 65.733135 
L 141.099797 63.934179 
L 142.622249 62.251397 
L 144.335008 60.722137 
L 146.047767 59.485554 
L 147.950833 58.371404 
L 150.234512 57.305222 
L 152.708497 56.396297 
L 155.753402 55.530297 
L 159.178921 54.791293 
L 163.365665 54.119335 
L 168.503942 53.524991 
L 175.164672 52.992481 
L 183.728468 52.54247 
L 195.527475 52.160347 
L 212.464759 51.852513 
L 238.536759 51.62123 
L 282.116963 51.479795 
L 347.201809 51.49613 
L 393.065692 51.701571 
L 417.805545 52.015462 
L 433.030071 52.416718 
L 443.306625 52.896931 
L 450.728581 53.452734 
L 456.437778 54.093411 
L 461.005136 54.827203 
L 464.620961 55.62622 
L 467.665866 56.522441 
L 470.139851 57.465833 
L 472.42353 58.575705 
L 474.326596 59.738947 
L 476.039355 61.033774 
L 477.561807 62.443261 
L 479.08426 64.170551 
L 480.416406 66.020033 
L 481.748552 68.279869 
L 482.890391 70.636816 
L 484.032231 73.491758 
L 485.17407 76.985541 
L 486.315909 81.307377 
L 487.267442 85.7232 
L 488.218975 91.083612 
L 489.170508 97.635273 
L 490.122041 105.686021 
L 491.073574 115.604012 
L 492.025106 127.790861 
L 492.976639 142.594193 
L 494.118479 163.893228 
L 496.782771 216.716578 
L 497.35369 223.674783 
L 497.734303 226.433984 
L 498.114917 227.494596 
L 498.305223 227.364324 
L 498.49553 226.794065 
L 498.876143 224.373825 
L 499.256756 220.373313 
L 499.827676 211.901176 
L 500.779209 193.509886 
L 503.062887 147.26714 
L 504.204727 128.903219 
L 505.346566 114.322998 
L 506.488406 102.940672 
L 507.630245 94.073135 
L 508.772084 87.126702 
L 509.913924 81.635325 
L 511.055763 77.247847 
L 512.197603 73.703575 
L 513.339442 70.809386 
L 514.671588 68.064866 
L 516.003734 65.843297 
L 517.33588 64.023272 
L 518.858332 62.321783 
L 520.571092 60.776424 
L 522.283851 59.527483 
L 524.186916 58.402719 
L 526.470595 57.326843 
L 528.94458 56.409988 
L 531.799179 55.584637 
L 535.224697 54.82773 
L 538.269602 54.30723 
L 538.269602 54.30723 
" clip-path="url(#p6b57c8c83a)" style="fill: none; stroke: #d62728; stroke-width: 2; stroke-linecap: square"/>
   </g>
   <g id="line2d_36">
    <path d="M 309.996875 315.621938 
L 309.996875 21.789938 
" clip-path="url(#p6b57c8c83a)" style="fill: none; stroke-dasharray: 1,1.65; stroke-dashoffset: 0; stroke: #737373"/>
   </g>
   <g id="patch_3">
    <path d="M 58.896875 315.621937 
L 58.896875 21.789937 
" style="fill: none; stroke: #000000; stroke-width: 1.1; stroke-linejoin: miter; stroke-linecap: square"/>
   </g>
   <g id="patch_4">
    <path d="M 561.096875 315.621937 
L 561.096875 21.789937 
" style="fill: none; stroke: #000000; stroke-width: 1.1; stroke-linejoin: miter; stroke-linecap: square"/>
   </g>
   <g id="patch_5">
    <path d="M 58.896875 315.621938 
L 561.096875 315.621938 
" style="fill: none; stroke: #000000; stroke-width: 1.1; stroke-linejoin: miter; stroke-linecap: square"/>
   </g>
   <g id="patch_6">
    <path d="M 58.896875 21.789938 
L 561.096875 21.789938 
" style="fill: none; stroke: #000000; stroke-width: 1.1; stroke-linejoin: miter; stroke-linecap: square"/>
   </g>
   <g id="text_19">
    <!-- D = 2.87 GHz -->
    <g style="fill: #595959" transform="translate(312.011046 46.765657) scale(0.09 -0.09)">
     <defs>
      <path id="DejaVuSans-44" d="M 1259 4147 
L 1259 519 
L 2022 519 
Q 2988 519 3436 956 
Q 3884 1394 3884 2338 
Q 3884 3275 3436 3711 
Q 2988 4147 2022 4147 
L 1259 4147 
z
M 628 4666 
L 1925 4666 
Q 3281 4666 3915 4102 
Q 4550 3538 4550 2338 
Q 4550 1131 3912 565 
Q 3275 0 1925 0 
L 628 0 
L 628 4666 
z
" transform="scale(0.015625)"/>
      <path id="DejaVuSans-3d" d="M 678 2906 
L 4684 2906 
L 4684 2381 
L 678 2381 
L 678 2906 
z
M 678 1631 
L 4684 1631 
L 4684 1100 
L 678 1100 
L 678 1631 
z
" transform="scale(0.015625)"/>
     </defs>
     <use xlink:href="#DejaVuSans-44"/>
     <use xlink:href="#DejaVuSans-20" transform="translate(77.001953 0)"/>
     <use xlink:href="#DejaVuSans-3d" transform="translate(108.789062 0)"/>
     <use xlink:href="#DejaVuSans-20" transform="translate(192.578125 0)"/>
     <use xlink:href="#DejaVuSans-32" transform="translate(224.365234 0)"/>
     <use xlink:href="#DejaVuSans-2e" transform="translate(287.988281 0)"/>
     <use xlink:href="#DejaVuSans-38" transform="translate(319.775391 0)"/>
     <use xlink:href="#DejaVuSans-37" transform="translate(383.398438 0)"/>
     <use xlink:href="#DejaVuSans-20" transform="translate(447.021484 0)"/>
     <use xlink:href="#DejaVuSans-47" transform="translate(478.808594 0)"/>
     <use xlink:href="#DejaVuSans-48" transform="translate(556.298828 0)"/>
     <use xlink:href="#DejaVuSans-7a" transform="translate(631.494141 0)"/>
    </g>
   </g>
   <g id="text_20">
    <g id="patch_7">
     <path d="M 68.940875 309.806978 
L 155.340875 309.806978 
Q 158.340875 309.806978 158.340875 306.806978 
L 158.340875 285.888852 
Q 158.340875 282.888852 155.340875 282.888852 
L 68.940875 282.888852 
Q 65.940875 282.888852 65.940875 285.888852 
L 65.940875 306.806978 
Q 65.940875 309.806978 68.940875 309.806978 
z
" style="fill: #f9fafb; stroke: #808080; stroke-linejoin: miter"/>
    </g>
    <!-- $\Delta f = 2\gamma B$ -->
    <g transform="translate(68.940875 293.488853) scale(0.1 -0.1)">
     <defs>
      <path id="DejaVuSans-394" d="M 2188 4044 
L 906 525 
L 3472 525 
L 2188 4044 
z
M 50 0 
L 1831 4666 
L 2547 4666 
L 4325 0 
L 50 0 
z
" transform="scale(0.015625)"/>
      <path id="DejaVuSans-Oblique-66" d="M 3059 4863 
L 2969 4384 
L 2419 4384 
Q 2106 4384 1964 4261 
Q 1822 4138 1753 3809 
L 1691 3500 
L 2638 3500 
L 2553 3053 
L 1606 3053 
L 1013 0 
L 434 0 
L 1031 3053 
L 481 3053 
L 563 3500 
L 1113 3500 
L 1159 3744 
Q 1278 4363 1576 4613 
Q 1875 4863 2516 4863 
L 3059 4863 
z
" transform="scale(0.015625)"/>
      <path id="DejaVuSans-Oblique-3b3" d="M 1491 2950 
L 1838 788 
L 3456 3500 
L 4066 3500 
L 1972 0 
L 1713 -1331 
L 1138 -1331 
L 1397 0 
L 988 2613 
Q 925 3006 628 3006 
L 475 3006 
L 569 3500 
L 788 3500 
Q 1403 3500 1491 2950 
z
" transform="scale(0.015625)"/>
      <path id="DejaVuSans-Oblique-42" d="M 1081 4666 
L 2694 4666 
Q 3350 4666 3675 4422 
Q 4000 4178 4000 3688 
Q 4000 3238 3720 2911 
Q 3441 2584 2988 2516 
Q 3375 2428 3569 2181 
Q 3763 1934 3763 1522 
Q 3763 819 3242 409 
Q 2722 0 1819 0 
L 172 0 
L 1081 4666 
z
M 1234 2228 
L 903 519 
L 1919 519 
Q 2491 519 2800 781 
Q 3109 1044 3109 1522 
Q 3109 1891 2904 2059 
Q 2700 2228 2247 2228 
L 1234 2228 
z
M 1606 4147 
L 1331 2741 
L 2272 2741 
Q 2775 2741 3058 2959 
Q 3341 3178 3341 3566 
Q 3341 3869 3150 4008 
Q 2959 4147 2541 4147 
L 1606 4147 
z
" transform="scale(0.015625)"/>
     </defs>
     <use xlink:href="#DejaVuSans-394" transform="translate(0 0.015625)"/>
     <use xlink:href="#DejaVuSans-Oblique-66" transform="translate(68.408203 0.015625)"/>
     <use xlink:href="#DejaVuSans-3d" transform="translate(123.095703 0.015625)"/>
     <use xlink:href="#DejaVuSans-32" transform="translate(226.367188 0.015625)"/>
     <use xlink:href="#DejaVuSans-Oblique-3b3" transform="translate(289.990234 0.015625)"/>
     <use xlink:href="#DejaVuSans-Oblique-42" transform="translate(349.169922 0.015625)"/>
    </g>
    <!-- $\gamma = 28.025$ GHz/T -->
    <g transform="translate(68.940875 304.706977) scale(0.1 -0.1)">
     <defs>
      <path id="DejaVuSans-2f" d="M 1625 4666 
L 2156 4666 
L 531 -594 
L 0 -594 
L 1625 4666 
z
" transform="scale(0.015625)"/>
      <path id="DejaVuSans-54" d="M -19 4666 
L 3928 4666 
L 3928 4134 
L 2272 4134 
L 2272 0 
L 1638 0 
L 1638 4134 
L -19 4134 
L -19 4666 
z
" transform="scale(0.015625)"/>
     </defs>
     <use xlink:href="#DejaVuSans-Oblique-3b3" transform="translate(0 0.78125)"/>
     <use xlink:href="#DejaVuSans-3d" transform="translate(78.662109 0.78125)"/>
     <use xlink:href="#DejaVuSans-32" transform="translate(181.933594 0.78125)"/>
     <use xlink:href="#DejaVuSans-38" transform="translate(245.556641 0.78125)"/>
     <use xlink:href="#DejaVuSans-2e" transform="translate(309.179688 0.78125)"/>
     <use xlink:href="#DejaVuSans-30" transform="translate(340.966797 0.78125)"/>
     <use xlink:href="#DejaVuSans-32" transform="translate(404.589844 0.78125)"/>
     <use xlink:href="#DejaVuSans-35" transform="translate(468.212891 0.78125)"/>
     <use xlink:href="#DejaVuSans-20" transform="translate(531.835938 0.78125)"/>
     <use xlink:href="#DejaVuSans-47" transform="translate(563.623047 0.78125)"/>
     <use xlink:href="#DejaVuSans-48" transform="translate(641.113281 0.78125)"/>
     <use xlink:href="#DejaVuSans-7a" transform="translate(716.308594 0.78125)"/>
     <use xlink:href="#DejaVuSans-2f" transform="translate(768.798828 0.78125)"/>
     <use xlink:href="#DejaVuSans-54" transform="translate(802.490234 0.78125)"/>
    </g>
   </g>
   <g id="text_21">
    <!-- Zeeman Splitting in ODMR Spectra -->
    <g transform="translate(180.610063 15.789938) scale(0.132 -0.132)">
     <defs>
      <path id="DejaVuSans-Bold-5a" d="M 359 4666 
L 4281 4666 
L 4281 3938 
L 1778 909 
L 4353 909 
L 4353 0 
L 288 0 
L 288 728 
L 2791 3756 
L 359 3756 
L 359 4666 
z
" transform="scale(0.015625)"/>
      <path id="DejaVuSans-Bold-65" d="M 4031 1759 
L 4031 1441 
L 1416 1441 
Q 1456 1047 1700 850 
Q 1944 653 2381 653 
Q 2734 653 3104 758 
Q 3475 863 3866 1075 
L 3866 213 
Q 3469 63 3072 -14 
Q 2675 -91 2278 -91 
Q 1328 -91 801 392 
Q 275 875 275 1747 
Q 275 2603 792 3093 
Q 1309 3584 2216 3584 
Q 3041 3584 3536 3087 
Q 4031 2591 4031 1759 
z
M 2881 2131 
Q 2881 2450 2695 2645 
Q 2509 2841 2209 2841 
Q 1884 2841 1681 2658 
Q 1478 2475 1428 2131 
L 2881 2131 
z
" transform="scale(0.015625)"/>
      <path id="DejaVuSans-Bold-6d" d="M 3781 2919 
Q 3994 3244 4286 3414 
Q 4578 3584 4928 3584 
Q 5531 3584 5847 3212 
Q 6163 2841 6163 2131 
L 6163 0 
L 5038 0 
L 5038 1825 
Q 5041 1866 5042 1909 
Q 5044 1953 5044 2034 
Q 5044 2406 4934 2573 
Q 4825 2741 4581 2741 
Q 4263 2741 4089 2478 
Q 3916 2216 3909 1719 
L 3909 0 
L 2784 0 
L 2784 1825 
Q 2784 2406 2684 2573 
Q 2584 2741 2328 2741 
Q 2006 2741 1831 2477 
Q 1656 2213 1656 1722 
L 1656 0 
L 531 0 
L 531 3500 
L 1656 3500 
L 1656 2988 
Q 1863 3284 2130 3434 
Q 2397 3584 2719 3584 
Q 3081 3584 3359 3409 
Q 3638 3234 3781 2919 
z
" transform="scale(0.015625)"/>
      <path id="DejaVuSans-Bold-61" d="M 2106 1575 
Q 1756 1575 1579 1456 
Q 1403 1338 1403 1106 
Q 1403 894 1545 773 
Q 1688 653 1941 653 
Q 2256 653 2472 879 
Q 2688 1106 2688 1447 
L 2688 1575 
L 2106 1575 
z
M 3816 1997 
L 3816 0 
L 2688 0 
L 2688 519 
Q 2463 200 2181 54 
Q 1900 -91 1497 -91 
Q 953 -91 614 226 
Q 275 544 275 1050 
Q 275 1666 698 1953 
Q 1122 2241 2028 2241 
L 2688 2241 
L 2688 2328 
Q 2688 2594 2478 2717 
Q 2269 2841 1825 2841 
Q 1466 2841 1156 2769 
Q 847 2697 581 2553 
L 581 3406 
Q 941 3494 1303 3539 
Q 1666 3584 2028 3584 
Q 2975 3584 3395 3211 
Q 3816 2838 3816 1997 
z
" transform="scale(0.015625)"/>
      <path id="DejaVuSans-Bold-6e" d="M 4056 2131 
L 4056 0 
L 2931 0 
L 2931 347 
L 2931 1631 
Q 2931 2084 2911 2256 
Q 2891 2428 2841 2509 
Q 2775 2619 2662 2680 
Q 2550 2741 2406 2741 
Q 2056 2741 1856 2470 
Q 1656 2200 1656 1722 
L 1656 0 
L 538 0 
L 538 3500 
L 1656 3500 
L 1656 2988 
Q 1909 3294 2193 3439 
Q 2478 3584 2822 3584 
Q 3428 3584 3742 3212 
Q 4056 2841 4056 2131 
z
" transform="scale(0.015625)"/>
      <path id="DejaVuSans-Bold-20" transform="scale(0.015625)"/>
      <path id="DejaVuSans-Bold-53" d="M 3834 4519 
L 3834 3531 
Q 3450 3703 3084 3790 
Q 2719 3878 2394 3878 
Q 1963 3878 1756 3759 
Q 1550 3641 1550 3391 
Q 1550 3203 1689 3098 
Q 1828 2994 2194 2919 
L 2706 2816 
Q 3484 2659 3812 2340 
Q 4141 2022 4141 1434 
Q 4141 663 3683 286 
Q 3225 -91 2284 -91 
Q 1841 -91 1394 -6 
Q 947 78 500 244 
L 500 1259 
Q 947 1022 1364 901 
Q 1781 781 2169 781 
Q 2563 781 2772 912 
Q 2981 1044 2981 1288 
Q 2981 1506 2839 1625 
Q 2697 1744 2272 1838 
L 1806 1941 
Q 1106 2091 782 2419 
Q 459 2747 459 3303 
Q 459 4000 909 4375 
Q 1359 4750 2203 4750 
Q 2588 4750 2994 4692 
Q 3400 4634 3834 4519 
z
" transform="scale(0.015625)"/>
      <path id="DejaVuSans-Bold-70" d="M 1656 506 
L 1656 -1331 
L 538 -1331 
L 538 3500 
L 1656 3500 
L 1656 2988 
Q 1888 3294 2169 3439 
Q 2450 3584 2816 3584 
Q 3463 3584 3878 3070 
Q 4294 2556 4294 1747 
Q 4294 938 3878 423 
Q 3463 -91 2816 -91 
Q 2450 -91 2169 54 
Q 1888 200 1656 506 
z
M 2400 2772 
Q 2041 2772 1848 2508 
Q 1656 2244 1656 1747 
Q 1656 1250 1848 986 
Q 2041 722 2400 722 
Q 2759 722 2948 984 
Q 3138 1247 3138 1747 
Q 3138 2247 2948 2509 
Q 2759 2772 2400 2772 
z
" transform="scale(0.015625)"/>
      <path id="DejaVuSans-Bold-6c" d="M 538 4863 
L 1656 4863 
L 1656 0 
L 538 0 
L 538 4863 
z
" transform="scale(0.015625)"/>
      <path id="DejaVuSans-Bold-69" d="M 538 3500 
L 1656 3500 
L 1656 0 
L 538 0 
L 538 3500 
z
M 538 4863 
L 1656 4863 
L 1656 3950 
L 538 3950 
L 538 4863 
z
" transform="scale(0.015625)"/>
      <path id="DejaVuSans-Bold-74" d="M 1759 4494 
L 1759 3500 
L 2913 3500 
L 2913 2700 
L 1759 2700 
L 1759 1216 
Q 1759 972 1856 886 
Q 1953 800 2241 800 
L 2816 800 
L 2816 0 
L 1856 0 
Q 1194 0 917 276 
Q 641 553 641 1216 
L 641 2700 
L 84 2700 
L 84 3500 
L 641 3500 
L 641 4494 
L 1759 4494 
z
" transform="scale(0.015625)"/>
      <path id="DejaVuSans-Bold-67" d="M 2919 594 
Q 2688 288 2409 144 
Q 2131 0 1766 0 
Q 1125 0 706 504 
Q 288 1009 288 1791 
Q 288 2575 706 3076 
Q 1125 3578 1766 3578 
Q 2131 3578 2409 3434 
Q 2688 3291 2919 2981 
L 2919 3500 
L 4044 3500 
L 4044 353 
Q 4044 -491 3511 -936 
Q 2978 -1381 1966 -1381 
Q 1638 -1381 1331 -1331 
Q 1025 -1281 716 -1178 
L 716 -306 
Q 1009 -475 1290 -558 
Q 1572 -641 1856 -641 
Q 2406 -641 2662 -400 
Q 2919 -159 2919 353 
L 2919 594 
z
M 2181 2772 
Q 1834 2772 1640 2515 
Q 1447 2259 1447 1791 
Q 1447 1309 1634 1061 
Q 1822 813 2181 813 
Q 2531 813 2725 1069 
Q 2919 1325 2919 1791 
Q 2919 2259 2725 2515 
Q 2531 2772 2181 2772 
z
" transform="scale(0.015625)"/>
      <path id="DejaVuSans-Bold-4f" d="M 2719 3878 
Q 2169 3878 1866 3472 
Q 1563 3066 1563 2328 
Q 1563 1594 1866 1187 
Q 2169 781 2719 781 
Q 3272 781 3575 1187 
Q 3878 1594 3878 2328 
Q 3878 3066 3575 3472 
Q 3272 3878 2719 3878 
z
M 2719 4750 
Q 3844 4750 4481 4106 
Q 5119 3463 5119 2328 
Q 5119 1197 4481 553 
Q 3844 -91 2719 -91 
Q 1597 -91 958 553 
Q 319 1197 319 2328 
Q 319 3463 958 4106 
Q 1597 4750 2719 4750 
z
" transform="scale(0.015625)"/>
      <path id="DejaVuSans-Bold-44" d="M 1791 3756 
L 1791 909 
L 2222 909 
Q 2959 909 3348 1275 
Q 3738 1641 3738 2338 
Q 3738 3031 3350 3393 
Q 2963 3756 2222 3756 
L 1791 3756 
z
M 588 4666 
L 1856 4666 
Q 2919 4666 3439 4514 
Q 3959 4363 4331 4000 
Q 4659 3684 4818 3271 
Q 4978 2859 4978 2338 
Q 4978 1809 4818 1395 
Q 4659 981 4331 666 
Q 3956 303 3431 151 
Q 2906 0 1856 0 
L 588 0 
L 588 4666 
z
" transform="scale(0.015625)"/>
      <path id="DejaVuSans-Bold-4d" d="M 588 4666 
L 2119 4666 
L 3181 2169 
L 4250 4666 
L 5778 4666 
L 5778 0 
L 4641 0 
L 4641 3413 
L 3566 897 
L 2803 897 
L 1728 3413 
L 1728 0 
L 588 0 
L 588 4666 
z
" transform="scale(0.015625)"/>
      <path id="DejaVuSans-Bold-52" d="M 2297 2597 
Q 2675 2597 2839 2737 
Q 3003 2878 3003 3200 
Q 3003 3519 2839 3656 
Q 2675 3794 2297 3794 
L 1791 3794 
L 1791 2597 
L 2297 2597 
z
M 1791 1766 
L 1791 0 
L 588 0 
L 588 4666 
L 2425 4666 
Q 3347 4666 3776 4356 
Q 4206 4047 4206 3378 
Q 4206 2916 3982 2619 
Q 3759 2322 3309 2181 
Q 3556 2125 3751 1926 
Q 3947 1728 4147 1325 
L 4800 0 
L 3519 0 
L 2950 1159 
Q 2778 1509 2601 1637 
Q 2425 1766 2131 1766 
L 1791 1766 
z
" transform="scale(0.015625)"/>
      <path id="DejaVuSans-Bold-63" d="M 3366 3391 
L 3366 2478 
Q 3138 2634 2908 2709 
Q 2678 2784 2431 2784 
Q 1963 2784 1702 2511 
Q 1441 2238 1441 1747 
Q 1441 1256 1702 982 
Q 1963 709 2431 709 
Q 2694 709 2930 787 
Q 3166 866 3366 1019 
L 3366 103 
Q 3103 6 2833 -42 
Q 2563 -91 2291 -91 
Q 1344 -91 809 395 
Q 275 881 275 1747 
Q 275 2613 809 3098 
Q 1344 3584 2291 3584 
Q 2566 3584 2833 3536 
Q 3100 3488 3366 3391 
z
" transform="scale(0.015625)"/>
      <path id="DejaVuSans-Bold-72" d="M 3138 2547 
Q 2991 2616 2845 2648 
Q 2700 2681 2553 2681 
Q 2122 2681 1889 2404 
Q 1656 2128 1656 1613 
L 1656 0 
L 538 0 
L 538 3500 
L 1656 3500 
L 1656 2925 
Q 1872 3269 2151 3426 
Q 2431 3584 2822 3584 
Q 2878 3584 2943 3579 
Q 3009 3575 3134 3559 
L 3138 2547 
z
" transform="scale(0.015625)"/>
     </defs>
     <use xlink:href="#DejaVuSans-Bold-5a"/>
     <use xlink:href="#DejaVuSans-Bold-65" transform="translate(72.509766 0)"/>
     <use xlink:href="#DejaVuSans-Bold-65" transform="translate(140.332031 0)"/>
     <use xlink:href="#DejaVuSans-Bold-6d" transform="translate(208.154297 0)"/>
     <use xlink:href="#DejaVuSans-Bold-61" transform="translate(312.353516 0)"/>
     <use xlink:href="#DejaVuSans-Bold-6e" transform="translate(379.833984 0)"/>
     <use xlink:href="#DejaVuSans-Bold-20" transform="translate(451.025391 0)"/>
     <use xlink:href="#DejaVuSans-Bold-53" transform="translate(485.839844 0)"/>
     <use xlink:href="#DejaVuSans-Bold-70" transform="translate(557.861328 0)"/>
     <use xlink:href="#DejaVuSans-Bold-6c" transform="translate(629.443359 0)"/>
     <use xlink:href="#DejaVuSans-Bold-69" transform="translate(663.720703 0)"/>
     <use xlink:href="#DejaVuSans-Bold-74" transform="translate(697.998047 0)"/>
     <use xlink:href="#DejaVuSans-Bold-74" transform="translate(745.800781 0)"/>
     <use xlink:href="#DejaVuSans-Bold-69" transform="translate(793.603516 0)"/>
     <use xlink:href="#DejaVuSans-Bold-6e" transform="translate(827.880859 0)"/>
     <use xlink:href="#DejaVuSans-Bold-67" transform="translate(899.072266 0)"/>
     <use xlink:href="#DejaVuSans-Bold-20" transform="translate(970.654297 0)"/>
     <use xlink:href="#DejaVuSans-Bold-69" transform="translate(1005.46875 0)"/>
     <use xlink:href="#DejaVuSans-Bold-6e" transform="translate(1039.746094 0)"/>
     <use xlink:href="#DejaVuSans-Bold-20" transform="translate(1110.9375 0)"/>
     <use xlink:href="#DejaVuSans-Bold-4f" transform="translate(1145.751953 0)"/>
     <use xlink:href="#DejaVuSans-Bold-44" transform="translate(1230.761719 0)"/>
     <use xlink:href="#DejaVuSans-Bold-4d" transform="translate(1313.769531 0)"/>
     <use xlink:href="#DejaVuSans-Bold-52" transform="translate(1413.28125 0)"/>
     <use xlink:href="#DejaVuSans-Bold-20" transform="translate(1490.283203 0)"/>
     <use xlink:href="#DejaVuSans-Bold-53" transform="translate(1525.097656 0)"/>
     <use xlink:href="#DejaVuSans-Bold-70" transform="translate(1597.119141 0)"/>
     <use xlink:href="#DejaVuSans-Bold-65" transform="translate(1668.701172 0)"/>
     <use xlink:href="#DejaVuSans-Bold-63" transform="translate(1736.523438 0)"/>
     <use xlink:href="#DejaVuSans-Bold-74" transform="translate(1795.800781 0)"/>
     <use xlink:href="#DejaVuSans-Bold-72" transform="translate(1843.603516 0)"/>
     <use xlink:href="#DejaVuSans-Bold-61" transform="translate(1892.919922 0)"/>
    </g>
   </g>
   <g id="legend_1">
    <g id="patch_8">
     <path d="M 466.512344 310.121938 
L 553.396875 310.121938 
Q 555.596875 310.121938 555.596875 307.921938 
L 555.596875 260.584125 
Q 555.596875 258.384125 553.396875 258.384125 
L 466.512344 258.384125 
Q 464.312344 258.384125 464.312344 260.584125 
L 464.312344 307.921938 
Q 464.312344 310.121938 466.512344 310.121938 
z
" style="fill: #ffffff; opacity: 0.9; stroke: #cccccc; stroke-linejoin: miter"/>
    </g>
    <g id="line2d_37">
     <path d="M 468.712344 267.292406 
L 479.712344 267.292406 
L 490.712344 267.292406 
" style="fill: none; stroke: #1f77b4; stroke-width: 2; stroke-linecap: square"/>
    </g>
    <g id="text_22">
     <!-- B = 0 mT -->
     <g transform="translate(499.512344 271.142406) scale(0.11 -0.11)">
      <defs>
       <path id="DejaVuSans-42" d="M 1259 2228 
L 1259 519 
L 2272 519 
Q 2781 519 3026 730 
Q 3272 941 3272 1375 
Q 3272 1813 3026 2020 
Q 2781 2228 2272 2228 
L 1259 2228 
z
M 1259 4147 
L 1259 2741 
L 2194 2741 
Q 2656 2741 2882 2914 
Q 3109 3088 3109 3444 
Q 3109 3797 2882 3972 
Q 2656 4147 2194 4147 
L 1259 4147 
z
M 628 4666 
L 2241 4666 
Q 2963 4666 3353 4366 
Q 3744 4066 3744 3513 
Q 3744 3084 3544 2831 
Q 3344 2578 2956 2516 
Q 3422 2416 3680 2098 
Q 3938 1781 3938 1306 
Q 3938 681 3513 340 
Q 3088 0 2303 0 
L 628 0 
L 628 4666 
z
" transform="scale(0.015625)"/>
      </defs>
      <use xlink:href="#DejaVuSans-42"/>
      <use xlink:href="#DejaVuSans-20" transform="translate(68.603516 0)"/>
      <use xlink:href="#DejaVuSans-3d" transform="translate(100.390625 0)"/>
      <use xlink:href="#DejaVuSans-20" transform="translate(184.179688 0)"/>
      <use xlink:href="#DejaVuSans-30" transform="translate(215.966797 0)"/>
      <use xlink:href="#DejaVuSans-20" transform="translate(279.589844 0)"/>
      <use xlink:href="#DejaVuSans-6d" transform="translate(311.376953 0)"/>
      <use xlink:href="#DejaVuSans-54" transform="translate(408.789062 0)"/>
     </g>
    </g>
    <g id="line2d_38">
     <path d="M 468.712344 283.438344 
L 479.712344 283.438344 
L 490.712344 283.438344 
" style="fill: none; stroke: #ff7f0e; stroke-width: 2; stroke-linecap: square"/>
    </g>
    <g id="text_23">
     <!-- B = 3 mT -->
     <g transform="translate(499.512344 287.288344) scale(0.11 -0.11)">
      <use xlink:href="#DejaVuSans-42"/>
      <use xlink:href="#DejaVuSans-20" transform="translate(68.603516 0)"/>
      <use xlink:href="#DejaVuSans-3d" transform="translate(100.390625 0)"/>
      <use xlink:href="#DejaVuSans-20" transform="translate(184.179688 0)"/>
      <use xlink:href="#DejaVuSans-33" transform="translate(215.966797 0)"/>
      <use xlink:href="#DejaVuSans-20" transform="translate(279.589844 0)"/>
      <use xlink:href="#DejaVuSans-6d" transform="translate(311.376953 0)"/>
      <use xlink:href="#DejaVuSans-54" transform="translate(408.789062 0)"/>
     </g>
    </g>
    <g id="line2d_39">
     <path d="M 468.712344 299.584281 
L 479.712344 299.584281 
L 490.712344 299.584281 
" style="fill: none; stroke: #d62728; stroke-width: 2; stroke-linecap: square"/>
    </g>
    <g id="text_24">
     <!-- B = 5 mT -->
     <g transform="translate(499.512344 303.434281) scale(0.11 -0.11)">
      <use xlink:href="#DejaVuSans-42"/>
      <use xlink:href="#DejaVuSans-20" transform="translate(68.603516 0)"/>
      <use xlink:href="#DejaVuSans-3d" transform="translate(100.390625 0)"/>
      <use xlink:href="#DejaVuSans-20" transform="translate(184.179688 0)"/>
      <use xlink:href="#DejaVuSans-35" transform="translate(215.966797 0)"/>
      <use xlink:href="#DejaVuSans-20" transform="translate(279.589844 0)"/>
      <use xlink:href="#DejaVuSans-6d" transform="translate(311.376953 0)"/>
      <use xlink:href="#DejaVuSans-54" transform="translate(408.789062 0)"/>
     </g>
    </g>
   </g>
  </g>
 </g>
 <defs>
  <clipPath id="p6b57c8c83a">
   <rect x="58.896875" y="21.789938" width="502.2" height="293.832"/>
  </clipPath>
 </defs>
</svg>
