<?xml version="1.0" encoding="utf-8" standalone="no"?>
<!DOCTYPE svg PUBLIC "-//W3C//DTD SVG 1.1//EN"
  "http://www.w3.org/Graphics/SVG/1.1/DTD/svg11.dtd">
<svg xmlns:xlink="http://www.w3.org/1999/xlink" width="838.220406pt" height="427.64375pt" viewBox="0 0 838.220406 427.64375" xmlns="http://www.w3.org/2000/svg" version="1.1">
 <metadata>
  <rdf:RDF xmlns:dc="http://purl.org/dc/elements/1.1/" xmlns:cc="http://creativecommons.org/ns#" xmlns:rdf="http://www.w3.org/1999/02/22-rdf-syntax-ns#">
   <cc:Work>
    <dc:type rdf:resource="http://purl.org/dc/dcmitype/StillImage"/>
    <dc:date>2026-02-12T17:32:25.558736</dc:date>
    <dc:format>image/svg+xml</dc:format>
    <dc:creator>
     <cc:Agent>
      <dc:title>Matplotlib v3.10.8, https://matplotlib.org/</dc:title>
     </cc:Agent>
    </dc:creator>
   </cc:Work>
  </rdf:RDF>
 </metadata>
 <defs>
  <style type="text/css">*{stroke-linejoin: round; stroke-linecap: butt}</style>
 </defs>
 <g id="figure_1">
  <g id="patch_1">
   <path d="M 0 427.64375 
L 838.220406 427.64375 
L 838.220406 0 
L 0 0 
z
" style="fill: #ffffff"/>
  </g>
  <g id="patch_2">
   <path d="M 10.8 382.445625 
L 352.0105 382.445625 
L 352.0105 41.235125 
L 10.8 41.235125 
z
" style="fill: #ffffff"/>
  </g>
  <g id="pane3d_1">
   <g id="patch_3">
    <path d="M 36.563746 298.314051 
L 149.242596 203.864404 
L 147.676252 67.651129 
L 29.605138 153.81405 
" style="fill: #f2f2f2; opacity: 0.5; stroke: #f2f2f2; stroke-linejoin: miter"/>
   </g>
  </g>
  <g id="pane3d_2">
   <g id="patch_4">
    <path d="M 149.242596 203.864404 
L 330.051947 256.418544 
L 336.504396 115.513559 
L 147.676252 67.651129 
" style="fill: #e6e6e6; opacity: 0.5; stroke: #e6e6e6; stroke-linejoin: miter"/>
   </g>
  </g>
  <g id="pane3d_3">
   <g id="patch_5">
    <path d="M 36.563746 298.314051 
L 228.230489 360.912409 
L 330.051947 256.418544 
L 149.242596 203.864404 
" style="fill: #ececec; opacity: 0.5; stroke: #ececec; stroke-linejoin: miter"/>
   </g>
  </g>
  <g id="grid3d_1">
   <g id="Line3DCollection_1">
    <path d="M 51.780596 303.283874 
L 163.655908 208.053785 
L 162.699569 71.459102 
" style="fill: none; stroke: #b0b0b0; stroke-width: 0.8"/>
    <path d="M 90.401394 315.897426 
L 200.191892 218.673353 
L 200.804483 81.117587 
" style="fill: none; stroke: #b0b0b0; stroke-width: 0.8"/>
    <path d="M 129.87066 328.788089 
L 237.463374 229.506701 
L 239.709975 90.978995 
" style="fill: none; stroke: #b0b0b0; stroke-width: 0.8"/>
    <path d="M 170.216664 341.965093 
L 275.492787 240.56035 
L 279.441543 101.049789 
" style="fill: none; stroke: #b0b0b0; stroke-width: 0.8"/>
    <path d="M 211.468947 355.438089 
L 314.30349 251.841089 
L 320.025779 111.33671 
" style="fill: none; stroke: #b0b0b0; stroke-width: 0.8"/>
   </g>
  </g>
  <g id="grid3d_2">
   <g id="Line3DCollection_2">
    <path d="M 40.277821 146.025612 
L 46.713887 289.806001 
L 237.439508 351.46169 
" style="fill: none; stroke: #b0b0b0; stroke-width: 0.8"/>
    <path d="M 66.254007 127.069375 
L 71.447357 269.073916 
L 259.848988 328.46405 
" style="fill: none; stroke: #b0b0b0; stroke-width: 0.8"/>
    <path d="M 91.267142 108.815929 
L 95.302906 249.077722 
L 281.421894 306.324942 
" style="fill: none; stroke: #b0b0b0; stroke-width: 0.8"/>
    <path d="M 115.369808 91.2269 
L 118.326464 229.778919 
L 302.204212 284.997171 
" style="fill: none; stroke: #b0b0b0; stroke-width: 0.8"/>
    <path d="M 138.610829 74.266662 
L 140.56081 211.141649 
L 322.23862 264.43694 
" style="fill: none; stroke: #b0b0b0; stroke-width: 0.8"/>
   </g>
  </g>
  <g id="grid3d_3">
   <g id="Line3DCollection_3">
    <path d="M 330.568442 245.139624 
L 149.116973 192.939844 
L 36.007599 286.765292 
" style="fill: none; stroke: #b0b0b0; stroke-width: 0.8"/>
    <path d="M 331.87603 216.585231 
L 148.799126 165.299083 
L 34.598952 257.513828 
" style="fill: none; stroke: #b0b0b0; stroke-width: 0.8"/>
    <path d="M 333.207491 187.509529 
L 148.475756 137.177995 
L 33.163598 227.707788 
" style="fill: none; stroke: #b0b0b0; stroke-width: 0.8"/>
    <path d="M 334.563484 157.898109 
L 148.146717 108.563949 
L 31.700772 197.33125 
" style="fill: none; stroke: #b0b0b0; stroke-width: 0.8"/>
    <path d="M 335.944693 127.736029 
L 147.81186 79.443868 
L 30.209676 166.367676 
" style="fill: none; stroke: #b0b0b0; stroke-width: 0.8"/>
   </g>
  </g>
  <g id="axis3d_1">
   <g id="line2d_1">
    <path d="M 36.563746 298.314051 
L 228.230489 360.912409 
" style="fill: none; stroke: #000000; stroke-width: 1.2; stroke-linecap: square"/>
   </g>
   <g id="xtick_1">
    <g id="line2d_2">
     <path d="M 52.754881 302.454547 
L 49.827843 304.94609 
" style="fill: none; stroke: #000000; stroke-linecap: square"/>
    </g>
    <g id="text_1">
     <!-- −1.0 -->
     <g transform="translate(29.690811 328.119283) scale(0.12 -0.12)">
      <defs>
       <path id="DejaVuSerif-2212" d="M 678 2259 
L 4684 2259 
L 4684 1753 
L 678 1753 
L 678 2259 
z
" transform="scale(0.015625)"/>
       <path id="DejaVuSerif-31" d="M 909 0 
L 909 331 
L 1722 331 
L 1722 4213 
L 781 3603 
L 781 4013 
L 1919 4750 
L 2350 4750 
L 2350 331 
L 3163 331 
L 3163 0 
L 909 0 
z
" transform="scale(0.015625)"/>
       <path id="DejaVuSerif-2e" d="M 603 325 
Q 603 500 722 622 
Q 841 744 1019 744 
Q 1191 744 1312 622 
Q 1434 500 1434 325 
Q 1434 153 1312 31 
Q 1191 -91 1019 -91 
Q 841 -91 722 29 
Q 603 150 603 325 
z
" transform="scale(0.015625)"/>
       <path id="DejaVuSerif-30" d="M 2034 219 
Q 2513 219 2750 744 
Q 2988 1269 2988 2328 
Q 2988 3391 2750 3916 
Q 2513 4441 2034 4441 
Q 1556 4441 1318 3916 
Q 1081 3391 1081 2328 
Q 1081 1269 1318 744 
Q 1556 219 2034 219 
z
M 2034 -91 
Q 1275 -91 848 546 
Q 422 1184 422 2328 
Q 422 3475 848 4112 
Q 1275 4750 2034 4750 
Q 2797 4750 3222 4112 
Q 3647 3475 3647 2328 
Q 3647 1184 3222 546 
Q 2797 -91 2034 -91 
z
" transform="scale(0.015625)"/>
      </defs>
      <use xlink:href="#DejaVuSerif-2212"/>
      <use xlink:href="#DejaVuSerif-31" transform="translate(83.789062 0)"/>
      <use xlink:href="#DejaVuSerif-2e" transform="translate(147.412109 0)"/>
      <use xlink:href="#DejaVuSerif-30" transform="translate(179.199219 0)"/>
     </g>
    </g>
   </g>
   <g id="xtick_2">
    <g id="line2d_3">
     <path d="M 91.358367 315.049987 
L 88.483293 317.595986 
" style="fill: none; stroke: #000000; stroke-linecap: square"/>
    </g>
    <g id="text_2">
     <!-- −0.5 -->
     <g transform="translate(68.34287 340.941083) scale(0.12 -0.12)">
      <defs>
       <path id="DejaVuSerif-35" d="M 3219 4666 
L 3219 4153 
L 1081 4153 
L 1081 2816 
Q 1244 2928 1461 2984 
Q 1678 3041 1947 3041 
Q 2703 3041 3140 2622 
Q 3578 2203 3578 1478 
Q 3578 738 3136 323 
Q 2694 -91 1894 -91 
Q 1572 -91 1234 -12 
Q 897 66 544 225 
L 544 1131 
L 897 1131 
Q 925 688 1179 453 
Q 1434 219 1894 219 
Q 2388 219 2653 544 
Q 2919 869 2919 1478 
Q 2919 2084 2655 2407 
Q 2391 2731 1894 2731 
Q 1613 2731 1398 2631 
Q 1184 2531 1019 2322 
L 750 2322 
L 750 4666 
L 3219 4666 
z
" transform="scale(0.015625)"/>
      </defs>
      <use xlink:href="#DejaVuSerif-2212"/>
      <use xlink:href="#DejaVuSerif-30" transform="translate(83.789062 0)"/>
      <use xlink:href="#DejaVuSerif-2e" transform="translate(147.412109 0)"/>
      <use xlink:href="#DejaVuSerif-35" transform="translate(179.199219 0)"/>
     </g>
    </g>
   </g>
   <g id="xtick_3">
    <g id="line2d_4">
     <path d="M 130.809322 327.921936 
L 127.989214 330.524196 
" style="fill: none; stroke: #000000; stroke-linecap: square"/>
    </g>
    <g id="text_3">
     <!-- 0.0 -->
     <g transform="translate(112.874413 354.045401) scale(0.12 -0.12)">
      <use xlink:href="#DejaVuSerif-30"/>
      <use xlink:href="#DejaVuSerif-2e" transform="translate(63.623047 0)"/>
      <use xlink:href="#DejaVuSerif-30" transform="translate(95.410156 0)"/>
     </g>
    </g>
   </g>
   <g id="xtick_4">
    <g id="line2d_5">
     <path d="M 171.135962 341.079601 
L 168.373987 343.740008 
" style="fill: none; stroke: #000000; stroke-linecap: square"/>
    </g>
    <g id="text_4">
     <!-- 0.5 -->
     <g transform="translate(153.258277 367.441681) scale(0.12 -0.12)">
      <use xlink:href="#DejaVuSerif-30"/>
      <use xlink:href="#DejaVuSerif-2e" transform="translate(63.623047 0)"/>
      <use xlink:href="#DejaVuSerif-35" transform="translate(95.410156 0)"/>
     </g>
    </g>
   </g>
   <g id="xtick_5">
    <g id="line2d_6">
     <path d="M 212.36777 354.532602 
L 209.667267 357.253127 
" style="fill: none; stroke: #000000; stroke-linecap: square"/>
    </g>
    <g id="text_5">
     <!-- 1.0 -->
     <g transform="translate(194.55202 381.139789) scale(0.12 -0.12)">
      <use xlink:href="#DejaVuSerif-31"/>
      <use xlink:href="#DejaVuSerif-2e" transform="translate(63.623047 0)"/>
      <use xlink:href="#DejaVuSerif-30" transform="translate(95.410156 0)"/>
     </g>
    </g>
   </g>
   <g id="text_6">
    <!-- x -->
    <g transform="translate(110.225492 367.307017) scale(0.12 -0.12)">
     <defs>
      <path id="DejaVuSerif-78" d="M 1863 2028 
L 2559 2988 
L 2113 2988 
L 2113 3322 
L 3391 3322 
L 3391 2988 
L 2950 2988 
L 2059 1759 
L 3097 331 
L 3531 331 
L 3531 0 
L 1997 0 
L 1997 331 
L 2419 331 
L 1697 1325 
L 972 331 
L 1403 331 
L 1403 0 
L 141 0 
L 141 331 
L 581 331 
L 1497 1594 
L 488 2988 
L 78 2988 
L 78 3322 
L 1563 3322 
L 1563 2988 
L 1166 2988 
L 1863 2028 
z
" transform="scale(0.015625)"/>
     </defs>
     <use xlink:href="#DejaVuSerif-78"/>
    </g>
   </g>
  </g>
  <g id="axis3d_2">
   <g id="line2d_7">
    <path d="M 330.051947 256.418544 
L 228.230489 360.912409 
" style="fill: none; stroke: #000000; stroke-width: 1.2; stroke-linecap: square"/>
   </g>
   <g id="xtick_6">
    <g id="line2d_8">
     <path d="M 235.832407 350.942164 
L 240.657859 352.502083 
" style="fill: none; stroke: #000000; stroke-linecap: square"/>
    </g>
    <g id="text_7">
     <!-- −1.0 -->
     <g transform="translate(235.726145 373.975688) scale(0.12 -0.12)">
      <use xlink:href="#DejaVuSerif-2212"/>
      <use xlink:href="#DejaVuSerif-31" transform="translate(83.789062 0)"/>
      <use xlink:href="#DejaVuSerif-2e" transform="translate(147.412109 0)"/>
      <use xlink:href="#DejaVuSerif-30" transform="translate(179.199219 0)"/>
     </g>
    </g>
   </g>
   <g id="xtick_7">
    <g id="line2d_9">
     <path d="M 258.262996 327.964095 
L 263.024988 329.465225 
" style="fill: none; stroke: #000000; stroke-linecap: square"/>
    </g>
    <g id="text_8">
     <!-- −0.5 -->
     <g transform="translate(257.901223 350.712619) scale(0.12 -0.12)">
      <use xlink:href="#DejaVuSerif-2212"/>
      <use xlink:href="#DejaVuSerif-30" transform="translate(83.789062 0)"/>
      <use xlink:href="#DejaVuSerif-2e" transform="translate(147.412109 0)"/>
      <use xlink:href="#DejaVuSerif-35" transform="translate(179.199219 0)"/>
     </g>
    </g>
   </g>
   <g id="xtick_8">
    <g id="line2d_10">
     <path d="M 279.85657 305.843473 
L 284.556433 307.289076 
" style="fill: none; stroke: #000000; stroke-linecap: square"/>
    </g>
    <g id="text_9">
     <!-- 0.0 -->
     <g transform="translate(284.275919 328.318379) scale(0.12 -0.12)">
      <use xlink:href="#DejaVuSerif-30"/>
      <use xlink:href="#DejaVuSerif-2e" transform="translate(63.623047 0)"/>
      <use xlink:href="#DejaVuSerif-30" transform="translate(95.410156 0)"/>
     </g>
    </g>
   </g>
   <g id="xtick_9">
    <g id="line2d_11">
     <path d="M 300.65912 284.533181 
L 305.298167 285.926281 
" style="fill: none; stroke: #000000; stroke-linecap: square"/>
    </g>
    <g id="text_10">
     <!-- 0.5 -->
     <g transform="translate(304.840152 306.745188) scale(0.12 -0.12)">
      <use xlink:href="#DejaVuSerif-30"/>
      <use xlink:href="#DejaVuSerif-2e" transform="translate(63.623047 0)"/>
      <use xlink:href="#DejaVuSerif-35" transform="translate(95.410156 0)"/>
     </g>
    </g>
   </g>
   <g id="xtick_10">
    <g id="line2d_12">
     <path d="M 320.713329 263.989495 
L 325.292855 265.332901 
" style="fill: none; stroke: #000000; stroke-linecap: square"/>
    </g>
    <g id="text_11">
     <!-- 1.0 -->
     <g transform="translate(324.664004 285.948706) scale(0.12 -0.12)">
      <use xlink:href="#DejaVuSerif-31"/>
      <use xlink:href="#DejaVuSerif-2e" transform="translate(63.623047 0)"/>
      <use xlink:href="#DejaVuSerif-30" transform="translate(95.410156 0)"/>
     </g>
    </g>
   </g>
   <g id="text_12">
    <!-- y -->
    <g transform="translate(304.993702 337.470126) scale(0.12 -0.12)">
     <defs>
      <path id="DejaVuSerif-79" d="M 1381 -609 
L 1600 -56 
L 359 2988 
L -19 2988 
L -19 3322 
L 1509 3322 
L 1509 2988 
L 978 2988 
L 1913 703 
L 2847 2988 
L 2350 2988 
L 2350 3322 
L 3597 3322 
L 3597 2988 
L 3225 2988 
L 1703 -750 
Q 1547 -1138 1356 -1280 
Q 1166 -1422 819 -1422 
Q 672 -1422 517 -1397 
Q 363 -1372 206 -1325 
L 206 -691 
L 500 -691 
Q 519 -903 608 -995 
Q 697 -1088 884 -1088 
Q 1056 -1088 1161 -992 
Q 1266 -897 1381 -609 
z
" transform="scale(0.015625)"/>
     </defs>
     <use xlink:href="#DejaVuSerif-79"/>
    </g>
   </g>
  </g>
  <g id="axis3d_3">
   <g id="line2d_13">
    <path d="M 330.051947 256.418544 
L 336.504396 115.513559 
" style="fill: none; stroke: #000000; stroke-width: 1.2; stroke-linecap: square"/>
   </g>
   <g id="xtick_11">
    <g id="line2d_14">
     <path d="M 329.045309 244.701451 
L 333.618344 246.017017 
" style="fill: none; stroke: #000000; stroke-linecap: square"/>
    </g>
    <g id="text_13">
     <!-- −1.0 -->
     <g transform="translate(334.323558 251.668192) scale(0.12 -0.12)">
      <use xlink:href="#DejaVuSerif-2212"/>
      <use xlink:href="#DejaVuSerif-31" transform="translate(83.789062 0)"/>
      <use xlink:href="#DejaVuSerif-2e" transform="translate(147.412109 0)"/>
      <use xlink:href="#DejaVuSerif-30" transform="translate(179.199219 0)"/>
     </g>
    </g>
   </g>
   <g id="xtick_12">
    <g id="line2d_15">
     <path d="M 330.338601 216.154544 
L 334.954593 217.447643 
" style="fill: none; stroke: #000000; stroke-linecap: square"/>
    </g>
    <g id="text_14">
     <!-- −0.5 -->
     <g transform="translate(335.793417 223.158088) scale(0.12 -0.12)">
      <use xlink:href="#DejaVuSerif-2212"/>
      <use xlink:href="#DejaVuSerif-30" transform="translate(83.789062 0)"/>
      <use xlink:href="#DejaVuSerif-2e" transform="translate(147.412109 0)"/>
      <use xlink:href="#DejaVuSerif-35" transform="translate(179.199219 0)"/>
     </g>
    </g>
   </g>
   <g id="xtick_13">
    <g id="line2d_16">
     <path d="M 331.655494 187.086676 
L 336.315257 188.356263 
" style="fill: none; stroke: #000000; stroke-linecap: square"/>
    </g>
    <g id="text_15">
     <!-- 0.0 -->
     <g transform="translate(342.31786 194.128727) scale(0.12 -0.12)">
      <use xlink:href="#DejaVuSerif-30"/>
      <use xlink:href="#DejaVuSerif-2e" transform="translate(63.623047 0)"/>
      <use xlink:href="#DejaVuSerif-30" transform="translate(95.410156 0)"/>
     </g>
    </g>
   </g>
   <g id="xtick_14">
    <g id="line2d_17">
     <path d="M 332.996642 157.483453 
L 337.701013 158.728439 
" style="fill: none; stroke: #000000; stroke-linecap: square"/>
    </g>
    <g id="text_16">
     <!-- 0.5 -->
     <g transform="translate(343.842 164.565794) scale(0.12 -0.12)">
      <use xlink:href="#DejaVuSerif-30"/>
      <use xlink:href="#DejaVuSerif-2e" transform="translate(63.623047 0)"/>
      <use xlink:href="#DejaVuSerif-35" transform="translate(95.410156 0)"/>
     </g>
    </g>
   </g>
   <g id="xtick_15">
    <g id="line2d_18">
     <path d="M 334.362719 127.329949 
L 339.112559 128.549194 
" style="fill: none; stroke: #000000; stroke-linecap: square"/>
    </g>
    <g id="text_17">
     <!-- 1.0 -->
     <g transform="translate(345.394413 134.45444) scale(0.12 -0.12)">
      <use xlink:href="#DejaVuSerif-31"/>
      <use xlink:href="#DejaVuSerif-2e" transform="translate(63.623047 0)"/>
      <use xlink:href="#DejaVuSerif-30" transform="translate(95.410156 0)"/>
     </g>
    </g>
   </g>
   <g id="text_18">
    <!-- z -->
    <g transform="translate(370.481104 185.403534) scale(0.12 -0.12)">
     <defs>
      <path id="DejaVuSerif-7a" d="M 256 0 
L 256 269 
L 2338 2988 
L 691 2988 
L 691 2413 
L 359 2413 
L 359 3322 
L 3078 3322 
L 3078 3053 
L 997 331 
L 2803 331 
L 2803 934 
L 3138 934 
L 3138 0 
L 256 0 
z
" transform="scale(0.015625)"/>
     </defs>
     <use xlink:href="#DejaVuSerif-7a"/>
    </g>
   </g>
  </g>
  <g id="axes_1">
   <g id="line2d_19">
    <path d="M 61.401017 283.176838 
L 56.60025 163.033052 
" clip-path="url(#p08a8e9812c)" style="fill: none; stroke: #000000; stroke-opacity: 0.3; stroke-width: 0.5; stroke-linecap: square"/>
   </g>
   <g id="line2d_20">
    <path d="M 61.401017 283.176838 
L 154.931852 204.385007 
" clip-path="url(#p08a8e9812c)" style="fill: none; stroke: #000000; stroke-opacity: 0.3; stroke-width: 0.5; stroke-linecap: square"/>
   </g>
   <g id="line2d_21">
    <path d="M 61.401017 283.176838 
L 220.901009 334.229111 
" clip-path="url(#p08a8e9812c)" style="fill: none; stroke: #000000; stroke-opacity: 0.3; stroke-width: 0.5; stroke-linecap: square"/>
   </g>
   <g id="line2d_22">
    <path d="M 154.931852 204.385007 
L 153.820003 90.017725 
" clip-path="url(#p08a8e9812c)" style="fill: none; stroke: #000000; stroke-opacity: 0.3; stroke-width: 0.5; stroke-linecap: square"/>
   </g>
   <g id="line2d_23">
    <path d="M 56.60025 163.033052 
L 153.820003 90.017725 
" clip-path="url(#p08a8e9812c)" style="fill: none; stroke: #000000; stroke-opacity: 0.3; stroke-width: 0.5; stroke-linecap: square"/>
   </g>
   <g id="line2d_24">
    <path d="M 56.60025 163.033052 
L 222.307504 210.550307 
" clip-path="url(#p08a8e9812c)" style="fill: none; stroke: #000000; stroke-opacity: 0.3; stroke-width: 0.5; stroke-linecap: square"/>
   </g>
   <g id="line2d_25">
    <path d="M 220.901009 334.229111 
L 222.307504 210.550307 
" clip-path="url(#p08a8e9812c)" style="fill: none; stroke: #000000; stroke-opacity: 0.3; stroke-width: 0.5; stroke-linecap: square"/>
   </g>
   <g id="line2d_26">
    <path d="M 220.901009 334.229111 
L 306.842644 248.492419 
" clip-path="url(#p08a8e9812c)" style="fill: none; stroke: #000000; stroke-opacity: 0.3; stroke-width: 0.5; stroke-linecap: square"/>
   </g>
   <g id="line2d_27">
    <path d="M 154.931852 204.385007 
L 306.842644 248.492419 
" clip-path="url(#p08a8e9812c)" style="fill: none; stroke: #000000; stroke-opacity: 0.3; stroke-width: 0.5; stroke-linecap: square"/>
   </g>
   <g id="line2d_28">
    <path d="M 306.842644 248.492419 
L 311.350647 130.84365 
" clip-path="url(#p08a8e9812c)" style="fill: none; stroke: #000000; stroke-opacity: 0.3; stroke-width: 0.5; stroke-linecap: square"/>
   </g>
   <g id="line2d_29">
    <path d="M 222.307504 210.550307 
L 311.350647 130.84365 
" clip-path="url(#p08a8e9812c)" style="fill: none; stroke: #000000; stroke-opacity: 0.3; stroke-width: 0.5; stroke-linecap: square"/>
   </g>
   <g id="line2d_30">
    <path d="M 153.820003 90.017725 
L 311.350647 130.84365 
" clip-path="url(#p08a8e9812c)" style="fill: none; stroke: #000000; stroke-opacity: 0.3; stroke-width: 0.5; stroke-linecap: square"/>
   </g>
   <g id="Line3DCollection_4">
    <path d="M 113.982233 251.130924 
L 186.016203 207.229422 
" clip-path="url(#p08a8e9812c)" style="fill: none; stroke: #dc2626; stroke-opacity: 0.3; stroke-width: 2"/>
    <path d="M 113.982233 251.130924 
L 113.982233 251.130924 
" clip-path="url(#p08a8e9812c)" style="fill: none; stroke: #dc2626; stroke-opacity: 0.3; stroke-width: 2"/>
    <path d="M 113.982233 251.130924 
L 113.982233 251.130924 
" clip-path="url(#p08a8e9812c)" style="fill: none; stroke: #dc2626; stroke-opacity: 0.3; stroke-width: 2"/>
   </g>
   <g id="text_19">
    <!-- NV Orientations -->
    <g transform="translate(122.334469 20.677969) scale(0.13 -0.13)">
     <defs>
      <path id="DejaVuSerif-Bold-4e" d="M 281 0 
L 281 378 
L 878 378 
L 878 4288 
L 281 4288 
L 281 4666 
L 1741 4666 
L 4556 1363 
L 4556 4288 
L 3963 4288 
L 3963 4666 
L 5594 4666 
L 5594 4288 
L 4997 4288 
L 4997 0 
L 4178 0 
L 1319 3372 
L 1319 378 
L 1913 378 
L 1913 0 
L 281 0 
z
" transform="scale(0.015625)"/>
      <path id="DejaVuSerif-Bold-56" d="M 5056 4666 
L 5056 4288 
L 4666 4288 
L 2906 0 
L 2163 0 
L 403 4288 
L -38 4288 
L -38 4666 
L 2150 4666 
L 2150 4288 
L 1697 4288 
L 2956 1197 
L 4225 4288 
L 3669 4288 
L 3669 4666 
L 5056 4666 
z
" transform="scale(0.015625)"/>
      <path id="DejaVuSerif-Bold-20" transform="scale(0.015625)"/>
      <path id="DejaVuSerif-Bold-4f" d="M 2784 288 
Q 3381 288 3672 791 
Q 3963 1294 3963 2328 
Q 3963 3366 3672 3869 
Q 3381 4372 2784 4372 
Q 2191 4372 1898 3864 
Q 1606 3356 1606 2328 
Q 1606 1303 1898 795 
Q 2191 288 2784 288 
z
M 2784 -91 
Q 1606 -91 937 553 
Q 269 1197 269 2328 
Q 269 3459 939 4104 
Q 1609 4750 2784 4750 
Q 3963 4750 4631 4106 
Q 5300 3463 5300 2328 
Q 5300 1197 4629 553 
Q 3959 -91 2784 -91 
z
" transform="scale(0.015625)"/>
      <path id="DejaVuSerif-Bold-72" d="M 3438 3359 
L 3438 2369 
L 3084 2369 
Q 3066 2634 2941 2764 
Q 2816 2894 2578 2894 
Q 2216 2894 2006 2575 
Q 1797 2256 1797 1691 
L 1797 378 
L 2400 378 
L 2400 0 
L 219 0 
L 219 378 
L 691 378 
L 691 2944 
L 184 2944 
L 184 3322 
L 1797 3322 
L 1797 2731 
Q 1959 3078 2226 3245 
Q 2494 3413 2881 3413 
Q 2978 3413 3117 3398 
Q 3256 3384 3438 3359 
z
" transform="scale(0.015625)"/>
      <path id="DejaVuSerif-Bold-69" d="M 588 4263 
Q 588 4516 763 4689 
Q 938 4863 1191 4863 
Q 1438 4863 1611 4689 
Q 1784 4516 1784 4263 
Q 1784 4016 1611 3842 
Q 1438 3669 1191 3669 
Q 938 3669 763 3841 
Q 588 4013 588 4263 
z
M 1797 378 
L 2272 378 
L 2272 0 
L 219 0 
L 219 378 
L 691 378 
L 691 2944 
L 219 2944 
L 219 3322 
L 1797 3322 
L 1797 378 
z
" transform="scale(0.015625)"/>
      <path id="DejaVuSerif-Bold-65" d="M 2566 1875 
Q 2566 2531 2444 2795 
Q 2322 3059 2028 3059 
Q 1744 3059 1620 2800 
Q 1497 2541 1497 1931 
L 1497 1875 
L 2566 1875 
z
M 3781 1503 
L 1497 1503 
L 1497 1478 
Q 1497 834 1690 548 
Q 1884 263 2316 263 
Q 2675 263 2897 453 
Q 3119 644 3181 1006 
L 3700 1006 
Q 3566 441 3166 175 
Q 2766 -91 2047 -91 
Q 1184 -91 723 364 
Q 263 819 263 1663 
Q 263 2488 734 2950 
Q 1206 3413 2047 3413 
Q 2872 3413 3312 2927 
Q 3753 2441 3781 1503 
z
" transform="scale(0.015625)"/>
      <path id="DejaVuSerif-Bold-6e" d="M 219 0 
L 219 378 
L 691 378 
L 691 2944 
L 219 2944 
L 219 3322 
L 1797 3322 
L 1797 2853 
Q 1997 3150 2253 3281 
Q 2509 3413 2900 3413 
Q 3459 3413 3745 3083 
Q 4031 2753 4031 2113 
L 4031 378 
L 4506 378 
L 4506 0 
L 2522 0 
L 2522 378 
L 2925 378 
L 2925 2144 
Q 2925 2566 2817 2730 
Q 2709 2894 2444 2894 
Q 2109 2894 1953 2648 
Q 1797 2403 1797 1869 
L 1797 378 
L 2203 378 
L 2203 0 
L 219 0 
z
" transform="scale(0.015625)"/>
      <path id="DejaVuSerif-Bold-74" d="M 634 2944 
L 153 2944 
L 153 3322 
L 634 3322 
L 634 4353 
L 1741 4353 
L 1741 3322 
L 2663 3322 
L 2663 2944 
L 1741 2944 
L 1741 909 
Q 1741 475 1809 369 
Q 1878 263 2059 263 
Q 2259 263 2356 397 
Q 2453 531 2459 813 
L 2925 813 
Q 2897 313 2651 111 
Q 2406 -91 1806 -91 
Q 1122 -91 878 123 
Q 634 338 634 909 
L 634 2944 
z
" transform="scale(0.015625)"/>
      <path id="DejaVuSerif-Bold-61" d="M 3525 2041 
L 3525 378 
L 4000 378 
L 4000 0 
L 2419 0 
L 2419 422 
Q 2200 159 1931 34 
Q 1663 -91 1319 -91 
Q 809 -91 536 182 
Q 263 456 263 966 
Q 263 1525 655 1803 
Q 1047 2081 1838 2081 
L 2419 2081 
L 2419 2278 
Q 2419 2681 2228 2873 
Q 2038 3066 1638 3066 
Q 1306 3066 1126 2930 
Q 947 2794 872 2484 
L 519 2484 
L 519 3200 
Q 816 3306 1134 3359 
Q 1453 3413 1806 3413 
Q 2697 3413 3111 3081 
Q 3525 2750 3525 2041 
z
M 2419 1044 
L 2419 1709 
L 2003 1709 
Q 1694 1709 1528 1540 
Q 1363 1372 1363 1056 
Q 1363 741 1483 584 
Q 1603 428 1850 428 
Q 2106 428 2262 597 
Q 2419 766 2419 1044 
z
" transform="scale(0.015625)"/>
      <path id="DejaVuSerif-Bold-6f" d="M 2138 263 
Q 2488 263 2630 563 
Q 2772 863 2772 1663 
Q 2772 2463 2631 2761 
Q 2491 3059 2138 3059 
Q 1784 3059 1640 2757 
Q 1497 2456 1497 1663 
Q 1497 869 1640 566 
Q 1784 263 2138 263 
z
M 2138 -91 
Q 1259 -91 761 376 
Q 263 844 263 1663 
Q 263 2484 761 2948 
Q 1259 3413 2138 3413 
Q 3019 3413 3516 2948 
Q 4013 2484 4013 1663 
Q 4013 844 3514 376 
Q 3016 -91 2138 -91 
z
" transform="scale(0.015625)"/>
      <path id="DejaVuSerif-Bold-73" d="M 300 97 
L 300 1025 
L 653 1025 
Q 697 653 931 458 
Q 1166 263 1569 263 
Q 1906 263 2086 380 
Q 2266 497 2266 716 
Q 2266 916 2152 1025 
Q 2038 1134 1709 1216 
L 1253 1331 
Q 738 1459 506 1698 
Q 275 1938 275 2344 
Q 275 2884 650 3148 
Q 1025 3413 1806 3413 
Q 2100 3413 2433 3364 
Q 2766 3316 3169 3213 
L 3169 2375 
L 2816 2375 
Q 2788 2716 2573 2887 
Q 2359 3059 1959 3059 
Q 1622 3059 1448 2951 
Q 1275 2844 1275 2638 
Q 1275 2469 1375 2372 
Q 1475 2275 1734 2209 
L 2188 2094 
Q 2841 1928 3091 1684 
Q 3341 1441 3341 1006 
Q 3341 444 2939 176 
Q 2538 -91 1691 -91 
Q 1381 -91 1034 -44 
Q 688 3 300 97 
z
" transform="scale(0.015625)"/>
     </defs>
     <use xlink:href="#DejaVuSerif-Bold-4e"/>
     <use xlink:href="#DejaVuSerif-Bold-56" transform="translate(91.40625 0)"/>
     <use xlink:href="#DejaVuSerif-Bold-20" transform="translate(168.994141 0)"/>
     <use xlink:href="#DejaVuSerif-Bold-4f" transform="translate(203.808594 0)"/>
     <use xlink:href="#DejaVuSerif-Bold-72" transform="translate(290.917969 0)"/>
     <use xlink:href="#DejaVuSerif-Bold-69" transform="translate(343.603516 0)"/>
     <use xlink:href="#DejaVuSerif-Bold-65" transform="translate(381.591797 0)"/>
     <use xlink:href="#DejaVuSerif-Bold-6e" transform="translate(445.214844 0)"/>
     <use xlink:href="#DejaVuSerif-Bold-74" transform="translate(517.919922 0)"/>
     <use xlink:href="#DejaVuSerif-Bold-61" transform="translate(564.111328 0)"/>
     <use xlink:href="#DejaVuSerif-Bold-74" transform="translate(628.90625 0)"/>
     <use xlink:href="#DejaVuSerif-Bold-69" transform="translate(675.097656 0)"/>
     <use xlink:href="#DejaVuSerif-Bold-6f" transform="translate(713.085938 0)"/>
     <use xlink:href="#DejaVuSerif-Bold-6e" transform="translate(779.785156 0)"/>
     <use xlink:href="#DejaVuSerif-Bold-73" transform="translate(852.490234 0)"/>
    </g>
    <!-- in Diamond Lattice -->
    <g transform="translate(111.534313 35.235125) scale(0.13 -0.13)">
     <defs>
      <path id="DejaVuSerif-Bold-44" d="M 2100 378 
L 2534 378 
Q 3266 378 3605 847 
Q 3944 1316 3944 2338 
Q 3944 3353 3606 3820 
Q 3269 4288 2534 4288 
L 2100 4288 
L 2100 378 
z
M 300 0 
L 300 378 
L 897 378 
L 897 4288 
L 300 4288 
L 300 4666 
L 2694 4666 
Q 3950 4666 4615 4066 
Q 5281 3466 5281 2338 
Q 5281 1203 4614 601 
Q 3947 0 2694 0 
L 300 0 
z
" transform="scale(0.015625)"/>
      <path id="DejaVuSerif-Bold-6d" d="M 3884 2778 
Q 4116 3109 4384 3261 
Q 4653 3413 5013 3413 
Q 5584 3413 5867 3089 
Q 6150 2766 6150 2113 
L 6150 378 
L 6625 378 
L 6625 0 
L 4647 0 
L 4647 378 
L 5044 378 
L 5044 1947 
Q 5044 2569 4948 2731 
Q 4853 2894 4594 2894 
Q 4300 2894 4137 2667 
Q 3975 2441 3975 2022 
L 3975 378 
L 4372 378 
L 4372 0 
L 2472 0 
L 2472 378 
L 2869 378 
L 2869 1947 
Q 2869 2569 2772 2731 
Q 2675 2894 2419 2894 
Q 2122 2894 1959 2667 
Q 1797 2441 1797 2022 
L 1797 378 
L 2194 378 
L 2194 0 
L 219 0 
L 219 378 
L 691 378 
L 691 2944 
L 219 2944 
L 219 3322 
L 1797 3322 
L 1797 2853 
Q 1991 3144 2241 3278 
Q 2491 3413 2834 3413 
Q 3241 3413 3494 3258 
Q 3747 3103 3884 2778 
z
" transform="scale(0.015625)"/>
      <path id="DejaVuSerif-Bold-64" d="M 2747 1497 
L 2747 1825 
Q 2747 2406 2597 2665 
Q 2447 2925 2119 2925 
Q 1775 2925 1636 2651 
Q 1497 2378 1497 1663 
Q 1497 947 1637 672 
Q 1778 397 2119 397 
Q 2447 397 2597 656 
Q 2747 916 2747 1497 
z
M 3853 378 
L 4325 378 
L 4325 0 
L 2747 0 
L 2747 422 
Q 2606 163 2367 36 
Q 2128 -91 1778 -91 
Q 1072 -91 667 378 
Q 263 847 263 1663 
Q 263 2481 667 2947 
Q 1072 3413 1778 3413 
Q 2128 3413 2367 3286 
Q 2606 3159 2747 2900 
L 2747 4488 
L 2272 4488 
L 2272 4863 
L 3853 4863 
L 3853 378 
z
" transform="scale(0.015625)"/>
      <path id="DejaVuSerif-Bold-4c" d="M 300 0 
L 300 378 
L 897 378 
L 897 4288 
L 300 4288 
L 300 4666 
L 2700 4666 
L 2700 4288 
L 2100 4288 
L 2100 428 
L 3938 428 
L 3938 1166 
L 4359 1166 
L 4359 0 
L 300 0 
z
" transform="scale(0.015625)"/>
      <path id="DejaVuSerif-Bold-63" d="M 3609 1038 
Q 3491 469 3123 189 
Q 2756 -91 2125 -91 
Q 1238 -91 750 368 
Q 263 828 263 1663 
Q 263 2488 744 2950 
Q 1225 3413 2081 3413 
Q 2428 3413 2781 3347 
Q 3134 3281 3500 3150 
L 3500 2228 
L 3150 2228 
Q 3100 2650 2903 2854 
Q 2706 3059 2350 3059 
Q 1888 3059 1692 2746 
Q 1497 2434 1497 1663 
Q 1497 909 1687 586 
Q 1878 263 2309 263 
Q 2644 263 2845 463 
Q 3047 663 3091 1038 
L 3609 1038 
z
" transform="scale(0.015625)"/>
     </defs>
     <use xlink:href="#DejaVuSerif-Bold-69"/>
     <use xlink:href="#DejaVuSerif-Bold-6e" transform="translate(37.988281 0)"/>
     <use xlink:href="#DejaVuSerif-Bold-20" transform="translate(110.693359 0)"/>
     <use xlink:href="#DejaVuSerif-Bold-44" transform="translate(145.507812 0)"/>
     <use xlink:href="#DejaVuSerif-Bold-69" transform="translate(232.226562 0)"/>
     <use xlink:href="#DejaVuSerif-Bold-61" transform="translate(270.214844 0)"/>
     <use xlink:href="#DejaVuSerif-Bold-6d" transform="translate(335.009766 0)"/>
     <use xlink:href="#DejaVuSerif-Bold-6f" transform="translate(440.820312 0)"/>
     <use xlink:href="#DejaVuSerif-Bold-6e" transform="translate(507.519531 0)"/>
     <use xlink:href="#DejaVuSerif-Bold-64" transform="translate(580.224609 0)"/>
     <use xlink:href="#DejaVuSerif-Bold-20" transform="translate(650.146484 0)"/>
     <use xlink:href="#DejaVuSerif-Bold-4c" transform="translate(684.960938 0)"/>
     <use xlink:href="#DejaVuSerif-Bold-61" transform="translate(755.273438 0)"/>
     <use xlink:href="#DejaVuSerif-Bold-74" transform="translate(820.068359 0)"/>
     <use xlink:href="#DejaVuSerif-Bold-74" transform="translate(866.259766 0)"/>
     <use xlink:href="#DejaVuSerif-Bold-69" transform="translate(912.451172 0)"/>
     <use xlink:href="#DejaVuSerif-Bold-63" transform="translate(950.439453 0)"/>
     <use xlink:href="#DejaVuSerif-Bold-65" transform="translate(1011.328125 0)"/>
    </g>
   </g>
   <g id="Line3DCollection_5">
    <path d="M 167.119954 138.43679 
L 186.016203 207.229422 
" clip-path="url(#p08a8e9812c)" style="fill: none; stroke: #2563eb; stroke-opacity: 0.3; stroke-width: 2"/>
    <path d="M 167.119954 138.43679 
L 167.119954 138.43679 
" clip-path="url(#p08a8e9812c)" style="fill: none; stroke: #2563eb; stroke-opacity: 0.3; stroke-width: 2"/>
    <path d="M 167.119954 138.43679 
L 167.119954 138.43679 
" clip-path="url(#p08a8e9812c)" style="fill: none; stroke: #2563eb; stroke-opacity: 0.3; stroke-width: 2"/>
   </g>
   <g id="Line3DCollection_6">
    <path d="M 167.508487 205.535849 
L 186.016203 207.229422 
" clip-path="url(#p08a8e9812c)" style="fill: none; stroke: #16a34a; stroke-width: 3"/>
    <path d="M 167.508487 205.535849 
L 170.597677 208.541016 
" clip-path="url(#p08a8e9812c)" style="fill: none; stroke: #16a34a; stroke-width: 3"/>
    <path d="M 167.508487 205.535849 
L 169.585649 203.005221 
" clip-path="url(#p08a8e9812c)" style="fill: none; stroke: #16a34a; stroke-width: 3"/>
   </g>
   <g id="legend_1">
    <g id="patch_6">
     <path d="M 17.1 104.035438 
L 70.11 104.035438 
Q 71.91 104.035438 71.91 102.235437 
L 71.91 47.535125 
Q 71.91 45.735125 70.11 45.735125 
L 17.1 45.735125 
Q 15.3 45.735125 15.3 47.535125 
L 15.3 102.235437 
Q 15.3 104.035438 17.1 104.035438 
z
" style="fill: #ffffff; opacity: 0.8; stroke: #cccccc; stroke-linejoin: miter"/>
    </g>
    <g id="line2d_31">
     <path d="M 18.9 53.023719 
L 36.9 53.023719 
" style="fill: none; stroke: #dc2626; stroke-width: 3"/>
    </g>
    <g id="text_20">
     <!-- [111] -->
     <g transform="translate(44.1 56.173719) scale(0.09 -0.09)">
      <defs>
       <path id="DejaVuSerif-5b" d="M 550 4863 
L 2003 4863 
L 2003 4531 
L 1147 4531 
L 1147 -513 
L 2003 -513 
L 2003 -844 
L 550 -844 
L 550 4863 
z
" transform="scale(0.015625)"/>
       <path id="DejaVuSerif-5d" d="M 1947 4863 
L 1947 -844 
L 494 -844 
L 494 -513 
L 1350 -513 
L 1350 4531 
L 494 4531 
L 494 4863 
L 1947 4863 
z
" transform="scale(0.015625)"/>
      </defs>
      <use xlink:href="#DejaVuSerif-5b"/>
      <use xlink:href="#DejaVuSerif-31" transform="translate(39.013672 0)"/>
      <use xlink:href="#DejaVuSerif-31" transform="translate(102.636719 0)"/>
      <use xlink:href="#DejaVuSerif-31" transform="translate(166.259766 0)"/>
      <use xlink:href="#DejaVuSerif-5d" transform="translate(229.882812 0)"/>
     </g>
    </g>
    <g id="line2d_32">
     <path d="M 18.9 67.153719 
L 36.9 67.153719 
" style="fill: none; stroke: #2563eb; stroke-width: 3"/>
    </g>
    <g id="text_21">
     <!-- [1$\bar{1}\bar{1}$] -->
     <g transform="translate(44.1 70.303719) scale(0.09 -0.09)">
      <defs>
       <path id="DejaVuSans-304" d="M -2518 4769 
L -650 4769 
L -650 4306 
L -2518 4306 
L -2518 4769 
z
" transform="scale(0.015625)"/>
       <path id="DejaVuSans-31" d="M 794 531 
L 1825 531 
L 1825 4091 
L 703 3866 
L 703 4441 
L 1819 4666 
L 2450 4666 
L 2450 531 
L 3481 531 
L 3481 0 
L 794 0 
L 794 531 
z
" transform="scale(0.015625)"/>
      </defs>
      <use xlink:href="#DejaVuSerif-5b" transform="translate(0 0.359375)"/>
      <use xlink:href="#DejaVuSerif-31" transform="translate(39.013672 0.359375)"/>
      <use xlink:href="#DejaVuSans-304" transform="translate(166.88623 18.484375)"/>
      <use xlink:href="#DejaVuSans-31" transform="translate(102.636719 0.359375)"/>
      <use xlink:href="#DejaVuSans-304" transform="translate(230.509277 18.484375)"/>
      <use xlink:href="#DejaVuSans-31" transform="translate(166.259766 0.359375)"/>
      <use xlink:href="#DejaVuSerif-5d" transform="translate(229.882812 0.359375)"/>
     </g>
    </g>
    <g id="line2d_33">
     <path d="M 18.9 81.283719 
L 36.9 81.283719 
" style="fill: none; stroke: #16a34a; stroke-width: 3"/>
    </g>
    <g id="text_22">
     <!-- [$\bar{1}$1$\bar{1}$] -->
     <g transform="translate(44.1 84.433719) scale(0.09 -0.09)">
      <use xlink:href="#DejaVuSerif-5b" transform="translate(0 0.359375)"/>
      <use xlink:href="#DejaVuSans-304" transform="translate(103.263184 18.484375)"/>
      <use xlink:href="#DejaVuSans-31" transform="translate(39.013672 0.359375)"/>
      <use xlink:href="#DejaVuSerif-31" transform="translate(102.636719 0.359375)"/>
      <use xlink:href="#DejaVuSans-304" transform="translate(230.509277 18.484375)"/>
      <use xlink:href="#DejaVuSans-31" transform="translate(166.259766 0.359375)"/>
      <use xlink:href="#DejaVuSerif-5d" transform="translate(229.882812 0.359375)"/>
     </g>
    </g>
    <g id="line2d_34">
     <path d="M 18.9 95.413719 
L 36.9 95.413719 
" style="fill: none; stroke: #ea580c; stroke-width: 3"/>
    </g>
    <g id="text_23">
     <!-- [$\bar{1}\bar{1}$1] -->
     <g transform="translate(44.1 98.563719) scale(0.09 -0.09)">
      <use xlink:href="#DejaVuSerif-5b" transform="translate(0 0.359375)"/>
      <use xlink:href="#DejaVuSans-304" transform="translate(103.263184 18.484375)"/>
      <use xlink:href="#DejaVuSans-31" transform="translate(39.013672 0.359375)"/>
      <use xlink:href="#DejaVuSans-304" transform="translate(166.88623 18.484375)"/>
      <use xlink:href="#DejaVuSans-31" transform="translate(102.636719 0.359375)"/>
      <use xlink:href="#DejaVuSerif-31" transform="translate(166.259766 0.359375)"/>
      <use xlink:href="#DejaVuSerif-5d" transform="translate(229.882812 0.359375)"/>
     </g>
    </g>
   </g>
   <g id="Line3DCollection_7">
    <path d="M 256.767736 231.39152 
L 186.016203 207.229422 
" clip-path="url(#p08a8e9812c)" style="fill: none; stroke: #ea580c; stroke-opacity: 0.3; stroke-width: 2"/>
    <path d="M 256.767736 231.39152 
L 256.767736 231.39152 
" clip-path="url(#p08a8e9812c)" style="fill: none; stroke: #ea580c; stroke-opacity: 0.3; stroke-width: 2"/>
    <path d="M 256.767736 231.39152 
L 256.767736 231.39152 
" clip-path="url(#p08a8e9812c)" style="fill: none; stroke: #ea580c; stroke-opacity: 0.3; stroke-width: 2"/>
   </g>
   <g id="Line3DCollection_8">
    <path d="M 258.289924 163.181803 
L 186.016203 207.229422 
" clip-path="url(#p08a8e9812c)" style="fill: none; stroke: #dc2626; stroke-width: 3"/>
    <path d="M 258.289924 163.181803 
L 249.733416 171.223692 
" clip-path="url(#p08a8e9812c)" style="fill: none; stroke: #dc2626; stroke-width: 3"/>
    <path d="M 258.289924 163.181803 
L 245.870074 167.919316 
" clip-path="url(#p08a8e9812c)" style="fill: none; stroke: #dc2626; stroke-width: 3"/>
   </g>
   <g id="Line3DCollection_9">
    <path d="M 112.403748 182.090302 
L 186.016203 207.229422 
" clip-path="url(#p08a8e9812c)" style="fill: none; stroke: #ea580c; stroke-width: 3"/>
    <path d="M 112.403748 182.090302 
L 121.260755 187.98817 
" clip-path="url(#p08a8e9812c)" style="fill: none; stroke: #ea580c; stroke-width: 3"/>
    <path d="M 112.403748 182.090302 
L 125.247086 183.601248 
" clip-path="url(#p08a8e9812c)" style="fill: none; stroke: #ea580c; stroke-width: 3"/>
   </g>
   <g id="Line3DCollection_10">
    <path d="M 205.807693 279.281222 
L 186.016203 207.229422 
" clip-path="url(#p08a8e9812c)" style="fill: none; stroke: #2563eb; stroke-width: 3"/>
    <path d="M 205.807693 279.281222 
L 202.315513 269.445795 
" clip-path="url(#p08a8e9812c)" style="fill: none; stroke: #2563eb; stroke-width: 3"/>
    <path d="M 205.807693 279.281222 
L 203.450725 267.813628 
" clip-path="url(#p08a8e9812c)" style="fill: none; stroke: #2563eb; stroke-width: 3"/>
   </g>
   <g id="Line3DCollection_11">
    <path d="M 206.252644 209.081185 
L 186.016203 207.229422 
" clip-path="url(#p08a8e9812c)" style="fill: none; stroke: #16a34a; stroke-opacity: 0.3; stroke-width: 2"/>
    <path d="M 206.252644 209.081185 
L 206.252644 209.081185 
" clip-path="url(#p08a8e9812c)" style="fill: none; stroke: #16a34a; stroke-opacity: 0.3; stroke-width: 2"/>
    <path d="M 206.252644 209.081185 
L 206.252644 209.081185 
" clip-path="url(#p08a8e9812c)" style="fill: none; stroke: #16a34a; stroke-opacity: 0.3; stroke-width: 2"/>
   </g>
  </g>
  <g id="axes_2">
   <g id="patch_7">
    <path d="M 443.290719 382.445625 
L 827.420406 382.445625 
L 827.420406 41.235125 
L 443.290719 41.235125 
z
" style="fill: #ffffff"/>
   </g>
   <g id="matplotlib.axis_1">
    <g id="xtick_16">
     <g id="line2d_35">
      <path d="M 460.751159 382.445625 
L 460.751159 41.235125 
" clip-path="url(#pec9ee1f52d)" style="fill: none; stroke: #b0b0b0; stroke-opacity: 0.2; stroke-width: 0.8; stroke-linecap: square"/>
     </g>
     <g id="line2d_36">
      <defs>
       <path id="mef84e646cb" d="M 0 0 
L 0 3.5 
" style="stroke: #000000"/>
      </defs>
      <g>
       <use xlink:href="#mef84e646cb" x="460.751159" y="382.445625" style="stroke: #000000"/>
      </g>
     </g>
     <g id="text_24">
      <!-- 2.5 -->
      <g transform="translate(451.209284 398.56375) scale(0.12 -0.12)">
       <defs>
        <path id="DejaVuSerif-32" d="M 819 3553 
L 469 3553 
L 469 4384 
Q 803 4563 1142 4656 
Q 1481 4750 1806 4750 
Q 2534 4750 2956 4397 
Q 3378 4044 3378 3438 
Q 3378 2753 2422 1800 
Q 2347 1728 2309 1691 
L 1131 513 
L 3078 513 
L 3078 1088 
L 3444 1088 
L 3444 0 
L 434 0 
L 434 341 
L 1850 1753 
Q 2319 2222 2519 2614 
Q 2719 3006 2719 3438 
Q 2719 3909 2473 4175 
Q 2228 4441 1797 4441 
Q 1350 4441 1106 4219 
Q 863 3997 819 3553 
z
" transform="scale(0.015625)"/>
       </defs>
       <use xlink:href="#DejaVuSerif-32"/>
       <use xlink:href="#DejaVuSerif-2e" transform="translate(63.623047 0)"/>
       <use xlink:href="#DejaVuSerif-35" transform="translate(95.410156 0)"/>
      </g>
     </g>
    </g>
    <g id="xtick_17">
     <g id="line2d_37">
      <path d="M 507.312333 382.445625 
L 507.312333 41.235125 
" clip-path="url(#pec9ee1f52d)" style="fill: none; stroke: #b0b0b0; stroke-opacity: 0.2; stroke-width: 0.8; stroke-linecap: square"/>
     </g>
     <g id="line2d_38">
      <g>
       <use xlink:href="#mef84e646cb" x="507.312333" y="382.445625" style="stroke: #000000"/>
      </g>
     </g>
     <g id="text_25">
      <!-- 2.6 -->
      <g transform="translate(497.770458 398.56375) scale(0.12 -0.12)">
       <defs>
        <path id="DejaVuSerif-36" d="M 2094 219 
Q 2534 219 2771 542 
Q 3009 866 3009 1472 
Q 3009 2078 2771 2401 
Q 2534 2725 2094 2725 
Q 1647 2725 1412 2412 
Q 1178 2100 1178 1509 
Q 1178 888 1415 553 
Q 1653 219 2094 219 
z
M 1075 2569 
Q 1288 2803 1556 2918 
Q 1825 3034 2163 3034 
Q 2859 3034 3264 2615 
Q 3669 2197 3669 1472 
Q 3669 763 3233 336 
Q 2797 -91 2069 -91 
Q 1278 -91 853 498 
Q 428 1088 428 2181 
Q 428 3406 931 4078 
Q 1434 4750 2350 4750 
Q 2597 4750 2869 4703 
Q 3141 4656 3425 4563 
L 3425 3794 
L 3072 3794 
Q 3034 4109 2831 4275 
Q 2628 4441 2284 4441 
Q 1678 4441 1381 3981 
Q 1084 3522 1075 2569 
z
" transform="scale(0.015625)"/>
       </defs>
       <use xlink:href="#DejaVuSerif-32"/>
       <use xlink:href="#DejaVuSerif-2e" transform="translate(63.623047 0)"/>
       <use xlink:href="#DejaVuSerif-36" transform="translate(95.410156 0)"/>
      </g>
     </g>
    </g>
    <g id="xtick_18">
     <g id="line2d_39">
      <path d="M 553.873508 382.445625 
L 553.873508 41.235125 
" clip-path="url(#pec9ee1f52d)" style="fill: none; stroke: #b0b0b0; stroke-opacity: 0.2; stroke-width: 0.8; stroke-linecap: square"/>
     </g>
     <g id="line2d_40">
      <g>
       <use xlink:href="#mef84e646cb" x="553.873508" y="382.445625" style="stroke: #000000"/>
      </g>
     </g>
     <g id="text_26">
      <!-- 2.7 -->
      <g transform="translate(544.331633 398.56375) scale(0.12 -0.12)">
       <defs>
        <path id="DejaVuSerif-37" d="M 3609 4347 
L 1784 0 
L 1319 0 
L 3059 4153 
L 903 4153 
L 903 3578 
L 538 3578 
L 538 4666 
L 3609 4666 
L 3609 4347 
z
" transform="scale(0.015625)"/>
       </defs>
       <use xlink:href="#DejaVuSerif-32"/>
       <use xlink:href="#DejaVuSerif-2e" transform="translate(63.623047 0)"/>
       <use xlink:href="#DejaVuSerif-37" transform="translate(95.410156 0)"/>
      </g>
     </g>
    </g>
    <g id="xtick_19">
     <g id="line2d_41">
      <path d="M 600.434682 382.445625 
L 600.434682 41.235125 
" clip-path="url(#pec9ee1f52d)" style="fill: none; stroke: #b0b0b0; stroke-opacity: 0.2; stroke-width: 0.8; stroke-linecap: square"/>
     </g>
     <g id="line2d_42">
      <g>
       <use xlink:href="#mef84e646cb" x="600.434682" y="382.445625" style="stroke: #000000"/>
      </g>
     </g>
     <g id="text_27">
      <!-- 2.8 -->
      <g transform="translate(590.892807 398.56375) scale(0.12 -0.12)">
       <defs>
        <path id="DejaVuSerif-38" d="M 2981 1275 
Q 2981 1775 2732 2051 
Q 2484 2328 2034 2328 
Q 1584 2328 1336 2051 
Q 1088 1775 1088 1275 
Q 1088 772 1336 495 
Q 1584 219 2034 219 
Q 2484 219 2732 495 
Q 2981 772 2981 1275 
z
M 2853 3541 
Q 2853 3966 2637 4203 
Q 2422 4441 2034 4441 
Q 1650 4441 1433 4203 
Q 1216 3966 1216 3541 
Q 1216 3113 1433 2875 
Q 1650 2638 2034 2638 
Q 2422 2638 2637 2875 
Q 2853 3113 2853 3541 
z
M 2516 2484 
Q 3047 2413 3344 2092 
Q 3641 1772 3641 1275 
Q 3641 619 3225 264 
Q 2809 -91 2034 -91 
Q 1263 -91 845 264 
Q 428 619 428 1275 
Q 428 1772 725 2092 
Q 1022 2413 1556 2484 
Q 1084 2569 832 2842 
Q 581 3116 581 3541 
Q 581 4103 968 4426 
Q 1356 4750 2034 4750 
Q 2713 4750 3100 4426 
Q 3488 4103 3488 3541 
Q 3488 3116 3236 2842 
Q 2984 2569 2516 2484 
z
" transform="scale(0.015625)"/>
       </defs>
       <use xlink:href="#DejaVuSerif-32"/>
       <use xlink:href="#DejaVuSerif-2e" transform="translate(63.623047 0)"/>
       <use xlink:href="#DejaVuSerif-38" transform="translate(95.410156 0)"/>
      </g>
     </g>
    </g>
    <g id="xtick_20">
     <g id="line2d_43">
      <path d="M 646.995856 382.445625 
L 646.995856 41.235125 
" clip-path="url(#pec9ee1f52d)" style="fill: none; stroke: #b0b0b0; stroke-opacity: 0.2; stroke-width: 0.8; stroke-linecap: square"/>
     </g>
     <g id="line2d_44">
      <g>
       <use xlink:href="#mef84e646cb" x="646.995856" y="382.445625" style="stroke: #000000"/>
      </g>
     </g>
     <g id="text_28">
      <!-- 2.9 -->
      <g transform="translate(637.453981 398.56375) scale(0.12 -0.12)">
       <defs>
        <path id="DejaVuSerif-39" d="M 2994 2091 
Q 2784 1856 2512 1740 
Q 2241 1625 1900 1625 
Q 1206 1625 804 2044 
Q 403 2463 403 3188 
Q 403 3897 839 4323 
Q 1275 4750 2003 4750 
Q 2794 4750 3217 4161 
Q 3641 3572 3641 2478 
Q 3641 1253 3137 581 
Q 2634 -91 1722 -91 
Q 1475 -91 1203 -44 
Q 931 3 647 97 
L 647 872 
L 997 872 
Q 1038 556 1241 387 
Q 1444 219 1784 219 
Q 2391 219 2687 676 
Q 2984 1134 2994 2091 
z
M 1978 4441 
Q 1534 4441 1298 4117 
Q 1063 3794 1063 3188 
Q 1063 2581 1298 2256 
Q 1534 1931 1978 1931 
Q 2422 1931 2658 2245 
Q 2894 2559 2894 3150 
Q 2894 3772 2656 4106 
Q 2419 4441 1978 4441 
z
" transform="scale(0.015625)"/>
       </defs>
       <use xlink:href="#DejaVuSerif-32"/>
       <use xlink:href="#DejaVuSerif-2e" transform="translate(63.623047 0)"/>
       <use xlink:href="#DejaVuSerif-39" transform="translate(95.410156 0)"/>
      </g>
     </g>
    </g>
    <g id="xtick_21">
     <g id="line2d_45">
      <path d="M 693.55703 382.445625 
L 693.55703 41.235125 
" clip-path="url(#pec9ee1f52d)" style="fill: none; stroke: #b0b0b0; stroke-opacity: 0.2; stroke-width: 0.8; stroke-linecap: square"/>
     </g>
     <g id="line2d_46">
      <g>
       <use xlink:href="#mef84e646cb" x="693.55703" y="382.445625" style="stroke: #000000"/>
      </g>
     </g>
     <g id="text_29">
      <!-- 3.0 -->
      <g transform="translate(684.015155 398.56375) scale(0.12 -0.12)">
       <defs>
        <path id="DejaVuSerif-33" d="M 622 4469 
Q 988 4606 1323 4678 
Q 1659 4750 1953 4750 
Q 2638 4750 3022 4454 
Q 3406 4159 3406 3634 
Q 3406 3213 3140 2930 
Q 2875 2647 2388 2547 
Q 2963 2466 3280 2130 
Q 3597 1794 3597 1259 
Q 3597 606 3158 257 
Q 2719 -91 1894 -91 
Q 1528 -91 1179 -12 
Q 831 66 488 225 
L 488 1131 
L 838 1131 
Q 869 681 1141 450 
Q 1413 219 1906 219 
Q 2384 219 2661 495 
Q 2938 772 2938 1253 
Q 2938 1803 2653 2086 
Q 2369 2369 1819 2369 
L 1522 2369 
L 1522 2688 
L 1678 2688 
Q 2225 2688 2498 2914 
Q 2772 3141 2772 3597 
Q 2772 4006 2547 4223 
Q 2322 4441 1900 4441 
Q 1478 4441 1245 4241 
Q 1013 4041 972 3647 
L 622 3647 
L 622 4469 
z
" transform="scale(0.015625)"/>
       </defs>
       <use xlink:href="#DejaVuSerif-33"/>
       <use xlink:href="#DejaVuSerif-2e" transform="translate(63.623047 0)"/>
       <use xlink:href="#DejaVuSerif-30" transform="translate(95.410156 0)"/>
      </g>
     </g>
    </g>
    <g id="xtick_22">
     <g id="line2d_47">
      <path d="M 740.118205 382.445625 
L 740.118205 41.235125 
" clip-path="url(#pec9ee1f52d)" style="fill: none; stroke: #b0b0b0; stroke-opacity: 0.2; stroke-width: 0.8; stroke-linecap: square"/>
     </g>
     <g id="line2d_48">
      <g>
       <use xlink:href="#mef84e646cb" x="740.118205" y="382.445625" style="stroke: #000000"/>
      </g>
     </g>
     <g id="text_30">
      <!-- 3.1 -->
      <g transform="translate(730.57633 398.56375) scale(0.12 -0.12)">
       <use xlink:href="#DejaVuSerif-33"/>
       <use xlink:href="#DejaVuSerif-2e" transform="translate(63.623047 0)"/>
       <use xlink:href="#DejaVuSerif-31" transform="translate(95.410156 0)"/>
      </g>
     </g>
    </g>
    <g id="xtick_23">
     <g id="line2d_49">
      <path d="M 786.679379 382.445625 
L 786.679379 41.235125 
" clip-path="url(#pec9ee1f52d)" style="fill: none; stroke: #b0b0b0; stroke-opacity: 0.2; stroke-width: 0.8; stroke-linecap: square"/>
     </g>
     <g id="line2d_50">
      <g>
       <use xlink:href="#mef84e646cb" x="786.679379" y="382.445625" style="stroke: #000000"/>
      </g>
     </g>
     <g id="text_31">
      <!-- 3.2 -->
      <g transform="translate(777.137504 398.56375) scale(0.12 -0.12)">
       <use xlink:href="#DejaVuSerif-33"/>
       <use xlink:href="#DejaVuSerif-2e" transform="translate(63.623047 0)"/>
       <use xlink:href="#DejaVuSerif-32" transform="translate(95.410156 0)"/>
      </g>
     </g>
    </g>
    <g id="text_32">
     <!-- Microwave Frequency (GHz) -->
     <g transform="translate(547.66275 414.1775) scale(0.12 -0.12)">
      <defs>
       <path id="DejaVuSerif-4d" d="M 353 0 
L 353 331 
L 947 331 
L 947 4331 
L 319 4331 
L 319 4666 
L 1678 4666 
L 3316 1344 
L 4953 4666 
L 6228 4666 
L 6228 4331 
L 5606 4331 
L 5606 331 
L 6203 331 
L 6203 0 
L 4378 0 
L 4378 331 
L 4972 331 
L 4972 3938 
L 3372 684 
L 2931 684 
L 1331 3938 
L 1331 331 
L 1925 331 
L 1925 0 
L 353 0 
z
" transform="scale(0.015625)"/>
       <path id="DejaVuSerif-69" d="M 622 4353 
Q 622 4497 726 4603 
Q 831 4709 978 4709 
Q 1122 4709 1226 4603 
Q 1331 4497 1331 4353 
Q 1331 4206 1228 4103 
Q 1125 4000 978 4000 
Q 831 4000 726 4103 
Q 622 4206 622 4353 
z
M 1356 331 
L 1900 331 
L 1900 0 
L 231 0 
L 231 331 
L 781 331 
L 781 2988 
L 231 2988 
L 231 3322 
L 1356 3322 
L 1356 331 
z
" transform="scale(0.015625)"/>
       <path id="DejaVuSerif-63" d="M 3291 997 
Q 3169 466 2822 187 
Q 2475 -91 1925 -91 
Q 1200 -91 759 389 
Q 319 869 319 1663 
Q 319 2459 759 2936 
Q 1200 3413 1925 3413 
Q 2241 3413 2553 3339 
Q 2866 3266 3181 3116 
L 3181 2266 
L 2847 2266 
Q 2781 2703 2561 2903 
Q 2341 3103 1931 3103 
Q 1466 3103 1228 2742 
Q 991 2381 991 1663 
Q 991 944 1227 581 
Q 1463 219 1931 219 
Q 2303 219 2525 412 
Q 2747 606 2828 997 
L 3291 997 
z
" transform="scale(0.015625)"/>
       <path id="DejaVuSerif-72" d="M 3059 3328 
L 3059 2497 
L 2728 2497 
Q 2713 2744 2591 2866 
Q 2469 2988 2234 2988 
Q 1809 2988 1582 2694 
Q 1356 2400 1356 1850 
L 1356 331 
L 2022 331 
L 2022 0 
L 263 0 
L 263 331 
L 781 331 
L 781 2994 
L 231 2994 
L 231 3322 
L 1356 3322 
L 1356 2731 
Q 1525 3078 1790 3245 
Q 2056 3413 2438 3413 
Q 2578 3413 2733 3391 
Q 2888 3369 3059 3328 
z
" transform="scale(0.015625)"/>
       <path id="DejaVuSerif-6f" d="M 1925 219 
Q 2388 219 2623 584 
Q 2859 950 2859 1663 
Q 2859 2375 2623 2739 
Q 2388 3103 1925 3103 
Q 1463 3103 1227 2739 
Q 991 2375 991 1663 
Q 991 950 1228 584 
Q 1466 219 1925 219 
z
M 1925 -91 
Q 1200 -91 759 389 
Q 319 869 319 1663 
Q 319 2456 758 2934 
Q 1197 3413 1925 3413 
Q 2653 3413 3092 2934 
Q 3531 2456 3531 1663 
Q 3531 869 3092 389 
Q 2653 -91 1925 -91 
z
" transform="scale(0.015625)"/>
       <path id="DejaVuSerif-77" d="M 3072 3322 
L 3922 728 
L 4672 2988 
L 4191 2988 
L 4191 3322 
L 5394 3322 
L 5394 2988 
L 5025 2988 
L 4038 0 
L 3559 0 
L 2741 2484 
L 1919 0 
L 1459 0 
L 475 2988 
L 103 2988 
L 103 3322 
L 1606 3322 
L 1606 2988 
L 1069 2988 
L 1813 728 
L 2669 3322 
L 3072 3322 
z
" transform="scale(0.015625)"/>
       <path id="DejaVuSerif-61" d="M 2547 1044 
L 2547 1747 
L 1806 1747 
Q 1378 1747 1168 1562 
Q 959 1378 959 997 
Q 959 650 1171 447 
Q 1384 244 1747 244 
Q 2106 244 2326 466 
Q 2547 688 2547 1044 
z
M 3122 2075 
L 3122 331 
L 3634 331 
L 3634 0 
L 2547 0 
L 2547 359 
Q 2356 128 2106 18 
Q 1856 -91 1522 -91 
Q 969 -91 644 203 
Q 319 497 319 997 
Q 319 1513 691 1797 
Q 1063 2081 1741 2081 
L 2547 2081 
L 2547 2309 
Q 2547 2688 2317 2895 
Q 2088 3103 1672 3103 
Q 1328 3103 1125 2947 
Q 922 2791 872 2484 
L 575 2484 
L 575 3156 
Q 875 3284 1158 3348 
Q 1441 3413 1709 3413 
Q 2400 3413 2761 3070 
Q 3122 2728 3122 2075 
z
" transform="scale(0.015625)"/>
       <path id="DejaVuSerif-76" d="M 1581 0 
L 359 2988 
L -19 2988 
L -19 3322 
L 1509 3322 
L 1509 2988 
L 978 2988 
L 1913 703 
L 2847 2988 
L 2350 2988 
L 2350 3322 
L 3597 3322 
L 3597 2988 
L 3225 2988 
L 2003 0 
L 1581 0 
z
" transform="scale(0.015625)"/>
       <path id="DejaVuSerif-65" d="M 3469 1600 
L 991 1600 
L 991 1575 
Q 991 903 1244 561 
Q 1497 219 1991 219 
Q 2369 219 2611 417 
Q 2853 616 2950 1006 
L 3413 1006 
Q 3275 459 2904 184 
Q 2534 -91 1931 -91 
Q 1203 -91 761 389 
Q 319 869 319 1663 
Q 319 2450 753 2931 
Q 1188 3413 1894 3413 
Q 2647 3413 3050 2948 
Q 3453 2484 3469 1600 
z
M 2791 1931 
Q 2772 2513 2545 2808 
Q 2319 3103 1894 3103 
Q 1497 3103 1269 2806 
Q 1041 2509 991 1931 
L 2791 1931 
z
" transform="scale(0.015625)"/>
       <path id="DejaVuSerif-20" transform="scale(0.015625)"/>
       <path id="DejaVuSerif-46" d="M 353 0 
L 353 331 
L 947 331 
L 947 4331 
L 353 4331 
L 353 4666 
L 4172 4666 
L 4172 3628 
L 3788 3628 
L 3788 4281 
L 1581 4281 
L 1581 2719 
L 3175 2719 
L 3175 3303 
L 3559 3303 
L 3559 1753 
L 3175 1753 
L 3175 2338 
L 1581 2338 
L 1581 331 
L 2328 331 
L 2328 0 
L 353 0 
z
" transform="scale(0.015625)"/>
       <path id="DejaVuSerif-71" d="M 3359 2988 
L 3359 -997 
L 3909 -997 
L 3909 -1331 
L 2241 -1331 
L 2241 -997 
L 2784 -997 
L 2784 519 
Q 2616 206 2355 57 
Q 2094 -91 1709 -91 
Q 1097 -91 708 395 
Q 319 881 319 1663 
Q 319 2444 706 2928 
Q 1094 3413 1709 3413 
Q 2094 3413 2355 3264 
Q 2616 3116 2784 2803 
L 2784 3322 
L 3909 3322 
L 3909 2988 
L 3359 2988 
z
M 2784 1825 
Q 2784 2422 2554 2737 
Q 2325 3053 1888 3053 
Q 1444 3053 1217 2703 
Q 991 2353 991 1663 
Q 991 975 1217 622 
Q 1444 269 1888 269 
Q 2325 269 2554 583 
Q 2784 897 2784 1497 
L 2784 1825 
z
" transform="scale(0.015625)"/>
       <path id="DejaVuSerif-75" d="M 2266 3322 
L 3341 3322 
L 3341 331 
L 3884 331 
L 3884 0 
L 2766 0 
L 2766 588 
Q 2606 256 2353 82 
Q 2100 -91 1766 -91 
Q 1213 -91 952 223 
Q 691 538 691 1209 
L 691 2988 
L 172 2988 
L 172 3322 
L 1269 3322 
L 1269 1388 
Q 1269 781 1417 556 
Q 1566 331 1947 331 
Q 2347 331 2556 625 
Q 2766 919 2766 1478 
L 2766 2988 
L 2266 2988 
L 2266 3322 
z
" transform="scale(0.015625)"/>
       <path id="DejaVuSerif-6e" d="M 263 0 
L 263 331 
L 781 331 
L 781 2988 
L 231 2988 
L 231 3322 
L 1356 3322 
L 1356 2731 
Q 1516 3069 1770 3241 
Q 2025 3413 2363 3413 
Q 2913 3413 3172 3097 
Q 3431 2781 3431 2113 
L 3431 331 
L 3944 331 
L 3944 0 
L 2356 0 
L 2356 331 
L 2853 331 
L 2853 1931 
Q 2853 2541 2703 2767 
Q 2553 2994 2175 2994 
Q 1775 2994 1565 2701 
Q 1356 2409 1356 1850 
L 1356 331 
L 1856 331 
L 1856 0 
L 263 0 
z
" transform="scale(0.015625)"/>
       <path id="DejaVuSerif-28" d="M 2041 -997 
Q 1281 -656 893 83 
Q 506 822 506 1931 
Q 506 3044 893 3783 
Q 1281 4522 2041 4863 
L 2041 4556 
Q 1559 4225 1350 3623 
Q 1141 3022 1141 1931 
Q 1141 844 1350 242 
Q 1559 -359 2041 -691 
L 2041 -997 
z
" transform="scale(0.015625)"/>
       <path id="DejaVuSerif-47" d="M 4097 3272 
Q 3988 3856 3641 4136 
Q 3294 4416 2675 4416 
Q 1869 4416 1472 3897 
Q 1075 3378 1075 2328 
Q 1075 1300 1484 772 
Q 1894 244 2688 244 
Q 3041 244 3362 331 
Q 3684 419 3975 594 
L 3975 1797 
L 3097 1797 
L 3097 2131 
L 4609 2131 
L 4609 391 
Q 4194 150 3714 29 
Q 3234 -91 2688 -91 
Q 1631 -91 995 570 
Q 359 1231 359 2328 
Q 359 3434 996 4092 
Q 1634 4750 2713 4750 
Q 3113 4750 3539 4658 
Q 3966 4566 4447 4378 
L 4447 3272 
L 4097 3272 
z
" transform="scale(0.015625)"/>
       <path id="DejaVuSerif-48" d="M 353 0 
L 353 331 
L 947 331 
L 947 4331 
L 353 4331 
L 353 4666 
L 2175 4666 
L 2175 4331 
L 1581 4331 
L 1581 2719 
L 4000 2719 
L 4000 4331 
L 3406 4331 
L 3406 4666 
L 5228 4666 
L 5228 4331 
L 4634 4331 
L 4634 331 
L 5228 331 
L 5228 0 
L 3406 0 
L 3406 331 
L 4000 331 
L 4000 2338 
L 1581 2338 
L 1581 331 
L 2175 331 
L 2175 0 
L 353 0 
z
" transform="scale(0.015625)"/>
       <path id="DejaVuSerif-29" d="M 453 -997 
L 453 -691 
Q 934 -359 1145 242 
Q 1356 844 1356 1931 
Q 1356 3022 1145 3623 
Q 934 4225 453 4556 
L 453 4863 
Q 1216 4522 1603 3783 
Q 1991 3044 1991 1931 
Q 1991 822 1603 83 
Q 1216 -656 453 -997 
z
" transform="scale(0.015625)"/>
      </defs>
      <use xlink:href="#DejaVuSerif-4d"/>
      <use xlink:href="#DejaVuSerif-69" transform="translate(102.392578 0)"/>
      <use xlink:href="#DejaVuSerif-63" transform="translate(134.375 0)"/>
      <use xlink:href="#DejaVuSerif-72" transform="translate(190.380859 0)"/>
      <use xlink:href="#DejaVuSerif-6f" transform="translate(238.183594 0)"/>
      <use xlink:href="#DejaVuSerif-77" transform="translate(298.388672 0)"/>
      <use xlink:href="#DejaVuSerif-61" transform="translate(383.984375 0)"/>
      <use xlink:href="#DejaVuSerif-76" transform="translate(443.603516 0)"/>
      <use xlink:href="#DejaVuSerif-65" transform="translate(500.097656 0)"/>
      <use xlink:href="#DejaVuSerif-20" transform="translate(559.277344 0)"/>
      <use xlink:href="#DejaVuSerif-46" transform="translate(591.064453 0)"/>
      <use xlink:href="#DejaVuSerif-72" transform="translate(660.449219 0)"/>
      <use xlink:href="#DejaVuSerif-65" transform="translate(708.251953 0)"/>
      <use xlink:href="#DejaVuSerif-71" transform="translate(767.431641 0)"/>
      <use xlink:href="#DejaVuSerif-75" transform="translate(831.445312 0)"/>
      <use xlink:href="#DejaVuSerif-65" transform="translate(895.849609 0)"/>
      <use xlink:href="#DejaVuSerif-6e" transform="translate(955.029297 0)"/>
      <use xlink:href="#DejaVuSerif-63" transform="translate(1019.433594 0)"/>
      <use xlink:href="#DejaVuSerif-79" transform="translate(1075.439453 0)"/>
      <use xlink:href="#DejaVuSerif-20" transform="translate(1131.933594 0)"/>
      <use xlink:href="#DejaVuSerif-28" transform="translate(1163.720703 0)"/>
      <use xlink:href="#DejaVuSerif-47" transform="translate(1202.734375 0)"/>
      <use xlink:href="#DejaVuSerif-48" transform="translate(1282.617188 0)"/>
      <use xlink:href="#DejaVuSerif-7a" transform="translate(1369.824219 0)"/>
      <use xlink:href="#DejaVuSerif-29" transform="translate(1422.509766 0)"/>
     </g>
    </g>
   </g>
   <g id="matplotlib.axis_2">
    <g id="ytick_1">
     <g id="line2d_51">
      <path d="M 443.290719 373.915362 
L 827.420406 373.915362 
" clip-path="url(#pec9ee1f52d)" style="fill: none; stroke: #b0b0b0; stroke-opacity: 0.2; stroke-width: 0.8; stroke-linecap: square"/>
     </g>
     <g id="line2d_52">
      <defs>
       <path id="m9524a346a6" d="M 0 0 
L -3.5 0 
" style="stroke: #000000"/>
      </defs>
      <g>
       <use xlink:href="#m9524a346a6" x="443.290719" y="373.915362" style="stroke: #000000"/>
      </g>
     </g>
     <g id="text_33">
      <!-- 0.825 -->
      <g transform="translate(401.936969 378.474425) scale(0.12 -0.12)">
       <use xlink:href="#DejaVuSerif-30"/>
       <use xlink:href="#DejaVuSerif-2e" transform="translate(63.623047 0)"/>
       <use xlink:href="#DejaVuSerif-38" transform="translate(95.410156 0)"/>
       <use xlink:href="#DejaVuSerif-32" transform="translate(159.033203 0)"/>
       <use xlink:href="#DejaVuSerif-35" transform="translate(222.65625 0)"/>
      </g>
     </g>
    </g>
    <g id="ytick_2">
     <g id="line2d_53">
      <path d="M 443.290719 331.26405 
L 827.420406 331.26405 
" clip-path="url(#pec9ee1f52d)" style="fill: none; stroke: #b0b0b0; stroke-opacity: 0.2; stroke-width: 0.8; stroke-linecap: square"/>
     </g>
     <g id="line2d_54">
      <g>
       <use xlink:href="#m9524a346a6" x="443.290719" y="331.26405" style="stroke: #000000"/>
      </g>
     </g>
     <g id="text_34">
      <!-- 0.850 -->
      <g transform="translate(401.936969 335.823112) scale(0.12 -0.12)">
       <use xlink:href="#DejaVuSerif-30"/>
       <use xlink:href="#DejaVuSerif-2e" transform="translate(63.623047 0)"/>
       <use xlink:href="#DejaVuSerif-38" transform="translate(95.410156 0)"/>
       <use xlink:href="#DejaVuSerif-35" transform="translate(159.033203 0)"/>
       <use xlink:href="#DejaVuSerif-30" transform="translate(222.65625 0)"/>
      </g>
     </g>
    </g>
    <g id="ytick_3">
     <g id="line2d_55">
      <path d="M 443.290719 288.612737 
L 827.420406 288.612737 
" clip-path="url(#pec9ee1f52d)" style="fill: none; stroke: #b0b0b0; stroke-opacity: 0.2; stroke-width: 0.8; stroke-linecap: square"/>
     </g>
     <g id="line2d_56">
      <g>
       <use xlink:href="#m9524a346a6" x="443.290719" y="288.612737" style="stroke: #000000"/>
      </g>
     </g>
     <g id="text_35">
      <!-- 0.875 -->
      <g transform="translate(401.936969 293.1718) scale(0.12 -0.12)">
       <use xlink:href="#DejaVuSerif-30"/>
       <use xlink:href="#DejaVuSerif-2e" transform="translate(63.623047 0)"/>
       <use xlink:href="#DejaVuSerif-38" transform="translate(95.410156 0)"/>
       <use xlink:href="#DejaVuSerif-37" transform="translate(159.033203 0)"/>
       <use xlink:href="#DejaVuSerif-35" transform="translate(222.65625 0)"/>
      </g>
     </g>
    </g>
    <g id="ytick_4">
     <g id="line2d_57">
      <path d="M 443.290719 245.961425 
L 827.420406 245.961425 
" clip-path="url(#pec9ee1f52d)" style="fill: none; stroke: #b0b0b0; stroke-opacity: 0.2; stroke-width: 0.8; stroke-linecap: square"/>
     </g>
     <g id="line2d_58">
      <g>
       <use xlink:href="#m9524a346a6" x="443.290719" y="245.961425" style="stroke: #000000"/>
      </g>
     </g>
     <g id="text_36">
      <!-- 0.900 -->
      <g transform="translate(401.936969 250.520487) scale(0.12 -0.12)">
       <use xlink:href="#DejaVuSerif-30"/>
       <use xlink:href="#DejaVuSerif-2e" transform="translate(63.623047 0)"/>
       <use xlink:href="#DejaVuSerif-39" transform="translate(95.410156 0)"/>
       <use xlink:href="#DejaVuSerif-30" transform="translate(159.033203 0)"/>
       <use xlink:href="#DejaVuSerif-30" transform="translate(222.65625 0)"/>
      </g>
     </g>
    </g>
    <g id="ytick_5">
     <g id="line2d_59">
      <path d="M 443.290719 203.310112 
L 827.420406 203.310112 
" clip-path="url(#pec9ee1f52d)" style="fill: none; stroke: #b0b0b0; stroke-opacity: 0.2; stroke-width: 0.8; stroke-linecap: square"/>
     </g>
     <g id="line2d_60">
      <g>
       <use xlink:href="#m9524a346a6" x="443.290719" y="203.310112" style="stroke: #000000"/>
      </g>
     </g>
     <g id="text_37">
      <!-- 0.925 -->
      <g transform="translate(401.936969 207.869175) scale(0.12 -0.12)">
       <use xlink:href="#DejaVuSerif-30"/>
       <use xlink:href="#DejaVuSerif-2e" transform="translate(63.623047 0)"/>
       <use xlink:href="#DejaVuSerif-39" transform="translate(95.410156 0)"/>
       <use xlink:href="#DejaVuSerif-32" transform="translate(159.033203 0)"/>
       <use xlink:href="#DejaVuSerif-35" transform="translate(222.65625 0)"/>
      </g>
     </g>
    </g>
    <g id="ytick_6">
     <g id="line2d_61">
      <path d="M 443.290719 160.6588 
L 827.420406 160.6588 
" clip-path="url(#pec9ee1f52d)" style="fill: none; stroke: #b0b0b0; stroke-opacity: 0.2; stroke-width: 0.8; stroke-linecap: square"/>
     </g>
     <g id="line2d_62">
      <g>
       <use xlink:href="#m9524a346a6" x="443.290719" y="160.6588" style="stroke: #000000"/>
      </g>
     </g>
     <g id="text_38">
      <!-- 0.950 -->
      <g transform="translate(401.936969 165.217862) scale(0.12 -0.12)">
       <use xlink:href="#DejaVuSerif-30"/>
       <use xlink:href="#DejaVuSerif-2e" transform="translate(63.623047 0)"/>
       <use xlink:href="#DejaVuSerif-39" transform="translate(95.410156 0)"/>
       <use xlink:href="#DejaVuSerif-35" transform="translate(159.033203 0)"/>
       <use xlink:href="#DejaVuSerif-30" transform="translate(222.65625 0)"/>
      </g>
     </g>
    </g>
    <g id="ytick_7">
     <g id="line2d_63">
      <path d="M 443.290719 118.007487 
L 827.420406 118.007487 
" clip-path="url(#pec9ee1f52d)" style="fill: none; stroke: #b0b0b0; stroke-opacity: 0.2; stroke-width: 0.8; stroke-linecap: square"/>
     </g>
     <g id="line2d_64">
      <g>
       <use xlink:href="#m9524a346a6" x="443.290719" y="118.007487" style="stroke: #000000"/>
      </g>
     </g>
     <g id="text_39">
      <!-- 0.975 -->
      <g transform="translate(401.936969 122.56655) scale(0.12 -0.12)">
       <use xlink:href="#DejaVuSerif-30"/>
       <use xlink:href="#DejaVuSerif-2e" transform="translate(63.623047 0)"/>
       <use xlink:href="#DejaVuSerif-39" transform="translate(95.410156 0)"/>
       <use xlink:href="#DejaVuSerif-37" transform="translate(159.033203 0)"/>
       <use xlink:href="#DejaVuSerif-35" transform="translate(222.65625 0)"/>
      </g>
     </g>
    </g>
    <g id="ytick_8">
     <g id="line2d_65">
      <path d="M 443.290719 75.356175 
L 827.420406 75.356175 
" clip-path="url(#pec9ee1f52d)" style="fill: none; stroke: #b0b0b0; stroke-opacity: 0.2; stroke-width: 0.8; stroke-linecap: square"/>
     </g>
     <g id="line2d_66">
      <g>
       <use xlink:href="#m9524a346a6" x="443.290719" y="75.356175" style="stroke: #000000"/>
      </g>
     </g>
     <g id="text_40">
      <!-- 1.000 -->
      <g transform="translate(401.936969 79.915237) scale(0.12 -0.12)">
       <use xlink:href="#DejaVuSerif-31"/>
       <use xlink:href="#DejaVuSerif-2e" transform="translate(63.623047 0)"/>
       <use xlink:href="#DejaVuSerif-30" transform="translate(95.410156 0)"/>
       <use xlink:href="#DejaVuSerif-30" transform="translate(159.033203 0)"/>
       <use xlink:href="#DejaVuSerif-30" transform="translate(222.65625 0)"/>
      </g>
     </g>
    </g>
    <g id="text_41">
     <!-- Fluorescence (norm.) -->
     <g transform="translate(395.441344 277.113812) rotate(-90) scale(0.12 -0.12)">
      <defs>
       <path id="DejaVuSerif-6c" d="M 1313 331 
L 1856 331 
L 1856 0 
L 184 0 
L 184 331 
L 738 331 
L 738 4531 
L 184 4531 
L 184 4863 
L 1313 4863 
L 1313 331 
z
" transform="scale(0.015625)"/>
       <path id="DejaVuSerif-73" d="M 359 184 
L 359 959 
L 691 959 
Q 703 588 923 403 
Q 1144 219 1575 219 
Q 1963 219 2166 364 
Q 2369 509 2369 788 
Q 2369 1006 2220 1140 
Q 2072 1275 1594 1428 
L 1178 1569 
Q 750 1706 558 1912 
Q 366 2119 366 2438 
Q 366 2894 700 3153 
Q 1034 3413 1625 3413 
Q 1888 3413 2178 3344 
Q 2469 3275 2778 3144 
L 2778 2419 
L 2447 2419 
Q 2434 2741 2221 2922 
Q 2009 3103 1644 3103 
Q 1281 3103 1095 2975 
Q 909 2847 909 2591 
Q 909 2381 1050 2254 
Q 1191 2128 1613 1997 
L 2069 1856 
Q 2541 1709 2748 1489 
Q 2956 1269 2956 922 
Q 2956 450 2595 179 
Q 2234 -91 1600 -91 
Q 1278 -91 972 -22 
Q 666 47 359 184 
z
" transform="scale(0.015625)"/>
       <path id="DejaVuSerif-6d" d="M 3316 2675 
Q 3481 3041 3739 3227 
Q 3997 3413 4341 3413 
Q 4863 3413 5119 3089 
Q 5375 2766 5375 2113 
L 5375 331 
L 5894 331 
L 5894 0 
L 4300 0 
L 4300 331 
L 4800 331 
L 4800 2047 
Q 4800 2556 4650 2772 
Q 4500 2988 4153 2988 
Q 3769 2988 3567 2697 
Q 3366 2406 3366 1850 
L 3366 331 
L 3866 331 
L 3866 0 
L 2291 0 
L 2291 331 
L 2791 331 
L 2791 2069 
Q 2791 2566 2641 2777 
Q 2491 2988 2144 2988 
Q 1759 2988 1557 2697 
Q 1356 2406 1356 1850 
L 1356 331 
L 1856 331 
L 1856 0 
L 263 0 
L 263 331 
L 781 331 
L 781 2994 
L 231 2994 
L 231 3322 
L 1356 3322 
L 1356 2731 
Q 1516 3063 1762 3238 
Q 2009 3413 2322 3413 
Q 2709 3413 2968 3220 
Q 3228 3028 3316 2675 
z
" transform="scale(0.015625)"/>
      </defs>
      <use xlink:href="#DejaVuSerif-46"/>
      <use xlink:href="#DejaVuSerif-6c" transform="translate(69.384766 0)"/>
      <use xlink:href="#DejaVuSerif-75" transform="translate(101.367188 0)"/>
      <use xlink:href="#DejaVuSerif-6f" transform="translate(165.771484 0)"/>
      <use xlink:href="#DejaVuSerif-72" transform="translate(225.976562 0)"/>
      <use xlink:href="#DejaVuSerif-65" transform="translate(273.779297 0)"/>
      <use xlink:href="#DejaVuSerif-73" transform="translate(332.958984 0)"/>
      <use xlink:href="#DejaVuSerif-63" transform="translate(384.277344 0)"/>
      <use xlink:href="#DejaVuSerif-65" transform="translate(440.283203 0)"/>
      <use xlink:href="#DejaVuSerif-6e" transform="translate(499.462891 0)"/>
      <use xlink:href="#DejaVuSerif-63" transform="translate(563.867188 0)"/>
      <use xlink:href="#DejaVuSerif-65" transform="translate(619.873047 0)"/>
      <use xlink:href="#DejaVuSerif-20" transform="translate(679.052734 0)"/>
      <use xlink:href="#DejaVuSerif-28" transform="translate(710.839844 0)"/>
      <use xlink:href="#DejaVuSerif-6e" transform="translate(749.853516 0)"/>
      <use xlink:href="#DejaVuSerif-6f" transform="translate(814.257812 0)"/>
      <use xlink:href="#DejaVuSerif-72" transform="translate(874.462891 0)"/>
      <use xlink:href="#DejaVuSerif-6d" transform="translate(922.265625 0)"/>
      <use xlink:href="#DejaVuSerif-2e" transform="translate(1017.089844 0)"/>
      <use xlink:href="#DejaVuSerif-29" transform="translate(1048.876953 0)"/>
     </g>
    </g>
   </g>
   <g id="line2d_67">
    <path d="M 593.881197 382.445625 
L 593.881197 41.235125 
" clip-path="url(#pec9ee1f52d)" style="fill: none; stroke-dasharray: 0.8,1.32; stroke-dashoffset: 0; stroke: #dc2626; stroke-opacity: 0.4; stroke-width: 0.8"/>
   </g>
   <g id="line2d_68">
    <path d="M 672.173811 382.445625 
L 672.173811 41.235125 
" clip-path="url(#pec9ee1f52d)" style="fill: none; stroke-dasharray: 0.8,1.32; stroke-dashoffset: 0; stroke: #dc2626; stroke-opacity: 0.4; stroke-width: 0.8"/>
   </g>
   <g id="line2d_69">
    <path d="M 610.406512 382.445625 
L 610.406512 41.235125 
" clip-path="url(#pec9ee1f52d)" style="fill: none; stroke-dasharray: 0.8,1.32; stroke-dashoffset: 0; stroke: #2563eb; stroke-opacity: 0.4; stroke-width: 0.8"/>
   </g>
   <g id="line2d_70">
    <path d="M 655.648496 382.445625 
L 655.648496 41.235125 
" clip-path="url(#pec9ee1f52d)" style="fill: none; stroke-dasharray: 0.8,1.32; stroke-dashoffset: 0; stroke: #2563eb; stroke-opacity: 0.4; stroke-width: 0.8"/>
   </g>
   <g id="line2d_71">
    <path d="M 610.406512 382.445625 
L 610.406512 41.235125 
" clip-path="url(#pec9ee1f52d)" style="fill: none; stroke-dasharray: 0.8,1.32; stroke-dashoffset: 0; stroke: #16a34a; stroke-opacity: 0.4; stroke-width: 0.8"/>
   </g>
   <g id="line2d_72">
    <path d="M 655.648496 382.445625 
L 655.648496 41.235125 
" clip-path="url(#pec9ee1f52d)" style="fill: none; stroke-dasharray: 0.8,1.32; stroke-dashoffset: 0; stroke: #16a34a; stroke-opacity: 0.4; stroke-width: 0.8"/>
   </g>
   <g id="line2d_73">
    <path d="M 610.406512 382.445625 
L 610.406512 41.235125 
" clip-path="url(#pec9ee1f52d)" style="fill: none; stroke-dasharray: 0.8,1.32; stroke-dashoffset: 0; stroke: #ea580c; stroke-opacity: 0.4; stroke-width: 0.8"/>
   </g>
   <g id="line2d_74">
    <path d="M 655.648496 382.445625 
L 655.648496 41.235125 
" clip-path="url(#pec9ee1f52d)" style="fill: none; stroke-dasharray: 0.8,1.32; stroke-dashoffset: 0; stroke: #ea580c; stroke-opacity: 0.4; stroke-width: 0.8"/>
   </g>
   <g id="line2d_75">
    <path d="M 460.751159 75.632216 
L 506.047 75.90023 
L 529.568233 76.242958 
L 543.890568 76.657234 
L 553.555233 77.147238 
L 560.308855 77.697937 
L 565.432292 78.330545 
L 569.27487 79.016689 
L 572.302355 79.767333 
L 574.747632 80.584875 
L 576.843583 81.512915 
L 578.59021 82.522221 
L 580.103952 83.647221 
L 581.384812 84.85472 
L 582.549229 86.234037 
L 583.597205 87.788472 
L 584.645181 89.748375 
L 585.576715 91.954229 
L 586.508249 94.757224 
L 587.323341 97.870696 
L 588.138433 101.808762 
L 588.953525 106.82716 
L 589.768618 113.21836 
L 590.700152 122.498885 
L 591.981011 138.091957 
L 592.912545 148.639804 
L 593.378312 152.18469 
L 593.727637 153.653334 
L 593.960521 153.99604 
L 594.076962 153.973017 
L 594.309846 153.547751 
L 594.659171 152.032894 
L 595.124938 148.6886 
L 596.056472 139.673994 
L 597.22089 128.904398 
L 598.035982 123.420849 
L 598.734632 120.247285 
L 599.316841 118.612322 
L 599.782608 117.917382 
L 600.131933 117.735201 
L 600.481259 117.834474 
L 600.830584 118.210832 
L 601.296351 119.143354 
L 601.762118 120.578088 
L 602.344327 123.115117 
L 603.042977 127.358327 
L 603.741628 133.110227 
L 604.440278 140.668933 
L 605.25537 152.295303 
L 606.070462 167.646647 
L 606.885555 187.379462 
L 607.93353 219.005689 
L 609.330831 262.166459 
L 609.796598 271.619724 
L 610.145924 275.514374 
L 610.378807 276.354143 
L 610.495249 276.225978 
L 610.728132 274.878696 
L 611.077458 270.264676 
L 611.543225 259.992961 
L 612.358317 235.01818 
L 613.988501 183.435493 
L 614.920035 160.825403 
L 615.851569 143.620463 
L 616.783103 130.72124 
L 617.714637 121.02756 
L 618.646171 113.670886 
L 619.577705 108.017499 
L 620.509239 103.617029 
L 621.557215 99.771114 
L 622.605191 96.792657 
L 623.653167 94.462438 
L 624.701142 92.626883 
L 625.86556 91.035973 
L 627.029977 89.815917 
L 628.194395 88.892737 
L 629.475254 88.158972 
L 630.756113 87.675739 
L 632.036973 87.414026 
L 633.434274 87.36366 
L 634.715133 87.530194 
L 635.995992 87.909764 
L 637.276851 88.524743 
L 638.441269 89.319656 
L 639.605686 90.383204 
L 640.770104 91.777229 
L 641.81808 93.386759 
L 642.866055 95.425721 
L 643.797589 97.700009 
L 644.729123 100.536154 
L 645.660657 104.103805 
L 646.592191 108.639337 
L 647.407284 113.660194 
L 648.222376 119.981718 
L 649.037468 128.018322 
L 649.85256 138.319676 
L 650.667653 151.581691 
L 651.482745 168.588254 
L 652.414279 193.370326 
L 653.695138 234.966383 
L 654.626672 262.897902 
L 655.092439 272.107588 
L 655.441764 275.723426 
L 655.674648 276.354847 
L 655.79109 276.121495 
L 656.023973 274.571684 
L 656.373298 269.700627 
L 656.839065 259.230676 
L 657.654158 234.3889 
L 659.284342 184.319897 
L 660.215876 162.867814 
L 661.030968 148.650165 
L 661.846061 137.943888 
L 662.661153 130.041985 
L 663.476245 124.385453 
L 664.174896 121.023788 
L 664.757104 119.147293 
L 665.222871 118.213121 
L 665.688638 117.771108 
L 666.037963 117.763738 
L 666.387289 118.040059 
L 666.736614 118.609122 
L 667.202381 119.844351 
L 667.78459 122.202247 
L 668.366798 125.523172 
L 669.065449 130.806133 
L 670.113425 140.841285 
L 671.1614 150.509294 
L 671.627167 153.14767 
L 671.976493 153.971842 
L 672.092934 153.996582 
L 672.325818 153.657335 
L 672.558701 152.804837 
L 672.908027 150.628261 
L 673.490235 145.079486 
L 674.771095 129.347238 
L 675.935512 116.458404 
L 676.867046 108.511905 
L 677.79858 102.461657 
L 678.730114 97.87734 
L 679.661648 94.372526 
L 680.593182 91.653571 
L 681.641158 89.273933 
L 682.689134 87.414797 
L 683.853551 85.788559 
L 685.13441 84.384676 
L 686.531711 83.182491 
L 688.161896 82.08798 
L 690.024964 81.121894 
L 692.120915 80.286365 
L 694.682634 79.511142 
L 697.826561 78.805552 
L 701.669139 78.179995 
L 706.559692 77.617836 
L 712.963989 77.117268 
L 721.580678 76.680389 
L 733.69062 76.305693 
L 751.506208 75.99552 
L 779.685111 75.748914 
L 809.959966 75.616796 
L 809.959966 75.616796 
" clip-path="url(#pec9ee1f52d)" style="fill: none; stroke: #000000; stroke-width: 1.5; stroke-linecap: square"/>
   </g>
   <g id="patch_8">
    <path d="M 443.290719 382.445625 
L 443.290719 41.235125 
" style="fill: none; stroke: #000000; stroke-width: 1.2; stroke-linejoin: miter; stroke-linecap: square"/>
   </g>
   <g id="patch_9">
    <path d="M 827.420406 382.445625 
L 827.420406 41.235125 
" style="fill: none; stroke: #000000; stroke-width: 1.2; stroke-linejoin: miter; stroke-linecap: square"/>
   </g>
   <g id="patch_10">
    <path d="M 443.290719 382.445625 
L 827.420406 382.445625 
" style="fill: none; stroke: #000000; stroke-width: 1.2; stroke-linejoin: miter; stroke-linecap: square"/>
   </g>
   <g id="patch_11">
    <path d="M 443.290719 41.235125 
L 827.420406 41.235125 
" style="fill: none; stroke: #000000; stroke-width: 1.2; stroke-linejoin: miter; stroke-linecap: square"/>
   </g>
   <g id="text_42">
    <!-- Vector Magnetometry -->
    <g transform="translate(556.418141 20.493125) scale(0.13 -0.13)">
     <defs>
      <path id="DejaVuSerif-Bold-4d" d="M 269 0 
L 269 378 
L 863 378 
L 863 4288 
L 269 4288 
L 269 4666 
L 2194 4666 
L 3525 1672 
L 4863 4666 
L 6784 4666 
L 6784 4288 
L 6188 4288 
L 6188 378 
L 6784 378 
L 6784 0 
L 4384 0 
L 4384 378 
L 4978 378 
L 4978 3938 
L 3531 684 
L 2741 684 
L 1300 3938 
L 1300 378 
L 1894 378 
L 1894 0 
L 269 0 
z
" transform="scale(0.015625)"/>
      <path id="DejaVuSerif-Bold-67" d="M 3853 2944 
L 3853 44 
Q 3853 -656 3354 -1039 
Q 2856 -1422 1947 -1422 
Q 1616 -1422 1275 -1370 
Q 934 -1319 575 -1216 
L 575 -422 
L 928 -422 
Q 975 -750 1192 -909 
Q 1409 -1069 1813 -1069 
Q 2325 -1069 2536 -823 
Q 2747 -578 2747 44 
L 2747 422 
Q 2606 163 2367 36 
Q 2128 -91 1778 -91 
Q 1072 -91 667 378 
Q 263 847 263 1663 
Q 263 2481 667 2947 
Q 1072 3413 1778 3413 
Q 2128 3413 2367 3286 
Q 2606 3159 2747 2900 
L 2747 3322 
L 4325 3322 
L 4325 2944 
L 3853 2944 
z
M 2747 1825 
Q 2747 2406 2597 2665 
Q 2447 2925 2119 2925 
Q 1775 2925 1636 2651 
Q 1497 2378 1497 1663 
Q 1497 947 1637 672 
Q 1778 397 2119 397 
Q 2447 397 2597 656 
Q 2747 916 2747 1497 
L 2747 1825 
z
" transform="scale(0.015625)"/>
      <path id="DejaVuSerif-Bold-79" d="M 1997 -750 
Q 1847 -1116 1634 -1269 
Q 1422 -1422 1063 -1422 
Q 909 -1422 721 -1387 
Q 534 -1353 313 -1288 
L 313 -594 
L 666 -597 
Q 675 -838 779 -953 
Q 884 -1069 1094 -1069 
Q 1297 -1069 1422 -958 
Q 1547 -847 1672 -538 
L 1722 -422 
L 275 2944 
L -84 2944 
L -84 3322 
L 1831 3322 
L 1831 2944 
L 1434 2944 
L 2278 978 
L 3066 2944 
L 2625 2944 
L 2625 3322 
L 3872 3322 
L 3872 2944 
L 3469 2944 
L 1997 -750 
z
" transform="scale(0.015625)"/>
     </defs>
     <use xlink:href="#DejaVuSerif-Bold-56"/>
     <use xlink:href="#DejaVuSerif-Bold-65" transform="translate(68.462891 0)"/>
     <use xlink:href="#DejaVuSerif-Bold-63" transform="translate(132.085938 0)"/>
     <use xlink:href="#DejaVuSerif-Bold-74" transform="translate(192.974609 0)"/>
     <use xlink:href="#DejaVuSerif-Bold-6f" transform="translate(239.166016 0)"/>
     <use xlink:href="#DejaVuSerif-Bold-72" transform="translate(305.865234 0)"/>
     <use xlink:href="#DejaVuSerif-Bold-20" transform="translate(358.550781 0)"/>
     <use xlink:href="#DejaVuSerif-Bold-4d" transform="translate(393.365234 0)"/>
     <use xlink:href="#DejaVuSerif-Bold-61" transform="translate(504.058594 0)"/>
     <use xlink:href="#DejaVuSerif-Bold-67" transform="translate(568.853516 0)"/>
     <use xlink:href="#DejaVuSerif-Bold-6e" transform="translate(638.775391 0)"/>
     <use xlink:href="#DejaVuSerif-Bold-65" transform="translate(711.480469 0)"/>
     <use xlink:href="#DejaVuSerif-Bold-74" transform="translate(775.103516 0)"/>
     <use xlink:href="#DejaVuSerif-Bold-6f" transform="translate(821.294922 0)"/>
     <use xlink:href="#DejaVuSerif-Bold-6d" transform="translate(887.994141 0)"/>
     <use xlink:href="#DejaVuSerif-Bold-65" transform="translate(993.804688 0)"/>
     <use xlink:href="#DejaVuSerif-Bold-74" transform="translate(1057.427734 0)"/>
     <use xlink:href="#DejaVuSerif-Bold-72" transform="translate(1103.619141 0)"/>
     <use xlink:href="#DejaVuSerif-Bold-79" transform="translate(1156.304688 0)"/>
    </g>
    <!-- (8 dips from 4 orientations) -->
    <g transform="translate(533.959625 35.235125) scale(0.13 -0.13)">
     <defs>
      <path id="DejaVuSerif-Bold-28" d="M 2694 -997 
Q 1641 -606 1122 122 
Q 603 850 603 1931 
Q 603 3013 1115 3731 
Q 1628 4450 2694 4863 
L 2694 4488 
Q 2200 4188 1983 3598 
Q 1766 3009 1766 1931 
Q 1766 856 1983 267 
Q 2200 -322 2694 -622 
L 2694 -997 
z
" transform="scale(0.015625)"/>
      <path id="DejaVuSerif-Bold-38" d="M 2975 2484 
Q 3531 2394 3820 2075 
Q 4109 1756 4109 1241 
Q 4109 597 3623 253 
Q 3138 -91 2222 -91 
Q 1306 -91 818 253 
Q 331 597 331 1241 
Q 331 1756 622 2075 
Q 913 2394 1466 2484 
Q 975 2597 731 2861 
Q 488 3125 488 3531 
Q 488 4125 931 4437 
Q 1375 4750 2222 4750 
Q 3066 4750 3511 4437 
Q 3956 4125 3956 3531 
Q 3956 3125 3711 2861 
Q 3466 2597 2975 2484 
z
M 2747 3519 
Q 2747 4013 2628 4198 
Q 2509 4384 2222 4384 
Q 1931 4384 1814 4198 
Q 1697 4013 1697 3519 
Q 1697 3028 1814 2845 
Q 1931 2663 2222 2663 
Q 2513 2663 2630 2845 
Q 2747 3028 2747 3519 
z
M 2869 1294 
Q 2869 1866 2723 2081 
Q 2578 2297 2222 2297 
Q 1863 2297 1719 2081 
Q 1575 1866 1575 1294 
Q 1575 716 1720 495 
Q 1866 275 2222 275 
Q 2575 275 2722 495 
Q 2869 716 2869 1294 
z
" transform="scale(0.015625)"/>
      <path id="DejaVuSerif-Bold-70" d="M 1728 1825 
L 1728 1497 
Q 1728 916 1876 656 
Q 2025 397 2356 397 
Q 2697 397 2836 672 
Q 2975 947 2975 1663 
Q 2975 2378 2836 2651 
Q 2697 2925 2356 2925 
Q 2025 2925 1876 2665 
Q 1728 2406 1728 1825 
z
M 622 2944 
L 147 2944 
L 147 3322 
L 1728 3322 
L 1728 2900 
Q 1869 3159 2106 3286 
Q 2344 3413 2694 3413 
Q 3403 3413 3811 2945 
Q 4219 2478 4219 1663 
Q 4219 847 3811 378 
Q 3403 -91 2694 -91 
Q 2344 -91 2106 36 
Q 1869 163 1728 422 
L 1728 -953 
L 2241 -953 
L 2241 -1331 
L 147 -1331 
L 147 -953 
L 622 -953 
L 622 2944 
z
" transform="scale(0.015625)"/>
      <path id="DejaVuSerif-Bold-66" d="M 3097 4031 
L 2747 4031 
Q 2722 4275 2605 4394 
Q 2488 4513 2272 4513 
Q 2022 4513 1909 4333 
Q 1797 4153 1797 3750 
L 1797 3322 
L 2631 3322 
L 2631 2944 
L 1797 2944 
L 1797 378 
L 2438 378 
L 2438 0 
L 219 0 
L 219 378 
L 691 378 
L 691 2944 
L 197 2944 
L 197 3322 
L 691 3322 
L 691 3738 
Q 691 4291 1044 4577 
Q 1397 4863 2081 4863 
Q 2347 4863 2600 4833 
Q 2853 4803 3097 4744 
L 3097 4031 
z
" transform="scale(0.015625)"/>
      <path id="DejaVuSerif-Bold-34" d="M 4084 0 
L 1516 0 
L 1516 378 
L 2209 378 
L 2209 1228 
L 263 1228 
L 263 1588 
L 2216 4750 
L 3391 4750 
L 3391 1631 
L 4191 1631 
L 4191 1228 
L 3391 1228 
L 3391 378 
L 4084 378 
L 4084 0 
z
M 2209 1631 
L 2209 3897 
L 819 1631 
L 2209 1631 
z
" transform="scale(0.015625)"/>
      <path id="DejaVuSerif-Bold-29" d="M 325 -997 
L 325 -622 
Q 819 -322 1036 267 
Q 1253 856 1253 1931 
Q 1253 3009 1036 3598 
Q 819 4188 325 4488 
L 325 4863 
Q 1391 4450 1905 3731 
Q 2419 3013 2419 1931 
Q 2419 850 1898 122 
Q 1378 -606 325 -997 
z
" transform="scale(0.015625)"/>
     </defs>
     <use xlink:href="#DejaVuSerif-Bold-28"/>
     <use xlink:href="#DejaVuSerif-Bold-38" transform="translate(47.314453 0)"/>
     <use xlink:href="#DejaVuSerif-Bold-20" transform="translate(116.894531 0)"/>
     <use xlink:href="#DejaVuSerif-Bold-64" transform="translate(151.708984 0)"/>
     <use xlink:href="#DejaVuSerif-Bold-69" transform="translate(221.630859 0)"/>
     <use xlink:href="#DejaVuSerif-Bold-70" transform="translate(259.619141 0)"/>
     <use xlink:href="#DejaVuSerif-Bold-73" transform="translate(329.541016 0)"/>
     <use xlink:href="#DejaVuSerif-Bold-20" transform="translate(385.839844 0)"/>
     <use xlink:href="#DejaVuSerif-Bold-66" transform="translate(420.654297 0)"/>
     <use xlink:href="#DejaVuSerif-Bold-72" transform="translate(463.671875 0)"/>
     <use xlink:href="#DejaVuSerif-Bold-6f" transform="translate(516.357422 0)"/>
     <use xlink:href="#DejaVuSerif-Bold-6d" transform="translate(583.056641 0)"/>
     <use xlink:href="#DejaVuSerif-Bold-20" transform="translate(688.867188 0)"/>
     <use xlink:href="#DejaVuSerif-Bold-34" transform="translate(723.681641 0)"/>
     <use xlink:href="#DejaVuSerif-Bold-20" transform="translate(793.261719 0)"/>
     <use xlink:href="#DejaVuSerif-Bold-6f" transform="translate(828.076172 0)"/>
     <use xlink:href="#DejaVuSerif-Bold-72" transform="translate(894.775391 0)"/>
     <use xlink:href="#DejaVuSerif-Bold-69" transform="translate(947.460938 0)"/>
     <use xlink:href="#DejaVuSerif-Bold-65" transform="translate(985.449219 0)"/>
     <use xlink:href="#DejaVuSerif-Bold-6e" transform="translate(1049.072266 0)"/>
     <use xlink:href="#DejaVuSerif-Bold-74" transform="translate(1121.777344 0)"/>
     <use xlink:href="#DejaVuSerif-Bold-61" transform="translate(1167.96875 0)"/>
     <use xlink:href="#DejaVuSerif-Bold-74" transform="translate(1232.763672 0)"/>
     <use xlink:href="#DejaVuSerif-Bold-69" transform="translate(1278.955078 0)"/>
     <use xlink:href="#DejaVuSerif-Bold-6f" transform="translate(1316.943359 0)"/>
     <use xlink:href="#DejaVuSerif-Bold-6e" transform="translate(1383.642578 0)"/>
     <use xlink:href="#DejaVuSerif-Bold-73" transform="translate(1456.347656 0)"/>
     <use xlink:href="#DejaVuSerif-Bold-29" transform="translate(1512.646484 0)"/>
    </g>
   </g>
   <g id="legend_2">
    <g id="patch_12">
     <path d="M 449.590719 377.945625 
L 502.600719 377.945625 
Q 504.400719 377.945625 504.400719 376.145625 
L 504.400719 321.445312 
Q 504.400719 319.645313 502.600719 319.645313 
L 449.590719 319.645313 
Q 447.790719 319.645313 447.790719 321.445312 
L 447.790719 376.145625 
Q 447.790719 377.945625 449.590719 377.945625 
z
" style="fill: #ffffff; opacity: 0.8; stroke: #cccccc; stroke-linejoin: miter"/>
    </g>
    <g id="patch_13">
     <path d="M 451.390719 330.083906 
L 469.390719 330.083906 
L 469.390719 323.783906 
L 451.390719 323.783906 
z
" style="fill: #dc2626; stroke: #dc2626; stroke-linejoin: miter"/>
    </g>
    <g id="text_43">
     <!-- [111] -->
     <g transform="translate(476.590719 330.083906) scale(0.09 -0.09)">
      <use xlink:href="#DejaVuSerif-5b"/>
      <use xlink:href="#DejaVuSerif-31" transform="translate(39.013672 0)"/>
      <use xlink:href="#DejaVuSerif-31" transform="translate(102.636719 0)"/>
      <use xlink:href="#DejaVuSerif-31" transform="translate(166.259766 0)"/>
      <use xlink:href="#DejaVuSerif-5d" transform="translate(229.882812 0)"/>
     </g>
    </g>
    <g id="patch_14">
     <path d="M 451.390719 344.213906 
L 469.390719 344.213906 
L 469.390719 337.913906 
L 451.390719 337.913906 
z
" style="fill: #2563eb; stroke: #2563eb; stroke-linejoin: miter"/>
    </g>
    <g id="text_44">
     <!-- [1$\bar{1}\bar{1}$] -->
     <g transform="translate(476.590719 344.213906) scale(0.09 -0.09)">
      <use xlink:href="#DejaVuSerif-5b" transform="translate(0 0.359375)"/>
      <use xlink:href="#DejaVuSerif-31" transform="translate(39.013672 0.359375)"/>
      <use xlink:href="#DejaVuSans-304" transform="translate(166.88623 18.484375)"/>
      <use xlink:href="#DejaVuSans-31" transform="translate(102.636719 0.359375)"/>
      <use xlink:href="#DejaVuSans-304" transform="translate(230.509277 18.484375)"/>
      <use xlink:href="#DejaVuSans-31" transform="translate(166.259766 0.359375)"/>
      <use xlink:href="#DejaVuSerif-5d" transform="translate(229.882812 0.359375)"/>
     </g>
    </g>
    <g id="patch_15">
     <path d="M 451.390719 358.343906 
L 469.390719 358.343906 
L 469.390719 352.043906 
L 451.390719 352.043906 
z
" style="fill: #16a34a; stroke: #16a34a; stroke-linejoin: miter"/>
    </g>
    <g id="text_45">
     <!-- [$\bar{1}$1$\bar{1}$] -->
     <g transform="translate(476.590719 358.343906) scale(0.09 -0.09)">
      <use xlink:href="#DejaVuSerif-5b" transform="translate(0 0.359375)"/>
      <use xlink:href="#DejaVuSans-304" transform="translate(103.263184 18.484375)"/>
      <use xlink:href="#DejaVuSans-31" transform="translate(39.013672 0.359375)"/>
      <use xlink:href="#DejaVuSerif-31" transform="translate(102.636719 0.359375)"/>
      <use xlink:href="#DejaVuSans-304" transform="translate(230.509277 18.484375)"/>
      <use xlink:href="#DejaVuSans-31" transform="translate(166.259766 0.359375)"/>
      <use xlink:href="#DejaVuSerif-5d" transform="translate(229.882812 0.359375)"/>
     </g>
    </g>
    <g id="patch_16">
     <path d="M 451.390719 372.473906 
L 469.390719 372.473906 
L 469.390719 366.173906 
L 451.390719 366.173906 
z
" style="fill: #ea580c; stroke: #ea580c; stroke-linejoin: miter"/>
    </g>
    <g id="text_46">
     <!-- [$\bar{1}\bar{1}$1] -->
     <g transform="translate(476.590719 372.473906) scale(0.09 -0.09)">
      <use xlink:href="#DejaVuSerif-5b" transform="translate(0 0.359375)"/>
      <use xlink:href="#DejaVuSans-304" transform="translate(103.263184 18.484375)"/>
      <use xlink:href="#DejaVuSans-31" transform="translate(39.013672 0.359375)"/>
      <use xlink:href="#DejaVuSans-304" transform="translate(166.88623 18.484375)"/>
      <use xlink:href="#DejaVuSans-31" transform="translate(102.636719 0.359375)"/>
      <use xlink:href="#DejaVuSerif-31" transform="translate(166.259766 0.359375)"/>
      <use xlink:href="#DejaVuSerif-5d" transform="translate(229.882812 0.359375)"/>
     </g>
    </g>
   </g>
  </g>
 </g>
 <defs>
  <clipPath id="p08a8e9812c">
   <rect x="10.8" y="41.235125" width="341.2105" height="341.2105"/>
  </clipPath>
  <clipPath id="pec9ee1f52d">
   <rect x="443.290719" y="41.235125" width="384.129687" height="341.2105"/>
  </clipPath>
 </defs>
</svg>
