<?xml version="1.0" encoding="utf-8" standalone="no"?>
<!DOCTYPE svg PUBLIC "-//W3C//DTD SVG 1.1//EN"
  "http://www.w3.org/Graphics/SVG/1.1/DTD/svg11.dtd">
<svg xmlns:xlink="http://www.w3.org/1999/xlink" width="566.856875pt" height="353.673812pt" viewBox="0 0 566.856875 353.673812" xmlns="http://www.w3.org/2000/svg" version="1.1">
 <metadata>
  <rdf:RDF xmlns:dc="http://purl.org/dc/elements/1.1/" xmlns:cc="http://creativecommons.org/ns#" xmlns:rdf="http://www.w3.org/1999/02/22-rdf-syntax-ns#">
   <cc:Work>
    <dc:type rdf:resource="http://purl.org/dc/dcmitype/StillImage"/>
    <dc:date>2026-02-13T10:00:19.344314</dc:date>
    <dc:format>image/svg+xml</dc:format>
    <dc:creator>
     <cc:Agent>
      <dc:title>Matplotlib v3.10.8, https://matplotlib.org/</dc:title>
     </cc:Agent>
    </dc:creator>
   </cc:Work>
  </rdf:RDF>
 </metadata>
 <defs>
  <style type="text/css">*{stroke-linejoin: round; stroke-linecap: butt}</style>
 </defs>
 <g id="figure_1">
  <g id="patch_1">
   <path d="M 0 353.673812 
L 566.856875 353.673812 
L 566.856875 0 
L 0 0 
z
" style="fill: #ffffff"/>
  </g>
  <g id="axes_1">
   <g id="patch_2">
    <path d="M 58.896875 315.621938 
L 561.096875 315.621938 
L 561.096875 21.789938 
L 58.896875 21.789938 
z
" style="fill: #ffffff"/>
   </g>
   <g id="matplotlib.axis_1">
    <g id="xtick_1">
     <g id="line2d_1">
      <path d="M 81.724148 315.621938 
L 81.724148 21.789938 
" clip-path="url(#pff93bac947)" style="fill: none; stroke: #b0b0b0; stroke-opacity: 0.25; stroke-width: 0.8; stroke-linecap: square"/>
     </g>
     <g id="line2d_2">
      <defs>
       <path id="mcc03f78ffc" d="M 0 0 
L 0 3.5 
" style="stroke: #000000"/>
      </defs>
      <g>
       <use xlink:href="#mcc03f78ffc" x="81.724148" y="315.621938" style="stroke: #000000"/>
      </g>
     </g>
     <g id="text_1">
      <!-- 2.84 -->
      <g transform="translate(69.478054 330.980219) scale(0.11 -0.11)">
       <defs>
        <path id="DejaVuSans-32" d="M 1228 531 
L 3431 531 
L 3431 0 
L 469 0 
L 469 531 
Q 828 903 1448 1529 
Q 2069 2156 2228 2338 
Q 2531 2678 2651 2914 
Q 2772 3150 2772 3378 
Q 2772 3750 2511 3984 
Q 2250 4219 1831 4219 
Q 1534 4219 1204 4116 
Q 875 4013 500 3803 
L 500 4441 
Q 881 4594 1212 4672 
Q 1544 4750 1819 4750 
Q 2544 4750 2975 4387 
Q 3406 4025 3406 3419 
Q 3406 3131 3298 2873 
Q 3191 2616 2906 2266 
Q 2828 2175 2409 1742 
Q 1991 1309 1228 531 
z
" transform="scale(0.015625)"/>
        <path id="DejaVuSans-2e" d="M 684 794 
L 1344 794 
L 1344 0 
L 684 0 
L 684 794 
z
" transform="scale(0.015625)"/>
        <path id="DejaVuSans-38" d="M 2034 2216 
Q 1584 2216 1326 1975 
Q 1069 1734 1069 1313 
Q 1069 891 1326 650 
Q 1584 409 2034 409 
Q 2484 409 2743 651 
Q 3003 894 3003 1313 
Q 3003 1734 2745 1975 
Q 2488 2216 2034 2216 
z
M 1403 2484 
Q 997 2584 770 2862 
Q 544 3141 544 3541 
Q 544 4100 942 4425 
Q 1341 4750 2034 4750 
Q 2731 4750 3128 4425 
Q 3525 4100 3525 3541 
Q 3525 3141 3298 2862 
Q 3072 2584 2669 2484 
Q 3125 2378 3379 2068 
Q 3634 1759 3634 1313 
Q 3634 634 3220 271 
Q 2806 -91 2034 -91 
Q 1263 -91 848 271 
Q 434 634 434 1313 
Q 434 1759 690 2068 
Q 947 2378 1403 2484 
z
M 1172 3481 
Q 1172 3119 1398 2916 
Q 1625 2713 2034 2713 
Q 2441 2713 2670 2916 
Q 2900 3119 2900 3481 
Q 2900 3844 2670 4047 
Q 2441 4250 2034 4250 
Q 1625 4250 1398 4047 
Q 1172 3844 1172 3481 
z
" transform="scale(0.015625)"/>
        <path id="DejaVuSans-34" d="M 2419 4116 
L 825 1625 
L 2419 1625 
L 2419 4116 
z
M 2253 4666 
L 3047 4666 
L 3047 1625 
L 3713 1625 
L 3713 1100 
L 3047 1100 
L 3047 0 
L 2419 0 
L 2419 1100 
L 313 1100 
L 313 1709 
L 2253 4666 
z
" transform="scale(0.015625)"/>
       </defs>
       <use xlink:href="#DejaVuSans-32"/>
       <use xlink:href="#DejaVuSans-2e" transform="translate(63.623047 0)"/>
       <use xlink:href="#DejaVuSans-38" transform="translate(95.410156 0)"/>
       <use xlink:href="#DejaVuSans-34" transform="translate(159.033203 0)"/>
      </g>
     </g>
    </g>
    <g id="xtick_2">
     <g id="line2d_3">
      <path d="M 173.033239 315.621938 
L 173.033239 21.789938 
" clip-path="url(#pff93bac947)" style="fill: none; stroke: #b0b0b0; stroke-opacity: 0.25; stroke-width: 0.8; stroke-linecap: square"/>
     </g>
     <g id="line2d_4">
      <g>
       <use xlink:href="#mcc03f78ffc" x="173.033239" y="315.621938" style="stroke: #000000"/>
      </g>
     </g>
     <g id="text_2">
      <!-- 2.85 -->
      <g transform="translate(160.787145 330.980219) scale(0.11 -0.11)">
       <defs>
        <path id="DejaVuSans-35" d="M 691 4666 
L 3169 4666 
L 3169 4134 
L 1269 4134 
L 1269 2991 
Q 1406 3038 1543 3061 
Q 1681 3084 1819 3084 
Q 2600 3084 3056 2656 
Q 3513 2228 3513 1497 
Q 3513 744 3044 326 
Q 2575 -91 1722 -91 
Q 1428 -91 1123 -41 
Q 819 9 494 109 
L 494 744 
Q 775 591 1075 516 
Q 1375 441 1709 441 
Q 2250 441 2565 725 
Q 2881 1009 2881 1497 
Q 2881 1984 2565 2268 
Q 2250 2553 1709 2553 
Q 1456 2553 1204 2497 
Q 953 2441 691 2322 
L 691 4666 
z
" transform="scale(0.015625)"/>
       </defs>
       <use xlink:href="#DejaVuSans-32"/>
       <use xlink:href="#DejaVuSans-2e" transform="translate(63.623047 0)"/>
       <use xlink:href="#DejaVuSans-38" transform="translate(95.410156 0)"/>
       <use xlink:href="#DejaVuSans-35" transform="translate(159.033203 0)"/>
      </g>
     </g>
    </g>
    <g id="xtick_3">
     <g id="line2d_5">
      <path d="M 264.34233 315.621938 
L 264.34233 21.789938 
" clip-path="url(#pff93bac947)" style="fill: none; stroke: #b0b0b0; stroke-opacity: 0.25; stroke-width: 0.8; stroke-linecap: square"/>
     </g>
     <g id="line2d_6">
      <g>
       <use xlink:href="#mcc03f78ffc" x="264.34233" y="315.621938" style="stroke: #000000"/>
      </g>
     </g>
     <g id="text_3">
      <!-- 2.86 -->
      <g transform="translate(252.096236 330.980219) scale(0.11 -0.11)">
       <defs>
        <path id="DejaVuSans-36" d="M 2113 2584 
Q 1688 2584 1439 2293 
Q 1191 2003 1191 1497 
Q 1191 994 1439 701 
Q 1688 409 2113 409 
Q 2538 409 2786 701 
Q 3034 994 3034 1497 
Q 3034 2003 2786 2293 
Q 2538 2584 2113 2584 
z
M 3366 4563 
L 3366 3988 
Q 3128 4100 2886 4159 
Q 2644 4219 2406 4219 
Q 1781 4219 1451 3797 
Q 1122 3375 1075 2522 
Q 1259 2794 1537 2939 
Q 1816 3084 2150 3084 
Q 2853 3084 3261 2657 
Q 3669 2231 3669 1497 
Q 3669 778 3244 343 
Q 2819 -91 2113 -91 
Q 1303 -91 875 529 
Q 447 1150 447 2328 
Q 447 3434 972 4092 
Q 1497 4750 2381 4750 
Q 2619 4750 2861 4703 
Q 3103 4656 3366 4563 
z
" transform="scale(0.015625)"/>
       </defs>
       <use xlink:href="#DejaVuSans-32"/>
       <use xlink:href="#DejaVuSans-2e" transform="translate(63.623047 0)"/>
       <use xlink:href="#DejaVuSans-38" transform="translate(95.410156 0)"/>
       <use xlink:href="#DejaVuSans-36" transform="translate(159.033203 0)"/>
      </g>
     </g>
    </g>
    <g id="xtick_4">
     <g id="line2d_7">
      <path d="M 355.65142 315.621938 
L 355.65142 21.789938 
" clip-path="url(#pff93bac947)" style="fill: none; stroke: #b0b0b0; stroke-opacity: 0.25; stroke-width: 0.8; stroke-linecap: square"/>
     </g>
     <g id="line2d_8">
      <g>
       <use xlink:href="#mcc03f78ffc" x="355.65142" y="315.621938" style="stroke: #000000"/>
      </g>
     </g>
     <g id="text_4">
      <!-- 2.87 -->
      <g transform="translate(343.405327 330.980219) scale(0.11 -0.11)">
       <defs>
        <path id="DejaVuSans-37" d="M 525 4666 
L 3525 4666 
L 3525 4397 
L 1831 0 
L 1172 0 
L 2766 4134 
L 525 4134 
L 525 4666 
z
" transform="scale(0.015625)"/>
       </defs>
       <use xlink:href="#DejaVuSans-32"/>
       <use xlink:href="#DejaVuSans-2e" transform="translate(63.623047 0)"/>
       <use xlink:href="#DejaVuSans-38" transform="translate(95.410156 0)"/>
       <use xlink:href="#DejaVuSans-37" transform="translate(159.033203 0)"/>
      </g>
     </g>
    </g>
    <g id="xtick_5">
     <g id="line2d_9">
      <path d="M 446.960511 315.621938 
L 446.960511 21.789938 
" clip-path="url(#pff93bac947)" style="fill: none; stroke: #b0b0b0; stroke-opacity: 0.25; stroke-width: 0.8; stroke-linecap: square"/>
     </g>
     <g id="line2d_10">
      <g>
       <use xlink:href="#mcc03f78ffc" x="446.960511" y="315.621938" style="stroke: #000000"/>
      </g>
     </g>
     <g id="text_5">
      <!-- 2.88 -->
      <g transform="translate(434.714418 330.980219) scale(0.11 -0.11)">
       <use xlink:href="#DejaVuSans-32"/>
       <use xlink:href="#DejaVuSans-2e" transform="translate(63.623047 0)"/>
       <use xlink:href="#DejaVuSans-38" transform="translate(95.410156 0)"/>
       <use xlink:href="#DejaVuSans-38" transform="translate(159.033203 0)"/>
      </g>
     </g>
    </g>
    <g id="xtick_6">
     <g id="line2d_11">
      <path d="M 538.269602 315.621938 
L 538.269602 21.789938 
" clip-path="url(#pff93bac947)" style="fill: none; stroke: #b0b0b0; stroke-opacity: 0.25; stroke-width: 0.8; stroke-linecap: square"/>
     </g>
     <g id="line2d_12">
      <g>
       <use xlink:href="#mcc03f78ffc" x="538.269602" y="315.621938" style="stroke: #000000"/>
      </g>
     </g>
     <g id="text_6">
      <!-- 2.89 -->
      <g transform="translate(526.023509 330.980219) scale(0.11 -0.11)">
       <defs>
        <path id="DejaVuSans-39" d="M 703 97 
L 703 672 
Q 941 559 1184 500 
Q 1428 441 1663 441 
Q 2288 441 2617 861 
Q 2947 1281 2994 2138 
Q 2813 1869 2534 1725 
Q 2256 1581 1919 1581 
Q 1219 1581 811 2004 
Q 403 2428 403 3163 
Q 403 3881 828 4315 
Q 1253 4750 1959 4750 
Q 2769 4750 3195 4129 
Q 3622 3509 3622 2328 
Q 3622 1225 3098 567 
Q 2575 -91 1691 -91 
Q 1453 -91 1209 -44 
Q 966 3 703 97 
z
M 1959 2075 
Q 2384 2075 2632 2365 
Q 2881 2656 2881 3163 
Q 2881 3666 2632 3958 
Q 2384 4250 1959 4250 
Q 1534 4250 1286 3958 
Q 1038 3666 1038 3163 
Q 1038 2656 1286 2365 
Q 1534 2075 1959 2075 
z
" transform="scale(0.015625)"/>
       </defs>
       <use xlink:href="#DejaVuSans-32"/>
       <use xlink:href="#DejaVuSans-2e" transform="translate(63.623047 0)"/>
       <use xlink:href="#DejaVuSans-38" transform="translate(95.410156 0)"/>
       <use xlink:href="#DejaVuSans-39" transform="translate(159.033203 0)"/>
      </g>
     </g>
    </g>
    <g id="text_7">
     <!-- Microwave Frequency (GHz) -->
     <g transform="translate(233.203984 345.626156) scale(0.11 -0.11)">
      <defs>
       <path id="DejaVuSans-4d" d="M 628 4666 
L 1569 4666 
L 2759 1491 
L 3956 4666 
L 4897 4666 
L 4897 0 
L 4281 0 
L 4281 4097 
L 3078 897 
L 2444 897 
L 1241 4097 
L 1241 0 
L 628 0 
L 628 4666 
z
" transform="scale(0.015625)"/>
       <path id="DejaVuSans-69" d="M 603 3500 
L 1178 3500 
L 1178 0 
L 603 0 
L 603 3500 
z
M 603 4863 
L 1178 4863 
L 1178 4134 
L 603 4134 
L 603 4863 
z
" transform="scale(0.015625)"/>
       <path id="DejaVuSans-63" d="M 3122 3366 
L 3122 2828 
Q 2878 2963 2633 3030 
Q 2388 3097 2138 3097 
Q 1578 3097 1268 2742 
Q 959 2388 959 1747 
Q 959 1106 1268 751 
Q 1578 397 2138 397 
Q 2388 397 2633 464 
Q 2878 531 3122 666 
L 3122 134 
Q 2881 22 2623 -34 
Q 2366 -91 2075 -91 
Q 1284 -91 818 406 
Q 353 903 353 1747 
Q 353 2603 823 3093 
Q 1294 3584 2113 3584 
Q 2378 3584 2631 3529 
Q 2884 3475 3122 3366 
z
" transform="scale(0.015625)"/>
       <path id="DejaVuSans-72" d="M 2631 2963 
Q 2534 3019 2420 3045 
Q 2306 3072 2169 3072 
Q 1681 3072 1420 2755 
Q 1159 2438 1159 1844 
L 1159 0 
L 581 0 
L 581 3500 
L 1159 3500 
L 1159 2956 
Q 1341 3275 1631 3429 
Q 1922 3584 2338 3584 
Q 2397 3584 2469 3576 
Q 2541 3569 2628 3553 
L 2631 2963 
z
" transform="scale(0.015625)"/>
       <path id="DejaVuSans-6f" d="M 1959 3097 
Q 1497 3097 1228 2736 
Q 959 2375 959 1747 
Q 959 1119 1226 758 
Q 1494 397 1959 397 
Q 2419 397 2687 759 
Q 2956 1122 2956 1747 
Q 2956 2369 2687 2733 
Q 2419 3097 1959 3097 
z
M 1959 3584 
Q 2709 3584 3137 3096 
Q 3566 2609 3566 1747 
Q 3566 888 3137 398 
Q 2709 -91 1959 -91 
Q 1206 -91 779 398 
Q 353 888 353 1747 
Q 353 2609 779 3096 
Q 1206 3584 1959 3584 
z
" transform="scale(0.015625)"/>
       <path id="DejaVuSans-77" d="M 269 3500 
L 844 3500 
L 1563 769 
L 2278 3500 
L 2956 3500 
L 3675 769 
L 4391 3500 
L 4966 3500 
L 4050 0 
L 3372 0 
L 2619 2869 
L 1863 0 
L 1184 0 
L 269 3500 
z
" transform="scale(0.015625)"/>
       <path id="DejaVuSans-61" d="M 2194 1759 
Q 1497 1759 1228 1600 
Q 959 1441 959 1056 
Q 959 750 1161 570 
Q 1363 391 1709 391 
Q 2188 391 2477 730 
Q 2766 1069 2766 1631 
L 2766 1759 
L 2194 1759 
z
M 3341 1997 
L 3341 0 
L 2766 0 
L 2766 531 
Q 2569 213 2275 61 
Q 1981 -91 1556 -91 
Q 1019 -91 701 211 
Q 384 513 384 1019 
Q 384 1609 779 1909 
Q 1175 2209 1959 2209 
L 2766 2209 
L 2766 2266 
Q 2766 2663 2505 2880 
Q 2244 3097 1772 3097 
Q 1472 3097 1187 3025 
Q 903 2953 641 2809 
L 641 3341 
Q 956 3463 1253 3523 
Q 1550 3584 1831 3584 
Q 2591 3584 2966 3190 
Q 3341 2797 3341 1997 
z
" transform="scale(0.015625)"/>
       <path id="DejaVuSans-76" d="M 191 3500 
L 800 3500 
L 1894 563 
L 2988 3500 
L 3597 3500 
L 2284 0 
L 1503 0 
L 191 3500 
z
" transform="scale(0.015625)"/>
       <path id="DejaVuSans-65" d="M 3597 1894 
L 3597 1613 
L 953 1613 
Q 991 1019 1311 708 
Q 1631 397 2203 397 
Q 2534 397 2845 478 
Q 3156 559 3463 722 
L 3463 178 
Q 3153 47 2828 -22 
Q 2503 -91 2169 -91 
Q 1331 -91 842 396 
Q 353 884 353 1716 
Q 353 2575 817 3079 
Q 1281 3584 2069 3584 
Q 2775 3584 3186 3129 
Q 3597 2675 3597 1894 
z
M 3022 2063 
Q 3016 2534 2758 2815 
Q 2500 3097 2075 3097 
Q 1594 3097 1305 2825 
Q 1016 2553 972 2059 
L 3022 2063 
z
" transform="scale(0.015625)"/>
       <path id="DejaVuSans-20" transform="scale(0.015625)"/>
       <path id="DejaVuSans-46" d="M 628 4666 
L 3309 4666 
L 3309 4134 
L 1259 4134 
L 1259 2759 
L 3109 2759 
L 3109 2228 
L 1259 2228 
L 1259 0 
L 628 0 
L 628 4666 
z
" transform="scale(0.015625)"/>
       <path id="DejaVuSans-71" d="M 947 1747 
Q 947 1113 1208 752 
Q 1469 391 1925 391 
Q 2381 391 2643 752 
Q 2906 1113 2906 1747 
Q 2906 2381 2643 2742 
Q 2381 3103 1925 3103 
Q 1469 3103 1208 2742 
Q 947 2381 947 1747 
z
M 2906 525 
Q 2725 213 2448 61 
Q 2172 -91 1784 -91 
Q 1150 -91 751 415 
Q 353 922 353 1747 
Q 353 2572 751 3078 
Q 1150 3584 1784 3584 
Q 2172 3584 2448 3432 
Q 2725 3281 2906 2969 
L 2906 3500 
L 3481 3500 
L 3481 -1331 
L 2906 -1331 
L 2906 525 
z
" transform="scale(0.015625)"/>
       <path id="DejaVuSans-75" d="M 544 1381 
L 544 3500 
L 1119 3500 
L 1119 1403 
Q 1119 906 1312 657 
Q 1506 409 1894 409 
Q 2359 409 2629 706 
Q 2900 1003 2900 1516 
L 2900 3500 
L 3475 3500 
L 3475 0 
L 2900 0 
L 2900 538 
Q 2691 219 2414 64 
Q 2138 -91 1772 -91 
Q 1169 -91 856 284 
Q 544 659 544 1381 
z
M 1991 3584 
L 1991 3584 
z
" transform="scale(0.015625)"/>
       <path id="DejaVuSans-6e" d="M 3513 2113 
L 3513 0 
L 2938 0 
L 2938 2094 
Q 2938 2591 2744 2837 
Q 2550 3084 2163 3084 
Q 1697 3084 1428 2787 
Q 1159 2491 1159 1978 
L 1159 0 
L 581 0 
L 581 3500 
L 1159 3500 
L 1159 2956 
Q 1366 3272 1645 3428 
Q 1925 3584 2291 3584 
Q 2894 3584 3203 3211 
Q 3513 2838 3513 2113 
z
" transform="scale(0.015625)"/>
       <path id="DejaVuSans-79" d="M 2059 -325 
Q 1816 -950 1584 -1140 
Q 1353 -1331 966 -1331 
L 506 -1331 
L 506 -850 
L 844 -850 
Q 1081 -850 1212 -737 
Q 1344 -625 1503 -206 
L 1606 56 
L 191 3500 
L 800 3500 
L 1894 763 
L 2988 3500 
L 3597 3500 
L 2059 -325 
z
" transform="scale(0.015625)"/>
       <path id="DejaVuSans-28" d="M 1984 4856 
Q 1566 4138 1362 3434 
Q 1159 2731 1159 2009 
Q 1159 1288 1364 580 
Q 1569 -128 1984 -844 
L 1484 -844 
Q 1016 -109 783 600 
Q 550 1309 550 2009 
Q 550 2706 781 3412 
Q 1013 4119 1484 4856 
L 1984 4856 
z
" transform="scale(0.015625)"/>
       <path id="DejaVuSans-47" d="M 3809 666 
L 3809 1919 
L 2778 1919 
L 2778 2438 
L 4434 2438 
L 4434 434 
Q 4069 175 3628 42 
Q 3188 -91 2688 -91 
Q 1594 -91 976 548 
Q 359 1188 359 2328 
Q 359 3472 976 4111 
Q 1594 4750 2688 4750 
Q 3144 4750 3555 4637 
Q 3966 4525 4313 4306 
L 4313 3634 
Q 3963 3931 3569 4081 
Q 3175 4231 2741 4231 
Q 1884 4231 1454 3753 
Q 1025 3275 1025 2328 
Q 1025 1384 1454 906 
Q 1884 428 2741 428 
Q 3075 428 3337 486 
Q 3600 544 3809 666 
z
" transform="scale(0.015625)"/>
       <path id="DejaVuSans-48" d="M 628 4666 
L 1259 4666 
L 1259 2753 
L 3553 2753 
L 3553 4666 
L 4184 4666 
L 4184 0 
L 3553 0 
L 3553 2222 
L 1259 2222 
L 1259 0 
L 628 0 
L 628 4666 
z
" transform="scale(0.015625)"/>
       <path id="DejaVuSans-7a" d="M 353 3500 
L 3084 3500 
L 3084 2975 
L 922 459 
L 3084 459 
L 3084 0 
L 275 0 
L 275 525 
L 2438 3041 
L 353 3041 
L 353 3500 
z
" transform="scale(0.015625)"/>
       <path id="DejaVuSans-29" d="M 513 4856 
L 1013 4856 
Q 1481 4119 1714 3412 
Q 1947 2706 1947 2009 
Q 1947 1309 1714 600 
Q 1481 -109 1013 -844 
L 513 -844 
Q 928 -128 1133 580 
Q 1338 1288 1338 2009 
Q 1338 2731 1133 3434 
Q 928 4138 513 4856 
z
" transform="scale(0.015625)"/>
      </defs>
      <use xlink:href="#DejaVuSans-4d"/>
      <use xlink:href="#DejaVuSans-69" transform="translate(86.279297 0)"/>
      <use xlink:href="#DejaVuSans-63" transform="translate(114.0625 0)"/>
      <use xlink:href="#DejaVuSans-72" transform="translate(169.042969 0)"/>
      <use xlink:href="#DejaVuSans-6f" transform="translate(207.90625 0)"/>
      <use xlink:href="#DejaVuSans-77" transform="translate(269.087891 0)"/>
      <use xlink:href="#DejaVuSans-61" transform="translate(350.875 0)"/>
      <use xlink:href="#DejaVuSans-76" transform="translate(412.154297 0)"/>
      <use xlink:href="#DejaVuSans-65" transform="translate(471.333984 0)"/>
      <use xlink:href="#DejaVuSans-20" transform="translate(532.857422 0)"/>
      <use xlink:href="#DejaVuSans-46" transform="translate(564.644531 0)"/>
      <use xlink:href="#DejaVuSans-72" transform="translate(614.914062 0)"/>
      <use xlink:href="#DejaVuSans-65" transform="translate(653.777344 0)"/>
      <use xlink:href="#DejaVuSans-71" transform="translate(715.300781 0)"/>
      <use xlink:href="#DejaVuSans-75" transform="translate(778.777344 0)"/>
      <use xlink:href="#DejaVuSans-65" transform="translate(842.15625 0)"/>
      <use xlink:href="#DejaVuSans-6e" transform="translate(903.679688 0)"/>
      <use xlink:href="#DejaVuSans-63" transform="translate(967.058594 0)"/>
      <use xlink:href="#DejaVuSans-79" transform="translate(1022.039062 0)"/>
      <use xlink:href="#DejaVuSans-20" transform="translate(1081.21875 0)"/>
      <use xlink:href="#DejaVuSans-28" transform="translate(1113.005859 0)"/>
      <use xlink:href="#DejaVuSans-47" transform="translate(1152.019531 0)"/>
      <use xlink:href="#DejaVuSans-48" transform="translate(1229.509766 0)"/>
      <use xlink:href="#DejaVuSans-7a" transform="translate(1304.705078 0)"/>
      <use xlink:href="#DejaVuSans-29" transform="translate(1357.195312 0)"/>
     </g>
    </g>
   </g>
   <g id="matplotlib.axis_2">
    <g id="ytick_1">
     <g id="line2d_13">
      <path d="M 58.896875 308.276137 
L 561.096875 308.276137 
" clip-path="url(#pff93bac947)" style="fill: none; stroke: #b0b0b0; stroke-opacity: 0.25; stroke-width: 0.8; stroke-linecap: square"/>
     </g>
     <g id="line2d_14">
      <defs>
       <path id="m8b4c6b1d74" d="M 0 0 
L -3.5 0 
" style="stroke: #000000"/>
      </defs>
      <g>
       <use xlink:href="#m8b4c6b1d74" x="58.896875" y="308.276137" style="stroke: #000000"/>
      </g>
     </g>
     <g id="text_8">
      <!-- 0.825 -->
      <g transform="translate(20.405938 312.455278) scale(0.11 -0.11)">
       <defs>
        <path id="DejaVuSans-30" d="M 2034 4250 
Q 1547 4250 1301 3770 
Q 1056 3291 1056 2328 
Q 1056 1369 1301 889 
Q 1547 409 2034 409 
Q 2525 409 2770 889 
Q 3016 1369 3016 2328 
Q 3016 3291 2770 3770 
Q 2525 4250 2034 4250 
z
M 2034 4750 
Q 2819 4750 3233 4129 
Q 3647 3509 3647 2328 
Q 3647 1150 3233 529 
Q 2819 -91 2034 -91 
Q 1250 -91 836 529 
Q 422 1150 422 2328 
Q 422 3509 836 4129 
Q 1250 4750 2034 4750 
z
" transform="scale(0.015625)"/>
       </defs>
       <use xlink:href="#DejaVuSans-30"/>
       <use xlink:href="#DejaVuSans-2e" transform="translate(63.623047 0)"/>
       <use xlink:href="#DejaVuSans-38" transform="translate(95.410156 0)"/>
       <use xlink:href="#DejaVuSans-32" transform="translate(159.033203 0)"/>
       <use xlink:href="#DejaVuSans-35" transform="translate(222.65625 0)"/>
      </g>
     </g>
    </g>
    <g id="ytick_2">
     <g id="line2d_15">
      <path d="M 58.896875 271.547137 
L 561.096875 271.547137 
" clip-path="url(#pff93bac947)" style="fill: none; stroke: #b0b0b0; stroke-opacity: 0.25; stroke-width: 0.8; stroke-linecap: square"/>
     </g>
     <g id="line2d_16">
      <g>
       <use xlink:href="#m8b4c6b1d74" x="58.896875" y="271.547137" style="stroke: #000000"/>
      </g>
     </g>
     <g id="text_9">
      <!-- 0.850 -->
      <g transform="translate(20.405938 275.726278) scale(0.11 -0.11)">
       <use xlink:href="#DejaVuSans-30"/>
       <use xlink:href="#DejaVuSans-2e" transform="translate(63.623047 0)"/>
       <use xlink:href="#DejaVuSans-38" transform="translate(95.410156 0)"/>
       <use xlink:href="#DejaVuSans-35" transform="translate(159.033203 0)"/>
       <use xlink:href="#DejaVuSans-30" transform="translate(222.65625 0)"/>
      </g>
     </g>
    </g>
    <g id="ytick_3">
     <g id="line2d_17">
      <path d="M 58.896875 234.818137 
L 561.096875 234.818137 
" clip-path="url(#pff93bac947)" style="fill: none; stroke: #b0b0b0; stroke-opacity: 0.25; stroke-width: 0.8; stroke-linecap: square"/>
     </g>
     <g id="line2d_18">
      <g>
       <use xlink:href="#m8b4c6b1d74" x="58.896875" y="234.818137" style="stroke: #000000"/>
      </g>
     </g>
     <g id="text_10">
      <!-- 0.875 -->
      <g transform="translate(20.405938 238.997278) scale(0.11 -0.11)">
       <use xlink:href="#DejaVuSans-30"/>
       <use xlink:href="#DejaVuSans-2e" transform="translate(63.623047 0)"/>
       <use xlink:href="#DejaVuSans-38" transform="translate(95.410156 0)"/>
       <use xlink:href="#DejaVuSans-37" transform="translate(159.033203 0)"/>
       <use xlink:href="#DejaVuSans-35" transform="translate(222.65625 0)"/>
      </g>
     </g>
    </g>
    <g id="ytick_4">
     <g id="line2d_19">
      <path d="M 58.896875 198.089137 
L 561.096875 198.089137 
" clip-path="url(#pff93bac947)" style="fill: none; stroke: #b0b0b0; stroke-opacity: 0.25; stroke-width: 0.8; stroke-linecap: square"/>
     </g>
     <g id="line2d_20">
      <g>
       <use xlink:href="#m8b4c6b1d74" x="58.896875" y="198.089137" style="stroke: #000000"/>
      </g>
     </g>
     <g id="text_11">
      <!-- 0.900 -->
      <g transform="translate(20.405938 202.268278) scale(0.11 -0.11)">
       <use xlink:href="#DejaVuSans-30"/>
       <use xlink:href="#DejaVuSans-2e" transform="translate(63.623047 0)"/>
       <use xlink:href="#DejaVuSans-39" transform="translate(95.410156 0)"/>
       <use xlink:href="#DejaVuSans-30" transform="translate(159.033203 0)"/>
       <use xlink:href="#DejaVuSans-30" transform="translate(222.65625 0)"/>
      </g>
     </g>
    </g>
    <g id="ytick_5">
     <g id="line2d_21">
      <path d="M 58.896875 161.360137 
L 561.096875 161.360137 
" clip-path="url(#pff93bac947)" style="fill: none; stroke: #b0b0b0; stroke-opacity: 0.25; stroke-width: 0.8; stroke-linecap: square"/>
     </g>
     <g id="line2d_22">
      <g>
       <use xlink:href="#m8b4c6b1d74" x="58.896875" y="161.360137" style="stroke: #000000"/>
      </g>
     </g>
     <g id="text_12">
      <!-- 0.925 -->
      <g transform="translate(20.405938 165.539278) scale(0.11 -0.11)">
       <use xlink:href="#DejaVuSans-30"/>
       <use xlink:href="#DejaVuSans-2e" transform="translate(63.623047 0)"/>
       <use xlink:href="#DejaVuSans-39" transform="translate(95.410156 0)"/>
       <use xlink:href="#DejaVuSans-32" transform="translate(159.033203 0)"/>
       <use xlink:href="#DejaVuSans-35" transform="translate(222.65625 0)"/>
      </g>
     </g>
    </g>
    <g id="ytick_6">
     <g id="line2d_23">
      <path d="M 58.896875 124.631137 
L 561.096875 124.631137 
" clip-path="url(#pff93bac947)" style="fill: none; stroke: #b0b0b0; stroke-opacity: 0.25; stroke-width: 0.8; stroke-linecap: square"/>
     </g>
     <g id="line2d_24">
      <g>
       <use xlink:href="#m8b4c6b1d74" x="58.896875" y="124.631137" style="stroke: #000000"/>
      </g>
     </g>
     <g id="text_13">
      <!-- 0.950 -->
      <g transform="translate(20.405938 128.810278) scale(0.11 -0.11)">
       <use xlink:href="#DejaVuSans-30"/>
       <use xlink:href="#DejaVuSans-2e" transform="translate(63.623047 0)"/>
       <use xlink:href="#DejaVuSans-39" transform="translate(95.410156 0)"/>
       <use xlink:href="#DejaVuSans-35" transform="translate(159.033203 0)"/>
       <use xlink:href="#DejaVuSans-30" transform="translate(222.65625 0)"/>
      </g>
     </g>
    </g>
    <g id="ytick_7">
     <g id="line2d_25">
      <path d="M 58.896875 87.902137 
L 561.096875 87.902137 
" clip-path="url(#pff93bac947)" style="fill: none; stroke: #b0b0b0; stroke-opacity: 0.25; stroke-width: 0.8; stroke-linecap: square"/>
     </g>
     <g id="line2d_26">
      <g>
       <use xlink:href="#m8b4c6b1d74" x="58.896875" y="87.902137" style="stroke: #000000"/>
      </g>
     </g>
     <g id="text_14">
      <!-- 0.975 -->
      <g transform="translate(20.405938 92.081278) scale(0.11 -0.11)">
       <use xlink:href="#DejaVuSans-30"/>
       <use xlink:href="#DejaVuSans-2e" transform="translate(63.623047 0)"/>
       <use xlink:href="#DejaVuSans-39" transform="translate(95.410156 0)"/>
       <use xlink:href="#DejaVuSans-37" transform="translate(159.033203 0)"/>
       <use xlink:href="#DejaVuSans-35" transform="translate(222.65625 0)"/>
      </g>
     </g>
    </g>
    <g id="ytick_8">
     <g id="line2d_27">
      <path d="M 58.896875 51.173137 
L 561.096875 51.173137 
" clip-path="url(#pff93bac947)" style="fill: none; stroke: #b0b0b0; stroke-opacity: 0.25; stroke-width: 0.8; stroke-linecap: square"/>
     </g>
     <g id="line2d_28">
      <g>
       <use xlink:href="#m8b4c6b1d74" x="58.896875" y="51.173137" style="stroke: #000000"/>
      </g>
     </g>
     <g id="text_15">
      <!-- 1.000 -->
      <g transform="translate(20.405938 55.352278) scale(0.11 -0.11)">
       <defs>
        <path id="DejaVuSans-31" d="M 794 531 
L 1825 531 
L 1825 4091 
L 703 3866 
L 703 4441 
L 1819 4666 
L 2450 4666 
L 2450 531 
L 3481 531 
L 3481 0 
L 794 0 
L 794 531 
z
" transform="scale(0.015625)"/>
       </defs>
       <use xlink:href="#DejaVuSans-31"/>
       <use xlink:href="#DejaVuSans-2e" transform="translate(63.623047 0)"/>
       <use xlink:href="#DejaVuSans-30" transform="translate(95.410156 0)"/>
       <use xlink:href="#DejaVuSans-30" transform="translate(159.033203 0)"/>
       <use xlink:href="#DejaVuSans-30" transform="translate(222.65625 0)"/>
      </g>
     </g>
    </g>
    <g id="text_16">
     <!-- Normalized Fluorescence -->
     <g transform="translate(14.118281 237.876172) rotate(-90) scale(0.11 -0.11)">
      <defs>
       <path id="DejaVuSans-4e" d="M 628 4666 
L 1478 4666 
L 3547 763 
L 3547 4666 
L 4159 4666 
L 4159 0 
L 3309 0 
L 1241 3903 
L 1241 0 
L 628 0 
L 628 4666 
z
" transform="scale(0.015625)"/>
       <path id="DejaVuSans-6d" d="M 3328 2828 
Q 3544 3216 3844 3400 
Q 4144 3584 4550 3584 
Q 5097 3584 5394 3201 
Q 5691 2819 5691 2113 
L 5691 0 
L 5113 0 
L 5113 2094 
Q 5113 2597 4934 2840 
Q 4756 3084 4391 3084 
Q 3944 3084 3684 2787 
Q 3425 2491 3425 1978 
L 3425 0 
L 2847 0 
L 2847 2094 
Q 2847 2600 2669 2842 
Q 2491 3084 2119 3084 
Q 1678 3084 1418 2786 
Q 1159 2488 1159 1978 
L 1159 0 
L 581 0 
L 581 3500 
L 1159 3500 
L 1159 2956 
Q 1356 3278 1631 3431 
Q 1906 3584 2284 3584 
Q 2666 3584 2933 3390 
Q 3200 3197 3328 2828 
z
" transform="scale(0.015625)"/>
       <path id="DejaVuSans-6c" d="M 603 4863 
L 1178 4863 
L 1178 0 
L 603 0 
L 603 4863 
z
" transform="scale(0.015625)"/>
       <path id="DejaVuSans-64" d="M 2906 2969 
L 2906 4863 
L 3481 4863 
L 3481 0 
L 2906 0 
L 2906 525 
Q 2725 213 2448 61 
Q 2172 -91 1784 -91 
Q 1150 -91 751 415 
Q 353 922 353 1747 
Q 353 2572 751 3078 
Q 1150 3584 1784 3584 
Q 2172 3584 2448 3432 
Q 2725 3281 2906 2969 
z
M 947 1747 
Q 947 1113 1208 752 
Q 1469 391 1925 391 
Q 2381 391 2643 752 
Q 2906 1113 2906 1747 
Q 2906 2381 2643 2742 
Q 2381 3103 1925 3103 
Q 1469 3103 1208 2742 
Q 947 2381 947 1747 
z
" transform="scale(0.015625)"/>
       <path id="DejaVuSans-73" d="M 2834 3397 
L 2834 2853 
Q 2591 2978 2328 3040 
Q 2066 3103 1784 3103 
Q 1356 3103 1142 2972 
Q 928 2841 928 2578 
Q 928 2378 1081 2264 
Q 1234 2150 1697 2047 
L 1894 2003 
Q 2506 1872 2764 1633 
Q 3022 1394 3022 966 
Q 3022 478 2636 193 
Q 2250 -91 1575 -91 
Q 1294 -91 989 -36 
Q 684 19 347 128 
L 347 722 
Q 666 556 975 473 
Q 1284 391 1588 391 
Q 1994 391 2212 530 
Q 2431 669 2431 922 
Q 2431 1156 2273 1281 
Q 2116 1406 1581 1522 
L 1381 1569 
Q 847 1681 609 1914 
Q 372 2147 372 2553 
Q 372 3047 722 3315 
Q 1072 3584 1716 3584 
Q 2034 3584 2315 3537 
Q 2597 3491 2834 3397 
z
" transform="scale(0.015625)"/>
      </defs>
      <use xlink:href="#DejaVuSans-4e"/>
      <use xlink:href="#DejaVuSans-6f" transform="translate(74.804688 0)"/>
      <use xlink:href="#DejaVuSans-72" transform="translate(135.986328 0)"/>
      <use xlink:href="#DejaVuSans-6d" transform="translate(175.349609 0)"/>
      <use xlink:href="#DejaVuSans-61" transform="translate(272.761719 0)"/>
      <use xlink:href="#DejaVuSans-6c" transform="translate(334.041016 0)"/>
      <use xlink:href="#DejaVuSans-69" transform="translate(361.824219 0)"/>
      <use xlink:href="#DejaVuSans-7a" transform="translate(389.607422 0)"/>
      <use xlink:href="#DejaVuSans-65" transform="translate(442.097656 0)"/>
      <use xlink:href="#DejaVuSans-64" transform="translate(503.621094 0)"/>
      <use xlink:href="#DejaVuSans-20" transform="translate(567.097656 0)"/>
      <use xlink:href="#DejaVuSans-46" transform="translate(598.884766 0)"/>
      <use xlink:href="#DejaVuSans-6c" transform="translate(656.404297 0)"/>
      <use xlink:href="#DejaVuSans-75" transform="translate(684.1875 0)"/>
      <use xlink:href="#DejaVuSans-6f" transform="translate(747.566406 0)"/>
      <use xlink:href="#DejaVuSans-72" transform="translate(808.748047 0)"/>
      <use xlink:href="#DejaVuSans-65" transform="translate(847.611328 0)"/>
      <use xlink:href="#DejaVuSans-73" transform="translate(909.134766 0)"/>
      <use xlink:href="#DejaVuSans-63" transform="translate(961.234375 0)"/>
      <use xlink:href="#DejaVuSans-65" transform="translate(1016.214844 0)"/>
      <use xlink:href="#DejaVuSans-6e" transform="translate(1077.738281 0)"/>
      <use xlink:href="#DejaVuSans-63" transform="translate(1141.117188 0)"/>
      <use xlink:href="#DejaVuSans-65" transform="translate(1196.097656 0)"/>
     </g>
    </g>
   </g>
   <g id="line2d_29">
    <path d="M 81.724148 53.50052 
L 113.885958 54.152555 
L 139.387038 54.884875 
L 159.940147 55.68964 
L 177.067738 56.576652 
L 191.531037 57.544049 
L 203.900964 58.590919 
L 214.558132 59.71157 
L 223.883153 60.910998 
L 232.066336 62.180888 
L 239.488292 63.555985 
L 246.149022 65.016814 
L 252.048525 66.532366 
L 257.567416 68.180852 
L 262.515387 69.88827 
L 267.082744 71.695401 
L 271.269489 73.583445 
L 275.265926 75.629537 
L 278.881751 77.721252 
L 282.307269 79.948352 
L 285.542481 82.305481 
L 288.587386 84.783272 
L 291.632291 87.549932 
L 294.48689 90.444138 
L 297.341488 93.671154 
L 300.00578 97.025335 
L 302.670072 100.755679 
L 305.144058 104.600947 
L 307.618043 108.860896 
L 310.092028 113.587485 
L 312.375707 118.414528 
L 314.659386 123.738065 
L 316.943065 129.611484 
L 319.226744 136.090859 
L 321.510422 143.233162 
L 323.794101 151.093346 
L 326.07778 159.719804 
L 328.551765 169.970136 
L 331.025751 181.174694 
L 333.690043 194.265036 
L 336.925254 211.372268 
L 345.869663 259.65416 
L 347.772729 268.278647 
L 349.295181 274.228736 
L 350.627327 278.588675 
L 351.769166 281.610139 
L 352.720699 283.578475 
L 353.672232 285.017974 
L 354.433458 285.77494 
L 355.194685 286.173405 
L 355.765604 286.234653 
L 356.336524 286.091791 
L 356.907444 285.745562 
L 357.66867 284.970826 
L 358.429896 283.844945 
L 359.381429 281.959569 
L 360.332962 279.567706 
L 361.474801 276.074564 
L 362.806947 271.223417 
L 364.3294 264.798953 
L 366.232466 255.719215 
L 368.706451 242.729472 
L 378.983006 187.406132 
L 381.647298 174.851946 
L 384.121283 164.175118 
L 386.595268 154.449623 
L 389.069254 145.642069 
L 391.543239 137.696021 
L 394.017224 130.543368 
L 396.49121 124.11191 
L 398.965195 118.330152 
L 401.439181 113.130139 
L 403.913166 108.448955 
L 406.387151 104.229374 
L 409.051443 100.142572 
L 411.715735 96.474552 
L 414.380027 93.175263 
L 417.234626 89.999882 
L 420.089224 87.150877 
L 423.134129 84.426333 
L 426.369341 81.841256 
L 429.604552 79.533334 
L 433.030071 77.351376 
L 436.836202 75.199325 
L 440.83264 73.204081 
L 445.019384 71.361336 
L 449.586742 69.595989 
L 454.534713 67.926529 
L 459.863297 66.364949 
L 465.7628 64.87301 
L 472.233223 63.47185 
L 479.464873 62.142212 
L 487.457749 60.905607 
L 496.402158 59.751662 
L 506.488406 58.678158 
L 518.097106 57.672435 
L 531.418566 56.747075 
L 538.269602 56.34573 
L 538.269602 56.34573 
" clip-path="url(#pff93bac947)" style="fill: none; stroke: #1f77b4; stroke-width: 2; stroke-linecap: square"/>
   </g>
   <g id="line2d_30">
    <path d="M 355.65142 315.621938 
L 355.65142 21.789938 
" clip-path="url(#pff93bac947)" style="fill: none; stroke-dasharray: 1,1.65; stroke-dashoffset: 0; stroke: #1f77b4; stroke-opacity: 0.45"/>
   </g>
   <g id="line2d_31">
    <path d="M 81.724148 53.813859 
L 110.270133 54.505116 
L 133.106921 55.272763 
L 151.756964 56.113436 
L 167.362103 57.030802 
L 180.683563 58.029972 
L 192.101957 59.10218 
L 202.188205 60.27001 
L 210.942307 61.502583 
L 218.744876 62.821153 
L 225.786219 64.235776 
L 232.066336 65.72149 
L 237.775533 67.297698 
L 242.91381 68.939548 
L 247.671474 70.686761 
L 252.048525 72.524068 
L 256.23527 74.525896 
L 260.041401 76.589919 
L 263.657226 78.803024 
L 267.082744 81.163619 
L 270.317956 83.666444 
L 273.362861 86.301881 
L 276.217459 89.055303 
L 279.072058 92.121548 
L 281.73635 95.304854 
L 284.400642 98.841223 
L 286.874627 102.482824 
L 289.348612 106.513483 
L 291.822598 110.982102 
L 294.296583 115.943312 
L 296.580262 121.012261 
L 298.863941 126.604 
L 301.14762 132.773425 
L 303.431298 139.577344 
L 305.714977 147.072174 
L 307.998656 155.310272 
L 310.472641 165.122857 
L 312.946627 175.888175 
L 315.610919 188.533867 
L 318.465517 203.183159 
L 322.271649 223.980421 
L 327.409926 252.035578 
L 329.693605 263.24433 
L 331.406364 270.622776 
L 332.928816 276.203173 
L 334.260962 280.187777 
L 335.402802 282.854339 
L 336.354335 284.507899 
L 337.115561 285.441461 
L 337.876787 286.019581 
L 338.447707 286.216594 
L 339.018626 286.209591 
L 339.589546 285.998608 
L 340.160466 285.584742 
L 340.921692 284.721176 
L 341.682918 283.508733 
L 342.634451 281.519466 
L 343.585984 279.029707 
L 344.727824 275.428536 
L 346.059969 270.466194 
L 347.582422 263.935975 
L 349.485488 254.757061 
L 352.14978 240.651633 
L 361.284495 191.181968 
L 364.139093 177.44884 
L 366.803385 165.753076 
L 369.277371 155.882839 
L 371.751356 146.937513 
L 374.225341 138.863357 
L 376.699327 131.593479 
L 379.173312 125.055935 
L 381.647298 119.178898 
L 384.121283 113.893742 
L 386.595268 109.13672 
L 389.069254 104.849713 
L 391.543239 100.980408 
L 394.207531 97.227173 
L 396.871823 93.852832 
L 399.726421 90.606856 
L 402.58102 87.696056 
L 405.625925 84.913938 
L 408.67083 82.422672 
L 411.906042 80.053081 
L 415.33156 77.814554 
L 418.947385 75.712438 
L 422.753516 73.74866 
L 426.940261 71.840798 
L 431.507618 70.015398 
L 436.265282 68.353367 
L 441.593866 66.734552 
L 447.303063 65.236578 
L 453.58318 63.821348 
L 460.624523 62.470663 
L 468.427092 61.208676 
L 477.181194 60.026147 
L 487.077136 58.922165 
L 498.305223 57.900261 
L 511.24607 56.952848 
L 526.280289 56.082021 
L 538.269602 55.52047 
L 538.269602 55.52047 
" clip-path="url(#pff93bac947)" style="fill: none; stroke: #2ca02c; stroke-width: 2; stroke-linecap: square"/>
   </g>
   <g id="line2d_32">
    <path d="M 338.713584 315.621938 
L 338.713584 21.789938 
" clip-path="url(#pff93bac947)" style="fill: none; stroke-dasharray: 1,1.65; stroke-dashoffset: 0; stroke: #2ca02c; stroke-opacity: 0.45"/>
   </g>
   <g id="line2d_33">
    <path d="M 81.724148 54.194701 
L 106.844615 54.930329 
L 127.207417 55.741824 
L 144.144702 56.633415 
L 158.417694 57.602019 
L 170.597315 58.645372 
L 181.254482 59.778676 
L 190.579504 60.992543 
L 198.762687 62.278653 
L 205.994336 63.633434 
L 212.464759 65.062472 
L 218.364263 66.585546 
L 223.692847 68.181207 
L 228.640818 69.888678 
L 233.208175 71.695868 
L 237.39492 73.583975 
L 241.391358 75.630139 
L 245.007182 77.72193 
L 248.432701 79.949112 
L 251.667912 82.306331 
L 254.712817 84.78422 
L 257.757722 87.550992 
L 260.612321 90.445318 
L 263.466919 93.672472 
L 266.131211 97.026799 
L 268.795503 100.757309 
L 271.269489 104.602752 
L 273.743474 108.862896 
L 276.217459 113.589707 
L 278.501138 118.416977 
L 280.784817 123.740766 
L 283.068496 129.614465 
L 285.352175 136.094146 
L 287.635853 143.236784 
L 289.919532 151.097327 
L 292.203211 159.724165 
L 294.677196 169.974923 
L 297.151182 181.179903 
L 299.815474 194.270664 
L 303.050685 211.378283 
L 311.995094 259.659481 
L 313.89816 268.283294 
L 315.420612 274.232694 
L 316.752758 278.591927 
L 317.894598 281.612718 
L 318.84613 283.580455 
L 319.797663 285.019328 
L 320.558889 285.775779 
L 321.320116 286.173721 
L 321.891035 286.234574 
L 322.461955 286.091317 
L 323.032875 285.744696 
L 323.794101 284.969446 
L 324.555327 283.843062 
L 325.50686 281.957082 
L 326.458393 279.564649 
L 327.600232 276.070877 
L 328.932378 271.21908 
L 330.454831 264.793996 
L 332.357897 255.713674 
L 334.831882 242.723476 
L 345.108437 187.400712 
L 347.772729 174.846969 
L 350.246714 164.170568 
L 352.720699 154.445493 
L 355.194685 145.638337 
L 357.66867 137.692658 
L 360.142655 130.540343 
L 362.616641 124.10919 
L 365.090626 118.327708 
L 367.564612 113.127939 
L 370.038597 108.446974 
L 372.512582 104.227586 
L 375.176874 100.140969 
L 377.841166 96.473112 
L 380.505458 93.173967 
L 383.360057 89.99872 
L 386.214655 87.149833 
L 389.25956 84.425399 
L 392.494772 81.840423 
L 395.92029 79.404658 
L 399.345808 77.236648 
L 403.15194 75.097921 
L 407.148378 73.114614 
L 411.335122 71.282508 
L 415.90248 69.526982 
L 420.85045 67.86645 
L 426.179034 66.31288 
L 432.078538 64.828264 
L 438.548961 63.433665 
L 445.780611 62.10995 
L 453.773486 60.878566 
L 462.717895 59.729225 
L 472.804143 58.659752 
L 484.412844 57.657567 
L 497.734303 56.735241 
L 513.339442 55.883371 
L 531.799179 55.105001 
L 538.269602 54.877135 
L 538.269602 54.877135 
" clip-path="url(#pff93bac947)" style="fill: none; stroke: #ff7f0e; stroke-width: 2; stroke-linecap: square"/>
   </g>
   <g id="line2d_34">
    <path d="M 321.775748 315.621938 
L 321.775748 21.789938 
" clip-path="url(#pff93bac947)" style="fill: none; stroke-dasharray: 1,1.65; stroke-dashoffset: 0; stroke: #ff7f0e; stroke-opacity: 0.45"/>
   </g>
   <g id="line2d_35">
    <path d="M 81.724148 55.250548 
L 100.564498 56.093887 
L 116.359943 57.018245 
L 129.681403 58.014106 
L 141.099797 59.0825 
L 151.186045 60.24589 
L 159.940147 61.473482 
L 167.742716 62.786412 
L 174.784059 64.194654 
L 181.064176 65.673322 
L 186.773373 67.241702 
L 191.91165 68.875036 
L 196.669314 70.61281 
L 201.046365 72.4398 
L 205.23311 74.429966 
L 209.039241 76.481538 
L 212.655066 78.680845 
L 216.080584 81.026254 
L 219.315796 83.512493 
L 222.360701 86.129971 
L 225.215299 88.864137 
L 228.069898 91.908404 
L 230.73419 95.068362 
L 233.398482 98.578233 
L 235.872467 102.192017 
L 238.346452 106.191358 
L 240.820438 110.624729 
L 243.294423 115.546322 
L 245.578102 120.574444 
L 247.861781 126.120954 
L 250.14546 132.240519 
L 252.429138 138.989861 
L 254.712817 146.425545 
L 256.996496 154.600447 
L 259.470481 164.34124 
L 261.944467 175.033638 
L 264.608759 187.603967 
L 267.463357 202.184281 
L 271.269489 222.93053 
L 276.788379 253.024661 
L 278.881751 263.251945 
L 280.59451 270.629382 
L 282.116963 276.208672 
L 283.449109 280.192161 
L 284.590948 282.857674 
L 285.542481 284.510309 
L 286.303707 285.443106 
L 287.064934 286.020447 
L 287.635853 286.216869 
L 288.206773 286.209274 
L 288.777693 285.9977 
L 289.348612 285.583249 
L 290.109839 284.718914 
L 290.871065 283.505723 
L 291.822598 281.515559 
L 292.774131 279.024957 
L 293.91597 275.422857 
L 295.248116 270.459561 
L 296.770569 263.928437 
L 298.673634 254.748679 
L 301.337926 240.642577 
L 310.472641 191.173662 
L 313.32724 177.441229 
L 315.991532 165.746153 
L 318.465517 155.876548 
L 320.939503 146.931825 
L 323.413488 138.858231 
L 325.887473 131.588867 
L 328.361459 125.051789 
L 330.835444 119.17517 
L 333.309429 113.890389 
L 335.783415 109.1337 
L 338.2574 104.84699 
L 340.731386 100.977948 
L 343.395678 97.224964 
L 346.059969 93.850844 
L 348.914568 90.605075 
L 351.769166 87.694456 
L 354.814072 84.912507 
L 358.049283 82.274476 
L 361.284495 79.920641 
L 364.710013 77.696563 
L 368.325838 75.607598 
L 372.322276 73.564107 
L 376.50902 71.678379 
L 381.076378 69.873383 
L 386.024349 68.167905 
L 391.352932 66.574029 
L 397.062129 65.09815 
L 403.342246 63.702864 
L 410.383589 62.370304 
L 418.186158 61.124388 
L 426.940261 59.956101 
L 436.836202 58.864644 
L 448.064289 57.853613 
L 461.005136 56.915609 
L 476.039355 56.052807 
L 493.928172 55.256299 
L 515.242508 54.537005 
L 538.269602 53.953676 
L 538.269602 53.953676 
" clip-path="url(#pff93bac947)" style="fill: none; stroke: #d62728; stroke-width: 2; stroke-linecap: square"/>
   </g>
   <g id="line2d_36">
    <path d="M 287.900075 315.621938 
L 287.900075 21.789938 
" clip-path="url(#pff93bac947)" style="fill: none; stroke-dasharray: 1,1.65; stroke-dashoffset: 0; stroke: #d62728; stroke-opacity: 0.45"/>
   </g>
   <g id="patch_3">
    <path d="M 58.896875 315.621937 
L 58.896875 21.789937 
" style="fill: none; stroke: #000000; stroke-width: 1.1; stroke-linejoin: miter; stroke-linecap: square"/>
   </g>
   <g id="patch_4">
    <path d="M 561.096875 315.621937 
L 561.096875 21.789937 
" style="fill: none; stroke: #000000; stroke-width: 1.1; stroke-linejoin: miter; stroke-linecap: square"/>
   </g>
   <g id="patch_5">
    <path d="M 58.896875 315.621938 
L 561.096875 315.621938 
" style="fill: none; stroke: #000000; stroke-width: 1.1; stroke-linejoin: miter; stroke-linecap: square"/>
   </g>
   <g id="patch_6">
    <path d="M 58.896875 21.789938 
L 561.096875 21.789938 
" style="fill: none; stroke: #000000; stroke-width: 1.1; stroke-linejoin: miter; stroke-linecap: square"/>
   </g>
   <g id="patch_7">
    <path d="M 351.641651 220.126537 
Q 321.778414 220.126537 291.915177 220.126537 
" style="fill: none; stroke: #7e22ce; stroke-width: 1.8; stroke-linecap: round"/>
    <path d="M 347.241651 217.926537 
L 351.641651 220.126537 
L 347.241651 222.326537 
" style="fill: none; stroke: #7e22ce; stroke-width: 1.8; stroke-linecap: round"/>
    <path d="M 296.315177 222.326537 
L 291.915177 220.126537 
L 296.315177 217.926537 
" style="fill: none; stroke: #7e22ce; stroke-width: 1.8; stroke-linecap: round"/>
   </g>
   <g id="text_17">
    <!-- -7.42 MHz over 100 K -->
    <g style="fill: #7e22ce" transform="translate(267.500123 209.842417) scale(0.09 -0.09)">
     <defs>
      <path id="DejaVuSans-Bold-2d" d="M 347 2297 
L 2309 2297 
L 2309 1388 
L 347 1388 
L 347 2297 
z
" transform="scale(0.015625)"/>
      <path id="DejaVuSans-Bold-37" d="M 428 4666 
L 3944 4666 
L 3944 3988 
L 2125 0 
L 953 0 
L 2675 3781 
L 428 3781 
L 428 4666 
z
" transform="scale(0.015625)"/>
      <path id="DejaVuSans-Bold-2e" d="M 653 1209 
L 1778 1209 
L 1778 0 
L 653 0 
L 653 1209 
z
" transform="scale(0.015625)"/>
      <path id="DejaVuSans-Bold-34" d="M 2356 3675 
L 1038 1722 
L 2356 1722 
L 2356 3675 
z
M 2156 4666 
L 3494 4666 
L 3494 1722 
L 4159 1722 
L 4159 850 
L 3494 850 
L 3494 0 
L 2356 0 
L 2356 850 
L 288 850 
L 288 1881 
L 2156 4666 
z
" transform="scale(0.015625)"/>
      <path id="DejaVuSans-Bold-32" d="M 1844 884 
L 3897 884 
L 3897 0 
L 506 0 
L 506 884 
L 2209 2388 
Q 2438 2594 2547 2791 
Q 2656 2988 2656 3200 
Q 2656 3528 2436 3728 
Q 2216 3928 1850 3928 
Q 1569 3928 1234 3808 
Q 900 3688 519 3450 
L 519 4475 
Q 925 4609 1322 4679 
Q 1719 4750 2100 4750 
Q 2938 4750 3402 4381 
Q 3866 4013 3866 3353 
Q 3866 2972 3669 2642 
Q 3472 2313 2841 1759 
L 1844 884 
z
" transform="scale(0.015625)"/>
      <path id="DejaVuSans-Bold-20" transform="scale(0.015625)"/>
      <path id="DejaVuSans-Bold-4d" d="M 588 4666 
L 2119 4666 
L 3181 2169 
L 4250 4666 
L 5778 4666 
L 5778 0 
L 4641 0 
L 4641 3413 
L 3566 897 
L 2803 897 
L 1728 3413 
L 1728 0 
L 588 0 
L 588 4666 
z
" transform="scale(0.015625)"/>
      <path id="DejaVuSans-Bold-48" d="M 588 4666 
L 1791 4666 
L 1791 2888 
L 3566 2888 
L 3566 4666 
L 4769 4666 
L 4769 0 
L 3566 0 
L 3566 1978 
L 1791 1978 
L 1791 0 
L 588 0 
L 588 4666 
z
" transform="scale(0.015625)"/>
      <path id="DejaVuSans-Bold-7a" d="M 366 3500 
L 3419 3500 
L 3419 2719 
L 1575 800 
L 3419 800 
L 3419 0 
L 288 0 
L 288 781 
L 2131 2700 
L 366 2700 
L 366 3500 
z
" transform="scale(0.015625)"/>
      <path id="DejaVuSans-Bold-6f" d="M 2203 2784 
Q 1831 2784 1636 2517 
Q 1441 2250 1441 1747 
Q 1441 1244 1636 976 
Q 1831 709 2203 709 
Q 2569 709 2762 976 
Q 2956 1244 2956 1747 
Q 2956 2250 2762 2517 
Q 2569 2784 2203 2784 
z
M 2203 3584 
Q 3106 3584 3614 3096 
Q 4122 2609 4122 1747 
Q 4122 884 3614 396 
Q 3106 -91 2203 -91 
Q 1297 -91 786 396 
Q 275 884 275 1747 
Q 275 2609 786 3096 
Q 1297 3584 2203 3584 
z
" transform="scale(0.015625)"/>
      <path id="DejaVuSans-Bold-76" d="M 97 3500 
L 1216 3500 
L 2088 1081 
L 2956 3500 
L 4078 3500 
L 2700 0 
L 1472 0 
L 97 3500 
z
" transform="scale(0.015625)"/>
      <path id="DejaVuSans-Bold-65" d="M 4031 1759 
L 4031 1441 
L 1416 1441 
Q 1456 1047 1700 850 
Q 1944 653 2381 653 
Q 2734 653 3104 758 
Q 3475 863 3866 1075 
L 3866 213 
Q 3469 63 3072 -14 
Q 2675 -91 2278 -91 
Q 1328 -91 801 392 
Q 275 875 275 1747 
Q 275 2603 792 3093 
Q 1309 3584 2216 3584 
Q 3041 3584 3536 3087 
Q 4031 2591 4031 1759 
z
M 2881 2131 
Q 2881 2450 2695 2645 
Q 2509 2841 2209 2841 
Q 1884 2841 1681 2658 
Q 1478 2475 1428 2131 
L 2881 2131 
z
" transform="scale(0.015625)"/>
      <path id="DejaVuSans-Bold-72" d="M 3138 2547 
Q 2991 2616 2845 2648 
Q 2700 2681 2553 2681 
Q 2122 2681 1889 2404 
Q 1656 2128 1656 1613 
L 1656 0 
L 538 0 
L 538 3500 
L 1656 3500 
L 1656 2925 
Q 1872 3269 2151 3426 
Q 2431 3584 2822 3584 
Q 2878 3584 2943 3579 
Q 3009 3575 3134 3559 
L 3138 2547 
z
" transform="scale(0.015625)"/>
      <path id="DejaVuSans-Bold-31" d="M 750 831 
L 1813 831 
L 1813 3847 
L 722 3622 
L 722 4441 
L 1806 4666 
L 2950 4666 
L 2950 831 
L 4013 831 
L 4013 0 
L 750 0 
L 750 831 
z
" transform="scale(0.015625)"/>
      <path id="DejaVuSans-Bold-30" d="M 2944 2338 
Q 2944 3213 2780 3570 
Q 2616 3928 2228 3928 
Q 1841 3928 1675 3570 
Q 1509 3213 1509 2338 
Q 1509 1453 1675 1090 
Q 1841 728 2228 728 
Q 2613 728 2778 1090 
Q 2944 1453 2944 2338 
z
M 4147 2328 
Q 4147 1169 3647 539 
Q 3147 -91 2228 -91 
Q 1306 -91 806 539 
Q 306 1169 306 2328 
Q 306 3491 806 4120 
Q 1306 4750 2228 4750 
Q 3147 4750 3647 4120 
Q 4147 3491 4147 2328 
z
" transform="scale(0.015625)"/>
      <path id="DejaVuSans-Bold-4b" d="M 588 4666 
L 1791 4666 
L 1791 2963 
L 3525 4666 
L 4922 4666 
L 2675 2456 
L 5153 0 
L 3647 0 
L 1791 1838 
L 1791 0 
L 588 0 
L 588 4666 
z
" transform="scale(0.015625)"/>
     </defs>
     <use xlink:href="#DejaVuSans-Bold-2d"/>
     <use xlink:href="#DejaVuSans-Bold-37" transform="translate(41.503906 0)"/>
     <use xlink:href="#DejaVuSans-Bold-2e" transform="translate(111.083984 0)"/>
     <use xlink:href="#DejaVuSans-Bold-34" transform="translate(149.072266 0)"/>
     <use xlink:href="#DejaVuSans-Bold-32" transform="translate(218.652344 0)"/>
     <use xlink:href="#DejaVuSans-Bold-20" transform="translate(288.232422 0)"/>
     <use xlink:href="#DejaVuSans-Bold-4d" transform="translate(323.046875 0)"/>
     <use xlink:href="#DejaVuSans-Bold-48" transform="translate(422.558594 0)"/>
     <use xlink:href="#DejaVuSans-Bold-7a" transform="translate(506.25 0)"/>
     <use xlink:href="#DejaVuSans-Bold-20" transform="translate(564.453125 0)"/>
     <use xlink:href="#DejaVuSans-Bold-6f" transform="translate(599.267578 0)"/>
     <use xlink:href="#DejaVuSans-Bold-76" transform="translate(667.96875 0)"/>
     <use xlink:href="#DejaVuSans-Bold-65" transform="translate(733.154297 0)"/>
     <use xlink:href="#DejaVuSans-Bold-72" transform="translate(800.976562 0)"/>
     <use xlink:href="#DejaVuSans-Bold-20" transform="translate(850.292969 0)"/>
     <use xlink:href="#DejaVuSans-Bold-31" transform="translate(885.107422 0)"/>
     <use xlink:href="#DejaVuSans-Bold-30" transform="translate(954.6875 0)"/>
     <use xlink:href="#DejaVuSans-Bold-30" transform="translate(1024.267578 0)"/>
     <use xlink:href="#DejaVuSans-Bold-20" transform="translate(1093.847656 0)"/>
     <use xlink:href="#DejaVuSans-Bold-4b" transform="translate(1128.662109 0)"/>
    </g>
   </g>
   <g id="text_18">
    <g id="patch_8">
     <path d="M 68.940875 309.806978 
L 176.840875 309.806978 
Q 179.840875 309.806978 179.840875 306.806978 
L 179.840875 297.128852 
Q 179.840875 294.128852 176.840875 294.128852 
L 68.940875 294.128852 
Q 65.940875 294.128852 65.940875 297.128852 
L 65.940875 306.806978 
Q 65.940875 309.806978 68.940875 309.806978 
z
" style="fill: #f9fafb; stroke: #808080; stroke-linejoin: miter"/>
    </g>
    <!-- $dD/dT \approx -74.2$ kHz/K -->
    <g transform="translate(68.940875 304.72729) scale(0.1 -0.1)">
     <defs>
      <path id="DejaVuSans-Oblique-64" d="M 2675 525 
Q 2444 222 2128 65 
Q 1813 -91 1428 -91 
Q 903 -91 598 267 
Q 294 625 294 1247 
Q 294 1766 478 2236 
Q 663 2706 1013 3078 
Q 1244 3325 1534 3454 
Q 1825 3584 2144 3584 
Q 2481 3584 2739 3421 
Q 2997 3259 3138 2956 
L 3513 4863 
L 4091 4863 
L 3144 0 
L 2566 0 
L 2675 525 
z
M 891 1350 
Q 891 897 1095 644 
Q 1300 391 1663 391 
Q 1931 391 2161 520 
Q 2391 650 2566 903 
Q 2750 1166 2856 1509 
Q 2963 1853 2963 2188 
Q 2963 2622 2758 2865 
Q 2553 3109 2194 3109 
Q 1922 3109 1687 2981 
Q 1453 2853 1288 2613 
Q 1106 2353 998 2009 
Q 891 1666 891 1350 
z
" transform="scale(0.015625)"/>
      <path id="DejaVuSans-Oblique-44" d="M 1081 4666 
L 2438 4666 
Q 3519 4666 4070 4208 
Q 4622 3750 4622 2847 
Q 4622 2250 4412 1698 
Q 4203 1147 3834 769 
Q 3463 381 2891 190 
Q 2319 0 1538 0 
L 172 0 
L 1081 4666 
z
M 1613 4147 
L 909 519 
L 1734 519 
Q 2794 519 3375 1128 
Q 3956 1738 3956 2847 
Q 3956 3519 3581 3833 
Q 3206 4147 2406 4147 
L 1613 4147 
z
" transform="scale(0.015625)"/>
      <path id="DejaVuSans-2f" d="M 1625 4666 
L 2156 4666 
L 531 -594 
L 0 -594 
L 1625 4666 
z
" transform="scale(0.015625)"/>
      <path id="DejaVuSans-Oblique-54" d="M 378 4666 
L 4325 4666 
L 4225 4134 
L 2559 4134 
L 1759 0 
L 1125 0 
L 1925 4134 
L 275 4134 
L 378 4666 
z
" transform="scale(0.015625)"/>
      <path id="DejaVuSans-2248" d="M 4684 1947 
L 4684 1388 
Q 4356 1144 4076 1036 
Q 3797 928 3494 928 
Q 3150 928 2694 1113 
Q 2663 1125 2641 1134 
Q 2622 1141 2575 1159 
Q 2091 1350 1797 1350 
Q 1522 1350 1253 1231 
Q 984 1113 678 850 
L 678 1409 
Q 1006 1653 1286 1761 
Q 1566 1869 1869 1869 
Q 2213 1869 2672 1684 
Q 2706 1669 2722 1663 
Q 2741 1656 2788 1638 
Q 3272 1447 3566 1447 
Q 3834 1447 4098 1564 
Q 4363 1681 4684 1947 
z
M 4684 3163 
L 4684 2606 
Q 4356 2359 4076 2251 
Q 3797 2144 3494 2144 
Q 3150 2144 2694 2328 
Q 2663 2341 2641 2350 
Q 2622 2356 2575 2375 
Q 2091 2566 1797 2566 
Q 1522 2566 1253 2447 
Q 984 2328 678 2069 
L 678 2625 
Q 1006 2869 1286 2976 
Q 1566 3084 1869 3084 
Q 2213 3084 2672 2900 
Q 2703 2888 2719 2881 
Q 2741 2872 2788 2853 
Q 3272 2663 3566 2663 
Q 3834 2663 4098 2780 
Q 4363 2897 4684 3163 
z
" transform="scale(0.015625)"/>
      <path id="DejaVuSans-2212" d="M 678 2272 
L 4684 2272 
L 4684 1741 
L 678 1741 
L 678 2272 
z
" transform="scale(0.015625)"/>
      <path id="DejaVuSans-6b" d="M 581 4863 
L 1159 4863 
L 1159 1991 
L 2875 3500 
L 3609 3500 
L 1753 1863 
L 3688 0 
L 2938 0 
L 1159 1709 
L 1159 0 
L 581 0 
L 581 4863 
z
" transform="scale(0.015625)"/>
      <path id="DejaVuSans-4b" d="M 628 4666 
L 1259 4666 
L 1259 2694 
L 3353 4666 
L 4166 4666 
L 1850 2491 
L 4331 0 
L 3500 0 
L 1259 2247 
L 1259 0 
L 628 0 
L 628 4666 
z
" transform="scale(0.015625)"/>
     </defs>
     <use xlink:href="#DejaVuSans-Oblique-64" transform="translate(0 0.015625)"/>
     <use xlink:href="#DejaVuSans-Oblique-44" transform="translate(63.476562 0.015625)"/>
     <use xlink:href="#DejaVuSans-2f" transform="translate(140.478516 0.015625)"/>
     <use xlink:href="#DejaVuSans-Oblique-64" transform="translate(174.169922 0.015625)"/>
     <use xlink:href="#DejaVuSans-Oblique-54" transform="translate(237.646484 0.015625)"/>
     <use xlink:href="#DejaVuSans-2248" transform="translate(318.212891 0.015625)"/>
     <use xlink:href="#DejaVuSans-2212" transform="translate(440.966797 0.015625)"/>
     <use xlink:href="#DejaVuSans-37" transform="translate(544.238281 0.015625)"/>
     <use xlink:href="#DejaVuSans-34" transform="translate(607.861328 0.015625)"/>
     <use xlink:href="#DejaVuSans-2e" transform="translate(671.484375 0.015625)"/>
     <use xlink:href="#DejaVuSans-32" transform="translate(697.771484 0.015625)"/>
     <use xlink:href="#DejaVuSans-20" transform="translate(761.394531 0.015625)"/>
     <use xlink:href="#DejaVuSans-6b" transform="translate(793.181641 0.015625)"/>
     <use xlink:href="#DejaVuSans-48" transform="translate(851.091797 0.015625)"/>
     <use xlink:href="#DejaVuSans-7a" transform="translate(926.287109 0.015625)"/>
     <use xlink:href="#DejaVuSans-2f" transform="translate(978.777344 0.015625)"/>
     <use xlink:href="#DejaVuSans-4b" transform="translate(1012.46875 0.015625)"/>
    </g>
   </g>
   <g id="text_19">
    <!-- ODMR Temperature Dependence -->
    <g transform="translate(189.042594 15.789938) scale(0.132 -0.132)">
     <defs>
      <path id="DejaVuSans-Bold-4f" d="M 2719 3878 
Q 2169 3878 1866 3472 
Q 1563 3066 1563 2328 
Q 1563 1594 1866 1187 
Q 2169 781 2719 781 
Q 3272 781 3575 1187 
Q 3878 1594 3878 2328 
Q 3878 3066 3575 3472 
Q 3272 3878 2719 3878 
z
M 2719 4750 
Q 3844 4750 4481 4106 
Q 5119 3463 5119 2328 
Q 5119 1197 4481 553 
Q 3844 -91 2719 -91 
Q 1597 -91 958 553 
Q 319 1197 319 2328 
Q 319 3463 958 4106 
Q 1597 4750 2719 4750 
z
" transform="scale(0.015625)"/>
      <path id="DejaVuSans-Bold-44" d="M 1791 3756 
L 1791 909 
L 2222 909 
Q 2959 909 3348 1275 
Q 3738 1641 3738 2338 
Q 3738 3031 3350 3393 
Q 2963 3756 2222 3756 
L 1791 3756 
z
M 588 4666 
L 1856 4666 
Q 2919 4666 3439 4514 
Q 3959 4363 4331 4000 
Q 4659 3684 4818 3271 
Q 4978 2859 4978 2338 
Q 4978 1809 4818 1395 
Q 4659 981 4331 666 
Q 3956 303 3431 151 
Q 2906 0 1856 0 
L 588 0 
L 588 4666 
z
" transform="scale(0.015625)"/>
      <path id="DejaVuSans-Bold-52" d="M 2297 2597 
Q 2675 2597 2839 2737 
Q 3003 2878 3003 3200 
Q 3003 3519 2839 3656 
Q 2675 3794 2297 3794 
L 1791 3794 
L 1791 2597 
L 2297 2597 
z
M 1791 1766 
L 1791 0 
L 588 0 
L 588 4666 
L 2425 4666 
Q 3347 4666 3776 4356 
Q 4206 4047 4206 3378 
Q 4206 2916 3982 2619 
Q 3759 2322 3309 2181 
Q 3556 2125 3751 1926 
Q 3947 1728 4147 1325 
L 4800 0 
L 3519 0 
L 2950 1159 
Q 2778 1509 2601 1637 
Q 2425 1766 2131 1766 
L 1791 1766 
z
" transform="scale(0.015625)"/>
      <path id="DejaVuSans-Bold-54" d="M 31 4666 
L 4331 4666 
L 4331 3756 
L 2784 3756 
L 2784 0 
L 1581 0 
L 1581 3756 
L 31 3756 
L 31 4666 
z
" transform="scale(0.015625)"/>
      <path id="DejaVuSans-Bold-6d" d="M 3781 2919 
Q 3994 3244 4286 3414 
Q 4578 3584 4928 3584 
Q 5531 3584 5847 3212 
Q 6163 2841 6163 2131 
L 6163 0 
L 5038 0 
L 5038 1825 
Q 5041 1866 5042 1909 
Q 5044 1953 5044 2034 
Q 5044 2406 4934 2573 
Q 4825 2741 4581 2741 
Q 4263 2741 4089 2478 
Q 3916 2216 3909 1719 
L 3909 0 
L 2784 0 
L 2784 1825 
Q 2784 2406 2684 2573 
Q 2584 2741 2328 2741 
Q 2006 2741 1831 2477 
Q 1656 2213 1656 1722 
L 1656 0 
L 531 0 
L 531 3500 
L 1656 3500 
L 1656 2988 
Q 1863 3284 2130 3434 
Q 2397 3584 2719 3584 
Q 3081 3584 3359 3409 
Q 3638 3234 3781 2919 
z
" transform="scale(0.015625)"/>
      <path id="DejaVuSans-Bold-70" d="M 1656 506 
L 1656 -1331 
L 538 -1331 
L 538 3500 
L 1656 3500 
L 1656 2988 
Q 1888 3294 2169 3439 
Q 2450 3584 2816 3584 
Q 3463 3584 3878 3070 
Q 4294 2556 4294 1747 
Q 4294 938 3878 423 
Q 3463 -91 2816 -91 
Q 2450 -91 2169 54 
Q 1888 200 1656 506 
z
M 2400 2772 
Q 2041 2772 1848 2508 
Q 1656 2244 1656 1747 
Q 1656 1250 1848 986 
Q 2041 722 2400 722 
Q 2759 722 2948 984 
Q 3138 1247 3138 1747 
Q 3138 2247 2948 2509 
Q 2759 2772 2400 2772 
z
" transform="scale(0.015625)"/>
      <path id="DejaVuSans-Bold-61" d="M 2106 1575 
Q 1756 1575 1579 1456 
Q 1403 1338 1403 1106 
Q 1403 894 1545 773 
Q 1688 653 1941 653 
Q 2256 653 2472 879 
Q 2688 1106 2688 1447 
L 2688 1575 
L 2106 1575 
z
M 3816 1997 
L 3816 0 
L 2688 0 
L 2688 519 
Q 2463 200 2181 54 
Q 1900 -91 1497 -91 
Q 953 -91 614 226 
Q 275 544 275 1050 
Q 275 1666 698 1953 
Q 1122 2241 2028 2241 
L 2688 2241 
L 2688 2328 
Q 2688 2594 2478 2717 
Q 2269 2841 1825 2841 
Q 1466 2841 1156 2769 
Q 847 2697 581 2553 
L 581 3406 
Q 941 3494 1303 3539 
Q 1666 3584 2028 3584 
Q 2975 3584 3395 3211 
Q 3816 2838 3816 1997 
z
" transform="scale(0.015625)"/>
      <path id="DejaVuSans-Bold-74" d="M 1759 4494 
L 1759 3500 
L 2913 3500 
L 2913 2700 
L 1759 2700 
L 1759 1216 
Q 1759 972 1856 886 
Q 1953 800 2241 800 
L 2816 800 
L 2816 0 
L 1856 0 
Q 1194 0 917 276 
Q 641 553 641 1216 
L 641 2700 
L 84 2700 
L 84 3500 
L 641 3500 
L 641 4494 
L 1759 4494 
z
" transform="scale(0.015625)"/>
      <path id="DejaVuSans-Bold-75" d="M 500 1363 
L 500 3500 
L 1625 3500 
L 1625 3150 
Q 1625 2866 1622 2436 
Q 1619 2006 1619 1863 
Q 1619 1441 1641 1255 
Q 1663 1069 1716 984 
Q 1784 875 1895 815 
Q 2006 756 2150 756 
Q 2500 756 2700 1025 
Q 2900 1294 2900 1772 
L 2900 3500 
L 4019 3500 
L 4019 0 
L 2900 0 
L 2900 506 
Q 2647 200 2364 54 
Q 2081 -91 1741 -91 
Q 1134 -91 817 281 
Q 500 653 500 1363 
z
" transform="scale(0.015625)"/>
      <path id="DejaVuSans-Bold-6e" d="M 4056 2131 
L 4056 0 
L 2931 0 
L 2931 347 
L 2931 1631 
Q 2931 2084 2911 2256 
Q 2891 2428 2841 2509 
Q 2775 2619 2662 2680 
Q 2550 2741 2406 2741 
Q 2056 2741 1856 2470 
Q 1656 2200 1656 1722 
L 1656 0 
L 538 0 
L 538 3500 
L 1656 3500 
L 1656 2988 
Q 1909 3294 2193 3439 
Q 2478 3584 2822 3584 
Q 3428 3584 3742 3212 
Q 4056 2841 4056 2131 
z
" transform="scale(0.015625)"/>
      <path id="DejaVuSans-Bold-64" d="M 2919 2988 
L 2919 4863 
L 4044 4863 
L 4044 0 
L 2919 0 
L 2919 506 
Q 2688 197 2409 53 
Q 2131 -91 1766 -91 
Q 1119 -91 703 423 
Q 288 938 288 1747 
Q 288 2556 703 3070 
Q 1119 3584 1766 3584 
Q 2128 3584 2408 3439 
Q 2688 3294 2919 2988 
z
M 2181 722 
Q 2541 722 2730 984 
Q 2919 1247 2919 1747 
Q 2919 2247 2730 2509 
Q 2541 2772 2181 2772 
Q 1825 2772 1636 2509 
Q 1447 2247 1447 1747 
Q 1447 1247 1636 984 
Q 1825 722 2181 722 
z
" transform="scale(0.015625)"/>
      <path id="DejaVuSans-Bold-63" d="M 3366 3391 
L 3366 2478 
Q 3138 2634 2908 2709 
Q 2678 2784 2431 2784 
Q 1963 2784 1702 2511 
Q 1441 2238 1441 1747 
Q 1441 1256 1702 982 
Q 1963 709 2431 709 
Q 2694 709 2930 787 
Q 3166 866 3366 1019 
L 3366 103 
Q 3103 6 2833 -42 
Q 2563 -91 2291 -91 
Q 1344 -91 809 395 
Q 275 881 275 1747 
Q 275 2613 809 3098 
Q 1344 3584 2291 3584 
Q 2566 3584 2833 3536 
Q 3100 3488 3366 3391 
z
" transform="scale(0.015625)"/>
     </defs>
     <use xlink:href="#DejaVuSans-Bold-4f"/>
     <use xlink:href="#DejaVuSans-Bold-44" transform="translate(85.009766 0)"/>
     <use xlink:href="#DejaVuSans-Bold-4d" transform="translate(168.017578 0)"/>
     <use xlink:href="#DejaVuSans-Bold-52" transform="translate(267.529297 0)"/>
     <use xlink:href="#DejaVuSans-Bold-20" transform="translate(344.53125 0)"/>
     <use xlink:href="#DejaVuSans-Bold-54" transform="translate(379.345703 0)"/>
     <use xlink:href="#DejaVuSans-Bold-65" transform="translate(434.308594 0)"/>
     <use xlink:href="#DejaVuSans-Bold-6d" transform="translate(502.130859 0)"/>
     <use xlink:href="#DejaVuSans-Bold-70" transform="translate(606.330078 0)"/>
     <use xlink:href="#DejaVuSans-Bold-65" transform="translate(677.912109 0)"/>
     <use xlink:href="#DejaVuSans-Bold-72" transform="translate(745.734375 0)"/>
     <use xlink:href="#DejaVuSans-Bold-61" transform="translate(795.050781 0)"/>
     <use xlink:href="#DejaVuSans-Bold-74" transform="translate(862.53125 0)"/>
     <use xlink:href="#DejaVuSans-Bold-75" transform="translate(910.333984 0)"/>
     <use xlink:href="#DejaVuSans-Bold-72" transform="translate(981.525391 0)"/>
     <use xlink:href="#DejaVuSans-Bold-65" transform="translate(1030.841797 0)"/>
     <use xlink:href="#DejaVuSans-Bold-20" transform="translate(1098.664062 0)"/>
     <use xlink:href="#DejaVuSans-Bold-44" transform="translate(1133.478516 0)"/>
     <use xlink:href="#DejaVuSans-Bold-65" transform="translate(1216.486328 0)"/>
     <use xlink:href="#DejaVuSans-Bold-70" transform="translate(1284.308594 0)"/>
     <use xlink:href="#DejaVuSans-Bold-65" transform="translate(1355.890625 0)"/>
     <use xlink:href="#DejaVuSans-Bold-6e" transform="translate(1423.712891 0)"/>
     <use xlink:href="#DejaVuSans-Bold-64" transform="translate(1494.904297 0)"/>
     <use xlink:href="#DejaVuSans-Bold-65" transform="translate(1566.486328 0)"/>
     <use xlink:href="#DejaVuSans-Bold-6e" transform="translate(1634.308594 0)"/>
     <use xlink:href="#DejaVuSans-Bold-63" transform="translate(1705.5 0)"/>
     <use xlink:href="#DejaVuSans-Bold-65" transform="translate(1764.777344 0)"/>
    </g>
   </g>
   <g id="legend_1">
    <g id="patch_9">
     <path d="M 463.562969 310.121938 
L 553.396875 310.121938 
Q 555.596875 310.121938 555.596875 307.921938 
L 555.596875 244.438187 
Q 555.596875 242.238187 553.396875 242.238187 
L 463.562969 242.238187 
Q 461.362969 242.238187 461.362969 244.438187 
L 461.362969 307.921938 
Q 461.362969 310.121938 463.562969 310.121938 
z
" style="fill: #ffffff; opacity: 0.9; stroke: #cccccc; stroke-linejoin: miter"/>
    </g>
    <g id="line2d_37">
     <path d="M 465.762969 251.146469 
L 476.762969 251.146469 
L 487.762969 251.146469 
" style="fill: none; stroke: #1f77b4; stroke-width: 2; stroke-linecap: square"/>
    </g>
    <g id="text_20">
     <!-- T = 300 K -->
     <g transform="translate(496.562969 254.996469) scale(0.11 -0.11)">
      <defs>
       <path id="DejaVuSans-54" d="M -19 4666 
L 3928 4666 
L 3928 4134 
L 2272 4134 
L 2272 0 
L 1638 0 
L 1638 4134 
L -19 4134 
L -19 4666 
z
" transform="scale(0.015625)"/>
       <path id="DejaVuSans-3d" d="M 678 2906 
L 4684 2906 
L 4684 2381 
L 678 2381 
L 678 2906 
z
M 678 1631 
L 4684 1631 
L 4684 1100 
L 678 1100 
L 678 1631 
z
" transform="scale(0.015625)"/>
       <path id="DejaVuSans-33" d="M 2597 2516 
Q 3050 2419 3304 2112 
Q 3559 1806 3559 1356 
Q 3559 666 3084 287 
Q 2609 -91 1734 -91 
Q 1441 -91 1130 -33 
Q 819 25 488 141 
L 488 750 
Q 750 597 1062 519 
Q 1375 441 1716 441 
Q 2309 441 2620 675 
Q 2931 909 2931 1356 
Q 2931 1769 2642 2001 
Q 2353 2234 1838 2234 
L 1294 2234 
L 1294 2753 
L 1863 2753 
Q 2328 2753 2575 2939 
Q 2822 3125 2822 3475 
Q 2822 3834 2567 4026 
Q 2313 4219 1838 4219 
Q 1578 4219 1281 4162 
Q 984 4106 628 3988 
L 628 4550 
Q 988 4650 1302 4700 
Q 1616 4750 1894 4750 
Q 2613 4750 3031 4423 
Q 3450 4097 3450 3541 
Q 3450 3153 3228 2886 
Q 3006 2619 2597 2516 
z
" transform="scale(0.015625)"/>
      </defs>
      <use xlink:href="#DejaVuSans-54"/>
      <use xlink:href="#DejaVuSans-20" transform="translate(61.083984 0)"/>
      <use xlink:href="#DejaVuSans-3d" transform="translate(92.871094 0)"/>
      <use xlink:href="#DejaVuSans-20" transform="translate(176.660156 0)"/>
      <use xlink:href="#DejaVuSans-33" transform="translate(208.447266 0)"/>
      <use xlink:href="#DejaVuSans-30" transform="translate(272.070312 0)"/>
      <use xlink:href="#DejaVuSans-30" transform="translate(335.693359 0)"/>
      <use xlink:href="#DejaVuSans-20" transform="translate(399.316406 0)"/>
      <use xlink:href="#DejaVuSans-4b" transform="translate(431.103516 0)"/>
     </g>
    </g>
    <g id="line2d_38">
     <path d="M 465.762969 267.292406 
L 476.762969 267.292406 
L 487.762969 267.292406 
" style="fill: none; stroke: #2ca02c; stroke-width: 2; stroke-linecap: square"/>
    </g>
    <g id="text_21">
     <!-- T = 325 K -->
     <g transform="translate(496.562969 271.142406) scale(0.11 -0.11)">
      <use xlink:href="#DejaVuSans-54"/>
      <use xlink:href="#DejaVuSans-20" transform="translate(61.083984 0)"/>
      <use xlink:href="#DejaVuSans-3d" transform="translate(92.871094 0)"/>
      <use xlink:href="#DejaVuSans-20" transform="translate(176.660156 0)"/>
      <use xlink:href="#DejaVuSans-33" transform="translate(208.447266 0)"/>
      <use xlink:href="#DejaVuSans-32" transform="translate(272.070312 0)"/>
      <use xlink:href="#DejaVuSans-35" transform="translate(335.693359 0)"/>
      <use xlink:href="#DejaVuSans-20" transform="translate(399.316406 0)"/>
      <use xlink:href="#DejaVuSans-4b" transform="translate(431.103516 0)"/>
     </g>
    </g>
    <g id="line2d_39">
     <path d="M 465.762969 283.438344 
L 476.762969 283.438344 
L 487.762969 283.438344 
" style="fill: none; stroke: #ff7f0e; stroke-width: 2; stroke-linecap: square"/>
    </g>
    <g id="text_22">
     <!-- T = 350 K -->
     <g transform="translate(496.562969 287.288344) scale(0.11 -0.11)">
      <use xlink:href="#DejaVuSans-54"/>
      <use xlink:href="#DejaVuSans-20" transform="translate(61.083984 0)"/>
      <use xlink:href="#DejaVuSans-3d" transform="translate(92.871094 0)"/>
      <use xlink:href="#DejaVuSans-20" transform="translate(176.660156 0)"/>
      <use xlink:href="#DejaVuSans-33" transform="translate(208.447266 0)"/>
      <use xlink:href="#DejaVuSans-35" transform="translate(272.070312 0)"/>
      <use xlink:href="#DejaVuSans-30" transform="translate(335.693359 0)"/>
      <use xlink:href="#DejaVuSans-20" transform="translate(399.316406 0)"/>
      <use xlink:href="#DejaVuSans-4b" transform="translate(431.103516 0)"/>
     </g>
    </g>
    <g id="line2d_40">
     <path d="M 465.762969 299.584281 
L 476.762969 299.584281 
L 487.762969 299.584281 
" style="fill: none; stroke: #d62728; stroke-width: 2; stroke-linecap: square"/>
    </g>
    <g id="text_23">
     <!-- T = 400 K -->
     <g transform="translate(496.562969 303.434281) scale(0.11 -0.11)">
      <use xlink:href="#DejaVuSans-54"/>
      <use xlink:href="#DejaVuSans-20" transform="translate(61.083984 0)"/>
      <use xlink:href="#DejaVuSans-3d" transform="translate(92.871094 0)"/>
      <use xlink:href="#DejaVuSans-20" transform="translate(176.660156 0)"/>
      <use xlink:href="#DejaVuSans-34" transform="translate(208.447266 0)"/>
      <use xlink:href="#DejaVuSans-30" transform="translate(272.070312 0)"/>
      <use xlink:href="#DejaVuSans-30" transform="translate(335.693359 0)"/>
      <use xlink:href="#DejaVuSans-20" transform="translate(399.316406 0)"/>
      <use xlink:href="#DejaVuSans-4b" transform="translate(431.103516 0)"/>
     </g>
    </g>
   </g>
  </g>
 </g>
 <defs>
  <clipPath id="pff93bac947">
   <rect x="58.896875" y="21.789938" width="502.2" height="293.832"/>
  </clipPath>
 </defs>
</svg>
